<?xml version="1.0" encoding="UTF-8"?>
<svg xmlns="http://www.w3.org/2000/svg" xmlns:xlink="http://www.w3.org/1999/xlink" width="576pt" height="288pt" viewBox="0 0 576 288">
<defs>
<g>
<g id="glyph-0-0">
<path d="M 0.5 -4.234375 C 0.5 -5.253906 0.601562 -6.070312 0.8125 -6.6875 C 1.019531 -7.3125 1.328125 -7.789062 1.734375 -8.125 C 2.148438 -8.457031 2.671875 -8.625 3.296875 -8.625 C 3.753906 -8.625 4.15625 -8.53125 4.5 -8.34375 C 4.851562 -8.15625 5.144531 -7.882812 5.375 -7.53125 C 5.601562 -7.1875 5.78125 -6.765625 5.90625 -6.265625 C 6.03125 -5.765625 6.09375 -5.085938 6.09375 -4.234375 C 6.09375 -3.222656 5.988281 -2.410156 5.78125 -1.796875 C 5.582031 -1.179688 5.273438 -0.703125 4.859375 -0.359375 C 4.453125 -0.0234375 3.929688 0.140625 3.296875 0.140625 C 2.472656 0.140625 1.820312 -0.15625 1.34375 -0.75 C 0.78125 -1.457031 0.5 -2.617188 0.5 -4.234375 Z M 1.578125 -4.234375 C 1.578125 -2.828125 1.742188 -1.890625 2.078125 -1.421875 C 2.410156 -0.953125 2.816406 -0.71875 3.296875 -0.71875 C 3.785156 -0.71875 4.191406 -0.953125 4.515625 -1.421875 C 4.847656 -1.890625 5.015625 -2.828125 5.015625 -4.234375 C 5.015625 -5.648438 4.847656 -6.585938 4.515625 -7.046875 C 4.191406 -7.515625 3.78125 -7.75 3.28125 -7.75 C 2.800781 -7.75 2.414062 -7.546875 2.125 -7.140625 C 1.757812 -6.617188 1.578125 -5.648438 1.578125 -4.234375 Z M 1.578125 -4.234375 "/>
</g>
<g id="glyph-0-1">
<path d="M 1.09375 0 L 1.09375 -1.203125 L 2.296875 -1.203125 L 2.296875 0 Z M 1.09375 0 "/>
</g>
<g id="glyph-0-2">
<path d="M 6.046875 -1.015625 L 6.046875 0 L 0.359375 0 C 0.359375 -0.25 0.398438 -0.492188 0.484375 -0.734375 C 0.628906 -1.117188 0.859375 -1.5 1.171875 -1.875 C 1.492188 -2.25 1.957031 -2.679688 2.5625 -3.171875 C 3.5 -3.941406 4.128906 -4.550781 4.453125 -5 C 4.785156 -5.445312 4.953125 -5.867188 4.953125 -6.265625 C 4.953125 -6.679688 4.800781 -7.03125 4.5 -7.3125 C 4.195312 -7.601562 3.804688 -7.75 3.328125 -7.75 C 2.816406 -7.75 2.410156 -7.597656 2.109375 -7.296875 C 1.804688 -6.992188 1.648438 -6.570312 1.640625 -6.03125 L 0.5625 -6.140625 C 0.632812 -6.953125 0.910156 -7.566406 1.390625 -7.984375 C 1.878906 -8.410156 2.535156 -8.625 3.359375 -8.625 C 4.179688 -8.625 4.832031 -8.394531 5.3125 -7.9375 C 5.789062 -7.476562 6.03125 -6.910156 6.03125 -6.234375 C 6.03125 -5.890625 5.957031 -5.550781 5.8125 -5.21875 C 5.675781 -4.894531 5.441406 -4.546875 5.109375 -4.171875 C 4.785156 -3.804688 4.25 -3.304688 3.5 -2.671875 C 2.863281 -2.140625 2.453125 -1.773438 2.265625 -1.578125 C 2.085938 -1.390625 1.941406 -1.203125 1.828125 -1.015625 Z M 6.046875 -1.015625 "/>
</g>
<g id="glyph-0-3">
<path d="M 3.875 0 L 3.875 -2.0625 L 0.15625 -2.0625 L 0.15625 -3.03125 L 4.078125 -8.59375 L 4.9375 -8.59375 L 4.9375 -3.03125 L 6.09375 -3.03125 L 6.09375 -2.0625 L 4.9375 -2.0625 L 4.9375 0 Z M 3.875 -3.03125 L 3.875 -6.890625 L 1.1875 -3.03125 Z M 3.875 -3.03125 "/>
</g>
<g id="glyph-0-4">
<path d="M 5.96875 -6.484375 L 4.921875 -6.40625 C 4.828125 -6.820312 4.695312 -7.125 4.53125 -7.3125 C 4.238281 -7.613281 3.882812 -7.765625 3.46875 -7.765625 C 3.132812 -7.765625 2.835938 -7.671875 2.578125 -7.484375 C 2.253906 -7.234375 1.992188 -6.875 1.796875 -6.40625 C 1.609375 -5.945312 1.507812 -5.289062 1.5 -4.4375 C 1.75 -4.820312 2.054688 -5.109375 2.421875 -5.296875 C 2.796875 -5.484375 3.1875 -5.578125 3.59375 -5.578125 C 4.289062 -5.578125 4.882812 -5.316406 5.375 -4.796875 C 5.875 -4.273438 6.125 -3.609375 6.125 -2.796875 C 6.125 -2.253906 6.003906 -1.75 5.765625 -1.28125 C 5.535156 -0.820312 5.21875 -0.46875 4.8125 -0.21875 C 4.40625 0.0195312 3.945312 0.140625 3.4375 0.140625 C 2.550781 0.140625 1.832031 -0.179688 1.28125 -0.828125 C 0.726562 -1.472656 0.453125 -2.535156 0.453125 -4.015625 C 0.453125 -5.679688 0.757812 -6.890625 1.375 -7.640625 C 1.90625 -8.296875 2.625 -8.625 3.53125 -8.625 C 4.207031 -8.625 4.757812 -8.429688 5.1875 -8.046875 C 5.625 -7.671875 5.882812 -7.148438 5.96875 -6.484375 Z M 1.671875 -2.78125 C 1.671875 -2.414062 1.742188 -2.066406 1.890625 -1.734375 C 2.046875 -1.410156 2.257812 -1.160156 2.53125 -0.984375 C 2.8125 -0.804688 3.109375 -0.71875 3.421875 -0.71875 C 3.859375 -0.71875 4.238281 -0.894531 4.5625 -1.25 C 4.882812 -1.613281 5.046875 -2.101562 5.046875 -2.71875 C 5.046875 -3.3125 4.882812 -3.78125 4.5625 -4.125 C 4.25 -4.46875 3.851562 -4.640625 3.375 -4.640625 C 2.894531 -4.640625 2.488281 -4.46875 2.15625 -4.125 C 1.832031 -3.78125 1.671875 -3.332031 1.671875 -2.78125 Z M 1.671875 -2.78125 "/>
</g>
<g id="glyph-0-5">
<path d="M 2.125 -4.65625 C 1.6875 -4.820312 1.359375 -5.050781 1.140625 -5.34375 C 0.929688 -5.644531 0.828125 -6 0.828125 -6.40625 C 0.828125 -7.03125 1.050781 -7.554688 1.5 -7.984375 C 1.957031 -8.410156 2.554688 -8.625 3.296875 -8.625 C 4.046875 -8.625 4.648438 -8.40625 5.109375 -7.96875 C 5.566406 -7.53125 5.796875 -7 5.796875 -6.375 C 5.796875 -5.976562 5.691406 -5.632812 5.484375 -5.34375 C 5.273438 -5.050781 4.957031 -4.820312 4.53125 -4.65625 C 5.0625 -4.488281 5.460938 -4.210938 5.734375 -3.828125 C 6.003906 -3.441406 6.140625 -2.984375 6.140625 -2.453125 C 6.140625 -1.722656 5.878906 -1.109375 5.359375 -0.609375 C 4.847656 -0.109375 4.164062 0.140625 3.3125 0.140625 C 2.46875 0.140625 1.785156 -0.109375 1.265625 -0.609375 C 0.742188 -1.109375 0.484375 -1.734375 0.484375 -2.484375 C 0.484375 -3.046875 0.625 -3.515625 0.90625 -3.890625 C 1.195312 -4.265625 1.601562 -4.519531 2.125 -4.65625 Z M 1.90625 -6.453125 C 1.90625 -6.046875 2.035156 -5.710938 2.296875 -5.453125 C 2.566406 -5.191406 2.910156 -5.0625 3.328125 -5.0625 C 3.734375 -5.0625 4.066406 -5.1875 4.328125 -5.4375 C 4.585938 -5.695312 4.71875 -6.015625 4.71875 -6.390625 C 4.71875 -6.773438 4.582031 -7.097656 4.3125 -7.359375 C 4.039062 -7.628906 3.707031 -7.765625 3.3125 -7.765625 C 2.90625 -7.765625 2.566406 -7.632812 2.296875 -7.375 C 2.035156 -7.113281 1.90625 -6.804688 1.90625 -6.453125 Z M 1.578125 -2.484375 C 1.578125 -2.179688 1.644531 -1.890625 1.78125 -1.609375 C 1.925781 -1.328125 2.140625 -1.109375 2.421875 -0.953125 C 2.703125 -0.796875 3.003906 -0.71875 3.328125 -0.71875 C 3.828125 -0.71875 4.238281 -0.878906 4.5625 -1.203125 C 4.894531 -1.523438 5.0625 -1.9375 5.0625 -2.4375 C 5.0625 -2.945312 4.894531 -3.367188 4.5625 -3.703125 C 4.226562 -4.035156 3.804688 -4.203125 3.296875 -4.203125 C 2.796875 -4.203125 2.382812 -4.035156 2.0625 -3.703125 C 1.738281 -3.378906 1.578125 -2.972656 1.578125 -2.484375 Z M 1.578125 -2.484375 "/>
</g>
<g id="glyph-0-6">
<path d="M 4.46875 0 L 3.421875 0 L 3.421875 -6.71875 C 3.160156 -6.476562 2.820312 -6.234375 2.40625 -5.984375 C 2 -5.742188 1.632812 -5.566406 1.3125 -5.453125 L 1.3125 -6.46875 C 1.894531 -6.75 2.40625 -7.082031 2.84375 -7.46875 C 3.289062 -7.863281 3.609375 -8.25 3.796875 -8.625 L 4.46875 -8.625 Z M 4.46875 0 "/>
</g>
<g id="glyph-0-7">
<path d="M 0.09375 0 L 2.359375 -3.234375 L 0.265625 -6.21875 L 1.578125 -6.21875 L 2.53125 -4.765625 C 2.707031 -4.484375 2.851562 -4.25 2.96875 -4.0625 C 3.132812 -4.320312 3.289062 -4.550781 3.4375 -4.75 L 4.484375 -6.21875 L 5.75 -6.21875 L 3.59375 -3.296875 L 5.90625 0 L 4.625 0 L 3.34375 -1.9375 L 3 -2.453125 L 1.359375 0 Z M 0.09375 0 "/>
</g>
<g id="glyph-1-0">
<path d="M -4.234375 -0.5 C -5.253906 -0.5 -6.070312 -0.601562 -6.6875 -0.8125 C -7.3125 -1.019531 -7.789062 -1.328125 -8.125 -1.734375 C -8.457031 -2.148438 -8.625 -2.671875 -8.625 -3.296875 C -8.625 -3.753906 -8.53125 -4.15625 -8.34375 -4.5 C -8.15625 -4.851562 -7.882812 -5.144531 -7.53125 -5.375 C -7.1875 -5.601562 -6.765625 -5.78125 -6.265625 -5.90625 C -5.765625 -6.03125 -5.085938 -6.09375 -4.234375 -6.09375 C -3.222656 -6.09375 -2.410156 -5.988281 -1.796875 -5.78125 C -1.179688 -5.582031 -0.703125 -5.273438 -0.359375 -4.859375 C -0.0234375 -4.453125 0.140625 -3.929688 0.140625 -3.296875 C 0.140625 -2.472656 -0.15625 -1.820312 -0.75 -1.34375 C -1.457031 -0.78125 -2.617188 -0.5 -4.234375 -0.5 Z M -4.234375 -1.578125 C -2.828125 -1.578125 -1.890625 -1.742188 -1.421875 -2.078125 C -0.953125 -2.410156 -0.71875 -2.816406 -0.71875 -3.296875 C -0.71875 -3.785156 -0.953125 -4.191406 -1.421875 -4.515625 C -1.890625 -4.847656 -2.828125 -5.015625 -4.234375 -5.015625 C -5.648438 -5.015625 -6.585938 -4.847656 -7.046875 -4.515625 C -7.515625 -4.191406 -7.75 -3.78125 -7.75 -3.28125 C -7.75 -2.800781 -7.546875 -2.414062 -7.140625 -2.125 C -6.617188 -1.757812 -5.648438 -1.578125 -4.234375 -1.578125 Z M -4.234375 -1.578125 "/>
</g>
<g id="glyph-1-1">
<path d="M 0 -1.09375 L -1.203125 -1.09375 L -1.203125 -2.296875 L 0 -2.296875 Z M 0 -1.09375 "/>
</g>
<g id="glyph-1-2">
<path d="M -1.015625 -6.046875 L 0 -6.046875 L 0 -0.359375 C -0.25 -0.359375 -0.492188 -0.398438 -0.734375 -0.484375 C -1.117188 -0.628906 -1.5 -0.859375 -1.875 -1.171875 C -2.25 -1.492188 -2.679688 -1.957031 -3.171875 -2.5625 C -3.941406 -3.5 -4.550781 -4.128906 -5 -4.453125 C -5.445312 -4.785156 -5.867188 -4.953125 -6.265625 -4.953125 C -6.679688 -4.953125 -7.03125 -4.800781 -7.3125 -4.5 C -7.601562 -4.195312 -7.75 -3.804688 -7.75 -3.328125 C -7.75 -2.816406 -7.597656 -2.410156 -7.296875 -2.109375 C -6.992188 -1.804688 -6.570312 -1.648438 -6.03125 -1.640625 L -6.140625 -0.5625 C -6.953125 -0.632812 -7.566406 -0.910156 -7.984375 -1.390625 C -8.410156 -1.878906 -8.625 -2.535156 -8.625 -3.359375 C -8.625 -4.179688 -8.394531 -4.832031 -7.9375 -5.3125 C -7.476562 -5.789062 -6.910156 -6.03125 -6.234375 -6.03125 C -5.890625 -6.03125 -5.550781 -5.957031 -5.21875 -5.8125 C -4.894531 -5.675781 -4.546875 -5.441406 -4.171875 -5.109375 C -3.804688 -4.785156 -3.304688 -4.25 -2.671875 -3.5 C -2.140625 -2.863281 -1.773438 -2.453125 -1.578125 -2.265625 C -1.390625 -2.085938 -1.203125 -1.941406 -1.015625 -1.828125 Z M -1.015625 -6.046875 "/>
</g>
<g id="glyph-1-3">
<path d="M 0 -3.875 L -2.0625 -3.875 L -2.0625 -0.15625 L -3.03125 -0.15625 L -8.59375 -4.078125 L -8.59375 -4.9375 L -3.03125 -4.9375 L -3.03125 -6.09375 L -2.0625 -6.09375 L -2.0625 -4.9375 L 0 -4.9375 Z M -3.03125 -3.875 L -6.890625 -3.875 L -3.03125 -1.1875 Z M -3.03125 -3.875 "/>
</g>
<g id="glyph-1-4">
<path d="M -6.484375 -5.96875 L -6.40625 -4.921875 C -6.820312 -4.828125 -7.125 -4.695312 -7.3125 -4.53125 C -7.613281 -4.238281 -7.765625 -3.882812 -7.765625 -3.46875 C -7.765625 -3.132812 -7.671875 -2.835938 -7.484375 -2.578125 C -7.234375 -2.253906 -6.875 -1.992188 -6.40625 -1.796875 C -5.945312 -1.609375 -5.289062 -1.507812 -4.4375 -1.5 C -4.820312 -1.75 -5.109375 -2.054688 -5.296875 -2.421875 C -5.484375 -2.796875 -5.578125 -3.1875 -5.578125 -3.59375 C -5.578125 -4.289062 -5.316406 -4.882812 -4.796875 -5.375 C -4.273438 -5.875 -3.609375 -6.125 -2.796875 -6.125 C -2.253906 -6.125 -1.75 -6.003906 -1.28125 -5.765625 C -0.820312 -5.535156 -0.46875 -5.21875 -0.21875 -4.8125 C 0.0195312 -4.40625 0.140625 -3.945312 0.140625 -3.4375 C 0.140625 -2.550781 -0.179688 -1.832031 -0.828125 -1.28125 C -1.472656 -0.726562 -2.535156 -0.453125 -4.015625 -0.453125 C -5.679688 -0.453125 -6.890625 -0.757812 -7.640625 -1.375 C -8.296875 -1.90625 -8.625 -2.625 -8.625 -3.53125 C -8.625 -4.207031 -8.429688 -4.757812 -8.046875 -5.1875 C -7.671875 -5.625 -7.148438 -5.882812 -6.484375 -5.96875 Z M -2.78125 -1.671875 C -2.414062 -1.671875 -2.066406 -1.742188 -1.734375 -1.890625 C -1.410156 -2.046875 -1.160156 -2.257812 -0.984375 -2.53125 C -0.804688 -2.8125 -0.71875 -3.109375 -0.71875 -3.421875 C -0.71875 -3.859375 -0.894531 -4.238281 -1.25 -4.5625 C -1.613281 -4.882812 -2.101562 -5.046875 -2.71875 -5.046875 C -3.3125 -5.046875 -3.78125 -4.882812 -4.125 -4.5625 C -4.46875 -4.25 -4.640625 -3.851562 -4.640625 -3.375 C -4.640625 -2.894531 -4.46875 -2.488281 -4.125 -2.15625 C -3.78125 -1.832031 -3.332031 -1.671875 -2.78125 -1.671875 Z M -2.78125 -1.671875 "/>
</g>
<g id="glyph-1-5">
<path d="M -4.65625 -2.125 C -4.820312 -1.6875 -5.050781 -1.359375 -5.34375 -1.140625 C -5.644531 -0.929688 -6 -0.828125 -6.40625 -0.828125 C -7.03125 -0.828125 -7.554688 -1.050781 -7.984375 -1.5 C -8.410156 -1.957031 -8.625 -2.554688 -8.625 -3.296875 C -8.625 -4.046875 -8.40625 -4.648438 -7.96875 -5.109375 C -7.53125 -5.566406 -7 -5.796875 -6.375 -5.796875 C -5.976562 -5.796875 -5.632812 -5.691406 -5.34375 -5.484375 C -5.050781 -5.273438 -4.820312 -4.957031 -4.65625 -4.53125 C -4.488281 -5.0625 -4.210938 -5.460938 -3.828125 -5.734375 C -3.441406 -6.003906 -2.984375 -6.140625 -2.453125 -6.140625 C -1.722656 -6.140625 -1.109375 -5.878906 -0.609375 -5.359375 C -0.109375 -4.847656 0.140625 -4.164062 0.140625 -3.3125 C 0.140625 -2.46875 -0.109375 -1.785156 -0.609375 -1.265625 C -1.109375 -0.742188 -1.734375 -0.484375 -2.484375 -0.484375 C -3.046875 -0.484375 -3.515625 -0.625 -3.890625 -0.90625 C -4.265625 -1.195312 -4.519531 -1.601562 -4.65625 -2.125 Z M -6.453125 -1.90625 C -6.046875 -1.90625 -5.710938 -2.035156 -5.453125 -2.296875 C -5.191406 -2.566406 -5.0625 -2.910156 -5.0625 -3.328125 C -5.0625 -3.734375 -5.1875 -4.066406 -5.4375 -4.328125 C -5.695312 -4.585938 -6.015625 -4.71875 -6.390625 -4.71875 C -6.773438 -4.71875 -7.097656 -4.582031 -7.359375 -4.3125 C -7.628906 -4.039062 -7.765625 -3.707031 -7.765625 -3.3125 C -7.765625 -2.90625 -7.632812 -2.566406 -7.375 -2.296875 C -7.113281 -2.035156 -6.804688 -1.90625 -6.453125 -1.90625 Z M -2.484375 -1.578125 C -2.179688 -1.578125 -1.890625 -1.644531 -1.609375 -1.78125 C -1.328125 -1.925781 -1.109375 -2.140625 -0.953125 -2.421875 C -0.796875 -2.703125 -0.71875 -3.003906 -0.71875 -3.328125 C -0.71875 -3.828125 -0.878906 -4.238281 -1.203125 -4.5625 C -1.523438 -4.894531 -1.9375 -5.0625 -2.4375 -5.0625 C -2.945312 -5.0625 -3.367188 -4.894531 -3.703125 -4.5625 C -4.035156 -4.226562 -4.203125 -3.804688 -4.203125 -3.296875 C -4.203125 -2.796875 -4.035156 -2.382812 -3.703125 -2.0625 C -3.378906 -1.738281 -2.972656 -1.578125 -2.484375 -1.578125 Z M -2.484375 -1.578125 "/>
</g>
<g id="glyph-1-6">
<path d="M 0 -4.46875 L 0 -3.421875 L -6.71875 -3.421875 C -6.476562 -3.160156 -6.234375 -2.820312 -5.984375 -2.40625 C -5.742188 -2 -5.566406 -1.632812 -5.453125 -1.3125 L -6.46875 -1.3125 C -6.75 -1.894531 -7.082031 -2.40625 -7.46875 -2.84375 C -7.863281 -3.289062 -8.25 -3.609375 -8.625 -3.796875 L -8.625 -4.46875 Z M 0 -4.46875 "/>
</g>
<g id="glyph-1-7">
<path d="M 0 -0.09375 L -3.234375 -2.359375 L -6.21875 -0.265625 L -6.21875 -1.578125 L -4.765625 -2.53125 C -4.484375 -2.707031 -4.25 -2.851562 -4.0625 -2.96875 C -4.320312 -3.132812 -4.550781 -3.289062 -4.75 -3.4375 L -6.21875 -4.484375 L -6.21875 -5.75 L -3.296875 -3.59375 L 0 -5.90625 L 0 -4.625 L -1.9375 -3.34375 L -2.453125 -3 L 0 -1.359375 Z M 0 -0.09375 "/>
</g>
<g id="glyph-2-0">
<path d="M 0.984375 0 L 0.984375 -10.015625 L 4.015625 -10.015625 L 5.84375 -3.1875 L 7.640625 -10.015625 L 10.671875 -10.015625 L 10.671875 0 L 8.796875 0 L 8.796875 -7.890625 L 6.796875 0 L 4.859375 0 L 2.875 -7.890625 L 2.875 0 Z M 0.984375 0 "/>
</g>
<g id="glyph-2-1">
<path d="M 2.4375 -5.046875 L 0.703125 -5.359375 C 0.890625 -6.054688 1.222656 -6.570312 1.703125 -6.90625 C 2.179688 -7.25 2.894531 -7.421875 3.84375 -7.421875 C 4.695312 -7.421875 5.332031 -7.316406 5.75 -7.109375 C 6.175781 -6.910156 6.472656 -6.65625 6.640625 -6.34375 C 6.804688 -6.03125 6.890625 -5.457031 6.890625 -4.625 L 6.875 -2.390625 C 6.875 -1.742188 6.90625 -1.269531 6.96875 -0.96875 C 7.03125 -0.664062 7.144531 -0.34375 7.3125 0 L 5.421875 0 C 5.367188 -0.125 5.304688 -0.3125 5.234375 -0.5625 C 5.203125 -0.675781 5.175781 -0.753906 5.15625 -0.796875 C 4.832031 -0.472656 4.484375 -0.226562 4.109375 -0.0625 C 3.734375 0.09375 3.332031 0.171875 2.90625 0.171875 C 2.164062 0.171875 1.578125 -0.03125 1.140625 -0.4375 C 0.710938 -0.84375 0.5 -1.359375 0.5 -1.984375 C 0.5 -2.390625 0.597656 -2.753906 0.796875 -3.078125 C 0.992188 -3.398438 1.265625 -3.644531 1.609375 -3.8125 C 1.960938 -3.988281 2.472656 -4.140625 3.140625 -4.265625 C 4.035156 -4.429688 4.660156 -4.585938 5.015625 -4.734375 L 5.015625 -4.921875 C 5.015625 -5.296875 4.921875 -5.5625 4.734375 -5.71875 C 4.554688 -5.875 4.210938 -5.953125 3.703125 -5.953125 C 3.359375 -5.953125 3.09375 -5.882812 2.90625 -5.75 C 2.71875 -5.613281 2.5625 -5.378906 2.4375 -5.046875 Z M 5.015625 -3.484375 C 4.765625 -3.398438 4.375 -3.300781 3.84375 -3.1875 C 3.3125 -3.070312 2.960938 -2.960938 2.796875 -2.859375 C 2.546875 -2.679688 2.421875 -2.457031 2.421875 -2.1875 C 2.421875 -1.914062 2.519531 -1.679688 2.71875 -1.484375 C 2.914062 -1.285156 3.171875 -1.1875 3.484375 -1.1875 C 3.828125 -1.1875 4.160156 -1.300781 4.484375 -1.53125 C 4.710938 -1.707031 4.863281 -1.921875 4.9375 -2.171875 C 4.988281 -2.328125 5.015625 -2.640625 5.015625 -3.109375 Z M 5.015625 -3.484375 "/>
</g>
<g id="glyph-2-2">
<path d="M 0.078125 0 L 2.703125 -3.734375 L 0.1875 -7.265625 L 2.53125 -7.265625 L 3.828125 -5.265625 L 5.171875 -7.265625 L 7.4375 -7.265625 L 4.96875 -3.828125 L 7.65625 0 L 5.296875 0 L 3.828125 -2.25 L 2.328125 0 Z M 0.078125 0 "/>
</g>
<g id="glyph-2-3">
<path d="M 1.015625 0 L 1.015625 -10.015625 L 4.265625 -10.015625 C 5.492188 -10.015625 6.296875 -9.96875 6.671875 -9.875 C 7.242188 -9.71875 7.722656 -9.390625 8.109375 -8.890625 C 8.503906 -8.390625 8.703125 -7.738281 8.703125 -6.9375 C 8.703125 -6.320312 8.585938 -5.804688 8.359375 -5.390625 C 8.140625 -4.972656 7.859375 -4.644531 7.515625 -4.40625 C 7.171875 -4.164062 6.816406 -4.003906 6.453125 -3.921875 C 5.972656 -3.828125 5.273438 -3.78125 4.359375 -3.78125 L 3.046875 -3.78125 L 3.046875 0 Z M 3.046875 -8.328125 L 3.046875 -5.484375 L 4.15625 -5.484375 C 4.945312 -5.484375 5.476562 -5.535156 5.75 -5.640625 C 6.019531 -5.742188 6.226562 -5.90625 6.375 -6.125 C 6.53125 -6.351562 6.609375 -6.613281 6.609375 -6.90625 C 6.609375 -7.269531 6.5 -7.570312 6.28125 -7.8125 C 6.070312 -8.050781 5.800781 -8.203125 5.46875 -8.265625 C 5.226562 -8.304688 4.742188 -8.328125 4.015625 -8.328125 Z M 3.046875 -8.328125 "/>
</g>
<g id="glyph-2-4">
<path d="M 2.84375 0 L 0.921875 0 L 0.921875 -7.265625 L 2.703125 -7.265625 L 2.703125 -6.234375 C 3.015625 -6.710938 3.289062 -7.03125 3.53125 -7.1875 C 3.769531 -7.34375 4.046875 -7.421875 4.359375 -7.421875 C 4.796875 -7.421875 5.21875 -7.300781 5.625 -7.0625 L 5.03125 -5.390625 C 4.707031 -5.597656 4.40625 -5.703125 4.125 -5.703125 C 3.851562 -5.703125 3.625 -5.625 3.4375 -5.46875 C 3.257812 -5.320312 3.113281 -5.054688 3 -4.671875 C 2.894531 -4.285156 2.84375 -3.476562 2.84375 -2.25 Z M 2.84375 0 "/>
</g>
<g id="glyph-2-5">
<path d="M 0.5625 -3.734375 C 0.5625 -4.367188 0.71875 -4.984375 1.03125 -5.578125 C 1.34375 -6.179688 1.785156 -6.640625 2.359375 -6.953125 C 2.941406 -7.265625 3.585938 -7.421875 4.296875 -7.421875 C 5.398438 -7.421875 6.300781 -7.0625 7 -6.34375 C 7.695312 -5.632812 8.046875 -4.738281 8.046875 -3.65625 C 8.046875 -2.550781 7.691406 -1.632812 6.984375 -0.90625 C 6.273438 -0.1875 5.382812 0.171875 4.3125 0.171875 C 3.644531 0.171875 3.007812 0.0195312 2.40625 -0.28125 C 1.800781 -0.582031 1.34375 -1.023438 1.03125 -1.609375 C 0.71875 -2.191406 0.5625 -2.898438 0.5625 -3.734375 Z M 2.53125 -3.625 C 2.53125 -2.90625 2.703125 -2.351562 3.046875 -1.96875 C 3.390625 -1.59375 3.8125 -1.40625 4.3125 -1.40625 C 4.8125 -1.40625 5.226562 -1.59375 5.5625 -1.96875 C 5.90625 -2.351562 6.078125 -2.910156 6.078125 -3.640625 C 6.078125 -4.347656 5.90625 -4.894531 5.5625 -5.28125 C 5.226562 -5.664062 4.8125 -5.859375 4.3125 -5.859375 C 3.8125 -5.859375 3.390625 -5.664062 3.046875 -5.28125 C 2.703125 -4.894531 2.53125 -4.34375 2.53125 -3.625 Z M 2.53125 -3.625 "/>
</g>
<g id="glyph-2-6">
<path d="M 4.1875 2.953125 L 2.875 2.953125 C 2.175781 1.898438 1.644531 0.804688 1.28125 -0.328125 C 0.914062 -1.460938 0.734375 -2.5625 0.734375 -3.625 C 0.734375 -4.945312 0.957031 -6.195312 1.40625 -7.375 C 1.800781 -8.394531 2.300781 -9.332031 2.90625 -10.1875 L 4.21875 -10.1875 C 3.59375 -8.8125 3.160156 -7.640625 2.921875 -6.671875 C 2.691406 -5.703125 2.578125 -4.675781 2.578125 -3.59375 C 2.578125 -2.84375 2.644531 -2.070312 2.78125 -1.28125 C 2.914062 -0.5 3.101562 0.238281 3.34375 0.9375 C 3.507812 1.40625 3.789062 2.078125 4.1875 2.953125 Z M 4.1875 2.953125 "/>
</g>
<g id="glyph-2-7">
<path d="M 0.59375 -8.09375 L 0.59375 -9.890625 L 7.171875 -9.890625 L 7.171875 -8.484375 C 6.617188 -7.953125 6.0625 -7.1875 5.5 -6.1875 C 4.945312 -5.195312 4.519531 -4.140625 4.21875 -3.015625 C 3.925781 -1.890625 3.785156 -0.882812 3.796875 0 L 1.9375 0 C 1.96875 -1.382812 2.253906 -2.796875 2.796875 -4.234375 C 3.335938 -5.679688 4.0625 -6.96875 4.96875 -8.09375 Z M 0.59375 -8.09375 "/>
</g>
<g id="glyph-2-8">
<path d="M 0.953125 -1.921875 L 2.875 -1.921875 L 2.875 -0.546875 C 2.875 0.00390625 2.828125 0.441406 2.734375 0.765625 C 2.640625 1.085938 2.457031 1.375 2.1875 1.625 C 1.925781 1.882812 1.585938 2.085938 1.171875 2.234375 L 0.796875 1.4375 C 1.179688 1.3125 1.457031 1.132812 1.625 0.90625 C 1.789062 0.6875 1.878906 0.382812 1.890625 0 L 0.953125 0 Z M 0.953125 -1.921875 "/>
</g>
<g id="glyph-2-9">
<path d="M 7.078125 -1.78125 L 7.078125 0 L 0.34375 0 C 0.414062 -0.675781 0.632812 -1.316406 1 -1.921875 C 1.363281 -2.523438 2.085938 -3.328125 3.171875 -4.328125 C 4.035156 -5.128906 4.566406 -5.675781 4.765625 -5.96875 C 5.023438 -6.363281 5.15625 -6.753906 5.15625 -7.140625 C 5.15625 -7.566406 5.039062 -7.894531 4.8125 -8.125 C 4.582031 -8.351562 4.265625 -8.46875 3.859375 -8.46875 C 3.453125 -8.46875 3.128906 -8.347656 2.890625 -8.109375 C 2.660156 -7.867188 2.523438 -7.46875 2.484375 -6.90625 L 0.578125 -7.09375 C 0.691406 -8.15625 1.046875 -8.914062 1.640625 -9.375 C 2.242188 -9.832031 3 -10.0625 3.90625 -10.0625 C 4.894531 -10.0625 5.671875 -9.796875 6.234375 -9.265625 C 6.796875 -8.734375 7.078125 -8.070312 7.078125 -7.28125 C 7.078125 -6.820312 6.992188 -6.390625 6.828125 -5.984375 C 6.671875 -5.578125 6.421875 -5.148438 6.078125 -4.703125 C 5.835938 -4.410156 5.414062 -3.984375 4.8125 -3.421875 C 4.207031 -2.867188 3.820312 -2.5 3.65625 -2.3125 C 3.5 -2.132812 3.367188 -1.957031 3.265625 -1.78125 Z M 7.078125 -1.78125 "/>
</g>
<g id="glyph-2-10">
<path d="M 0.46875 2.953125 C 0.851562 2.140625 1.117188 1.515625 1.265625 1.078125 C 1.421875 0.648438 1.566406 0.15625 1.703125 -0.40625 C 1.835938 -0.976562 1.9375 -1.519531 2 -2.03125 C 2.0625 -2.539062 2.09375 -3.0625 2.09375 -3.59375 C 2.09375 -4.675781 1.972656 -5.703125 1.734375 -6.671875 C 1.503906 -7.640625 1.078125 -8.8125 0.453125 -10.1875 L 1.765625 -10.1875 C 2.453125 -9.207031 2.984375 -8.164062 3.359375 -7.0625 C 3.742188 -5.96875 3.9375 -4.859375 3.9375 -3.734375 C 3.9375 -2.773438 3.785156 -1.753906 3.484375 -0.671875 C 3.140625 0.546875 2.578125 1.753906 1.796875 2.953125 Z M 0.46875 2.953125 "/>
</g>
<g id="glyph-2-11">
<path d="M 3.84375 -10.0625 C 4.8125 -10.0625 5.570312 -9.71875 6.125 -9.03125 C 6.769531 -8.207031 7.09375 -6.84375 7.09375 -4.9375 C 7.09375 -3.039062 6.765625 -1.679688 6.109375 -0.859375 C 5.566406 -0.171875 4.8125 0.171875 3.84375 0.171875 C 2.863281 0.171875 2.078125 -0.203125 1.484375 -0.953125 C 0.890625 -1.703125 0.59375 -3.039062 0.59375 -4.96875 C 0.59375 -6.851562 0.921875 -8.207031 1.578125 -9.03125 C 2.117188 -9.71875 2.875 -10.0625 3.84375 -10.0625 Z M 3.84375 -8.46875 C 3.613281 -8.46875 3.40625 -8.394531 3.21875 -8.25 C 3.039062 -8.101562 2.898438 -7.835938 2.796875 -7.453125 C 2.660156 -6.953125 2.59375 -6.113281 2.59375 -4.9375 C 2.59375 -3.757812 2.648438 -2.953125 2.765625 -2.515625 C 2.890625 -2.078125 3.039062 -1.785156 3.21875 -1.640625 C 3.40625 -1.492188 3.613281 -1.421875 3.84375 -1.421875 C 4.070312 -1.421875 4.273438 -1.492188 4.453125 -1.640625 C 4.640625 -1.785156 4.785156 -2.050781 4.890625 -2.4375 C 5.023438 -2.925781 5.09375 -3.757812 5.09375 -4.9375 C 5.09375 -6.113281 5.03125 -6.921875 4.90625 -7.359375 C 4.789062 -7.804688 4.640625 -8.101562 4.453125 -8.25 C 4.273438 -8.394531 4.070312 -8.46875 3.84375 -8.46875 Z M 3.84375 -8.46875 "/>
</g>
<g id="glyph-3-0">
<path d="M 2.984375 0 L 2.28125 0 L 2.28125 -4.484375 C 2.113281 -4.316406 1.890625 -4.148438 1.609375 -3.984375 C 1.335938 -3.828125 1.09375 -3.710938 0.875 -3.640625 L 0.875 -4.3125 C 1.269531 -4.5 1.613281 -4.722656 1.90625 -4.984375 C 2.195312 -5.242188 2.40625 -5.5 2.53125 -5.75 L 2.984375 -5.75 Z M 2.984375 0 "/>
</g>
<g id="glyph-4-0">
<path d="M -0.671875 -4.03125 L 0 -4.03125 L 0 -0.25 C -0.164062 -0.238281 -0.328125 -0.265625 -0.484375 -0.328125 C -0.742188 -0.421875 -1 -0.570312 -1.25 -0.78125 C -1.5 -1 -1.789062 -1.304688 -2.125 -1.703125 C -2.632812 -2.328125 -3.035156 -2.75 -3.328125 -2.96875 C -3.628906 -3.1875 -3.910156 -3.296875 -4.171875 -3.296875 C -4.453125 -3.296875 -4.6875 -3.195312 -4.875 -3 C -5.070312 -2.800781 -5.171875 -2.539062 -5.171875 -2.21875 C -5.171875 -1.882812 -5.066406 -1.613281 -4.859375 -1.40625 C -4.660156 -1.207031 -4.378906 -1.101562 -4.015625 -1.09375 L -4.09375 -0.375 C -4.632812 -0.425781 -5.046875 -0.613281 -5.328125 -0.9375 C -5.609375 -1.257812 -5.75 -1.691406 -5.75 -2.234375 C -5.75 -2.785156 -5.597656 -3.21875 -5.296875 -3.53125 C -4.992188 -3.851562 -4.613281 -4.015625 -4.15625 -4.015625 C -3.925781 -4.015625 -3.703125 -3.96875 -3.484375 -3.875 C -3.265625 -3.78125 -3.03125 -3.625 -2.78125 -3.40625 C -2.539062 -3.195312 -2.207031 -2.835938 -1.78125 -2.328125 C -1.425781 -1.910156 -1.1875 -1.640625 -1.0625 -1.515625 C -0.9375 -1.398438 -0.804688 -1.300781 -0.671875 -1.21875 Z M -0.671875 -4.03125 "/>
</g>
</g>
</defs>
<path fill-rule="nonzero" fill="rgb(0%, 0%, 100%)" fill-opacity="1" d="M 83.699219 108.339844 C 83.699219 106.859375 84.921875 105.640625 86.398438 105.640625 C 87.890625 105.640625 89.101562 106.859375 89.101562 108.339844 C 89.101562 109.828125 87.890625 111.039062 86.398438 111.039062 C 84.921875 111.039062 83.699219 109.828125 83.699219 108.339844 "/>
<path fill-rule="nonzero" fill="rgb(0%, 0%, 100%)" fill-opacity="1" d="M 105.621094 186.878906 C 105.621094 185.390625 106.839844 184.179688 108.320312 184.179688 C 109.808594 184.179688 111.019531 185.390625 111.019531 186.878906 C 111.019531 188.359375 109.808594 189.578125 108.320312 189.578125 C 106.839844 189.578125 105.621094 188.359375 105.621094 186.878906 "/>
<path fill-rule="nonzero" fill="rgb(0%, 0%, 100%)" fill-opacity="1" d="M 127.238281 64.800781 C 127.238281 63.308594 128.460938 62.101562 129.941406 62.101562 C 131.429688 62.101562 132.640625 63.308594 132.640625 64.800781 C 132.640625 66.289062 131.429688 67.5 129.941406 67.5 C 128.460938 67.5 127.238281 66.289062 127.238281 64.800781 "/>
<path fill-rule="nonzero" fill="rgb(0%, 0%, 100%)" fill-opacity="1" d="M 155.699219 136.800781 C 155.699219 135.308594 156.910156 134.101562 158.398438 134.101562 C 159.890625 134.101562 161.101562 135.308594 161.101562 136.800781 C 161.101562 138.289062 159.890625 139.5 158.398438 139.5 C 156.910156 139.5 155.699219 138.289062 155.699219 136.800781 "/>
<path fill-rule="nonzero" fill="rgb(0%, 0%, 100%)" fill-opacity="1" d="M 184.160156 208.800781 C 184.160156 207.320312 185.371094 206.101562 186.859375 206.101562 C 188.339844 206.101562 189.558594 207.320312 189.558594 208.800781 C 189.558594 210.289062 188.339844 211.5 186.859375 211.5 C 185.371094 211.5 184.160156 210.289062 184.160156 208.800781 "/>
<path fill-rule="nonzero" fill="rgb(0%, 0%, 100%)" fill-opacity="1" d="M 205.78125 86.71875 C 205.78125 85.238281 206.988281 84.019531 208.480469 84.019531 C 209.960938 84.019531 211.179688 85.238281 211.179688 86.71875 C 211.179688 88.210938 209.960938 89.421875 208.480469 89.421875 C 206.988281 89.421875 205.78125 88.210938 205.78125 86.71875 "/>
<path fill-rule="nonzero" fill="rgb(0%, 0%, 100%)" fill-opacity="1" d="M 227.699219 165.261719 C 227.699219 163.769531 228.921875 162.558594 230.398438 162.558594 C 231.890625 162.558594 233.101562 163.769531 233.101562 165.261719 C 233.101562 166.738281 231.890625 167.960938 230.398438 167.960938 C 228.921875 167.960938 227.699219 166.738281 227.699219 165.261719 "/>
<path fill="none" stroke-width="0.75" stroke-linecap="round" stroke-linejoin="round" stroke="rgb(0%, 0%, 0%)" stroke-opacity="1" stroke-miterlimit="10" d="M 86.398438 73.441406 L 230.398438 73.441406 " transform="matrix(1, 0, 0, -1, 0, 288)"/>
<path fill="none" stroke-width="0.75" stroke-linecap="round" stroke-linejoin="round" stroke="rgb(0%, 0%, 0%)" stroke-opacity="1" stroke-miterlimit="10" d="M 86.398438 73.441406 L 86.398438 66.238281 " transform="matrix(1, 0, 0, -1, 0, 288)"/>
<path fill="none" stroke-width="0.75" stroke-linecap="round" stroke-linejoin="round" stroke="rgb(0%, 0%, 0%)" stroke-opacity="1" stroke-miterlimit="10" d="M 115.199219 73.441406 L 115.199219 66.238281 " transform="matrix(1, 0, 0, -1, 0, 288)"/>
<path fill="none" stroke-width="0.75" stroke-linecap="round" stroke-linejoin="round" stroke="rgb(0%, 0%, 0%)" stroke-opacity="1" stroke-miterlimit="10" d="M 144 73.441406 L 144 66.238281 " transform="matrix(1, 0, 0, -1, 0, 288)"/>
<path fill="none" stroke-width="0.75" stroke-linecap="round" stroke-linejoin="round" stroke="rgb(0%, 0%, 0%)" stroke-opacity="1" stroke-miterlimit="10" d="M 172.800781 73.441406 L 172.800781 66.238281 " transform="matrix(1, 0, 0, -1, 0, 288)"/>
<path fill="none" stroke-width="0.75" stroke-linecap="round" stroke-linejoin="round" stroke="rgb(0%, 0%, 0%)" stroke-opacity="1" stroke-miterlimit="10" d="M 201.601562 73.441406 L 201.601562 66.238281 " transform="matrix(1, 0, 0, -1, 0, 288)"/>
<path fill="none" stroke-width="0.75" stroke-linecap="round" stroke-linejoin="round" stroke="rgb(0%, 0%, 0%)" stroke-opacity="1" stroke-miterlimit="10" d="M 230.398438 73.441406 L 230.398438 66.238281 " transform="matrix(1, 0, 0, -1, 0, 288)"/>
<g fill="rgb(0%, 0%, 0%)" fill-opacity="1">
<use xlink:href="#glyph-0-0" x="78.06" y="240.48"/>
<use xlink:href="#glyph-0-1" x="84.732" y="240.48"/>
<use xlink:href="#glyph-0-0" x="88.068" y="240.48"/>
</g>
<g fill="rgb(0%, 0%, 0%)" fill-opacity="1">
<use xlink:href="#glyph-0-0" x="106.86" y="240.48"/>
<use xlink:href="#glyph-0-1" x="113.532" y="240.48"/>
<use xlink:href="#glyph-0-2" x="116.868" y="240.48"/>
</g>
<g fill="rgb(0%, 0%, 0%)" fill-opacity="1">
<use xlink:href="#glyph-0-0" x="135.66" y="240.48"/>
<use xlink:href="#glyph-0-1" x="142.332" y="240.48"/>
<use xlink:href="#glyph-0-3" x="145.668" y="240.48"/>
</g>
<g fill="rgb(0%, 0%, 0%)" fill-opacity="1">
<use xlink:href="#glyph-0-0" x="164.46" y="240.48"/>
<use xlink:href="#glyph-0-1" x="171.132" y="240.48"/>
<use xlink:href="#glyph-0-4" x="174.468" y="240.48"/>
</g>
<g fill="rgb(0%, 0%, 0%)" fill-opacity="1">
<use xlink:href="#glyph-0-0" x="193.26" y="240.48"/>
<use xlink:href="#glyph-0-1" x="199.932" y="240.48"/>
<use xlink:href="#glyph-0-5" x="203.268" y="240.48"/>
</g>
<g fill="rgb(0%, 0%, 0%)" fill-opacity="1">
<use xlink:href="#glyph-0-6" x="222.06" y="240.48"/>
<use xlink:href="#glyph-0-1" x="228.732" y="240.48"/>
<use xlink:href="#glyph-0-0" x="232.068" y="240.48"/>
</g>
<path fill="none" stroke-width="0.75" stroke-linecap="round" stroke-linejoin="round" stroke="rgb(0%, 0%, 0%)" stroke-opacity="1" stroke-miterlimit="10" d="M 59.039062 79.199219 L 59.039062 223.199219 " transform="matrix(1, 0, 0, -1, 0, 288)"/>
<path fill="none" stroke-width="0.75" stroke-linecap="round" stroke-linejoin="round" stroke="rgb(0%, 0%, 0%)" stroke-opacity="1" stroke-miterlimit="10" d="M 59.039062 79.199219 L 51.839844 79.199219 " transform="matrix(1, 0, 0, -1, 0, 288)"/>
<path fill="none" stroke-width="0.75" stroke-linecap="round" stroke-linejoin="round" stroke="rgb(0%, 0%, 0%)" stroke-opacity="1" stroke-miterlimit="10" d="M 59.039062 108 L 51.839844 108 " transform="matrix(1, 0, 0, -1, 0, 288)"/>
<path fill="none" stroke-width="0.75" stroke-linecap="round" stroke-linejoin="round" stroke="rgb(0%, 0%, 0%)" stroke-opacity="1" stroke-miterlimit="10" d="M 59.039062 136.800781 L 51.839844 136.800781 " transform="matrix(1, 0, 0, -1, 0, 288)"/>
<path fill="none" stroke-width="0.75" stroke-linecap="round" stroke-linejoin="round" stroke="rgb(0%, 0%, 0%)" stroke-opacity="1" stroke-miterlimit="10" d="M 59.039062 165.601562 L 51.839844 165.601562 " transform="matrix(1, 0, 0, -1, 0, 288)"/>
<path fill="none" stroke-width="0.75" stroke-linecap="round" stroke-linejoin="round" stroke="rgb(0%, 0%, 0%)" stroke-opacity="1" stroke-miterlimit="10" d="M 59.039062 194.398438 L 51.839844 194.398438 " transform="matrix(1, 0, 0, -1, 0, 288)"/>
<path fill="none" stroke-width="0.75" stroke-linecap="round" stroke-linejoin="round" stroke="rgb(0%, 0%, 0%)" stroke-opacity="1" stroke-miterlimit="10" d="M 59.039062 223.199219 L 51.839844 223.199219 " transform="matrix(1, 0, 0, -1, 0, 288)"/>
<g fill="rgb(0%, 0%, 0%)" fill-opacity="1">
<use xlink:href="#glyph-1-0" x="41.76" y="217.14"/>
<use xlink:href="#glyph-1-1" x="41.76" y="210.468"/>
<use xlink:href="#glyph-1-0" x="41.76" y="207.132"/>
</g>
<g fill="rgb(0%, 0%, 0%)" fill-opacity="1">
<use xlink:href="#glyph-1-0" x="41.76" y="188.34"/>
<use xlink:href="#glyph-1-1" x="41.76" y="181.668"/>
<use xlink:href="#glyph-1-2" x="41.76" y="178.332"/>
</g>
<g fill="rgb(0%, 0%, 0%)" fill-opacity="1">
<use xlink:href="#glyph-1-0" x="41.76" y="159.54"/>
<use xlink:href="#glyph-1-1" x="41.76" y="152.868"/>
<use xlink:href="#glyph-1-3" x="41.76" y="149.532"/>
</g>
<g fill="rgb(0%, 0%, 0%)" fill-opacity="1">
<use xlink:href="#glyph-1-0" x="41.76" y="130.74"/>
<use xlink:href="#glyph-1-1" x="41.76" y="124.068"/>
<use xlink:href="#glyph-1-4" x="41.76" y="120.732"/>
</g>
<g fill="rgb(0%, 0%, 0%)" fill-opacity="1">
<use xlink:href="#glyph-1-0" x="41.76" y="101.94"/>
<use xlink:href="#glyph-1-1" x="41.76" y="95.268"/>
<use xlink:href="#glyph-1-5" x="41.76" y="91.932"/>
</g>
<g fill="rgb(0%, 0%, 0%)" fill-opacity="1">
<use xlink:href="#glyph-1-6" x="41.76" y="73.14"/>
<use xlink:href="#glyph-1-1" x="41.76" y="66.468"/>
<use xlink:href="#glyph-1-0" x="41.76" y="63.132"/>
</g>
<g fill="rgb(0%, 0%, 0%)" fill-opacity="1">
<use xlink:href="#glyph-2-0" x="118.86" y="34.55"/>
<use xlink:href="#glyph-2-1" x="130.522" y="34.55"/>
<use xlink:href="#glyph-2-2" x="138.306" y="34.55"/>
<use xlink:href="#glyph-2-3" x="146.09" y="34.55"/>
<use xlink:href="#glyph-2-4" x="155.428" y="34.55"/>
</g>
<g fill="rgb(0%, 0%, 0%)" fill-opacity="1">
<use xlink:href="#glyph-2-5" x="160.594" y="34.55"/>
<use xlink:href="#glyph-2-6" x="169.148" y="34.55"/>
<use xlink:href="#glyph-2-7" x="173.81" y="34.55"/>
<use xlink:href="#glyph-2-8" x="181.594" y="34.55"/>
<use xlink:href="#glyph-2-9" x="185.486" y="34.55"/>
<use xlink:href="#glyph-2-10" x="193.27" y="34.55"/>
</g>
<g fill="rgb(0%, 0%, 0%)" fill-opacity="1">
<use xlink:href="#glyph-0-7" x="153.18" y="267"/>
</g>
<g fill="rgb(0%, 0%, 0%)" fill-opacity="1">
<use xlink:href="#glyph-3-0" x="159.18" y="269.28"/>
</g>
<g fill="rgb(0%, 0%, 0%)" fill-opacity="1">
<use xlink:href="#glyph-1-7" x="10.68" y="142.02"/>
</g>
<g fill="rgb(0%, 0%, 0%)" fill-opacity="1">
<use xlink:href="#glyph-4-0" x="12.96" y="136.02"/>
</g>
<path fill="none" stroke-width="0.75" stroke-linecap="round" stroke-linejoin="round" stroke="rgb(0%, 0%, 0%)" stroke-opacity="1" stroke-miterlimit="10" d="M 86.398438 79.199219 L 86.398438 223.199219 " transform="matrix(1, 0, 0, -1, 0, 288)"/>
<path fill="none" stroke-width="0.75" stroke-linecap="round" stroke-linejoin="round" stroke="rgb(0%, 0%, 0%)" stroke-opacity="1" stroke-miterlimit="10" d="M 86.398438 79.199219 L 230.398438 79.199219 " transform="matrix(1, 0, 0, -1, 0, 288)"/>
<path fill="none" stroke-width="0.75" stroke-linecap="round" stroke-linejoin="round" stroke="rgb(0%, 0%, 0%)" stroke-opacity="1" stroke-miterlimit="10" d="M 97.359375 79.199219 L 97.359375 223.199219 " transform="matrix(1, 0, 0, -1, 0, 288)"/>
<path fill="none" stroke-width="0.75" stroke-linecap="round" stroke-linejoin="round" stroke="rgb(0%, 0%, 0%)" stroke-opacity="1" stroke-miterlimit="10" d="M 86.398438 90.160156 L 230.398438 90.160156 " transform="matrix(1, 0, 0, -1, 0, 288)"/>
<path fill="none" stroke-width="0.75" stroke-linecap="round" stroke-linejoin="round" stroke="rgb(0%, 0%, 0%)" stroke-opacity="1" stroke-miterlimit="10" d="M 119.128906 79.199219 L 119.128906 223.199219 " transform="matrix(1, 0, 0, -1, 0, 288)"/>
<path fill="none" stroke-width="0.75" stroke-linecap="round" stroke-linejoin="round" stroke="rgb(0%, 0%, 0%)" stroke-opacity="1" stroke-miterlimit="10" d="M 86.398438 111.929688 L 230.398438 111.929688 " transform="matrix(1, 0, 0, -1, 0, 288)"/>
<path fill="none" stroke-width="0.75" stroke-linecap="round" stroke-linejoin="round" stroke="rgb(0%, 0%, 0%)" stroke-opacity="1" stroke-miterlimit="10" d="M 144.171875 79.199219 L 144.171875 223.199219 " transform="matrix(1, 0, 0, -1, 0, 288)"/>
<path fill="none" stroke-width="0.75" stroke-linecap="round" stroke-linejoin="round" stroke="rgb(0%, 0%, 0%)" stroke-opacity="1" stroke-miterlimit="10" d="M 86.398438 136.96875 L 230.398438 136.96875 " transform="matrix(1, 0, 0, -1, 0, 288)"/>
<path fill="none" stroke-width="0.75" stroke-linecap="round" stroke-linejoin="round" stroke="rgb(0%, 0%, 0%)" stroke-opacity="1" stroke-miterlimit="10" d="M 172.628906 79.199219 L 172.628906 223.199219 " transform="matrix(1, 0, 0, -1, 0, 288)"/>
<path fill="none" stroke-width="0.75" stroke-linecap="round" stroke-linejoin="round" stroke="rgb(0%, 0%, 0%)" stroke-opacity="1" stroke-miterlimit="10" d="M 86.398438 165.429688 L 230.398438 165.429688 " transform="matrix(1, 0, 0, -1, 0, 288)"/>
<path fill="none" stroke-width="0.75" stroke-linecap="round" stroke-linejoin="round" stroke="rgb(0%, 0%, 0%)" stroke-opacity="1" stroke-miterlimit="10" d="M 197.671875 79.199219 L 197.671875 223.199219 " transform="matrix(1, 0, 0, -1, 0, 288)"/>
<path fill="none" stroke-width="0.75" stroke-linecap="round" stroke-linejoin="round" stroke="rgb(0%, 0%, 0%)" stroke-opacity="1" stroke-miterlimit="10" d="M 86.398438 190.46875 L 230.398438 190.46875 " transform="matrix(1, 0, 0, -1, 0, 288)"/>
<path fill="none" stroke-width="0.75" stroke-linecap="round" stroke-linejoin="round" stroke="rgb(0%, 0%, 0%)" stroke-opacity="1" stroke-miterlimit="10" d="M 219.441406 79.199219 L 219.441406 223.199219 " transform="matrix(1, 0, 0, -1, 0, 288)"/>
<path fill="none" stroke-width="0.75" stroke-linecap="round" stroke-linejoin="round" stroke="rgb(0%, 0%, 0%)" stroke-opacity="1" stroke-miterlimit="10" d="M 86.398438 212.238281 L 230.398438 212.238281 " transform="matrix(1, 0, 0, -1, 0, 288)"/>
<path fill="none" stroke-width="0.75" stroke-linecap="round" stroke-linejoin="round" stroke="rgb(0%, 0%, 0%)" stroke-opacity="1" stroke-miterlimit="10" d="M 230.398438 79.199219 L 230.398438 223.199219 " transform="matrix(1, 0, 0, -1, 0, 288)"/>
<path fill="none" stroke-width="0.75" stroke-linecap="round" stroke-linejoin="round" stroke="rgb(0%, 0%, 0%)" stroke-opacity="1" stroke-miterlimit="10" d="M 86.398438 223.199219 L 230.398438 223.199219 " transform="matrix(1, 0, 0, -1, 0, 288)"/>
<path fill-rule="nonzero" fill="rgb(0%, 0%, 100%)" fill-opacity="1" d="M 465.28125 64.800781 C 465.28125 63.308594 466.5 62.101562 467.980469 62.101562 C 469.46875 62.101562 470.679688 63.308594 470.679688 64.800781 C 470.679688 66.289062 469.46875 67.5 467.980469 67.5 C 466.5 67.5 465.28125 66.289062 465.28125 64.800781 "/>
<path fill-rule="nonzero" fill="rgb(0%, 0%, 100%)" fill-opacity="1" d="M 383.421875 197.078125 C 383.421875 195.589844 384.640625 194.378906 386.121094 194.378906 C 387.609375 194.378906 388.820312 195.589844 388.820312 197.078125 C 388.820312 198.558594 387.609375 199.78125 386.121094 199.78125 C 384.640625 199.78125 383.421875 198.558594 383.421875 197.078125 "/>
<path fill-rule="nonzero" fill="rgb(0%, 0%, 100%)" fill-opacity="1" d="M 439.910156 84.460938 C 439.910156 82.96875 441.121094 81.761719 442.609375 81.761719 C 444.089844 81.761719 445.308594 82.96875 445.308594 84.460938 C 445.308594 85.941406 444.089844 87.160156 442.609375 87.160156 C 441.121094 87.160156 439.910156 85.941406 439.910156 84.460938 "/>
<path fill-rule="nonzero" fill="rgb(0%, 0%, 100%)" fill-opacity="1" d="M 481.230469 99.269531 C 481.230469 97.78125 482.449219 96.570312 483.929688 96.570312 C 485.421875 96.570312 486.628906 97.78125 486.628906 99.269531 C 486.628906 100.75 485.421875 101.96875 483.929688 101.96875 C 482.449219 101.96875 481.230469 100.75 481.230469 99.269531 "/>
<path fill-rule="nonzero" fill="rgb(0%, 0%, 100%)" fill-opacity="1" d="M 456.128906 124.371094 C 456.128906 122.878906 457.351562 121.671875 458.828125 121.671875 C 460.320312 121.671875 461.53125 122.878906 461.53125 124.371094 C 461.53125 125.851562 460.320312 127.070312 458.828125 127.070312 C 457.351562 127.070312 456.128906 125.851562 456.128906 124.371094 "/>
<path fill-rule="nonzero" fill="rgb(0%, 0%, 100%)" fill-opacity="1" d="M 406.171875 174.328125 C 406.171875 172.851562 407.378906 171.628906 408.871094 171.628906 C 410.351562 171.628906 411.570312 172.851562 411.570312 174.328125 C 411.570312 175.820312 410.351562 177.03125 408.871094 177.03125 C 407.378906 177.03125 406.171875 175.820312 406.171875 174.328125 "/>
<path fill-rule="nonzero" fill="rgb(0%, 0%, 100%)" fill-opacity="1" d="M 472.179688 165.28125 C 472.179688 163.800781 473.398438 162.578125 474.878906 162.578125 C 476.371094 162.578125 477.578125 163.800781 477.578125 165.28125 C 477.578125 166.769531 476.371094 167.980469 474.878906 167.980469 C 473.398438 167.980469 472.179688 166.769531 472.179688 165.28125 "/>
<path fill-rule="nonzero" fill="rgb(0%, 0%, 100%)" fill-opacity="1" d="M 399.460938 70.75 C 399.460938 69.269531 400.671875 68.050781 402.160156 68.050781 C 403.640625 68.050781 404.859375 69.269531 404.859375 70.75 C 404.859375 72.238281 403.640625 73.449219 402.160156 73.449219 C 400.671875 73.449219 399.460938 72.238281 399.460938 70.75 "/>
<path fill-rule="nonzero" fill="rgb(0%, 0%, 100%)" fill-opacity="1" d="M 422.121094 208.800781 C 422.121094 207.320312 423.328125 206.101562 424.820312 206.101562 C 426.300781 206.101562 427.519531 207.320312 427.519531 208.800781 C 427.519531 210.289062 426.300781 211.5 424.820312 211.5 C 423.328125 211.5 422.121094 210.289062 422.121094 208.800781 "/>
<path fill-rule="nonzero" fill="rgb(0%, 0%, 100%)" fill-opacity="1" d="M 371.699219 158.378906 C 371.699219 156.898438 372.910156 155.679688 374.398438 155.679688 C 375.878906 155.679688 377.101562 156.898438 377.101562 158.378906 C 377.101562 159.871094 375.878906 161.078125 374.398438 161.078125 C 372.910156 161.078125 371.699219 159.871094 371.699219 158.378906 "/>
<path fill-rule="nonzero" fill="rgb(0%, 0%, 100%)" fill-opacity="1" d="M 415.21875 108.320312 C 415.21875 106.828125 416.429688 105.621094 417.921875 105.621094 C 419.398438 105.621094 420.621094 106.828125 420.621094 108.320312 C 420.621094 109.800781 419.398438 111.019531 417.921875 111.019531 C 416.429688 111.019531 415.21875 109.800781 415.21875 108.320312 "/>
<path fill-rule="nonzero" fill="rgb(0%, 0%, 100%)" fill-opacity="1" d="M 431.269531 149.230469 C 431.269531 147.75 432.480469 146.53125 433.96875 146.53125 C 435.449219 146.53125 436.671875 147.75 436.671875 149.230469 C 436.671875 150.71875 435.449219 151.929688 433.96875 151.929688 C 432.480469 151.929688 431.269531 150.71875 431.269531 149.230469 "/>
<path fill-rule="nonzero" fill="rgb(0%, 0%, 100%)" fill-opacity="1" d="M 487.941406 202.851562 C 487.941406 201.359375 489.160156 200.148438 490.640625 200.148438 C 492.128906 200.148438 493.339844 201.359375 493.339844 202.851562 C 493.339844 204.328125 492.128906 205.550781 490.640625 205.550781 C 489.160156 205.550781 487.941406 204.328125 487.941406 202.851562 "/>
<path fill-rule="nonzero" fill="rgb(0%, 0%, 100%)" fill-opacity="1" d="M 503.980469 76.519531 C 503.980469 75.039062 505.191406 73.820312 506.679688 73.820312 C 508.160156 73.820312 509.378906 75.039062 509.378906 76.519531 C 509.378906 78.011719 508.160156 79.21875 506.679688 79.21875 C 505.191406 79.21875 503.980469 78.011719 503.980469 76.519531 "/>
<path fill-rule="nonzero" fill="rgb(0%, 0%, 100%)" fill-opacity="1" d="M 447.488281 189.140625 C 447.488281 187.660156 448.710938 186.441406 450.191406 186.441406 C 451.679688 186.441406 452.890625 187.660156 452.890625 189.140625 C 452.890625 190.628906 451.679688 191.839844 450.191406 191.839844 C 448.710938 191.839844 447.488281 190.628906 447.488281 189.140625 "/>
<path fill-rule="nonzero" fill="rgb(0%, 0%, 100%)" fill-opacity="1" d="M 391.359375 133.011719 C 391.359375 131.519531 392.570312 130.308594 394.058594 130.308594 C 395.539062 130.308594 396.761719 131.519531 396.761719 133.011719 C 396.761719 134.488281 395.539062 135.710938 394.058594 135.710938 C 392.570312 135.710938 391.359375 134.488281 391.359375 133.011719 "/>
<path fill-rule="nonzero" fill="rgb(0%, 0%, 100%)" fill-opacity="1" d="M 509.75 181.039062 C 509.75 179.558594 510.960938 178.339844 512.449219 178.339844 C 513.929688 178.339844 515.148438 179.558594 515.148438 181.039062 C 515.148438 182.53125 513.929688 183.738281 512.449219 183.738281 C 510.960938 183.738281 509.75 182.53125 509.75 181.039062 "/>
<path fill-rule="nonzero" fill="rgb(0%, 0%, 100%)" fill-opacity="1" d="M 496.039062 140.589844 C 496.039062 139.109375 497.261719 137.890625 498.738281 137.890625 C 500.230469 137.890625 501.441406 139.109375 501.441406 140.589844 C 501.441406 142.078125 500.230469 143.289062 498.738281 143.289062 C 497.261719 143.289062 496.039062 142.078125 496.039062 140.589844 "/>
<path fill-rule="nonzero" fill="rgb(0%, 0%, 100%)" fill-opacity="1" d="M 515.699219 115.21875 C 515.699219 113.730469 516.921875 112.519531 518.398438 112.519531 C 519.890625 112.519531 521.101562 113.730469 521.101562 115.21875 C 521.101562 116.699219 519.890625 117.921875 518.398438 117.921875 C 516.921875 117.921875 515.699219 116.699219 515.699219 115.21875 "/>
<path fill-rule="nonzero" fill="rgb(0%, 0%, 100%)" fill-opacity="1" d="M 377.648438 92.558594 C 377.648438 91.070312 378.871094 89.859375 380.351562 89.859375 C 381.839844 89.859375 383.050781 91.070312 383.050781 92.558594 C 383.050781 94.039062 381.839844 95.261719 380.351562 95.261719 C 378.871094 95.261719 377.648438 94.039062 377.648438 92.558594 "/>
<path fill="none" stroke-width="0.75" stroke-linecap="round" stroke-linejoin="round" stroke="rgb(0%, 0%, 0%)" stroke-opacity="1" stroke-miterlimit="10" d="M 374.398438 73.441406 L 518.398438 73.441406 " transform="matrix(1, 0, 0, -1, 0, 288)"/>
<path fill="none" stroke-width="0.75" stroke-linecap="round" stroke-linejoin="round" stroke="rgb(0%, 0%, 0%)" stroke-opacity="1" stroke-miterlimit="10" d="M 374.398438 73.441406 L 374.398438 66.238281 " transform="matrix(1, 0, 0, -1, 0, 288)"/>
<path fill="none" stroke-width="0.75" stroke-linecap="round" stroke-linejoin="round" stroke="rgb(0%, 0%, 0%)" stroke-opacity="1" stroke-miterlimit="10" d="M 403.199219 73.441406 L 403.199219 66.238281 " transform="matrix(1, 0, 0, -1, 0, 288)"/>
<path fill="none" stroke-width="0.75" stroke-linecap="round" stroke-linejoin="round" stroke="rgb(0%, 0%, 0%)" stroke-opacity="1" stroke-miterlimit="10" d="M 432 73.441406 L 432 66.238281 " transform="matrix(1, 0, 0, -1, 0, 288)"/>
<path fill="none" stroke-width="0.75" stroke-linecap="round" stroke-linejoin="round" stroke="rgb(0%, 0%, 0%)" stroke-opacity="1" stroke-miterlimit="10" d="M 460.800781 73.441406 L 460.800781 66.238281 " transform="matrix(1, 0, 0, -1, 0, 288)"/>
<path fill="none" stroke-width="0.75" stroke-linecap="round" stroke-linejoin="round" stroke="rgb(0%, 0%, 0%)" stroke-opacity="1" stroke-miterlimit="10" d="M 489.601562 73.441406 L 489.601562 66.238281 " transform="matrix(1, 0, 0, -1, 0, 288)"/>
<path fill="none" stroke-width="0.75" stroke-linecap="round" stroke-linejoin="round" stroke="rgb(0%, 0%, 0%)" stroke-opacity="1" stroke-miterlimit="10" d="M 518.398438 73.441406 L 518.398438 66.238281 " transform="matrix(1, 0, 0, -1, 0, 288)"/>
<g fill="rgb(0%, 0%, 0%)" fill-opacity="1">
<use xlink:href="#glyph-0-0" x="366.06" y="240.48"/>
<use xlink:href="#glyph-0-1" x="372.732" y="240.48"/>
<use xlink:href="#glyph-0-0" x="376.068" y="240.48"/>
</g>
<g fill="rgb(0%, 0%, 0%)" fill-opacity="1">
<use xlink:href="#glyph-0-0" x="394.86" y="240.48"/>
<use xlink:href="#glyph-0-1" x="401.532" y="240.48"/>
<use xlink:href="#glyph-0-2" x="404.868" y="240.48"/>
</g>
<g fill="rgb(0%, 0%, 0%)" fill-opacity="1">
<use xlink:href="#glyph-0-0" x="423.66" y="240.48"/>
<use xlink:href="#glyph-0-1" x="430.332" y="240.48"/>
<use xlink:href="#glyph-0-3" x="433.668" y="240.48"/>
</g>
<g fill="rgb(0%, 0%, 0%)" fill-opacity="1">
<use xlink:href="#glyph-0-0" x="452.46" y="240.48"/>
<use xlink:href="#glyph-0-1" x="459.132" y="240.48"/>
<use xlink:href="#glyph-0-4" x="462.468" y="240.48"/>
</g>
<g fill="rgb(0%, 0%, 0%)" fill-opacity="1">
<use xlink:href="#glyph-0-0" x="481.26" y="240.48"/>
<use xlink:href="#glyph-0-1" x="487.932" y="240.48"/>
<use xlink:href="#glyph-0-5" x="491.268" y="240.48"/>
</g>
<g fill="rgb(0%, 0%, 0%)" fill-opacity="1">
<use xlink:href="#glyph-0-6" x="510.06" y="240.48"/>
<use xlink:href="#glyph-0-1" x="516.732" y="240.48"/>
<use xlink:href="#glyph-0-0" x="520.068" y="240.48"/>
</g>
<path fill="none" stroke-width="0.75" stroke-linecap="round" stroke-linejoin="round" stroke="rgb(0%, 0%, 0%)" stroke-opacity="1" stroke-miterlimit="10" d="M 347.039062 79.199219 L 347.039062 223.199219 " transform="matrix(1, 0, 0, -1, 0, 288)"/>
<path fill="none" stroke-width="0.75" stroke-linecap="round" stroke-linejoin="round" stroke="rgb(0%, 0%, 0%)" stroke-opacity="1" stroke-miterlimit="10" d="M 347.039062 79.199219 L 339.839844 79.199219 " transform="matrix(1, 0, 0, -1, 0, 288)"/>
<path fill="none" stroke-width="0.75" stroke-linecap="round" stroke-linejoin="round" stroke="rgb(0%, 0%, 0%)" stroke-opacity="1" stroke-miterlimit="10" d="M 347.039062 108 L 339.839844 108 " transform="matrix(1, 0, 0, -1, 0, 288)"/>
<path fill="none" stroke-width="0.75" stroke-linecap="round" stroke-linejoin="round" stroke="rgb(0%, 0%, 0%)" stroke-opacity="1" stroke-miterlimit="10" d="M 347.039062 136.800781 L 339.839844 136.800781 " transform="matrix(1, 0, 0, -1, 0, 288)"/>
<path fill="none" stroke-width="0.75" stroke-linecap="round" stroke-linejoin="round" stroke="rgb(0%, 0%, 0%)" stroke-opacity="1" stroke-miterlimit="10" d="M 347.039062 165.601562 L 339.839844 165.601562 " transform="matrix(1, 0, 0, -1, 0, 288)"/>
<path fill="none" stroke-width="0.75" stroke-linecap="round" stroke-linejoin="round" stroke="rgb(0%, 0%, 0%)" stroke-opacity="1" stroke-miterlimit="10" d="M 347.039062 194.398438 L 339.839844 194.398438 " transform="matrix(1, 0, 0, -1, 0, 288)"/>
<path fill="none" stroke-width="0.75" stroke-linecap="round" stroke-linejoin="round" stroke="rgb(0%, 0%, 0%)" stroke-opacity="1" stroke-miterlimit="10" d="M 347.039062 223.199219 L 339.839844 223.199219 " transform="matrix(1, 0, 0, -1, 0, 288)"/>
<g fill="rgb(0%, 0%, 0%)" fill-opacity="1">
<use xlink:href="#glyph-1-0" x="329.76" y="217.14"/>
<use xlink:href="#glyph-1-1" x="329.76" y="210.468"/>
<use xlink:href="#glyph-1-0" x="329.76" y="207.132"/>
</g>
<g fill="rgb(0%, 0%, 0%)" fill-opacity="1">
<use xlink:href="#glyph-1-0" x="329.76" y="188.34"/>
<use xlink:href="#glyph-1-1" x="329.76" y="181.668"/>
<use xlink:href="#glyph-1-2" x="329.76" y="178.332"/>
</g>
<g fill="rgb(0%, 0%, 0%)" fill-opacity="1">
<use xlink:href="#glyph-1-0" x="329.76" y="159.54"/>
<use xlink:href="#glyph-1-1" x="329.76" y="152.868"/>
<use xlink:href="#glyph-1-3" x="329.76" y="149.532"/>
</g>
<g fill="rgb(0%, 0%, 0%)" fill-opacity="1">
<use xlink:href="#glyph-1-0" x="329.76" y="130.74"/>
<use xlink:href="#glyph-1-1" x="329.76" y="124.068"/>
<use xlink:href="#glyph-1-4" x="329.76" y="120.732"/>
</g>
<g fill="rgb(0%, 0%, 0%)" fill-opacity="1">
<use xlink:href="#glyph-1-0" x="329.76" y="101.94"/>
<use xlink:href="#glyph-1-1" x="329.76" y="95.268"/>
<use xlink:href="#glyph-1-5" x="329.76" y="91.932"/>
</g>
<g fill="rgb(0%, 0%, 0%)" fill-opacity="1">
<use xlink:href="#glyph-1-6" x="329.76" y="73.14"/>
<use xlink:href="#glyph-1-1" x="329.76" y="66.468"/>
<use xlink:href="#glyph-1-0" x="329.76" y="63.132"/>
</g>
<g fill="rgb(0%, 0%, 0%)" fill-opacity="1">
<use xlink:href="#glyph-2-0" x="402.97" y="34.55"/>
<use xlink:href="#glyph-2-1" x="414.632" y="34.55"/>
<use xlink:href="#glyph-2-2" x="422.416" y="34.55"/>
<use xlink:href="#glyph-2-3" x="430.2" y="34.55"/>
<use xlink:href="#glyph-2-4" x="439.538" y="34.55"/>
</g>
<g fill="rgb(0%, 0%, 0%)" fill-opacity="1">
<use xlink:href="#glyph-2-5" x="444.704" y="34.55"/>
<use xlink:href="#glyph-2-6" x="453.258" y="34.55"/>
<use xlink:href="#glyph-2-9" x="457.92" y="34.55"/>
<use xlink:href="#glyph-2-11" x="465.704" y="34.55"/>
<use xlink:href="#glyph-2-8" x="473.488" y="34.55"/>
<use xlink:href="#glyph-2-9" x="477.38" y="34.55"/>
<use xlink:href="#glyph-2-10" x="485.164" y="34.55"/>
</g>
<g fill="rgb(0%, 0%, 0%)" fill-opacity="1">
<use xlink:href="#glyph-0-7" x="441.18" y="267"/>
</g>
<g fill="rgb(0%, 0%, 0%)" fill-opacity="1">
<use xlink:href="#glyph-3-0" x="447.18" y="269.28"/>
</g>
<g fill="rgb(0%, 0%, 0%)" fill-opacity="1">
<use xlink:href="#glyph-1-7" x="298.68" y="142.02"/>
</g>
<g fill="rgb(0%, 0%, 0%)" fill-opacity="1">
<use xlink:href="#glyph-4-0" x="300.96" y="136.02"/>
</g>
<path fill="none" stroke-width="0.75" stroke-linecap="round" stroke-linejoin="round" stroke="rgb(0%, 0%, 0%)" stroke-opacity="1" stroke-miterlimit="10" d="M 374.398438 79.199219 L 374.398438 223.199219 " transform="matrix(1, 0, 0, -1, 0, 288)"/>
<path fill="none" stroke-width="0.75" stroke-linecap="round" stroke-linejoin="round" stroke="rgb(0%, 0%, 0%)" stroke-opacity="1" stroke-miterlimit="10" d="M 374.398438 79.199219 L 518.398438 79.199219 " transform="matrix(1, 0, 0, -1, 0, 288)"/>
<path fill="none" stroke-width="0.75" stroke-linecap="round" stroke-linejoin="round" stroke="rgb(0%, 0%, 0%)" stroke-opacity="1" stroke-miterlimit="10" d="M 377.378906 79.199219 L 377.378906 223.199219 " transform="matrix(1, 0, 0, -1, 0, 288)"/>
<path fill="none" stroke-width="0.75" stroke-linecap="round" stroke-linejoin="round" stroke="rgb(0%, 0%, 0%)" stroke-opacity="1" stroke-miterlimit="10" d="M 374.398438 82.179688 L 518.398438 82.179688 " transform="matrix(1, 0, 0, -1, 0, 288)"/>
<path fill="none" stroke-width="0.75" stroke-linecap="round" stroke-linejoin="round" stroke="rgb(0%, 0%, 0%)" stroke-opacity="1" stroke-miterlimit="10" d="M 383.238281 79.199219 L 383.238281 223.199219 " transform="matrix(1, 0, 0, -1, 0, 288)"/>
<path fill="none" stroke-width="0.75" stroke-linecap="round" stroke-linejoin="round" stroke="rgb(0%, 0%, 0%)" stroke-opacity="1" stroke-miterlimit="10" d="M 374.398438 88.039062 L 518.398438 88.039062 " transform="matrix(1, 0, 0, -1, 0, 288)"/>
<path fill="none" stroke-width="0.75" stroke-linecap="round" stroke-linejoin="round" stroke="rgb(0%, 0%, 0%)" stroke-opacity="1" stroke-miterlimit="10" d="M 390.089844 79.199219 L 390.089844 223.199219 " transform="matrix(1, 0, 0, -1, 0, 288)"/>
<path fill="none" stroke-width="0.75" stroke-linecap="round" stroke-linejoin="round" stroke="rgb(0%, 0%, 0%)" stroke-opacity="1" stroke-miterlimit="10" d="M 374.398438 94.890625 L 518.398438 94.890625 " transform="matrix(1, 0, 0, -1, 0, 288)"/>
<path fill="none" stroke-width="0.75" stroke-linecap="round" stroke-linejoin="round" stroke="rgb(0%, 0%, 0%)" stroke-opacity="1" stroke-miterlimit="10" d="M 398.109375 79.199219 L 398.109375 223.199219 " transform="matrix(1, 0, 0, -1, 0, 288)"/>
<path fill="none" stroke-width="0.75" stroke-linecap="round" stroke-linejoin="round" stroke="rgb(0%, 0%, 0%)" stroke-opacity="1" stroke-miterlimit="10" d="M 374.398438 102.910156 L 518.398438 102.910156 " transform="matrix(1, 0, 0, -1, 0, 288)"/>
<path fill="none" stroke-width="0.75" stroke-linecap="round" stroke-linejoin="round" stroke="rgb(0%, 0%, 0%)" stroke-opacity="1" stroke-miterlimit="10" d="M 405.511719 79.199219 L 405.511719 223.199219 " transform="matrix(1, 0, 0, -1, 0, 288)"/>
<path fill="none" stroke-width="0.75" stroke-linecap="round" stroke-linejoin="round" stroke="rgb(0%, 0%, 0%)" stroke-opacity="1" stroke-miterlimit="10" d="M 374.398438 110.308594 L 518.398438 110.308594 " transform="matrix(1, 0, 0, -1, 0, 288)"/>
<path fill="none" stroke-width="0.75" stroke-linecap="round" stroke-linejoin="round" stroke="rgb(0%, 0%, 0%)" stroke-opacity="1" stroke-miterlimit="10" d="M 413.390625 79.199219 L 413.390625 223.199219 " transform="matrix(1, 0, 0, -1, 0, 288)"/>
<path fill="none" stroke-width="0.75" stroke-linecap="round" stroke-linejoin="round" stroke="rgb(0%, 0%, 0%)" stroke-opacity="1" stroke-miterlimit="10" d="M 374.398438 118.191406 L 518.398438 118.191406 " transform="matrix(1, 0, 0, -1, 0, 288)"/>
<path fill="none" stroke-width="0.75" stroke-linecap="round" stroke-linejoin="round" stroke="rgb(0%, 0%, 0%)" stroke-opacity="1" stroke-miterlimit="10" d="M 421.371094 79.199219 L 421.371094 223.199219 " transform="matrix(1, 0, 0, -1, 0, 288)"/>
<path fill="none" stroke-width="0.75" stroke-linecap="round" stroke-linejoin="round" stroke="rgb(0%, 0%, 0%)" stroke-opacity="1" stroke-miterlimit="10" d="M 374.398438 126.171875 L 518.398438 126.171875 " transform="matrix(1, 0, 0, -1, 0, 288)"/>
<path fill="none" stroke-width="0.75" stroke-linecap="round" stroke-linejoin="round" stroke="rgb(0%, 0%, 0%)" stroke-opacity="1" stroke-miterlimit="10" d="M 429.390625 79.199219 L 429.390625 223.199219 " transform="matrix(1, 0, 0, -1, 0, 288)"/>
<path fill="none" stroke-width="0.75" stroke-linecap="round" stroke-linejoin="round" stroke="rgb(0%, 0%, 0%)" stroke-opacity="1" stroke-miterlimit="10" d="M 374.398438 134.191406 L 518.398438 134.191406 " transform="matrix(1, 0, 0, -1, 0, 288)"/>
<path fill="none" stroke-width="0.75" stroke-linecap="round" stroke-linejoin="round" stroke="rgb(0%, 0%, 0%)" stroke-opacity="1" stroke-miterlimit="10" d="M 438.289062 79.199219 L 438.289062 223.199219 " transform="matrix(1, 0, 0, -1, 0, 288)"/>
<path fill="none" stroke-width="0.75" stroke-linecap="round" stroke-linejoin="round" stroke="rgb(0%, 0%, 0%)" stroke-opacity="1" stroke-miterlimit="10" d="M 374.398438 143.089844 L 518.398438 143.089844 " transform="matrix(1, 0, 0, -1, 0, 288)"/>
<path fill="none" stroke-width="0.75" stroke-linecap="round" stroke-linejoin="round" stroke="rgb(0%, 0%, 0%)" stroke-opacity="1" stroke-miterlimit="10" d="M 446.398438 79.199219 L 446.398438 223.199219 " transform="matrix(1, 0, 0, -1, 0, 288)"/>
<path fill="none" stroke-width="0.75" stroke-linecap="round" stroke-linejoin="round" stroke="rgb(0%, 0%, 0%)" stroke-opacity="1" stroke-miterlimit="10" d="M 374.398438 151.199219 L 518.398438 151.199219 " transform="matrix(1, 0, 0, -1, 0, 288)"/>
<path fill="none" stroke-width="0.75" stroke-linecap="round" stroke-linejoin="round" stroke="rgb(0%, 0%, 0%)" stroke-opacity="1" stroke-miterlimit="10" d="M 454.511719 79.199219 L 454.511719 223.199219 " transform="matrix(1, 0, 0, -1, 0, 288)"/>
<path fill="none" stroke-width="0.75" stroke-linecap="round" stroke-linejoin="round" stroke="rgb(0%, 0%, 0%)" stroke-opacity="1" stroke-miterlimit="10" d="M 374.398438 159.308594 L 518.398438 159.308594 " transform="matrix(1, 0, 0, -1, 0, 288)"/>
<path fill="none" stroke-width="0.75" stroke-linecap="round" stroke-linejoin="round" stroke="rgb(0%, 0%, 0%)" stroke-opacity="1" stroke-miterlimit="10" d="M 463.410156 79.199219 L 463.410156 223.199219 " transform="matrix(1, 0, 0, -1, 0, 288)"/>
<path fill="none" stroke-width="0.75" stroke-linecap="round" stroke-linejoin="round" stroke="rgb(0%, 0%, 0%)" stroke-opacity="1" stroke-miterlimit="10" d="M 374.398438 168.210938 L 518.398438 168.210938 " transform="matrix(1, 0, 0, -1, 0, 288)"/>
<path fill="none" stroke-width="0.75" stroke-linecap="round" stroke-linejoin="round" stroke="rgb(0%, 0%, 0%)" stroke-opacity="1" stroke-miterlimit="10" d="M 471.429688 79.199219 L 471.429688 223.199219 " transform="matrix(1, 0, 0, -1, 0, 288)"/>
<path fill="none" stroke-width="0.75" stroke-linecap="round" stroke-linejoin="round" stroke="rgb(0%, 0%, 0%)" stroke-opacity="1" stroke-miterlimit="10" d="M 374.398438 176.230469 L 518.398438 176.230469 " transform="matrix(1, 0, 0, -1, 0, 288)"/>
<path fill="none" stroke-width="0.75" stroke-linecap="round" stroke-linejoin="round" stroke="rgb(0%, 0%, 0%)" stroke-opacity="1" stroke-miterlimit="10" d="M 479.410156 79.199219 L 479.410156 223.199219 " transform="matrix(1, 0, 0, -1, 0, 288)"/>
<path fill="none" stroke-width="0.75" stroke-linecap="round" stroke-linejoin="round" stroke="rgb(0%, 0%, 0%)" stroke-opacity="1" stroke-miterlimit="10" d="M 374.398438 184.210938 L 518.398438 184.210938 " transform="matrix(1, 0, 0, -1, 0, 288)"/>
<path fill="none" stroke-width="0.75" stroke-linecap="round" stroke-linejoin="round" stroke="rgb(0%, 0%, 0%)" stroke-opacity="1" stroke-miterlimit="10" d="M 487.289062 79.199219 L 487.289062 223.199219 " transform="matrix(1, 0, 0, -1, 0, 288)"/>
<path fill="none" stroke-width="0.75" stroke-linecap="round" stroke-linejoin="round" stroke="rgb(0%, 0%, 0%)" stroke-opacity="1" stroke-miterlimit="10" d="M 374.398438 192.089844 L 518.398438 192.089844 " transform="matrix(1, 0, 0, -1, 0, 288)"/>
<path fill="none" stroke-width="0.75" stroke-linecap="round" stroke-linejoin="round" stroke="rgb(0%, 0%, 0%)" stroke-opacity="1" stroke-miterlimit="10" d="M 494.691406 79.199219 L 494.691406 223.199219 " transform="matrix(1, 0, 0, -1, 0, 288)"/>
<path fill="none" stroke-width="0.75" stroke-linecap="round" stroke-linejoin="round" stroke="rgb(0%, 0%, 0%)" stroke-opacity="1" stroke-miterlimit="10" d="M 374.398438 199.488281 L 518.398438 199.488281 " transform="matrix(1, 0, 0, -1, 0, 288)"/>
<path fill="none" stroke-width="0.75" stroke-linecap="round" stroke-linejoin="round" stroke="rgb(0%, 0%, 0%)" stroke-opacity="1" stroke-miterlimit="10" d="M 502.710938 79.199219 L 502.710938 223.199219 " transform="matrix(1, 0, 0, -1, 0, 288)"/>
<path fill="none" stroke-width="0.75" stroke-linecap="round" stroke-linejoin="round" stroke="rgb(0%, 0%, 0%)" stroke-opacity="1" stroke-miterlimit="10" d="M 374.398438 207.511719 L 518.398438 207.511719 " transform="matrix(1, 0, 0, -1, 0, 288)"/>
<path fill="none" stroke-width="0.75" stroke-linecap="round" stroke-linejoin="round" stroke="rgb(0%, 0%, 0%)" stroke-opacity="1" stroke-miterlimit="10" d="M 509.558594 79.199219 L 509.558594 223.199219 " transform="matrix(1, 0, 0, -1, 0, 288)"/>
<path fill="none" stroke-width="0.75" stroke-linecap="round" stroke-linejoin="round" stroke="rgb(0%, 0%, 0%)" stroke-opacity="1" stroke-miterlimit="10" d="M 374.398438 214.359375 L 518.398438 214.359375 " transform="matrix(1, 0, 0, -1, 0, 288)"/>
<path fill="none" stroke-width="0.75" stroke-linecap="round" stroke-linejoin="round" stroke="rgb(0%, 0%, 0%)" stroke-opacity="1" stroke-miterlimit="10" d="M 515.421875 79.199219 L 515.421875 223.199219 " transform="matrix(1, 0, 0, -1, 0, 288)"/>
<path fill="none" stroke-width="0.75" stroke-linecap="round" stroke-linejoin="round" stroke="rgb(0%, 0%, 0%)" stroke-opacity="1" stroke-miterlimit="10" d="M 374.398438 220.21875 L 518.398438 220.21875 " transform="matrix(1, 0, 0, -1, 0, 288)"/>
<path fill="none" stroke-width="0.75" stroke-linecap="round" stroke-linejoin="round" stroke="rgb(0%, 0%, 0%)" stroke-opacity="1" stroke-miterlimit="10" d="M 518.398438 79.199219 L 518.398438 223.199219 " transform="matrix(1, 0, 0, -1, 0, 288)"/>
<path fill="none" stroke-width="0.75" stroke-linecap="round" stroke-linejoin="round" stroke="rgb(0%, 0%, 0%)" stroke-opacity="1" stroke-miterlimit="10" d="M 374.398438 223.199219 L 518.398438 223.199219 " transform="matrix(1, 0, 0, -1, 0, 288)"/>
</svg>
