<?xml version="1.0" encoding="UTF-8"?>
<svg xmlns="http://www.w3.org/2000/svg" xmlns:xlink="http://www.w3.org/1999/xlink" width="864pt" height="288pt" viewBox="0 0 864 288">
<defs>
<g>
<g id="glyph-0-0">
<path d="M 0.328125 -2.828125 C 0.328125 -3.503906 0.394531 -4.046875 0.53125 -4.453125 C 0.675781 -4.867188 0.882812 -5.1875 1.15625 -5.40625 C 1.4375 -5.632812 1.785156 -5.75 2.203125 -5.75 C 2.503906 -5.75 2.769531 -5.6875 3 -5.5625 C 3.238281 -5.4375 3.429688 -5.257812 3.578125 -5.03125 C 3.734375 -4.800781 3.851562 -4.515625 3.9375 -4.171875 C 4.019531 -3.835938 4.0625 -3.390625 4.0625 -2.828125 C 4.0625 -2.148438 3.992188 -1.601562 3.859375 -1.1875 C 3.722656 -0.78125 3.515625 -0.460938 3.234375 -0.234375 C 2.960938 -0.015625 2.617188 0.09375 2.203125 0.09375 C 1.648438 0.09375 1.21875 -0.101562 0.90625 -0.5 C 0.519531 -0.976562 0.328125 -1.753906 0.328125 -2.828125 Z M 1.0625 -2.828125 C 1.0625 -1.890625 1.171875 -1.265625 1.390625 -0.953125 C 1.609375 -0.640625 1.878906 -0.484375 2.203125 -0.484375 C 2.523438 -0.484375 2.796875 -0.640625 3.015625 -0.953125 C 3.234375 -1.265625 3.34375 -1.890625 3.34375 -2.828125 C 3.34375 -3.765625 3.234375 -4.390625 3.015625 -4.703125 C 2.796875 -5.015625 2.519531 -5.171875 2.1875 -5.171875 C 1.863281 -5.171875 1.609375 -5.035156 1.421875 -4.765625 C 1.179688 -4.410156 1.0625 -3.765625 1.0625 -2.828125 Z M 1.0625 -2.828125 "/>
</g>
<g id="glyph-0-1">
<path d="M 0.734375 0 L 0.734375 -0.796875 L 1.53125 -0.796875 L 1.53125 0 Z M 0.734375 0 "/>
</g>
<g id="glyph-0-2">
<path d="M 4.03125 -0.671875 L 4.03125 0 L 0.25 0 C 0.238281 -0.164062 0.265625 -0.328125 0.328125 -0.484375 C 0.421875 -0.742188 0.570312 -1 0.78125 -1.25 C 1 -1.5 1.304688 -1.789062 1.703125 -2.125 C 2.328125 -2.632812 2.75 -3.035156 2.96875 -3.328125 C 3.1875 -3.628906 3.296875 -3.910156 3.296875 -4.171875 C 3.296875 -4.453125 3.195312 -4.6875 3 -4.875 C 2.800781 -5.070312 2.539062 -5.171875 2.21875 -5.171875 C 1.882812 -5.171875 1.613281 -5.066406 1.40625 -4.859375 C 1.207031 -4.660156 1.101562 -4.378906 1.09375 -4.015625 L 0.375 -4.09375 C 0.425781 -4.632812 0.613281 -5.046875 0.9375 -5.328125 C 1.257812 -5.609375 1.691406 -5.75 2.234375 -5.75 C 2.785156 -5.75 3.21875 -5.597656 3.53125 -5.296875 C 3.851562 -4.992188 4.015625 -4.613281 4.015625 -4.15625 C 4.015625 -3.925781 3.96875 -3.703125 3.875 -3.484375 C 3.78125 -3.265625 3.625 -3.03125 3.40625 -2.78125 C 3.195312 -2.539062 2.835938 -2.207031 2.328125 -1.78125 C 1.910156 -1.425781 1.640625 -1.1875 1.515625 -1.0625 C 1.398438 -0.9375 1.300781 -0.804688 1.21875 -0.671875 Z M 4.03125 -0.671875 "/>
</g>
<g id="glyph-0-3">
<path d="M 2.59375 0 L 2.59375 -1.375 L 0.109375 -1.375 L 0.109375 -2.015625 L 2.71875 -5.734375 L 3.296875 -5.734375 L 3.296875 -2.015625 L 4.0625 -2.015625 L 4.0625 -1.375 L 3.296875 -1.375 L 3.296875 0 Z M 2.59375 -2.015625 L 2.59375 -4.59375 L 0.796875 -2.015625 Z M 2.59375 -2.015625 "/>
</g>
<g id="glyph-0-4">
<path d="M 3.984375 -4.328125 L 3.28125 -4.265625 C 3.21875 -4.546875 3.128906 -4.75 3.015625 -4.875 C 2.828125 -5.070312 2.59375 -5.171875 2.3125 -5.171875 C 2.09375 -5.171875 1.894531 -5.109375 1.71875 -4.984375 C 1.5 -4.828125 1.328125 -4.59375 1.203125 -4.28125 C 1.078125 -3.96875 1.007812 -3.523438 1 -2.953125 C 1.164062 -3.210938 1.367188 -3.40625 1.609375 -3.53125 C 1.859375 -3.65625 2.117188 -3.71875 2.390625 -3.71875 C 2.859375 -3.71875 3.253906 -3.546875 3.578125 -3.203125 C 3.910156 -2.859375 4.078125 -2.410156 4.078125 -1.859375 C 4.078125 -1.503906 4 -1.171875 3.84375 -0.859375 C 3.695312 -0.546875 3.488281 -0.304688 3.21875 -0.140625 C 2.945312 0.015625 2.640625 0.09375 2.296875 0.09375 C 1.703125 0.09375 1.21875 -0.117188 0.84375 -0.546875 C 0.476562 -0.984375 0.296875 -1.695312 0.296875 -2.6875 C 0.296875 -3.789062 0.503906 -4.59375 0.921875 -5.09375 C 1.273438 -5.53125 1.753906 -5.75 2.359375 -5.75 C 2.804688 -5.75 3.171875 -5.625 3.453125 -5.375 C 3.742188 -5.125 3.921875 -4.773438 3.984375 -4.328125 Z M 1.109375 -1.859375 C 1.109375 -1.617188 1.160156 -1.382812 1.265625 -1.15625 C 1.367188 -0.9375 1.507812 -0.769531 1.6875 -0.65625 C 1.875 -0.539062 2.070312 -0.484375 2.28125 -0.484375 C 2.570312 -0.484375 2.820312 -0.601562 3.03125 -0.84375 C 3.25 -1.082031 3.359375 -1.40625 3.359375 -1.8125 C 3.359375 -2.207031 3.253906 -2.519531 3.046875 -2.75 C 2.835938 -2.976562 2.570312 -3.09375 2.25 -3.09375 C 1.9375 -3.09375 1.664062 -2.976562 1.4375 -2.75 C 1.21875 -2.519531 1.109375 -2.222656 1.109375 -1.859375 Z M 1.109375 -1.859375 "/>
</g>
<g id="glyph-0-5">
<path d="M 1.421875 -3.109375 C 1.128906 -3.210938 0.910156 -3.363281 0.765625 -3.5625 C 0.628906 -3.757812 0.5625 -4 0.5625 -4.28125 C 0.5625 -4.695312 0.707031 -5.046875 1 -5.328125 C 1.300781 -5.609375 1.703125 -5.75 2.203125 -5.75 C 2.703125 -5.75 3.101562 -5.601562 3.40625 -5.3125 C 3.707031 -5.019531 3.859375 -4.664062 3.859375 -4.25 C 3.859375 -3.988281 3.789062 -3.757812 3.65625 -3.5625 C 3.519531 -3.363281 3.304688 -3.210938 3.015625 -3.109375 C 3.367188 -2.992188 3.632812 -2.804688 3.8125 -2.546875 C 4 -2.296875 4.09375 -1.992188 4.09375 -1.640625 C 4.09375 -1.148438 3.921875 -0.738281 3.578125 -0.40625 C 3.234375 -0.0703125 2.78125 0.09375 2.21875 0.09375 C 1.644531 0.09375 1.1875 -0.0703125 0.84375 -0.40625 C 0.5 -0.738281 0.328125 -1.15625 0.328125 -1.65625 C 0.328125 -2.03125 0.421875 -2.34375 0.609375 -2.59375 C 0.796875 -2.84375 1.066406 -3.015625 1.421875 -3.109375 Z M 1.28125 -4.296875 C 1.28125 -4.023438 1.363281 -3.800781 1.53125 -3.625 C 1.707031 -3.457031 1.9375 -3.375 2.21875 -3.375 C 2.488281 -3.375 2.707031 -3.457031 2.875 -3.625 C 3.050781 -3.800781 3.140625 -4.015625 3.140625 -4.265625 C 3.140625 -4.515625 3.050781 -4.726562 2.875 -4.90625 C 2.695312 -5.082031 2.472656 -5.171875 2.203125 -5.171875 C 1.941406 -5.171875 1.722656 -5.082031 1.546875 -4.90625 C 1.367188 -4.738281 1.28125 -4.535156 1.28125 -4.296875 Z M 1.046875 -1.65625 C 1.046875 -1.457031 1.09375 -1.265625 1.1875 -1.078125 C 1.28125 -0.890625 1.421875 -0.742188 1.609375 -0.640625 C 1.796875 -0.535156 2 -0.484375 2.21875 -0.484375 C 2.550781 -0.484375 2.828125 -0.585938 3.046875 -0.796875 C 3.265625 -1.015625 3.375 -1.289062 3.375 -1.625 C 3.375 -1.96875 3.257812 -2.25 3.03125 -2.46875 C 2.8125 -2.6875 2.535156 -2.796875 2.203125 -2.796875 C 1.867188 -2.796875 1.59375 -2.6875 1.375 -2.46875 C 1.15625 -2.25 1.046875 -1.976562 1.046875 -1.65625 Z M 1.046875 -1.65625 "/>
</g>
<g id="glyph-0-6">
<path d="M 2.984375 0 L 2.28125 0 L 2.28125 -4.484375 C 2.113281 -4.316406 1.890625 -4.148438 1.609375 -3.984375 C 1.335938 -3.828125 1.09375 -3.710938 0.875 -3.640625 L 0.875 -4.3125 C 1.269531 -4.5 1.613281 -4.722656 1.90625 -4.984375 C 2.195312 -5.242188 2.40625 -5.5 2.53125 -5.75 L 2.984375 -5.75 Z M 2.984375 0 "/>
</g>
<g id="glyph-0-7">
<path d="M 0.0625 0 L 1.578125 -2.15625 L 0.171875 -4.15625 L 1.046875 -4.15625 L 1.6875 -3.171875 C 1.8125 -2.992188 1.910156 -2.84375 1.984375 -2.71875 C 2.097656 -2.882812 2.203125 -3.035156 2.296875 -3.171875 L 3 -4.15625 L 3.828125 -4.15625 L 2.40625 -2.203125 L 3.9375 0 L 3.078125 0 L 2.234375 -1.296875 L 2 -1.640625 L 0.90625 0 Z M 0.0625 0 "/>
</g>
<g id="glyph-1-0">
<path d="M -2.828125 -0.328125 C -3.503906 -0.328125 -4.046875 -0.394531 -4.453125 -0.53125 C -4.867188 -0.675781 -5.1875 -0.882812 -5.40625 -1.15625 C -5.632812 -1.4375 -5.75 -1.785156 -5.75 -2.203125 C -5.75 -2.503906 -5.6875 -2.769531 -5.5625 -3 C -5.4375 -3.238281 -5.257812 -3.429688 -5.03125 -3.578125 C -4.800781 -3.734375 -4.515625 -3.851562 -4.171875 -3.9375 C -3.835938 -4.019531 -3.390625 -4.0625 -2.828125 -4.0625 C -2.148438 -4.0625 -1.601562 -3.992188 -1.1875 -3.859375 C -0.78125 -3.722656 -0.460938 -3.515625 -0.234375 -3.234375 C -0.015625 -2.960938 0.09375 -2.617188 0.09375 -2.203125 C 0.09375 -1.648438 -0.101562 -1.21875 -0.5 -0.90625 C -0.976562 -0.519531 -1.753906 -0.328125 -2.828125 -0.328125 Z M -2.828125 -1.0625 C -1.890625 -1.0625 -1.265625 -1.171875 -0.953125 -1.390625 C -0.640625 -1.609375 -0.484375 -1.878906 -0.484375 -2.203125 C -0.484375 -2.523438 -0.640625 -2.796875 -0.953125 -3.015625 C -1.265625 -3.234375 -1.890625 -3.34375 -2.828125 -3.34375 C -3.765625 -3.34375 -4.390625 -3.234375 -4.703125 -3.015625 C -5.015625 -2.796875 -5.171875 -2.519531 -5.171875 -2.1875 C -5.171875 -1.863281 -5.035156 -1.609375 -4.765625 -1.421875 C -4.410156 -1.179688 -3.765625 -1.0625 -2.828125 -1.0625 Z M -2.828125 -1.0625 "/>
</g>
<g id="glyph-1-1">
<path d="M 0 -0.734375 L -0.796875 -0.734375 L -0.796875 -1.53125 L 0 -1.53125 Z M 0 -0.734375 "/>
</g>
<g id="glyph-1-2">
<path d="M -0.671875 -4.03125 L 0 -4.03125 L 0 -0.25 C -0.164062 -0.238281 -0.328125 -0.265625 -0.484375 -0.328125 C -0.742188 -0.421875 -1 -0.570312 -1.25 -0.78125 C -1.5 -1 -1.789062 -1.304688 -2.125 -1.703125 C -2.632812 -2.328125 -3.035156 -2.75 -3.328125 -2.96875 C -3.628906 -3.1875 -3.910156 -3.296875 -4.171875 -3.296875 C -4.453125 -3.296875 -4.6875 -3.195312 -4.875 -3 C -5.070312 -2.800781 -5.171875 -2.539062 -5.171875 -2.21875 C -5.171875 -1.882812 -5.066406 -1.613281 -4.859375 -1.40625 C -4.660156 -1.207031 -4.378906 -1.101562 -4.015625 -1.09375 L -4.09375 -0.375 C -4.632812 -0.425781 -5.046875 -0.613281 -5.328125 -0.9375 C -5.609375 -1.257812 -5.75 -1.691406 -5.75 -2.234375 C -5.75 -2.785156 -5.597656 -3.21875 -5.296875 -3.53125 C -4.992188 -3.851562 -4.613281 -4.015625 -4.15625 -4.015625 C -3.925781 -4.015625 -3.703125 -3.96875 -3.484375 -3.875 C -3.265625 -3.78125 -3.03125 -3.625 -2.78125 -3.40625 C -2.539062 -3.195312 -2.207031 -2.835938 -1.78125 -2.328125 C -1.425781 -1.910156 -1.1875 -1.640625 -1.0625 -1.515625 C -0.9375 -1.398438 -0.804688 -1.300781 -0.671875 -1.21875 Z M -0.671875 -4.03125 "/>
</g>
<g id="glyph-1-3">
<path d="M 0 -2.59375 L -1.375 -2.59375 L -1.375 -0.109375 L -2.015625 -0.109375 L -5.734375 -2.71875 L -5.734375 -3.296875 L -2.015625 -3.296875 L -2.015625 -4.0625 L -1.375 -4.0625 L -1.375 -3.296875 L 0 -3.296875 Z M -2.015625 -2.59375 L -4.59375 -2.59375 L -2.015625 -0.796875 Z M -2.015625 -2.59375 "/>
</g>
<g id="glyph-1-4">
<path d="M -4.328125 -3.984375 L -4.265625 -3.28125 C -4.546875 -3.21875 -4.75 -3.128906 -4.875 -3.015625 C -5.070312 -2.828125 -5.171875 -2.59375 -5.171875 -2.3125 C -5.171875 -2.09375 -5.109375 -1.894531 -4.984375 -1.71875 C -4.828125 -1.5 -4.59375 -1.328125 -4.28125 -1.203125 C -3.96875 -1.078125 -3.523438 -1.007812 -2.953125 -1 C -3.210938 -1.164062 -3.40625 -1.367188 -3.53125 -1.609375 C -3.65625 -1.859375 -3.71875 -2.117188 -3.71875 -2.390625 C -3.71875 -2.859375 -3.546875 -3.253906 -3.203125 -3.578125 C -2.859375 -3.910156 -2.410156 -4.078125 -1.859375 -4.078125 C -1.503906 -4.078125 -1.171875 -4 -0.859375 -3.84375 C -0.546875 -3.695312 -0.304688 -3.488281 -0.140625 -3.21875 C 0.015625 -2.945312 0.09375 -2.640625 0.09375 -2.296875 C 0.09375 -1.703125 -0.117188 -1.21875 -0.546875 -0.84375 C -0.984375 -0.476562 -1.695312 -0.296875 -2.6875 -0.296875 C -3.789062 -0.296875 -4.59375 -0.503906 -5.09375 -0.921875 C -5.53125 -1.273438 -5.75 -1.753906 -5.75 -2.359375 C -5.75 -2.804688 -5.625 -3.171875 -5.375 -3.453125 C -5.125 -3.742188 -4.773438 -3.921875 -4.328125 -3.984375 Z M -1.859375 -1.109375 C -1.617188 -1.109375 -1.382812 -1.160156 -1.15625 -1.265625 C -0.9375 -1.367188 -0.769531 -1.507812 -0.65625 -1.6875 C -0.539062 -1.875 -0.484375 -2.070312 -0.484375 -2.28125 C -0.484375 -2.570312 -0.601562 -2.820312 -0.84375 -3.03125 C -1.082031 -3.25 -1.40625 -3.359375 -1.8125 -3.359375 C -2.207031 -3.359375 -2.519531 -3.253906 -2.75 -3.046875 C -2.976562 -2.835938 -3.09375 -2.570312 -3.09375 -2.25 C -3.09375 -1.9375 -2.976562 -1.664062 -2.75 -1.4375 C -2.519531 -1.21875 -2.222656 -1.109375 -1.859375 -1.109375 Z M -1.859375 -1.109375 "/>
</g>
<g id="glyph-1-5">
<path d="M -3.109375 -1.421875 C -3.210938 -1.128906 -3.363281 -0.910156 -3.5625 -0.765625 C -3.757812 -0.628906 -4 -0.5625 -4.28125 -0.5625 C -4.695312 -0.5625 -5.046875 -0.707031 -5.328125 -1 C -5.609375 -1.300781 -5.75 -1.703125 -5.75 -2.203125 C -5.75 -2.703125 -5.601562 -3.101562 -5.3125 -3.40625 C -5.019531 -3.707031 -4.664062 -3.859375 -4.25 -3.859375 C -3.988281 -3.859375 -3.757812 -3.789062 -3.5625 -3.65625 C -3.363281 -3.519531 -3.210938 -3.304688 -3.109375 -3.015625 C -2.992188 -3.367188 -2.804688 -3.632812 -2.546875 -3.8125 C -2.296875 -4 -1.992188 -4.09375 -1.640625 -4.09375 C -1.148438 -4.09375 -0.738281 -3.921875 -0.40625 -3.578125 C -0.0703125 -3.234375 0.09375 -2.78125 0.09375 -2.21875 C 0.09375 -1.644531 -0.0703125 -1.1875 -0.40625 -0.84375 C -0.738281 -0.5 -1.15625 -0.328125 -1.65625 -0.328125 C -2.03125 -0.328125 -2.34375 -0.421875 -2.59375 -0.609375 C -2.84375 -0.796875 -3.015625 -1.066406 -3.109375 -1.421875 Z M -4.296875 -1.28125 C -4.023438 -1.28125 -3.800781 -1.363281 -3.625 -1.53125 C -3.457031 -1.707031 -3.375 -1.9375 -3.375 -2.21875 C -3.375 -2.488281 -3.457031 -2.707031 -3.625 -2.875 C -3.800781 -3.050781 -4.015625 -3.140625 -4.265625 -3.140625 C -4.515625 -3.140625 -4.726562 -3.050781 -4.90625 -2.875 C -5.082031 -2.695312 -5.171875 -2.472656 -5.171875 -2.203125 C -5.171875 -1.941406 -5.082031 -1.722656 -4.90625 -1.546875 C -4.738281 -1.367188 -4.535156 -1.28125 -4.296875 -1.28125 Z M -1.65625 -1.046875 C -1.457031 -1.046875 -1.265625 -1.09375 -1.078125 -1.1875 C -0.890625 -1.28125 -0.742188 -1.421875 -0.640625 -1.609375 C -0.535156 -1.796875 -0.484375 -2 -0.484375 -2.21875 C -0.484375 -2.550781 -0.585938 -2.828125 -0.796875 -3.046875 C -1.015625 -3.265625 -1.289062 -3.375 -1.625 -3.375 C -1.96875 -3.375 -2.25 -3.257812 -2.46875 -3.03125 C -2.6875 -2.8125 -2.796875 -2.535156 -2.796875 -2.203125 C -2.796875 -1.867188 -2.6875 -1.59375 -2.46875 -1.375 C -2.25 -1.15625 -1.976562 -1.046875 -1.65625 -1.046875 Z M -1.65625 -1.046875 "/>
</g>
<g id="glyph-1-6">
<path d="M 0 -2.984375 L 0 -2.28125 L -4.484375 -2.28125 C -4.316406 -2.113281 -4.148438 -1.890625 -3.984375 -1.609375 C -3.828125 -1.335938 -3.710938 -1.09375 -3.640625 -0.875 L -4.3125 -0.875 C -4.5 -1.269531 -4.722656 -1.613281 -4.984375 -1.90625 C -5.242188 -2.195312 -5.5 -2.40625 -5.75 -2.53125 L -5.75 -2.984375 Z M 0 -2.984375 "/>
</g>
<g id="glyph-1-7">
<path d="M 0 -0.0625 L -2.15625 -1.578125 L -4.15625 -0.171875 L -4.15625 -1.046875 L -3.171875 -1.6875 C -2.992188 -1.8125 -2.84375 -1.910156 -2.71875 -1.984375 C -2.882812 -2.097656 -3.035156 -2.203125 -3.171875 -2.296875 L -4.15625 -3 L -4.15625 -3.828125 L -2.203125 -2.40625 L 0 -3.9375 L 0 -3.078125 L -1.296875 -2.234375 L -1.640625 -2 L 0 -0.90625 Z M 0 -0.0625 "/>
</g>
<g id="glyph-2-0">
<path d="M 2.03125 0 L 0.65625 0 L 0.65625 -5.1875 L 1.9375 -5.1875 L 1.9375 -4.453125 C 2.15625 -4.796875 2.347656 -5.019531 2.515625 -5.125 C 2.691406 -5.238281 2.890625 -5.296875 3.109375 -5.296875 C 3.421875 -5.296875 3.722656 -5.210938 4.015625 -5.046875 L 3.59375 -3.84375 C 3.363281 -4 3.148438 -4.078125 2.953125 -4.078125 C 2.753906 -4.078125 2.585938 -4.019531 2.453125 -3.90625 C 2.328125 -3.800781 2.222656 -3.609375 2.140625 -3.328125 C 2.066406 -3.054688 2.03125 -2.484375 2.03125 -1.609375 Z M 2.03125 0 "/>
</g>
<g id="glyph-2-1">
<path d="M 1.75 -3.609375 L 0.5 -3.828125 C 0.632812 -4.328125 0.875 -4.695312 1.21875 -4.9375 C 1.5625 -5.175781 2.070312 -5.296875 2.75 -5.296875 C 3.351562 -5.296875 3.804688 -5.222656 4.109375 -5.078125 C 4.410156 -4.941406 4.617188 -4.757812 4.734375 -4.53125 C 4.859375 -4.3125 4.921875 -3.90625 4.921875 -3.3125 L 4.90625 -1.703125 C 4.90625 -1.242188 4.925781 -0.90625 4.96875 -0.6875 C 5.019531 -0.476562 5.101562 -0.25 5.21875 0 L 3.875 0 C 3.832031 -0.09375 3.785156 -0.226562 3.734375 -0.40625 C 3.710938 -0.488281 3.695312 -0.539062 3.6875 -0.5625 C 3.445312 -0.332031 3.191406 -0.160156 2.921875 -0.046875 C 2.660156 0.0664062 2.378906 0.125 2.078125 0.125 C 1.546875 0.125 1.125 -0.0195312 0.8125 -0.3125 C 0.507812 -0.601562 0.359375 -0.972656 0.359375 -1.421875 C 0.359375 -1.710938 0.425781 -1.972656 0.5625 -2.203125 C 0.707031 -2.429688 0.90625 -2.601562 1.15625 -2.71875 C 1.40625 -2.84375 1.769531 -2.953125 2.25 -3.046875 C 2.882812 -3.171875 3.328125 -3.285156 3.578125 -3.390625 L 3.578125 -3.515625 C 3.578125 -3.785156 3.507812 -3.972656 3.375 -4.078125 C 3.25 -4.191406 3.003906 -4.25 2.640625 -4.25 C 2.398438 -4.25 2.210938 -4.203125 2.078125 -4.109375 C 1.941406 -4.015625 1.832031 -3.847656 1.75 -3.609375 Z M 3.578125 -2.484375 C 3.398438 -2.429688 3.117188 -2.363281 2.734375 -2.28125 C 2.359375 -2.195312 2.113281 -2.117188 2 -2.046875 C 1.820312 -1.910156 1.734375 -1.75 1.734375 -1.5625 C 1.734375 -1.363281 1.800781 -1.191406 1.9375 -1.046875 C 2.082031 -0.910156 2.265625 -0.84375 2.484375 -0.84375 C 2.734375 -0.84375 2.972656 -0.925781 3.203125 -1.09375 C 3.367188 -1.21875 3.476562 -1.367188 3.53125 -1.546875 C 3.5625 -1.660156 3.578125 -1.882812 3.578125 -2.21875 Z M 3.578125 -2.484375 "/>
</g>
<g id="glyph-2-2">
<path d="M 5.4375 0 L 4.0625 0 L 4.0625 -2.640625 C 4.0625 -3.203125 4.03125 -3.566406 3.96875 -3.734375 C 3.914062 -3.898438 3.820312 -4.023438 3.6875 -4.109375 C 3.550781 -4.203125 3.394531 -4.25 3.21875 -4.25 C 2.976562 -4.25 2.765625 -4.179688 2.578125 -4.046875 C 2.390625 -3.921875 2.257812 -3.75 2.1875 -3.53125 C 2.113281 -3.320312 2.078125 -2.925781 2.078125 -2.34375 L 2.078125 0 L 0.703125 0 L 0.703125 -5.1875 L 1.984375 -5.1875 L 1.984375 -4.421875 C 2.429688 -5.003906 3 -5.296875 3.6875 -5.296875 C 3.988281 -5.296875 4.265625 -5.238281 4.515625 -5.125 C 4.765625 -5.019531 4.953125 -4.882812 5.078125 -4.71875 C 5.210938 -4.550781 5.304688 -4.359375 5.359375 -4.140625 C 5.410156 -3.929688 5.4375 -3.625 5.4375 -3.21875 Z M 5.4375 0 "/>
</g>
<g id="glyph-2-3">
<path d="M 5.46875 0 L 4.203125 0 L 4.203125 -0.765625 C 3.984375 -0.460938 3.726562 -0.238281 3.4375 -0.09375 C 3.15625 0.0507812 2.867188 0.125 2.578125 0.125 C 1.984375 0.125 1.472656 -0.113281 1.046875 -0.59375 C 0.617188 -1.082031 0.40625 -1.753906 0.40625 -2.609375 C 0.40625 -3.492188 0.613281 -4.160156 1.03125 -4.609375 C 1.445312 -5.066406 1.96875 -5.296875 2.59375 -5.296875 C 3.175781 -5.296875 3.679688 -5.054688 4.109375 -4.578125 L 4.109375 -7.15625 L 5.46875 -7.15625 Z M 1.8125 -2.703125 C 1.8125 -2.148438 1.890625 -1.75 2.046875 -1.5 C 2.265625 -1.144531 2.570312 -0.96875 2.96875 -0.96875 C 3.28125 -0.96875 3.546875 -1.097656 3.765625 -1.359375 C 3.992188 -1.628906 4.109375 -2.035156 4.109375 -2.578125 C 4.109375 -3.171875 4 -3.597656 3.78125 -3.859375 C 3.570312 -4.117188 3.296875 -4.25 2.953125 -4.25 C 2.628906 -4.25 2.359375 -4.117188 2.140625 -3.859375 C 1.921875 -3.609375 1.8125 -3.222656 1.8125 -2.703125 Z M 1.8125 -2.703125 "/>
</g>
<g id="glyph-2-4">
<path d="M 0.40625 -2.671875 C 0.40625 -3.117188 0.515625 -3.554688 0.734375 -3.984375 C 0.960938 -4.410156 1.28125 -4.734375 1.6875 -4.953125 C 2.101562 -5.179688 2.566406 -5.296875 3.078125 -5.296875 C 3.859375 -5.296875 4.5 -5.039062 5 -4.53125 C 5.5 -4.03125 5.75 -3.390625 5.75 -2.609375 C 5.75 -1.828125 5.492188 -1.175781 4.984375 -0.65625 C 4.484375 -0.132812 3.847656 0.125 3.078125 0.125 C 2.609375 0.125 2.15625 0.015625 1.71875 -0.203125 C 1.289062 -0.421875 0.960938 -0.734375 0.734375 -1.140625 C 0.515625 -1.554688 0.40625 -2.066406 0.40625 -2.671875 Z M 1.8125 -2.59375 C 1.8125 -2.082031 1.929688 -1.6875 2.171875 -1.40625 C 2.421875 -1.132812 2.722656 -1 3.078125 -1 C 3.429688 -1 3.726562 -1.132812 3.96875 -1.40625 C 4.21875 -1.6875 4.34375 -2.085938 4.34375 -2.609375 C 4.34375 -3.109375 4.21875 -3.492188 3.96875 -3.765625 C 3.726562 -4.046875 3.429688 -4.1875 3.078125 -4.1875 C 2.722656 -4.1875 2.421875 -4.046875 2.171875 -3.765625 C 1.929688 -3.492188 1.8125 -3.101562 1.8125 -2.59375 Z M 1.8125 -2.59375 "/>
</g>
<g id="glyph-2-5">
<path d="M 0.609375 -5.1875 L 1.875 -5.1875 L 1.875 -4.484375 C 2.332031 -5.023438 2.875 -5.296875 3.5 -5.296875 C 3.832031 -5.296875 4.117188 -5.226562 4.359375 -5.09375 C 4.609375 -4.957031 4.8125 -4.753906 4.96875 -4.484375 C 5.1875 -4.753906 5.425781 -4.957031 5.6875 -5.09375 C 5.957031 -5.226562 6.242188 -5.296875 6.546875 -5.296875 C 6.921875 -5.296875 7.238281 -5.21875 7.5 -5.0625 C 7.769531 -4.914062 7.96875 -4.691406 8.09375 -4.390625 C 8.195312 -4.171875 8.25 -3.8125 8.25 -3.3125 L 8.25 0 L 6.875 0 L 6.875 -2.96875 C 6.875 -3.476562 6.828125 -3.804688 6.734375 -3.953125 C 6.597656 -4.148438 6.398438 -4.25 6.140625 -4.25 C 5.953125 -4.25 5.769531 -4.191406 5.59375 -4.078125 C 5.425781 -3.960938 5.304688 -3.789062 5.234375 -3.5625 C 5.160156 -3.332031 5.125 -2.972656 5.125 -2.484375 L 5.125 0 L 3.75 0 L 3.75 -2.84375 C 3.75 -3.34375 3.722656 -3.664062 3.671875 -3.8125 C 3.628906 -3.957031 3.554688 -4.066406 3.453125 -4.140625 C 3.347656 -4.210938 3.207031 -4.25 3.03125 -4.25 C 2.820312 -4.25 2.628906 -4.191406 2.453125 -4.078125 C 2.285156 -3.960938 2.164062 -3.796875 2.09375 -3.578125 C 2.019531 -3.367188 1.984375 -3.015625 1.984375 -2.515625 L 1.984375 0 L 0.609375 0 Z M 0.609375 -5.1875 "/>
</g>
<g id="glyph-2-6">
</g>
<g id="glyph-2-7">
<path d="M 0.765625 0 L 0.765625 -7.09375 L 2.21875 -7.09375 L 2.21875 -1.203125 L 5.8125 -1.203125 L 5.8125 0 Z M 0.765625 0 "/>
</g>
<g id="glyph-2-8">
<path d="M 0.734375 0 L 0.734375 -7.15625 L 2.171875 -7.15625 L 2.171875 -4.34375 L 5.015625 -4.34375 L 5.015625 -7.15625 L 6.453125 -7.15625 L 6.453125 0 L 5.015625 0 L 5.015625 -3.125 L 2.171875 -3.125 L 2.171875 0 Z M 0.734375 0 "/>
</g>
<g id="glyph-2-9">
<path d="M 0.71875 -7.15625 L 3.359375 -7.15625 C 3.960938 -7.15625 4.421875 -7.109375 4.734375 -7.015625 C 5.148438 -6.898438 5.503906 -6.679688 5.796875 -6.359375 C 6.097656 -6.046875 6.328125 -5.660156 6.484375 -5.203125 C 6.640625 -4.742188 6.71875 -4.179688 6.71875 -3.515625 C 6.71875 -2.921875 6.644531 -2.410156 6.5 -1.984375 C 6.320312 -1.460938 6.066406 -1.039062 5.734375 -0.71875 C 5.484375 -0.476562 5.144531 -0.289062 4.71875 -0.15625 C 4.40625 -0.0507812 3.976562 0 3.4375 0 L 0.71875 0 Z M 2.171875 -5.953125 L 2.171875 -1.203125 L 3.25 -1.203125 C 3.65625 -1.203125 3.945312 -1.226562 4.125 -1.28125 C 4.351562 -1.332031 4.546875 -1.425781 4.703125 -1.5625 C 4.859375 -1.707031 4.984375 -1.941406 5.078125 -2.265625 C 5.179688 -2.585938 5.234375 -3.023438 5.234375 -3.578125 C 5.234375 -4.128906 5.179688 -4.550781 5.078125 -4.84375 C 4.984375 -5.144531 4.847656 -5.378906 4.671875 -5.546875 C 4.492188 -5.710938 4.269531 -5.820312 4 -5.875 C 3.800781 -5.925781 3.40625 -5.953125 2.8125 -5.953125 Z M 2.171875 -5.953125 "/>
</g>
<g id="glyph-2-10">
<path d="M 0.359375 -2.328125 L 1.765625 -2.46875 C 1.847656 -2 2.019531 -1.648438 2.28125 -1.421875 C 2.539062 -1.203125 2.890625 -1.09375 3.328125 -1.09375 C 3.796875 -1.09375 4.144531 -1.191406 4.375 -1.390625 C 4.613281 -1.585938 4.734375 -1.816406 4.734375 -2.078125 C 4.734375 -2.242188 4.679688 -2.382812 4.578125 -2.5 C 4.484375 -2.625 4.3125 -2.734375 4.0625 -2.828125 C 3.894531 -2.878906 3.507812 -2.984375 2.90625 -3.140625 C 2.132812 -3.328125 1.59375 -3.5625 1.28125 -3.84375 C 0.84375 -4.238281 0.625 -4.71875 0.625 -5.28125 C 0.625 -5.644531 0.722656 -5.984375 0.921875 -6.296875 C 1.128906 -6.617188 1.425781 -6.863281 1.8125 -7.03125 C 2.207031 -7.195312 2.679688 -7.28125 3.234375 -7.28125 C 4.128906 -7.28125 4.800781 -7.082031 5.25 -6.6875 C 5.707031 -6.289062 5.953125 -5.765625 5.984375 -5.109375 L 4.53125 -5.046875 C 4.46875 -5.410156 4.332031 -5.671875 4.125 -5.828125 C 3.925781 -5.992188 3.625 -6.078125 3.21875 -6.078125 C 2.800781 -6.078125 2.472656 -5.992188 2.234375 -5.828125 C 2.078125 -5.710938 2 -5.5625 2 -5.375 C 2 -5.207031 2.070312 -5.066406 2.21875 -4.953125 C 2.394531 -4.796875 2.832031 -4.632812 3.53125 -4.46875 C 4.238281 -4.300781 4.757812 -4.128906 5.09375 -3.953125 C 5.4375 -3.773438 5.703125 -3.53125 5.890625 -3.21875 C 6.085938 -2.914062 6.1875 -2.535156 6.1875 -2.078125 C 6.1875 -1.671875 6.070312 -1.285156 5.84375 -0.921875 C 5.613281 -0.566406 5.289062 -0.300781 4.875 -0.125 C 4.457031 0.0390625 3.9375 0.125 3.3125 0.125 C 2.40625 0.125 1.707031 -0.0820312 1.21875 -0.5 C 0.738281 -0.914062 0.453125 -1.523438 0.359375 -2.328125 Z M 0.359375 -2.328125 "/>
</g>
<g id="glyph-2-11">
<path d="M 0.703125 0 L 0.703125 -7.15625 L 2.875 -7.15625 L 4.171875 -2.28125 L 5.453125 -7.15625 L 7.625 -7.15625 L 7.625 0 L 6.28125 0 L 6.28125 -5.640625 L 4.859375 0 L 3.46875 0 L 2.046875 -5.640625 L 2.046875 0 Z M 0.703125 0 "/>
</g>
<g id="glyph-2-12">
<path d="M 0.0625 0 L 1.921875 -2.671875 L 0.140625 -5.1875 L 1.8125 -5.1875 L 2.734375 -3.765625 L 3.703125 -5.1875 L 5.3125 -5.1875 L 3.546875 -2.734375 L 5.46875 0 L 3.78125 0 L 2.734375 -1.609375 L 1.671875 0 Z M 0.0625 0 "/>
</g>
<g id="glyph-2-13">
<path d="M 0.734375 0 L 0.734375 -7.15625 L 3.046875 -7.15625 C 3.921875 -7.15625 4.492188 -7.117188 4.765625 -7.046875 C 5.171875 -6.941406 5.515625 -6.707031 5.796875 -6.34375 C 6.078125 -5.988281 6.21875 -5.523438 6.21875 -4.953125 C 6.21875 -4.515625 6.132812 -4.144531 5.96875 -3.84375 C 5.8125 -3.550781 5.609375 -3.316406 5.359375 -3.140625 C 5.117188 -2.972656 4.867188 -2.859375 4.609375 -2.796875 C 4.265625 -2.734375 3.765625 -2.703125 3.109375 -2.703125 L 2.171875 -2.703125 L 2.171875 0 Z M 2.171875 -5.953125 L 2.171875 -3.921875 L 2.96875 -3.921875 C 3.53125 -3.921875 3.90625 -3.957031 4.09375 -4.03125 C 4.289062 -4.101562 4.441406 -4.21875 4.546875 -4.375 C 4.660156 -4.539062 4.71875 -4.726562 4.71875 -4.9375 C 4.71875 -5.195312 4.640625 -5.410156 4.484375 -5.578125 C 4.335938 -5.742188 4.144531 -5.851562 3.90625 -5.90625 C 3.738281 -5.9375 3.394531 -5.953125 2.875 -5.953125 Z M 2.171875 -5.953125 "/>
</g>
<g id="glyph-3-0">
<path d="M 2.234375 0 L 1.703125 0 L 1.703125 -3.359375 C 1.578125 -3.234375 1.410156 -3.109375 1.203125 -2.984375 C 1.003906 -2.867188 0.820312 -2.78125 0.65625 -2.71875 L 0.65625 -3.234375 C 0.945312 -3.367188 1.203125 -3.535156 1.421875 -3.734375 C 1.648438 -3.929688 1.804688 -4.125 1.890625 -4.3125 L 2.234375 -4.3125 Z M 2.234375 0 "/>
</g>
<g id="glyph-4-0">
<path d="M -0.5 -3.015625 L 0 -3.015625 L 0 -0.1875 C -0.125 -0.175781 -0.242188 -0.195312 -0.359375 -0.25 C -0.554688 -0.320312 -0.75 -0.4375 -0.9375 -0.59375 C -1.125 -0.75 -1.34375 -0.976562 -1.59375 -1.28125 C -1.96875 -1.75 -2.265625 -2.0625 -2.484375 -2.21875 C -2.710938 -2.382812 -2.925781 -2.46875 -3.125 -2.46875 C -3.34375 -2.46875 -3.519531 -2.394531 -3.65625 -2.25 C -3.800781 -2.101562 -3.875 -1.910156 -3.875 -1.671875 C -3.875 -1.410156 -3.796875 -1.203125 -3.640625 -1.046875 C -3.492188 -0.898438 -3.285156 -0.828125 -3.015625 -0.828125 L -3.078125 -0.28125 C -3.472656 -0.320312 -3.773438 -0.460938 -3.984375 -0.703125 C -4.203125 -0.941406 -4.3125 -1.265625 -4.3125 -1.671875 C -4.3125 -2.085938 -4.195312 -2.414062 -3.96875 -2.65625 C -3.738281 -2.894531 -3.457031 -3.015625 -3.125 -3.015625 C -2.945312 -3.015625 -2.773438 -2.976562 -2.609375 -2.90625 C -2.441406 -2.832031 -2.265625 -2.710938 -2.078125 -2.546875 C -1.898438 -2.390625 -1.648438 -2.125 -1.328125 -1.75 C -1.066406 -1.425781 -0.890625 -1.21875 -0.796875 -1.125 C -0.703125 -1.039062 -0.601562 -0.972656 -0.5 -0.921875 Z M -0.5 -3.015625 "/>
</g>
</g>
</defs>
<path fill="none" stroke-width="0.75" stroke-linecap="round" stroke-linejoin="round" stroke="rgb(87.451172%, 32.548523%, 41.960144%)" stroke-opacity="1" stroke-miterlimit="10" d="M 57.449219 231.289062 C 57.449219 232.269531 58.25 233.070312 59.230469 233.070312 C 60.210938 233.070312 61.019531 232.269531 61.019531 231.289062 C 61.019531 230.308594 60.210938 229.511719 59.230469 229.511719 C 58.25 229.511719 57.449219 230.308594 57.449219 231.289062 " transform="matrix(1, 0, 0, -1, 0, 288)"/>
<path fill="none" stroke-width="0.75" stroke-linecap="round" stroke-linejoin="round" stroke="rgb(87.451172%, 32.548523%, 41.960144%)" stroke-opacity="1" stroke-miterlimit="10" d="M 81.019531 128.121094 C 81.019531 129.101562 81.820312 129.898438 82.800781 129.898438 C 83.78125 129.898438 84.578125 129.101562 84.578125 128.121094 C 84.578125 127.140625 83.78125 126.339844 82.800781 126.339844 C 81.820312 126.339844 81.019531 127.140625 81.019531 128.121094 " transform="matrix(1, 0, 0, -1, 0, 288)"/>
<path fill="none" stroke-width="0.75" stroke-linecap="round" stroke-linejoin="round" stroke="rgb(87.451172%, 32.548523%, 41.960144%)" stroke-opacity="1" stroke-miterlimit="10" d="M 104.589844 190.019531 C 104.589844 191 105.390625 191.800781 106.371094 191.800781 C 107.351562 191.800781 108.148438 191 108.148438 190.019531 C 108.148438 189.039062 107.351562 188.238281 106.371094 188.238281 C 105.390625 188.238281 104.589844 189.039062 104.589844 190.019531 " transform="matrix(1, 0, 0, -1, 0, 288)"/>
<path fill="none" stroke-width="0.75" stroke-linecap="round" stroke-linejoin="round" stroke="rgb(38.038635%, 81.568909%, 30.979919%)" stroke-opacity="1" stroke-miterlimit="10" d="M 129.941406 68.988281 L 132.339844 64.828125 L 127.539062 64.828125 Z M 129.941406 68.988281 " transform="matrix(1, 0, 0, -1, 0, 288)"/>
<path fill="none" stroke-width="0.75" stroke-linecap="round" stroke-linejoin="round" stroke="rgb(38.038635%, 81.568909%, 30.979919%)" stroke-opacity="1" stroke-miterlimit="10" d="M 153.5 89.621094 L 155.898438 85.460938 L 151.101562 85.460938 Z M 153.5 89.621094 " transform="matrix(1, 0, 0, -1, 0, 288)"/>
<path fill="none" stroke-width="0.75" stroke-linecap="round" stroke-linejoin="round" stroke="rgb(38.038635%, 81.568909%, 30.979919%)" stroke-opacity="1" stroke-miterlimit="10" d="M 177.070312 172.160156 L 179.46875 168 L 174.671875 168 Z M 177.070312 172.160156 " transform="matrix(1, 0, 0, -1, 0, 288)"/>
<path fill="none" stroke-width="0.75" stroke-linecap="round" stroke-linejoin="round" stroke="rgb(13.33313%, 59.216309%, 90.196228%)" stroke-opacity="1" stroke-miterlimit="10" d="M 198.121094 107.480469 L 203.160156 107.480469 " transform="matrix(1, 0, 0, -1, 0, 288)"/>
<path fill="none" stroke-width="0.75" stroke-linecap="round" stroke-linejoin="round" stroke="rgb(13.33313%, 59.216309%, 90.196228%)" stroke-opacity="1" stroke-miterlimit="10" d="M 200.640625 104.960938 L 200.640625 110 " transform="matrix(1, 0, 0, -1, 0, 288)"/>
<path fill="none" stroke-width="0.75" stroke-linecap="round" stroke-linejoin="round" stroke="rgb(13.33313%, 59.216309%, 90.196228%)" stroke-opacity="1" stroke-miterlimit="10" d="M 221.691406 210.648438 L 226.730469 210.648438 " transform="matrix(1, 0, 0, -1, 0, 288)"/>
<path fill="none" stroke-width="0.75" stroke-linecap="round" stroke-linejoin="round" stroke="rgb(13.33313%, 59.216309%, 90.196228%)" stroke-opacity="1" stroke-miterlimit="10" d="M 224.210938 208.128906 L 224.210938 213.171875 " transform="matrix(1, 0, 0, -1, 0, 288)"/>
<path fill="none" stroke-width="0.75" stroke-linecap="round" stroke-linejoin="round" stroke="rgb(13.33313%, 59.216309%, 90.196228%)" stroke-opacity="1" stroke-miterlimit="10" d="M 245.25 148.75 L 250.289062 148.75 " transform="matrix(1, 0, 0, -1, 0, 288)"/>
<path fill="none" stroke-width="0.75" stroke-linecap="round" stroke-linejoin="round" stroke="rgb(13.33313%, 59.216309%, 90.196228%)" stroke-opacity="1" stroke-miterlimit="10" d="M 247.769531 146.230469 L 247.769531 151.269531 " transform="matrix(1, 0, 0, -1, 0, 288)"/>
<path fill="none" stroke-width="0.75" stroke-linecap="round" stroke-linejoin="round" stroke="rgb(0%, 0%, 0%)" stroke-opacity="1" stroke-miterlimit="10" d="M 47.449219 48.46875 L 259.558594 48.46875 " transform="matrix(1, 0, 0, -1, 0, 288)"/>
<path fill="none" stroke-width="0.75" stroke-linecap="round" stroke-linejoin="round" stroke="rgb(0%, 0%, 0%)" stroke-opacity="1" stroke-miterlimit="10" d="M 47.449219 48.46875 L 47.449219 43.71875 " transform="matrix(1, 0, 0, -1, 0, 288)"/>
<path fill="none" stroke-width="0.75" stroke-linecap="round" stroke-linejoin="round" stroke="rgb(0%, 0%, 0%)" stroke-opacity="1" stroke-miterlimit="10" d="M 89.871094 48.46875 L 89.871094 43.71875 " transform="matrix(1, 0, 0, -1, 0, 288)"/>
<path fill="none" stroke-width="0.75" stroke-linecap="round" stroke-linejoin="round" stroke="rgb(0%, 0%, 0%)" stroke-opacity="1" stroke-miterlimit="10" d="M 132.289062 48.46875 L 132.289062 43.71875 " transform="matrix(1, 0, 0, -1, 0, 288)"/>
<path fill="none" stroke-width="0.75" stroke-linecap="round" stroke-linejoin="round" stroke="rgb(0%, 0%, 0%)" stroke-opacity="1" stroke-miterlimit="10" d="M 174.710938 48.46875 L 174.710938 43.71875 " transform="matrix(1, 0, 0, -1, 0, 288)"/>
<path fill="none" stroke-width="0.75" stroke-linecap="round" stroke-linejoin="round" stroke="rgb(0%, 0%, 0%)" stroke-opacity="1" stroke-miterlimit="10" d="M 217.140625 48.46875 L 217.140625 43.71875 " transform="matrix(1, 0, 0, -1, 0, 288)"/>
<path fill="none" stroke-width="0.75" stroke-linecap="round" stroke-linejoin="round" stroke="rgb(0%, 0%, 0%)" stroke-opacity="1" stroke-miterlimit="10" d="M 259.558594 48.46875 L 259.558594 43.71875 " transform="matrix(1, 0, 0, -1, 0, 288)"/>
<g fill="rgb(0%, 0%, 0%)" fill-opacity="1">
<use xlink:href="#glyph-0-0" x="41.89" y="256.64"/>
<use xlink:href="#glyph-0-1" x="46.338" y="256.64"/>
<use xlink:href="#glyph-0-0" x="48.562" y="256.64"/>
</g>
<g fill="rgb(0%, 0%, 0%)" fill-opacity="1">
<use xlink:href="#glyph-0-0" x="84.31" y="256.64"/>
<use xlink:href="#glyph-0-1" x="88.758" y="256.64"/>
<use xlink:href="#glyph-0-2" x="90.982" y="256.64"/>
</g>
<g fill="rgb(0%, 0%, 0%)" fill-opacity="1">
<use xlink:href="#glyph-0-0" x="126.73" y="256.64"/>
<use xlink:href="#glyph-0-1" x="131.178" y="256.64"/>
<use xlink:href="#glyph-0-3" x="133.402" y="256.64"/>
</g>
<g fill="rgb(0%, 0%, 0%)" fill-opacity="1">
<use xlink:href="#glyph-0-0" x="169.15" y="256.64"/>
<use xlink:href="#glyph-0-1" x="173.598" y="256.64"/>
<use xlink:href="#glyph-0-4" x="175.822" y="256.64"/>
</g>
<g fill="rgb(0%, 0%, 0%)" fill-opacity="1">
<use xlink:href="#glyph-0-0" x="211.58" y="256.64"/>
<use xlink:href="#glyph-0-1" x="216.028" y="256.64"/>
<use xlink:href="#glyph-0-5" x="218.252" y="256.64"/>
</g>
<g fill="rgb(0%, 0%, 0%)" fill-opacity="1">
<use xlink:href="#glyph-0-6" x="254" y="256.64"/>
<use xlink:href="#glyph-0-1" x="258.448" y="256.64"/>
<use xlink:href="#glyph-0-0" x="260.672" y="256.64"/>
</g>
<path fill="none" stroke-width="0.75" stroke-linecap="round" stroke-linejoin="round" stroke="rgb(0%, 0%, 0%)" stroke-opacity="1" stroke-miterlimit="10" d="M 38.96875 55.898438 L 38.96875 241.609375 " transform="matrix(1, 0, 0, -1, 0, 288)"/>
<path fill="none" stroke-width="0.75" stroke-linecap="round" stroke-linejoin="round" stroke="rgb(0%, 0%, 0%)" stroke-opacity="1" stroke-miterlimit="10" d="M 38.96875 55.898438 L 34.210938 55.898438 " transform="matrix(1, 0, 0, -1, 0, 288)"/>
<path fill="none" stroke-width="0.75" stroke-linecap="round" stroke-linejoin="round" stroke="rgb(0%, 0%, 0%)" stroke-opacity="1" stroke-miterlimit="10" d="M 38.96875 93.039062 L 34.210938 93.039062 " transform="matrix(1, 0, 0, -1, 0, 288)"/>
<path fill="none" stroke-width="0.75" stroke-linecap="round" stroke-linejoin="round" stroke="rgb(0%, 0%, 0%)" stroke-opacity="1" stroke-miterlimit="10" d="M 38.96875 130.179688 L 34.210938 130.179688 " transform="matrix(1, 0, 0, -1, 0, 288)"/>
<path fill="none" stroke-width="0.75" stroke-linecap="round" stroke-linejoin="round" stroke="rgb(0%, 0%, 0%)" stroke-opacity="1" stroke-miterlimit="10" d="M 38.96875 167.320312 L 34.210938 167.320312 " transform="matrix(1, 0, 0, -1, 0, 288)"/>
<path fill="none" stroke-width="0.75" stroke-linecap="round" stroke-linejoin="round" stroke="rgb(0%, 0%, 0%)" stroke-opacity="1" stroke-miterlimit="10" d="M 38.96875 204.460938 L 34.210938 204.460938 " transform="matrix(1, 0, 0, -1, 0, 288)"/>
<path fill="none" stroke-width="0.75" stroke-linecap="round" stroke-linejoin="round" stroke="rgb(0%, 0%, 0%)" stroke-opacity="1" stroke-miterlimit="10" d="M 38.96875 241.609375 L 34.210938 241.609375 " transform="matrix(1, 0, 0, -1, 0, 288)"/>
<g fill="rgb(0%, 0%, 0%)" fill-opacity="1">
<use xlink:href="#glyph-1-0" x="27.56" y="237.66"/>
<use xlink:href="#glyph-1-1" x="27.56" y="233.212"/>
<use xlink:href="#glyph-1-0" x="27.56" y="230.988"/>
</g>
<g fill="rgb(0%, 0%, 0%)" fill-opacity="1">
<use xlink:href="#glyph-1-0" x="27.56" y="200.52"/>
<use xlink:href="#glyph-1-1" x="27.56" y="196.072"/>
<use xlink:href="#glyph-1-2" x="27.56" y="193.848"/>
</g>
<g fill="rgb(0%, 0%, 0%)" fill-opacity="1">
<use xlink:href="#glyph-1-0" x="27.56" y="163.38"/>
<use xlink:href="#glyph-1-1" x="27.56" y="158.932"/>
<use xlink:href="#glyph-1-3" x="27.56" y="156.708"/>
</g>
<g fill="rgb(0%, 0%, 0%)" fill-opacity="1">
<use xlink:href="#glyph-1-0" x="27.56" y="126.24"/>
<use xlink:href="#glyph-1-1" x="27.56" y="121.792"/>
<use xlink:href="#glyph-1-4" x="27.56" y="119.568"/>
</g>
<g fill="rgb(0%, 0%, 0%)" fill-opacity="1">
<use xlink:href="#glyph-1-0" x="27.56" y="89.1"/>
<use xlink:href="#glyph-1-1" x="27.56" y="84.652"/>
<use xlink:href="#glyph-1-5" x="27.56" y="82.428"/>
</g>
<g fill="rgb(0%, 0%, 0%)" fill-opacity="1">
<use xlink:href="#glyph-1-6" x="27.56" y="51.95"/>
<use xlink:href="#glyph-1-1" x="27.56" y="47.502"/>
<use xlink:href="#glyph-1-0" x="27.56" y="45.278"/>
</g>
<g fill="rgb(0%, 0%, 0%)" fill-opacity="1">
<use xlink:href="#glyph-2-0" x="123.5" y="23.07"/>
<use xlink:href="#glyph-2-1" x="127.39" y="23.07"/>
<use xlink:href="#glyph-2-2" x="132.95" y="23.07"/>
<use xlink:href="#glyph-2-3" x="139.06" y="23.07"/>
<use xlink:href="#glyph-2-4" x="145.17" y="23.07"/>
<use xlink:href="#glyph-2-5" x="151.28" y="23.07"/>
<use xlink:href="#glyph-2-6" x="160.17" y="23.07"/>
<use xlink:href="#glyph-2-7" x="162.95" y="23.07"/>
<use xlink:href="#glyph-2-8" x="169.06" y="23.07"/>
<use xlink:href="#glyph-2-9" x="176.28" y="23.07"/>
</g>
<g fill="rgb(0%, 0%, 0%)" fill-opacity="1">
<use xlink:href="#glyph-0-7" x="149.84" y="273.94"/>
</g>
<g fill="rgb(0%, 0%, 0%)" fill-opacity="1">
<use xlink:href="#glyph-3-0" x="153.84" y="275.64"/>
</g>
<g fill="rgb(0%, 0%, 0%)" fill-opacity="1">
<use xlink:href="#glyph-1-7" x="6.85" y="142.92"/>
</g>
<g fill="rgb(0%, 0%, 0%)" fill-opacity="1">
<use xlink:href="#glyph-4-0" x="8.55" y="138.92"/>
</g>
<path fill="none" stroke-width="0.75" stroke-linecap="round" stroke-linejoin="round" stroke="rgb(0%, 0%, 0%)" stroke-opacity="1" stroke-dasharray="0 3" stroke-miterlimit="10" d="M 71.019531 55.898438 L 71.019531 241.609375 " transform="matrix(1, 0, 0, -1, 0, 288)"/>
<path fill="none" stroke-width="0.75" stroke-linecap="round" stroke-linejoin="round" stroke="rgb(0%, 0%, 0%)" stroke-opacity="1" stroke-dasharray="0 3" stroke-miterlimit="10" d="M 47.449219 76.53125 L 259.558594 76.53125 " transform="matrix(1, 0, 0, -1, 0, 288)"/>
<path fill="none" stroke-width="0.75" stroke-linecap="round" stroke-linejoin="round" stroke="rgb(0%, 0%, 0%)" stroke-opacity="1" stroke-dasharray="0 3" stroke-miterlimit="10" d="M 94.589844 55.898438 L 94.589844 241.609375 " transform="matrix(1, 0, 0, -1, 0, 288)"/>
<path fill="none" stroke-width="0.75" stroke-linecap="round" stroke-linejoin="round" stroke="rgb(0%, 0%, 0%)" stroke-opacity="1" stroke-dasharray="0 3" stroke-miterlimit="10" d="M 47.449219 97.171875 L 259.558594 97.171875 " transform="matrix(1, 0, 0, -1, 0, 288)"/>
<path fill="none" stroke-width="0.75" stroke-linecap="round" stroke-linejoin="round" stroke="rgb(0%, 0%, 0%)" stroke-opacity="1" stroke-dasharray="0 3" stroke-miterlimit="10" d="M 118.148438 55.898438 L 118.148438 241.609375 " transform="matrix(1, 0, 0, -1, 0, 288)"/>
<path fill="none" stroke-width="0.75" stroke-linecap="round" stroke-linejoin="round" stroke="rgb(0%, 0%, 0%)" stroke-opacity="1" stroke-dasharray="0 3" stroke-miterlimit="10" d="M 47.449219 117.800781 L 259.558594 117.800781 " transform="matrix(1, 0, 0, -1, 0, 288)"/>
<path fill="none" stroke-width="0.75" stroke-linecap="round" stroke-linejoin="round" stroke="rgb(0%, 0%, 0%)" stroke-opacity="1" stroke-dasharray="0 3" stroke-miterlimit="10" d="M 141.71875 55.898438 L 141.71875 241.609375 " transform="matrix(1, 0, 0, -1, 0, 288)"/>
<path fill="none" stroke-width="0.75" stroke-linecap="round" stroke-linejoin="round" stroke="rgb(0%, 0%, 0%)" stroke-opacity="1" stroke-dasharray="0 3" stroke-miterlimit="10" d="M 47.449219 138.429688 L 259.558594 138.429688 " transform="matrix(1, 0, 0, -1, 0, 288)"/>
<path fill="none" stroke-width="0.75" stroke-linecap="round" stroke-linejoin="round" stroke="rgb(0%, 0%, 0%)" stroke-opacity="1" stroke-dasharray="0 3" stroke-miterlimit="10" d="M 165.289062 55.898438 L 165.289062 241.609375 " transform="matrix(1, 0, 0, -1, 0, 288)"/>
<path fill="none" stroke-width="0.75" stroke-linecap="round" stroke-linejoin="round" stroke="rgb(0%, 0%, 0%)" stroke-opacity="1" stroke-dasharray="0 3" stroke-miterlimit="10" d="M 47.449219 159.070312 L 259.558594 159.070312 " transform="matrix(1, 0, 0, -1, 0, 288)"/>
<path fill="none" stroke-width="0.75" stroke-linecap="round" stroke-linejoin="round" stroke="rgb(0%, 0%, 0%)" stroke-opacity="1" stroke-dasharray="0 3" stroke-miterlimit="10" d="M 188.859375 55.898438 L 188.859375 241.609375 " transform="matrix(1, 0, 0, -1, 0, 288)"/>
<path fill="none" stroke-width="0.75" stroke-linecap="round" stroke-linejoin="round" stroke="rgb(0%, 0%, 0%)" stroke-opacity="1" stroke-dasharray="0 3" stroke-miterlimit="10" d="M 47.449219 179.699219 L 259.558594 179.699219 " transform="matrix(1, 0, 0, -1, 0, 288)"/>
<path fill="none" stroke-width="0.75" stroke-linecap="round" stroke-linejoin="round" stroke="rgb(0%, 0%, 0%)" stroke-opacity="1" stroke-dasharray="0 3" stroke-miterlimit="10" d="M 212.421875 55.898438 L 212.421875 241.609375 " transform="matrix(1, 0, 0, -1, 0, 288)"/>
<path fill="none" stroke-width="0.75" stroke-linecap="round" stroke-linejoin="round" stroke="rgb(0%, 0%, 0%)" stroke-opacity="1" stroke-dasharray="0 3" stroke-miterlimit="10" d="M 47.449219 200.339844 L 259.558594 200.339844 " transform="matrix(1, 0, 0, -1, 0, 288)"/>
<path fill="none" stroke-width="0.75" stroke-linecap="round" stroke-linejoin="round" stroke="rgb(0%, 0%, 0%)" stroke-opacity="1" stroke-dasharray="0 3" stroke-miterlimit="10" d="M 235.988281 55.898438 L 235.988281 241.609375 " transform="matrix(1, 0, 0, -1, 0, 288)"/>
<path fill="none" stroke-width="0.75" stroke-linecap="round" stroke-linejoin="round" stroke="rgb(0%, 0%, 0%)" stroke-opacity="1" stroke-dasharray="0 3" stroke-miterlimit="10" d="M 47.449219 220.96875 L 259.558594 220.96875 " transform="matrix(1, 0, 0, -1, 0, 288)"/>
<path fill="none" stroke-width="0.75" stroke-linecap="round" stroke-linejoin="round" stroke="rgb(0%, 0%, 0%)" stroke-opacity="1" stroke-dasharray="0 3" stroke-miterlimit="10" d="M 259.558594 55.898438 L 259.558594 241.609375 " transform="matrix(1, 0, 0, -1, 0, 288)"/>
<path fill="none" stroke-width="0.75" stroke-linecap="round" stroke-linejoin="round" stroke="rgb(0%, 0%, 0%)" stroke-opacity="1" stroke-dasharray="0 3" stroke-miterlimit="10" d="M 47.449219 241.609375 L 259.558594 241.609375 " transform="matrix(1, 0, 0, -1, 0, 288)"/>
<path fill="none" stroke-width="0.75" stroke-linecap="round" stroke-linejoin="round" stroke="rgb(0%, 0%, 0%)" stroke-opacity="1" stroke-miterlimit="10" d="M 47.449219 55.898438 L 47.449219 241.609375 " transform="matrix(1, 0, 0, -1, 0, 288)"/>
<path fill="none" stroke-width="0.75" stroke-linecap="round" stroke-linejoin="round" stroke="rgb(0%, 0%, 0%)" stroke-opacity="1" stroke-miterlimit="10" d="M 47.449219 55.898438 L 259.558594 55.898438 " transform="matrix(1, 0, 0, -1, 0, 288)"/>
<path fill="none" stroke-width="0.75" stroke-linecap="round" stroke-linejoin="round" stroke="rgb(0%, 0%, 0%)" stroke-opacity="1" stroke-miterlimit="10" d="M 118.148438 55.898438 L 118.148438 241.609375 " transform="matrix(1, 0, 0, -1, 0, 288)"/>
<path fill="none" stroke-width="0.75" stroke-linecap="round" stroke-linejoin="round" stroke="rgb(0%, 0%, 0%)" stroke-opacity="1" stroke-miterlimit="10" d="M 47.449219 117.800781 L 259.558594 117.800781 " transform="matrix(1, 0, 0, -1, 0, 288)"/>
<path fill="none" stroke-width="0.75" stroke-linecap="round" stroke-linejoin="round" stroke="rgb(0%, 0%, 0%)" stroke-opacity="1" stroke-miterlimit="10" d="M 188.859375 55.898438 L 188.859375 241.609375 " transform="matrix(1, 0, 0, -1, 0, 288)"/>
<path fill="none" stroke-width="0.75" stroke-linecap="round" stroke-linejoin="round" stroke="rgb(0%, 0%, 0%)" stroke-opacity="1" stroke-miterlimit="10" d="M 47.449219 179.699219 L 259.558594 179.699219 " transform="matrix(1, 0, 0, -1, 0, 288)"/>
<path fill="none" stroke-width="0.75" stroke-linecap="round" stroke-linejoin="round" stroke="rgb(0%, 0%, 0%)" stroke-opacity="1" stroke-miterlimit="10" d="M 259.558594 55.898438 L 259.558594 241.609375 " transform="matrix(1, 0, 0, -1, 0, 288)"/>
<path fill="none" stroke-width="0.75" stroke-linecap="round" stroke-linejoin="round" stroke="rgb(0%, 0%, 0%)" stroke-opacity="1" stroke-miterlimit="10" d="M 47.449219 241.609375 L 259.558594 241.609375 " transform="matrix(1, 0, 0, -1, 0, 288)"/>
<path fill="none" stroke-width="0.75" stroke-linecap="round" stroke-linejoin="round" stroke="rgb(87.451172%, 32.548523%, 41.960144%)" stroke-opacity="1" stroke-miterlimit="10" d="M 345.449219 169.390625 C 345.449219 170.371094 346.25 171.171875 347.230469 171.171875 C 348.210938 171.171875 349.019531 170.371094 349.019531 169.390625 C 349.019531 168.410156 348.210938 167.601562 347.230469 167.601562 C 346.25 167.601562 345.449219 168.410156 345.449219 169.390625 " transform="matrix(1, 0, 0, -1, 0, 288)"/>
<path fill="none" stroke-width="0.75" stroke-linecap="round" stroke-linejoin="round" stroke="rgb(87.451172%, 32.548523%, 41.960144%)" stroke-opacity="1" stroke-miterlimit="10" d="M 439.71875 107.480469 C 439.71875 108.460938 440.519531 109.269531 441.5 109.269531 C 442.480469 109.269531 443.289062 108.460938 443.289062 107.480469 C 443.289062 106.5 442.480469 105.699219 441.5 105.699219 C 440.519531 105.699219 439.71875 106.5 439.71875 107.480469 " transform="matrix(1, 0, 0, -1, 0, 288)"/>
<path fill="none" stroke-width="0.75" stroke-linecap="round" stroke-linejoin="round" stroke="rgb(87.451172%, 32.548523%, 41.960144%)" stroke-opacity="1" stroke-miterlimit="10" d="M 486.859375 231.289062 C 486.859375 232.269531 487.660156 233.070312 488.640625 233.070312 C 489.621094 233.070312 490.421875 232.269531 490.421875 231.289062 C 490.421875 230.308594 489.621094 229.511719 488.640625 229.511719 C 487.660156 229.511719 486.859375 230.308594 486.859375 231.289062 " transform="matrix(1, 0, 0, -1, 0, 288)"/>
<path fill="none" stroke-width="0.75" stroke-linecap="round" stroke-linejoin="round" stroke="rgb(38.038635%, 81.568909%, 30.979919%)" stroke-opacity="1" stroke-miterlimit="10" d="M 370.800781 89.621094 L 373.199219 85.460938 L 368.398438 85.460938 Z M 370.800781 89.621094 " transform="matrix(1, 0, 0, -1, 0, 288)"/>
<path fill="none" stroke-width="0.75" stroke-linecap="round" stroke-linejoin="round" stroke="rgb(38.038635%, 81.568909%, 30.979919%)" stroke-opacity="1" stroke-miterlimit="10" d="M 417.941406 213.429688 L 420.339844 209.269531 L 415.539062 209.269531 Z M 417.941406 213.429688 " transform="matrix(1, 0, 0, -1, 0, 288)"/>
<path fill="none" stroke-width="0.75" stroke-linecap="round" stroke-linejoin="round" stroke="rgb(38.038635%, 81.568909%, 30.979919%)" stroke-opacity="1" stroke-miterlimit="10" d="M 512.210938 130.890625 L 514.609375 126.730469 L 509.808594 126.730469 Z M 512.210938 130.890625 " transform="matrix(1, 0, 0, -1, 0, 288)"/>
<path fill="none" stroke-width="0.75" stroke-linecap="round" stroke-linejoin="round" stroke="rgb(13.33313%, 59.216309%, 90.196228%)" stroke-opacity="1" stroke-miterlimit="10" d="M 391.851562 148.75 L 396.890625 148.75 " transform="matrix(1, 0, 0, -1, 0, 288)"/>
<path fill="none" stroke-width="0.75" stroke-linecap="round" stroke-linejoin="round" stroke="rgb(13.33313%, 59.216309%, 90.196228%)" stroke-opacity="1" stroke-miterlimit="10" d="M 394.371094 146.230469 L 394.371094 151.269531 " transform="matrix(1, 0, 0, -1, 0, 288)"/>
<path fill="none" stroke-width="0.75" stroke-linecap="round" stroke-linejoin="round" stroke="rgb(13.33313%, 59.216309%, 90.196228%)" stroke-opacity="1" stroke-miterlimit="10" d="M 462.550781 66.21875 L 467.589844 66.21875 " transform="matrix(1, 0, 0, -1, 0, 288)"/>
<path fill="none" stroke-width="0.75" stroke-linecap="round" stroke-linejoin="round" stroke="rgb(13.33313%, 59.216309%, 90.196228%)" stroke-opacity="1" stroke-miterlimit="10" d="M 465.070312 63.699219 L 465.070312 68.738281 " transform="matrix(1, 0, 0, -1, 0, 288)"/>
<path fill="none" stroke-width="0.75" stroke-linecap="round" stroke-linejoin="round" stroke="rgb(13.33313%, 59.216309%, 90.196228%)" stroke-opacity="1" stroke-miterlimit="10" d="M 533.25 190.019531 L 538.289062 190.019531 " transform="matrix(1, 0, 0, -1, 0, 288)"/>
<path fill="none" stroke-width="0.75" stroke-linecap="round" stroke-linejoin="round" stroke="rgb(13.33313%, 59.216309%, 90.196228%)" stroke-opacity="1" stroke-miterlimit="10" d="M 535.769531 187.5 L 535.769531 192.539062 " transform="matrix(1, 0, 0, -1, 0, 288)"/>
<path fill="none" stroke-width="0.75" stroke-linecap="round" stroke-linejoin="round" stroke="rgb(0%, 0%, 0%)" stroke-opacity="1" stroke-miterlimit="10" d="M 335.449219 48.46875 L 547.558594 48.46875 " transform="matrix(1, 0, 0, -1, 0, 288)"/>
<path fill="none" stroke-width="0.75" stroke-linecap="round" stroke-linejoin="round" stroke="rgb(0%, 0%, 0%)" stroke-opacity="1" stroke-miterlimit="10" d="M 335.449219 48.46875 L 335.449219 43.71875 " transform="matrix(1, 0, 0, -1, 0, 288)"/>
<path fill="none" stroke-width="0.75" stroke-linecap="round" stroke-linejoin="round" stroke="rgb(0%, 0%, 0%)" stroke-opacity="1" stroke-miterlimit="10" d="M 377.871094 48.46875 L 377.871094 43.71875 " transform="matrix(1, 0, 0, -1, 0, 288)"/>
<path fill="none" stroke-width="0.75" stroke-linecap="round" stroke-linejoin="round" stroke="rgb(0%, 0%, 0%)" stroke-opacity="1" stroke-miterlimit="10" d="M 420.289062 48.46875 L 420.289062 43.71875 " transform="matrix(1, 0, 0, -1, 0, 288)"/>
<path fill="none" stroke-width="0.75" stroke-linecap="round" stroke-linejoin="round" stroke="rgb(0%, 0%, 0%)" stroke-opacity="1" stroke-miterlimit="10" d="M 462.710938 48.46875 L 462.710938 43.71875 " transform="matrix(1, 0, 0, -1, 0, 288)"/>
<path fill="none" stroke-width="0.75" stroke-linecap="round" stroke-linejoin="round" stroke="rgb(0%, 0%, 0%)" stroke-opacity="1" stroke-miterlimit="10" d="M 505.140625 48.46875 L 505.140625 43.71875 " transform="matrix(1, 0, 0, -1, 0, 288)"/>
<path fill="none" stroke-width="0.75" stroke-linecap="round" stroke-linejoin="round" stroke="rgb(0%, 0%, 0%)" stroke-opacity="1" stroke-miterlimit="10" d="M 547.558594 48.46875 L 547.558594 43.71875 " transform="matrix(1, 0, 0, -1, 0, 288)"/>
<g fill="rgb(0%, 0%, 0%)" fill-opacity="1">
<use xlink:href="#glyph-0-0" x="329.89" y="256.64"/>
<use xlink:href="#glyph-0-1" x="334.338" y="256.64"/>
<use xlink:href="#glyph-0-0" x="336.562" y="256.64"/>
</g>
<g fill="rgb(0%, 0%, 0%)" fill-opacity="1">
<use xlink:href="#glyph-0-0" x="372.31" y="256.64"/>
<use xlink:href="#glyph-0-1" x="376.758" y="256.64"/>
<use xlink:href="#glyph-0-2" x="378.982" y="256.64"/>
</g>
<g fill="rgb(0%, 0%, 0%)" fill-opacity="1">
<use xlink:href="#glyph-0-0" x="414.73" y="256.64"/>
<use xlink:href="#glyph-0-1" x="419.178" y="256.64"/>
<use xlink:href="#glyph-0-3" x="421.402" y="256.64"/>
</g>
<g fill="rgb(0%, 0%, 0%)" fill-opacity="1">
<use xlink:href="#glyph-0-0" x="457.15" y="256.64"/>
<use xlink:href="#glyph-0-1" x="461.598" y="256.64"/>
<use xlink:href="#glyph-0-4" x="463.822" y="256.64"/>
</g>
<g fill="rgb(0%, 0%, 0%)" fill-opacity="1">
<use xlink:href="#glyph-0-0" x="499.58" y="256.64"/>
<use xlink:href="#glyph-0-1" x="504.028" y="256.64"/>
<use xlink:href="#glyph-0-5" x="506.252" y="256.64"/>
</g>
<g fill="rgb(0%, 0%, 0%)" fill-opacity="1">
<use xlink:href="#glyph-0-6" x="542" y="256.64"/>
<use xlink:href="#glyph-0-1" x="546.448" y="256.64"/>
<use xlink:href="#glyph-0-0" x="548.672" y="256.64"/>
</g>
<path fill="none" stroke-width="0.75" stroke-linecap="round" stroke-linejoin="round" stroke="rgb(0%, 0%, 0%)" stroke-opacity="1" stroke-miterlimit="10" d="M 326.96875 55.898438 L 326.96875 241.609375 " transform="matrix(1, 0, 0, -1, 0, 288)"/>
<path fill="none" stroke-width="0.75" stroke-linecap="round" stroke-linejoin="round" stroke="rgb(0%, 0%, 0%)" stroke-opacity="1" stroke-miterlimit="10" d="M 326.96875 55.898438 L 322.210938 55.898438 " transform="matrix(1, 0, 0, -1, 0, 288)"/>
<path fill="none" stroke-width="0.75" stroke-linecap="round" stroke-linejoin="round" stroke="rgb(0%, 0%, 0%)" stroke-opacity="1" stroke-miterlimit="10" d="M 326.96875 93.039062 L 322.210938 93.039062 " transform="matrix(1, 0, 0, -1, 0, 288)"/>
<path fill="none" stroke-width="0.75" stroke-linecap="round" stroke-linejoin="round" stroke="rgb(0%, 0%, 0%)" stroke-opacity="1" stroke-miterlimit="10" d="M 326.96875 130.179688 L 322.210938 130.179688 " transform="matrix(1, 0, 0, -1, 0, 288)"/>
<path fill="none" stroke-width="0.75" stroke-linecap="round" stroke-linejoin="round" stroke="rgb(0%, 0%, 0%)" stroke-opacity="1" stroke-miterlimit="10" d="M 326.96875 167.320312 L 322.210938 167.320312 " transform="matrix(1, 0, 0, -1, 0, 288)"/>
<path fill="none" stroke-width="0.75" stroke-linecap="round" stroke-linejoin="round" stroke="rgb(0%, 0%, 0%)" stroke-opacity="1" stroke-miterlimit="10" d="M 326.96875 204.460938 L 322.210938 204.460938 " transform="matrix(1, 0, 0, -1, 0, 288)"/>
<path fill="none" stroke-width="0.75" stroke-linecap="round" stroke-linejoin="round" stroke="rgb(0%, 0%, 0%)" stroke-opacity="1" stroke-miterlimit="10" d="M 326.96875 241.609375 L 322.210938 241.609375 " transform="matrix(1, 0, 0, -1, 0, 288)"/>
<g fill="rgb(0%, 0%, 0%)" fill-opacity="1">
<use xlink:href="#glyph-1-0" x="315.56" y="237.66"/>
<use xlink:href="#glyph-1-1" x="315.56" y="233.212"/>
<use xlink:href="#glyph-1-0" x="315.56" y="230.988"/>
</g>
<g fill="rgb(0%, 0%, 0%)" fill-opacity="1">
<use xlink:href="#glyph-1-0" x="315.56" y="200.52"/>
<use xlink:href="#glyph-1-1" x="315.56" y="196.072"/>
<use xlink:href="#glyph-1-2" x="315.56" y="193.848"/>
</g>
<g fill="rgb(0%, 0%, 0%)" fill-opacity="1">
<use xlink:href="#glyph-1-0" x="315.56" y="163.38"/>
<use xlink:href="#glyph-1-1" x="315.56" y="158.932"/>
<use xlink:href="#glyph-1-3" x="315.56" y="156.708"/>
</g>
<g fill="rgb(0%, 0%, 0%)" fill-opacity="1">
<use xlink:href="#glyph-1-0" x="315.56" y="126.24"/>
<use xlink:href="#glyph-1-1" x="315.56" y="121.792"/>
<use xlink:href="#glyph-1-4" x="315.56" y="119.568"/>
</g>
<g fill="rgb(0%, 0%, 0%)" fill-opacity="1">
<use xlink:href="#glyph-1-0" x="315.56" y="89.1"/>
<use xlink:href="#glyph-1-1" x="315.56" y="84.652"/>
<use xlink:href="#glyph-1-5" x="315.56" y="82.428"/>
</g>
<g fill="rgb(0%, 0%, 0%)" fill-opacity="1">
<use xlink:href="#glyph-1-6" x="315.56" y="51.95"/>
<use xlink:href="#glyph-1-1" x="315.56" y="47.502"/>
<use xlink:href="#glyph-1-0" x="315.56" y="45.278"/>
</g>
<g fill="rgb(0%, 0%, 0%)" fill-opacity="1">
<use xlink:href="#glyph-2-10" x="427.89" y="23.07"/>
<use xlink:href="#glyph-2-7" x="434.56" y="23.07"/>
<use xlink:href="#glyph-2-8" x="440.67" y="23.07"/>
<use xlink:href="#glyph-2-9" x="447.89" y="23.07"/>
</g>
<g fill="rgb(0%, 0%, 0%)" fill-opacity="1">
<use xlink:href="#glyph-0-7" x="437.84" y="273.94"/>
</g>
<g fill="rgb(0%, 0%, 0%)" fill-opacity="1">
<use xlink:href="#glyph-3-0" x="441.84" y="275.64"/>
</g>
<g fill="rgb(0%, 0%, 0%)" fill-opacity="1">
<use xlink:href="#glyph-1-7" x="294.85" y="142.92"/>
</g>
<g fill="rgb(0%, 0%, 0%)" fill-opacity="1">
<use xlink:href="#glyph-4-0" x="296.55" y="138.92"/>
</g>
<path fill="none" stroke-width="0.75" stroke-linecap="round" stroke-linejoin="round" stroke="rgb(0%, 0%, 0%)" stroke-opacity="1" stroke-dasharray="0 3" stroke-miterlimit="10" d="M 359.019531 55.898438 L 359.019531 241.609375 " transform="matrix(1, 0, 0, -1, 0, 288)"/>
<path fill="none" stroke-width="0.75" stroke-linecap="round" stroke-linejoin="round" stroke="rgb(0%, 0%, 0%)" stroke-opacity="1" stroke-dasharray="0 3" stroke-miterlimit="10" d="M 335.449219 76.53125 L 547.558594 76.53125 " transform="matrix(1, 0, 0, -1, 0, 288)"/>
<path fill="none" stroke-width="0.75" stroke-linecap="round" stroke-linejoin="round" stroke="rgb(0%, 0%, 0%)" stroke-opacity="1" stroke-dasharray="0 3" stroke-miterlimit="10" d="M 382.589844 55.898438 L 382.589844 241.609375 " transform="matrix(1, 0, 0, -1, 0, 288)"/>
<path fill="none" stroke-width="0.75" stroke-linecap="round" stroke-linejoin="round" stroke="rgb(0%, 0%, 0%)" stroke-opacity="1" stroke-dasharray="0 3" stroke-miterlimit="10" d="M 335.449219 97.171875 L 547.558594 97.171875 " transform="matrix(1, 0, 0, -1, 0, 288)"/>
<path fill="none" stroke-width="0.75" stroke-linecap="round" stroke-linejoin="round" stroke="rgb(0%, 0%, 0%)" stroke-opacity="1" stroke-dasharray="0 3" stroke-miterlimit="10" d="M 406.148438 55.898438 L 406.148438 241.609375 " transform="matrix(1, 0, 0, -1, 0, 288)"/>
<path fill="none" stroke-width="0.75" stroke-linecap="round" stroke-linejoin="round" stroke="rgb(0%, 0%, 0%)" stroke-opacity="1" stroke-dasharray="0 3" stroke-miterlimit="10" d="M 335.449219 117.800781 L 547.558594 117.800781 " transform="matrix(1, 0, 0, -1, 0, 288)"/>
<path fill="none" stroke-width="0.75" stroke-linecap="round" stroke-linejoin="round" stroke="rgb(0%, 0%, 0%)" stroke-opacity="1" stroke-dasharray="0 3" stroke-miterlimit="10" d="M 429.71875 55.898438 L 429.71875 241.609375 " transform="matrix(1, 0, 0, -1, 0, 288)"/>
<path fill="none" stroke-width="0.75" stroke-linecap="round" stroke-linejoin="round" stroke="rgb(0%, 0%, 0%)" stroke-opacity="1" stroke-dasharray="0 3" stroke-miterlimit="10" d="M 335.449219 138.429688 L 547.558594 138.429688 " transform="matrix(1, 0, 0, -1, 0, 288)"/>
<path fill="none" stroke-width="0.75" stroke-linecap="round" stroke-linejoin="round" stroke="rgb(0%, 0%, 0%)" stroke-opacity="1" stroke-dasharray="0 3" stroke-miterlimit="10" d="M 453.289062 55.898438 L 453.289062 241.609375 " transform="matrix(1, 0, 0, -1, 0, 288)"/>
<path fill="none" stroke-width="0.75" stroke-linecap="round" stroke-linejoin="round" stroke="rgb(0%, 0%, 0%)" stroke-opacity="1" stroke-dasharray="0 3" stroke-miterlimit="10" d="M 335.449219 159.070312 L 547.558594 159.070312 " transform="matrix(1, 0, 0, -1, 0, 288)"/>
<path fill="none" stroke-width="0.75" stroke-linecap="round" stroke-linejoin="round" stroke="rgb(0%, 0%, 0%)" stroke-opacity="1" stroke-dasharray="0 3" stroke-miterlimit="10" d="M 476.859375 55.898438 L 476.859375 241.609375 " transform="matrix(1, 0, 0, -1, 0, 288)"/>
<path fill="none" stroke-width="0.75" stroke-linecap="round" stroke-linejoin="round" stroke="rgb(0%, 0%, 0%)" stroke-opacity="1" stroke-dasharray="0 3" stroke-miterlimit="10" d="M 335.449219 179.699219 L 547.558594 179.699219 " transform="matrix(1, 0, 0, -1, 0, 288)"/>
<path fill="none" stroke-width="0.75" stroke-linecap="round" stroke-linejoin="round" stroke="rgb(0%, 0%, 0%)" stroke-opacity="1" stroke-dasharray="0 3" stroke-miterlimit="10" d="M 500.421875 55.898438 L 500.421875 241.609375 " transform="matrix(1, 0, 0, -1, 0, 288)"/>
<path fill="none" stroke-width="0.75" stroke-linecap="round" stroke-linejoin="round" stroke="rgb(0%, 0%, 0%)" stroke-opacity="1" stroke-dasharray="0 3" stroke-miterlimit="10" d="M 335.449219 200.339844 L 547.558594 200.339844 " transform="matrix(1, 0, 0, -1, 0, 288)"/>
<path fill="none" stroke-width="0.75" stroke-linecap="round" stroke-linejoin="round" stroke="rgb(0%, 0%, 0%)" stroke-opacity="1" stroke-dasharray="0 3" stroke-miterlimit="10" d="M 523.988281 55.898438 L 523.988281 241.609375 " transform="matrix(1, 0, 0, -1, 0, 288)"/>
<path fill="none" stroke-width="0.75" stroke-linecap="round" stroke-linejoin="round" stroke="rgb(0%, 0%, 0%)" stroke-opacity="1" stroke-dasharray="0 3" stroke-miterlimit="10" d="M 335.449219 220.96875 L 547.558594 220.96875 " transform="matrix(1, 0, 0, -1, 0, 288)"/>
<path fill="none" stroke-width="0.75" stroke-linecap="round" stroke-linejoin="round" stroke="rgb(0%, 0%, 0%)" stroke-opacity="1" stroke-dasharray="0 3" stroke-miterlimit="10" d="M 547.558594 55.898438 L 547.558594 241.609375 " transform="matrix(1, 0, 0, -1, 0, 288)"/>
<path fill="none" stroke-width="0.75" stroke-linecap="round" stroke-linejoin="round" stroke="rgb(0%, 0%, 0%)" stroke-opacity="1" stroke-dasharray="0 3" stroke-miterlimit="10" d="M 335.449219 241.609375 L 547.558594 241.609375 " transform="matrix(1, 0, 0, -1, 0, 288)"/>
<path fill="none" stroke-width="0.75" stroke-linecap="round" stroke-linejoin="round" stroke="rgb(0%, 0%, 0%)" stroke-opacity="1" stroke-miterlimit="10" d="M 335.449219 55.898438 L 335.449219 241.609375 " transform="matrix(1, 0, 0, -1, 0, 288)"/>
<path fill="none" stroke-width="0.75" stroke-linecap="round" stroke-linejoin="round" stroke="rgb(0%, 0%, 0%)" stroke-opacity="1" stroke-miterlimit="10" d="M 335.449219 55.898438 L 547.558594 55.898438 " transform="matrix(1, 0, 0, -1, 0, 288)"/>
<path fill="none" stroke-width="0.75" stroke-linecap="round" stroke-linejoin="round" stroke="rgb(0%, 0%, 0%)" stroke-opacity="1" stroke-miterlimit="10" d="M 406.148438 55.898438 L 406.148438 241.609375 " transform="matrix(1, 0, 0, -1, 0, 288)"/>
<path fill="none" stroke-width="0.75" stroke-linecap="round" stroke-linejoin="round" stroke="rgb(0%, 0%, 0%)" stroke-opacity="1" stroke-miterlimit="10" d="M 335.449219 117.800781 L 547.558594 117.800781 " transform="matrix(1, 0, 0, -1, 0, 288)"/>
<path fill="none" stroke-width="0.75" stroke-linecap="round" stroke-linejoin="round" stroke="rgb(0%, 0%, 0%)" stroke-opacity="1" stroke-miterlimit="10" d="M 476.859375 55.898438 L 476.859375 241.609375 " transform="matrix(1, 0, 0, -1, 0, 288)"/>
<path fill="none" stroke-width="0.75" stroke-linecap="round" stroke-linejoin="round" stroke="rgb(0%, 0%, 0%)" stroke-opacity="1" stroke-miterlimit="10" d="M 335.449219 179.699219 L 547.558594 179.699219 " transform="matrix(1, 0, 0, -1, 0, 288)"/>
<path fill="none" stroke-width="0.75" stroke-linecap="round" stroke-linejoin="round" stroke="rgb(0%, 0%, 0%)" stroke-opacity="1" stroke-miterlimit="10" d="M 547.558594 55.898438 L 547.558594 241.609375 " transform="matrix(1, 0, 0, -1, 0, 288)"/>
<path fill="none" stroke-width="0.75" stroke-linecap="round" stroke-linejoin="round" stroke="rgb(0%, 0%, 0%)" stroke-opacity="1" stroke-miterlimit="10" d="M 335.449219 241.609375 L 547.558594 241.609375 " transform="matrix(1, 0, 0, -1, 0, 288)"/>
<path fill="none" stroke-width="0.75" stroke-linecap="round" stroke-linejoin="round" stroke="rgb(87.451172%, 32.548523%, 41.960144%)" stroke-opacity="1" stroke-miterlimit="10" d="M 621.671875 121.488281 C 621.671875 122.46875 622.46875 123.28125 623.449219 123.28125 C 624.429688 123.28125 625.230469 122.46875 625.230469 121.488281 C 625.230469 120.511719 624.429688 119.710938 623.449219 119.710938 C 622.46875 119.710938 621.671875 120.511719 621.671875 121.488281 " transform="matrix(1, 0, 0, -1, 0, 288)"/>
<path fill="none" stroke-width="0.75" stroke-linecap="round" stroke-linejoin="round" stroke="rgb(87.451172%, 32.548523%, 41.960144%)" stroke-opacity="1" stroke-miterlimit="10" d="M 727.71875 196.53125 C 727.71875 197.511719 728.519531 198.308594 729.5 198.308594 C 730.480469 198.308594 731.289062 197.511719 731.289062 196.53125 C 731.289062 195.550781 730.480469 194.75 729.5 194.75 C 728.519531 194.75 727.71875 195.550781 727.71875 196.53125 " transform="matrix(1, 0, 0, -1, 0, 288)"/>
<path fill="none" stroke-width="0.75" stroke-linecap="round" stroke-linejoin="round" stroke="rgb(87.451172%, 32.548523%, 41.960144%)" stroke-opacity="1" stroke-miterlimit="10" d="M 782.289062 55.898438 C 782.289062 56.878906 783.101562 57.679688 784.078125 57.679688 C 785.058594 57.679688 785.859375 56.878906 785.859375 55.898438 C 785.859375 54.921875 785.058594 54.121094 784.078125 54.121094 C 783.101562 54.121094 782.289062 54.921875 782.289062 55.898438 " transform="matrix(1, 0, 0, -1, 0, 288)"/>
<path fill="none" stroke-width="0.75" stroke-linecap="round" stroke-linejoin="round" stroke="rgb(38.038635%, 81.568909%, 30.979919%)" stroke-opacity="1" stroke-miterlimit="10" d="M 674.929688 151.519531 L 677.328125 147.371094 L 672.53125 147.371094 Z M 674.929688 151.519531 " transform="matrix(1, 0, 0, -1, 0, 288)"/>
<path fill="none" stroke-width="0.75" stroke-linecap="round" stroke-linejoin="round" stroke="rgb(38.038635%, 81.568909%, 30.979919%)" stroke-opacity="1" stroke-miterlimit="10" d="M 760.640625 244.378906 L 763.039062 240.21875 L 758.238281 240.21875 Z M 760.640625 244.378906 " transform="matrix(1, 0, 0, -1, 0, 288)"/>
<path fill="none" stroke-width="0.75" stroke-linecap="round" stroke-linejoin="round" stroke="rgb(38.038635%, 81.568909%, 30.979919%)" stroke-opacity="1" stroke-miterlimit="10" d="M 835.558594 103.738281 L 837.960938 99.589844 L 833.160156 99.589844 Z M 835.558594 103.738281 " transform="matrix(1, 0, 0, -1, 0, 288)"/>
<path fill="none" stroke-width="0.75" stroke-linecap="round" stroke-linejoin="round" stroke="rgb(13.33313%, 59.216309%, 90.196228%)" stroke-opacity="1" stroke-miterlimit="10" d="M 646.671875 219.070312 L 651.710938 219.070312 " transform="matrix(1, 0, 0, -1, 0, 288)"/>
<path fill="none" stroke-width="0.75" stroke-linecap="round" stroke-linejoin="round" stroke="rgb(13.33313%, 59.216309%, 90.196228%)" stroke-opacity="1" stroke-miterlimit="10" d="M 649.191406 216.550781 L 649.191406 221.589844 " transform="matrix(1, 0, 0, -1, 0, 288)"/>
<path fill="none" stroke-width="0.75" stroke-linecap="round" stroke-linejoin="round" stroke="rgb(13.33313%, 59.216309%, 90.196228%)" stroke-opacity="1" stroke-miterlimit="10" d="M 695.851562 78.429688 L 700.890625 78.429688 " transform="matrix(1, 0, 0, -1, 0, 288)"/>
<path fill="none" stroke-width="0.75" stroke-linecap="round" stroke-linejoin="round" stroke="rgb(13.33313%, 59.216309%, 90.196228%)" stroke-opacity="1" stroke-miterlimit="10" d="M 698.371094 75.910156 L 698.371094 80.949219 " transform="matrix(1, 0, 0, -1, 0, 288)"/>
<path fill="none" stroke-width="0.75" stroke-linecap="round" stroke-linejoin="round" stroke="rgb(13.33313%, 59.216309%, 90.196228%)" stroke-opacity="1" stroke-miterlimit="10" d="M 807.300781 176.011719 L 812.339844 176.011719 " transform="matrix(1, 0, 0, -1, 0, 288)"/>
<path fill="none" stroke-width="0.75" stroke-linecap="round" stroke-linejoin="round" stroke="rgb(13.33313%, 59.216309%, 90.196228%)" stroke-opacity="1" stroke-miterlimit="10" d="M 809.820312 173.488281 L 809.820312 178.53125 " transform="matrix(1, 0, 0, -1, 0, 288)"/>
<path fill="none" stroke-width="0.75" stroke-linecap="round" stroke-linejoin="round" stroke="rgb(0%, 0%, 0%)" stroke-opacity="1" stroke-miterlimit="10" d="M 623.449219 48.46875 L 835.558594 48.46875 " transform="matrix(1, 0, 0, -1, 0, 288)"/>
<path fill="none" stroke-width="0.75" stroke-linecap="round" stroke-linejoin="round" stroke="rgb(0%, 0%, 0%)" stroke-opacity="1" stroke-miterlimit="10" d="M 623.449219 48.46875 L 623.449219 43.71875 " transform="matrix(1, 0, 0, -1, 0, 288)"/>
<path fill="none" stroke-width="0.75" stroke-linecap="round" stroke-linejoin="round" stroke="rgb(0%, 0%, 0%)" stroke-opacity="1" stroke-miterlimit="10" d="M 665.871094 48.46875 L 665.871094 43.71875 " transform="matrix(1, 0, 0, -1, 0, 288)"/>
<path fill="none" stroke-width="0.75" stroke-linecap="round" stroke-linejoin="round" stroke="rgb(0%, 0%, 0%)" stroke-opacity="1" stroke-miterlimit="10" d="M 708.289062 48.46875 L 708.289062 43.71875 " transform="matrix(1, 0, 0, -1, 0, 288)"/>
<path fill="none" stroke-width="0.75" stroke-linecap="round" stroke-linejoin="round" stroke="rgb(0%, 0%, 0%)" stroke-opacity="1" stroke-miterlimit="10" d="M 750.710938 48.46875 L 750.710938 43.71875 " transform="matrix(1, 0, 0, -1, 0, 288)"/>
<path fill="none" stroke-width="0.75" stroke-linecap="round" stroke-linejoin="round" stroke="rgb(0%, 0%, 0%)" stroke-opacity="1" stroke-miterlimit="10" d="M 793.140625 48.46875 L 793.140625 43.71875 " transform="matrix(1, 0, 0, -1, 0, 288)"/>
<path fill="none" stroke-width="0.75" stroke-linecap="round" stroke-linejoin="round" stroke="rgb(0%, 0%, 0%)" stroke-opacity="1" stroke-miterlimit="10" d="M 835.558594 48.46875 L 835.558594 43.71875 " transform="matrix(1, 0, 0, -1, 0, 288)"/>
<g fill="rgb(0%, 0%, 0%)" fill-opacity="1">
<use xlink:href="#glyph-0-0" x="617.89" y="256.64"/>
<use xlink:href="#glyph-0-1" x="622.338" y="256.64"/>
<use xlink:href="#glyph-0-0" x="624.562" y="256.64"/>
</g>
<g fill="rgb(0%, 0%, 0%)" fill-opacity="1">
<use xlink:href="#glyph-0-0" x="660.31" y="256.64"/>
<use xlink:href="#glyph-0-1" x="664.758" y="256.64"/>
<use xlink:href="#glyph-0-2" x="666.982" y="256.64"/>
</g>
<g fill="rgb(0%, 0%, 0%)" fill-opacity="1">
<use xlink:href="#glyph-0-0" x="702.73" y="256.64"/>
<use xlink:href="#glyph-0-1" x="707.178" y="256.64"/>
<use xlink:href="#glyph-0-3" x="709.402" y="256.64"/>
</g>
<g fill="rgb(0%, 0%, 0%)" fill-opacity="1">
<use xlink:href="#glyph-0-0" x="745.15" y="256.64"/>
<use xlink:href="#glyph-0-1" x="749.598" y="256.64"/>
<use xlink:href="#glyph-0-4" x="751.822" y="256.64"/>
</g>
<g fill="rgb(0%, 0%, 0%)" fill-opacity="1">
<use xlink:href="#glyph-0-0" x="787.58" y="256.64"/>
<use xlink:href="#glyph-0-1" x="792.028" y="256.64"/>
<use xlink:href="#glyph-0-5" x="794.252" y="256.64"/>
</g>
<g fill="rgb(0%, 0%, 0%)" fill-opacity="1">
<use xlink:href="#glyph-0-6" x="830" y="256.64"/>
<use xlink:href="#glyph-0-1" x="834.448" y="256.64"/>
<use xlink:href="#glyph-0-0" x="836.672" y="256.64"/>
</g>
<path fill="none" stroke-width="0.75" stroke-linecap="round" stroke-linejoin="round" stroke="rgb(0%, 0%, 0%)" stroke-opacity="1" stroke-miterlimit="10" d="M 614.96875 55.898438 L 614.96875 241.609375 " transform="matrix(1, 0, 0, -1, 0, 288)"/>
<path fill="none" stroke-width="0.75" stroke-linecap="round" stroke-linejoin="round" stroke="rgb(0%, 0%, 0%)" stroke-opacity="1" stroke-miterlimit="10" d="M 614.96875 55.898438 L 610.210938 55.898438 " transform="matrix(1, 0, 0, -1, 0, 288)"/>
<path fill="none" stroke-width="0.75" stroke-linecap="round" stroke-linejoin="round" stroke="rgb(0%, 0%, 0%)" stroke-opacity="1" stroke-miterlimit="10" d="M 614.96875 93.039062 L 610.210938 93.039062 " transform="matrix(1, 0, 0, -1, 0, 288)"/>
<path fill="none" stroke-width="0.75" stroke-linecap="round" stroke-linejoin="round" stroke="rgb(0%, 0%, 0%)" stroke-opacity="1" stroke-miterlimit="10" d="M 614.96875 130.179688 L 610.210938 130.179688 " transform="matrix(1, 0, 0, -1, 0, 288)"/>
<path fill="none" stroke-width="0.75" stroke-linecap="round" stroke-linejoin="round" stroke="rgb(0%, 0%, 0%)" stroke-opacity="1" stroke-miterlimit="10" d="M 614.96875 167.320312 L 610.210938 167.320312 " transform="matrix(1, 0, 0, -1, 0, 288)"/>
<path fill="none" stroke-width="0.75" stroke-linecap="round" stroke-linejoin="round" stroke="rgb(0%, 0%, 0%)" stroke-opacity="1" stroke-miterlimit="10" d="M 614.96875 204.460938 L 610.210938 204.460938 " transform="matrix(1, 0, 0, -1, 0, 288)"/>
<path fill="none" stroke-width="0.75" stroke-linecap="round" stroke-linejoin="round" stroke="rgb(0%, 0%, 0%)" stroke-opacity="1" stroke-miterlimit="10" d="M 614.96875 241.609375 L 610.210938 241.609375 " transform="matrix(1, 0, 0, -1, 0, 288)"/>
<g fill="rgb(0%, 0%, 0%)" fill-opacity="1">
<use xlink:href="#glyph-1-0" x="603.56" y="237.66"/>
<use xlink:href="#glyph-1-1" x="603.56" y="233.212"/>
<use xlink:href="#glyph-1-0" x="603.56" y="230.988"/>
</g>
<g fill="rgb(0%, 0%, 0%)" fill-opacity="1">
<use xlink:href="#glyph-1-0" x="603.56" y="200.52"/>
<use xlink:href="#glyph-1-1" x="603.56" y="196.072"/>
<use xlink:href="#glyph-1-2" x="603.56" y="193.848"/>
</g>
<g fill="rgb(0%, 0%, 0%)" fill-opacity="1">
<use xlink:href="#glyph-1-0" x="603.56" y="163.38"/>
<use xlink:href="#glyph-1-1" x="603.56" y="158.932"/>
<use xlink:href="#glyph-1-3" x="603.56" y="156.708"/>
</g>
<g fill="rgb(0%, 0%, 0%)" fill-opacity="1">
<use xlink:href="#glyph-1-0" x="603.56" y="126.24"/>
<use xlink:href="#glyph-1-1" x="603.56" y="121.792"/>
<use xlink:href="#glyph-1-4" x="603.56" y="119.568"/>
</g>
<g fill="rgb(0%, 0%, 0%)" fill-opacity="1">
<use xlink:href="#glyph-1-0" x="603.56" y="89.1"/>
<use xlink:href="#glyph-1-1" x="603.56" y="84.652"/>
<use xlink:href="#glyph-1-5" x="603.56" y="82.428"/>
</g>
<g fill="rgb(0%, 0%, 0%)" fill-opacity="1">
<use xlink:href="#glyph-1-6" x="603.56" y="51.95"/>
<use xlink:href="#glyph-1-1" x="603.56" y="47.502"/>
<use xlink:href="#glyph-1-0" x="603.56" y="45.278"/>
</g>
<g fill="rgb(0%, 0%, 0%)" fill-opacity="1">
<use xlink:href="#glyph-2-11" x="711.54" y="23.07"/>
<use xlink:href="#glyph-2-1" x="719.87" y="23.07"/>
<use xlink:href="#glyph-2-12" x="725.43" y="23.07"/>
<use xlink:href="#glyph-2-13" x="730.99" y="23.07"/>
<use xlink:href="#glyph-2-0" x="737.66" y="23.07"/>
</g>
<g fill="rgb(0%, 0%, 0%)" fill-opacity="1">
<use xlink:href="#glyph-2-4" x="741.35" y="23.07"/>
</g>
<g fill="rgb(0%, 0%, 0%)" fill-opacity="1">
<use xlink:href="#glyph-0-7" x="725.84" y="273.94"/>
</g>
<g fill="rgb(0%, 0%, 0%)" fill-opacity="1">
<use xlink:href="#glyph-3-0" x="729.84" y="275.64"/>
</g>
<g fill="rgb(0%, 0%, 0%)" fill-opacity="1">
<use xlink:href="#glyph-1-7" x="582.85" y="142.92"/>
</g>
<g fill="rgb(0%, 0%, 0%)" fill-opacity="1">
<use xlink:href="#glyph-4-0" x="584.55" y="138.92"/>
</g>
<path fill="none" stroke-width="0.75" stroke-linecap="round" stroke-linejoin="round" stroke="rgb(0%, 0%, 0%)" stroke-opacity="1" stroke-dasharray="0 3" stroke-miterlimit="10" d="M 623.449219 55.898438 L 623.449219 241.609375 " transform="matrix(1, 0, 0, -1, 0, 288)"/>
<path fill="none" stroke-width="0.75" stroke-linecap="round" stroke-linejoin="round" stroke="rgb(0%, 0%, 0%)" stroke-opacity="1" stroke-dasharray="0 3" stroke-miterlimit="10" d="M 623.449219 55.898438 L 835.558594 55.898438 " transform="matrix(1, 0, 0, -1, 0, 288)"/>
<path fill="none" stroke-width="0.75" stroke-linecap="round" stroke-linejoin="round" stroke="rgb(0%, 0%, 0%)" stroke-opacity="1" stroke-dasharray="0 3" stroke-miterlimit="10" d="M 647.019531 55.898438 L 647.019531 241.609375 " transform="matrix(1, 0, 0, -1, 0, 288)"/>
<path fill="none" stroke-width="0.75" stroke-linecap="round" stroke-linejoin="round" stroke="rgb(0%, 0%, 0%)" stroke-opacity="1" stroke-dasharray="0 3" stroke-miterlimit="10" d="M 623.449219 76.53125 L 835.558594 76.53125 " transform="matrix(1, 0, 0, -1, 0, 288)"/>
<path fill="none" stroke-width="0.75" stroke-linecap="round" stroke-linejoin="round" stroke="rgb(0%, 0%, 0%)" stroke-opacity="1" stroke-dasharray="0 3" stroke-miterlimit="10" d="M 670.589844 55.898438 L 670.589844 241.609375 " transform="matrix(1, 0, 0, -1, 0, 288)"/>
<path fill="none" stroke-width="0.75" stroke-linecap="round" stroke-linejoin="round" stroke="rgb(0%, 0%, 0%)" stroke-opacity="1" stroke-dasharray="0 3" stroke-miterlimit="10" d="M 623.449219 97.171875 L 835.558594 97.171875 " transform="matrix(1, 0, 0, -1, 0, 288)"/>
<path fill="none" stroke-width="0.75" stroke-linecap="round" stroke-linejoin="round" stroke="rgb(0%, 0%, 0%)" stroke-opacity="1" stroke-dasharray="0 3" stroke-miterlimit="10" d="M 694.148438 55.898438 L 694.148438 241.609375 " transform="matrix(1, 0, 0, -1, 0, 288)"/>
<path fill="none" stroke-width="0.75" stroke-linecap="round" stroke-linejoin="round" stroke="rgb(0%, 0%, 0%)" stroke-opacity="1" stroke-dasharray="0 3" stroke-miterlimit="10" d="M 623.449219 117.800781 L 835.558594 117.800781 " transform="matrix(1, 0, 0, -1, 0, 288)"/>
<path fill="none" stroke-width="0.75" stroke-linecap="round" stroke-linejoin="round" stroke="rgb(0%, 0%, 0%)" stroke-opacity="1" stroke-dasharray="0 3" stroke-miterlimit="10" d="M 717.71875 55.898438 L 717.71875 241.609375 " transform="matrix(1, 0, 0, -1, 0, 288)"/>
<path fill="none" stroke-width="0.75" stroke-linecap="round" stroke-linejoin="round" stroke="rgb(0%, 0%, 0%)" stroke-opacity="1" stroke-dasharray="0 3" stroke-miterlimit="10" d="M 623.449219 138.429688 L 835.558594 138.429688 " transform="matrix(1, 0, 0, -1, 0, 288)"/>
<path fill="none" stroke-width="0.75" stroke-linecap="round" stroke-linejoin="round" stroke="rgb(0%, 0%, 0%)" stroke-opacity="1" stroke-dasharray="0 3" stroke-miterlimit="10" d="M 741.289062 55.898438 L 741.289062 241.609375 " transform="matrix(1, 0, 0, -1, 0, 288)"/>
<path fill="none" stroke-width="0.75" stroke-linecap="round" stroke-linejoin="round" stroke="rgb(0%, 0%, 0%)" stroke-opacity="1" stroke-dasharray="0 3" stroke-miterlimit="10" d="M 623.449219 159.070312 L 835.558594 159.070312 " transform="matrix(1, 0, 0, -1, 0, 288)"/>
<path fill="none" stroke-width="0.75" stroke-linecap="round" stroke-linejoin="round" stroke="rgb(0%, 0%, 0%)" stroke-opacity="1" stroke-dasharray="0 3" stroke-miterlimit="10" d="M 764.859375 55.898438 L 764.859375 241.609375 " transform="matrix(1, 0, 0, -1, 0, 288)"/>
<path fill="none" stroke-width="0.75" stroke-linecap="round" stroke-linejoin="round" stroke="rgb(0%, 0%, 0%)" stroke-opacity="1" stroke-dasharray="0 3" stroke-miterlimit="10" d="M 623.449219 179.699219 L 835.558594 179.699219 " transform="matrix(1, 0, 0, -1, 0, 288)"/>
<path fill="none" stroke-width="0.75" stroke-linecap="round" stroke-linejoin="round" stroke="rgb(0%, 0%, 0%)" stroke-opacity="1" stroke-dasharray="0 3" stroke-miterlimit="10" d="M 788.421875 55.898438 L 788.421875 241.609375 " transform="matrix(1, 0, 0, -1, 0, 288)"/>
<path fill="none" stroke-width="0.75" stroke-linecap="round" stroke-linejoin="round" stroke="rgb(0%, 0%, 0%)" stroke-opacity="1" stroke-dasharray="0 3" stroke-miterlimit="10" d="M 623.449219 200.339844 L 835.558594 200.339844 " transform="matrix(1, 0, 0, -1, 0, 288)"/>
<path fill="none" stroke-width="0.75" stroke-linecap="round" stroke-linejoin="round" stroke="rgb(0%, 0%, 0%)" stroke-opacity="1" stroke-dasharray="0 3" stroke-miterlimit="10" d="M 811.988281 55.898438 L 811.988281 241.609375 " transform="matrix(1, 0, 0, -1, 0, 288)"/>
<path fill="none" stroke-width="0.75" stroke-linecap="round" stroke-linejoin="round" stroke="rgb(0%, 0%, 0%)" stroke-opacity="1" stroke-dasharray="0 3" stroke-miterlimit="10" d="M 623.449219 220.96875 L 835.558594 220.96875 " transform="matrix(1, 0, 0, -1, 0, 288)"/>
<path fill="none" stroke-width="0.75" stroke-linecap="round" stroke-linejoin="round" stroke="rgb(0%, 0%, 0%)" stroke-opacity="1" stroke-dasharray="0 3" stroke-miterlimit="10" d="M 835.558594 55.898438 L 835.558594 241.609375 " transform="matrix(1, 0, 0, -1, 0, 288)"/>
<path fill="none" stroke-width="0.75" stroke-linecap="round" stroke-linejoin="round" stroke="rgb(0%, 0%, 0%)" stroke-opacity="1" stroke-dasharray="0 3" stroke-miterlimit="10" d="M 623.449219 241.609375 L 835.558594 241.609375 " transform="matrix(1, 0, 0, -1, 0, 288)"/>
<path fill="none" stroke-width="0.75" stroke-linecap="round" stroke-linejoin="round" stroke="rgb(0%, 0%, 0%)" stroke-opacity="1" stroke-miterlimit="10" d="M 623.449219 55.898438 L 623.449219 241.609375 " transform="matrix(1, 0, 0, -1, 0, 288)"/>
<path fill="none" stroke-width="0.75" stroke-linecap="round" stroke-linejoin="round" stroke="rgb(0%, 0%, 0%)" stroke-opacity="1" stroke-miterlimit="10" d="M 623.449219 55.898438 L 835.558594 55.898438 " transform="matrix(1, 0, 0, -1, 0, 288)"/>
<path fill="none" stroke-width="0.75" stroke-linecap="round" stroke-linejoin="round" stroke="rgb(0%, 0%, 0%)" stroke-opacity="1" stroke-miterlimit="10" d="M 694.148438 55.898438 L 694.148438 241.609375 " transform="matrix(1, 0, 0, -1, 0, 288)"/>
<path fill="none" stroke-width="0.75" stroke-linecap="round" stroke-linejoin="round" stroke="rgb(0%, 0%, 0%)" stroke-opacity="1" stroke-miterlimit="10" d="M 623.449219 117.800781 L 835.558594 117.800781 " transform="matrix(1, 0, 0, -1, 0, 288)"/>
<path fill="none" stroke-width="0.75" stroke-linecap="round" stroke-linejoin="round" stroke="rgb(0%, 0%, 0%)" stroke-opacity="1" stroke-miterlimit="10" d="M 764.859375 55.898438 L 764.859375 241.609375 " transform="matrix(1, 0, 0, -1, 0, 288)"/>
<path fill="none" stroke-width="0.75" stroke-linecap="round" stroke-linejoin="round" stroke="rgb(0%, 0%, 0%)" stroke-opacity="1" stroke-miterlimit="10" d="M 623.449219 179.699219 L 835.558594 179.699219 " transform="matrix(1, 0, 0, -1, 0, 288)"/>
<path fill="none" stroke-width="0.75" stroke-linecap="round" stroke-linejoin="round" stroke="rgb(0%, 0%, 0%)" stroke-opacity="1" stroke-miterlimit="10" d="M 835.558594 55.898438 L 835.558594 241.609375 " transform="matrix(1, 0, 0, -1, 0, 288)"/>
<path fill="none" stroke-width="0.75" stroke-linecap="round" stroke-linejoin="round" stroke="rgb(0%, 0%, 0%)" stroke-opacity="1" stroke-miterlimit="10" d="M 623.449219 241.609375 L 835.558594 241.609375 " transform="matrix(1, 0, 0, -1, 0, 288)"/>
</svg>
