<?xml version="1.0" encoding="UTF-8"?>
<svg xmlns="http://www.w3.org/2000/svg" xmlns:xlink="http://www.w3.org/1999/xlink" width="288pt" height="288pt" viewBox="0 0 288 288">
<defs>
<g>
<g id="glyph-0-0">
<path d="M 0.5 -4.234375 C 0.5 -5.253906 0.601562 -6.070312 0.8125 -6.6875 C 1.019531 -7.3125 1.328125 -7.789062 1.734375 -8.125 C 2.148438 -8.457031 2.671875 -8.625 3.296875 -8.625 C 3.753906 -8.625 4.15625 -8.53125 4.5 -8.34375 C 4.851562 -8.15625 5.144531 -7.882812 5.375 -7.53125 C 5.601562 -7.1875 5.78125 -6.765625 5.90625 -6.265625 C 6.03125 -5.765625 6.09375 -5.085938 6.09375 -4.234375 C 6.09375 -3.222656 5.988281 -2.410156 5.78125 -1.796875 C 5.582031 -1.179688 5.273438 -0.703125 4.859375 -0.359375 C 4.453125 -0.0234375 3.929688 0.140625 3.296875 0.140625 C 2.472656 0.140625 1.820312 -0.15625 1.34375 -0.75 C 0.78125 -1.457031 0.5 -2.617188 0.5 -4.234375 Z M 1.578125 -4.234375 C 1.578125 -2.828125 1.742188 -1.890625 2.078125 -1.421875 C 2.410156 -0.953125 2.816406 -0.71875 3.296875 -0.71875 C 3.785156 -0.71875 4.191406 -0.953125 4.515625 -1.421875 C 4.847656 -1.890625 5.015625 -2.828125 5.015625 -4.234375 C 5.015625 -5.648438 4.847656 -6.585938 4.515625 -7.046875 C 4.191406 -7.515625 3.78125 -7.75 3.28125 -7.75 C 2.800781 -7.75 2.414062 -7.546875 2.125 -7.140625 C 1.757812 -6.617188 1.578125 -5.648438 1.578125 -4.234375 Z M 1.578125 -4.234375 "/>
</g>
<g id="glyph-0-1">
<path d="M 1.09375 0 L 1.09375 -1.203125 L 2.296875 -1.203125 L 2.296875 0 Z M 1.09375 0 "/>
</g>
<g id="glyph-0-2">
<path d="M 6.046875 -1.015625 L 6.046875 0 L 0.359375 0 C 0.359375 -0.25 0.398438 -0.492188 0.484375 -0.734375 C 0.628906 -1.117188 0.859375 -1.5 1.171875 -1.875 C 1.492188 -2.25 1.957031 -2.679688 2.5625 -3.171875 C 3.5 -3.941406 4.128906 -4.550781 4.453125 -5 C 4.785156 -5.445312 4.953125 -5.867188 4.953125 -6.265625 C 4.953125 -6.679688 4.800781 -7.03125 4.5 -7.3125 C 4.195312 -7.601562 3.804688 -7.75 3.328125 -7.75 C 2.816406 -7.75 2.410156 -7.597656 2.109375 -7.296875 C 1.804688 -6.992188 1.648438 -6.570312 1.640625 -6.03125 L 0.5625 -6.140625 C 0.632812 -6.953125 0.910156 -7.566406 1.390625 -7.984375 C 1.878906 -8.410156 2.535156 -8.625 3.359375 -8.625 C 4.179688 -8.625 4.832031 -8.394531 5.3125 -7.9375 C 5.789062 -7.476562 6.03125 -6.910156 6.03125 -6.234375 C 6.03125 -5.890625 5.957031 -5.550781 5.8125 -5.21875 C 5.675781 -4.894531 5.441406 -4.546875 5.109375 -4.171875 C 4.785156 -3.804688 4.25 -3.304688 3.5 -2.671875 C 2.863281 -2.140625 2.453125 -1.773438 2.265625 -1.578125 C 2.085938 -1.390625 1.941406 -1.203125 1.828125 -1.015625 Z M 6.046875 -1.015625 "/>
</g>
<g id="glyph-0-3">
<path d="M 3.875 0 L 3.875 -2.0625 L 0.15625 -2.0625 L 0.15625 -3.03125 L 4.078125 -8.59375 L 4.9375 -8.59375 L 4.9375 -3.03125 L 6.09375 -3.03125 L 6.09375 -2.0625 L 4.9375 -2.0625 L 4.9375 0 Z M 3.875 -3.03125 L 3.875 -6.890625 L 1.1875 -3.03125 Z M 3.875 -3.03125 "/>
</g>
<g id="glyph-0-4">
<path d="M 5.96875 -6.484375 L 4.921875 -6.40625 C 4.828125 -6.820312 4.695312 -7.125 4.53125 -7.3125 C 4.238281 -7.613281 3.882812 -7.765625 3.46875 -7.765625 C 3.132812 -7.765625 2.835938 -7.671875 2.578125 -7.484375 C 2.253906 -7.234375 1.992188 -6.875 1.796875 -6.40625 C 1.609375 -5.945312 1.507812 -5.289062 1.5 -4.4375 C 1.75 -4.820312 2.054688 -5.109375 2.421875 -5.296875 C 2.796875 -5.484375 3.1875 -5.578125 3.59375 -5.578125 C 4.289062 -5.578125 4.882812 -5.316406 5.375 -4.796875 C 5.875 -4.273438 6.125 -3.609375 6.125 -2.796875 C 6.125 -2.253906 6.003906 -1.75 5.765625 -1.28125 C 5.535156 -0.820312 5.21875 -0.46875 4.8125 -0.21875 C 4.40625 0.0195312 3.945312 0.140625 3.4375 0.140625 C 2.550781 0.140625 1.832031 -0.179688 1.28125 -0.828125 C 0.726562 -1.472656 0.453125 -2.535156 0.453125 -4.015625 C 0.453125 -5.679688 0.757812 -6.890625 1.375 -7.640625 C 1.90625 -8.296875 2.625 -8.625 3.53125 -8.625 C 4.207031 -8.625 4.757812 -8.429688 5.1875 -8.046875 C 5.625 -7.671875 5.882812 -7.148438 5.96875 -6.484375 Z M 1.671875 -2.78125 C 1.671875 -2.414062 1.742188 -2.066406 1.890625 -1.734375 C 2.046875 -1.410156 2.257812 -1.160156 2.53125 -0.984375 C 2.8125 -0.804688 3.109375 -0.71875 3.421875 -0.71875 C 3.859375 -0.71875 4.238281 -0.894531 4.5625 -1.25 C 4.882812 -1.613281 5.046875 -2.101562 5.046875 -2.71875 C 5.046875 -3.3125 4.882812 -3.78125 4.5625 -4.125 C 4.25 -4.46875 3.851562 -4.640625 3.375 -4.640625 C 2.894531 -4.640625 2.488281 -4.46875 2.15625 -4.125 C 1.832031 -3.78125 1.671875 -3.332031 1.671875 -2.78125 Z M 1.671875 -2.78125 "/>
</g>
<g id="glyph-0-5">
<path d="M 2.125 -4.65625 C 1.6875 -4.820312 1.359375 -5.050781 1.140625 -5.34375 C 0.929688 -5.644531 0.828125 -6 0.828125 -6.40625 C 0.828125 -7.03125 1.050781 -7.554688 1.5 -7.984375 C 1.957031 -8.410156 2.554688 -8.625 3.296875 -8.625 C 4.046875 -8.625 4.648438 -8.40625 5.109375 -7.96875 C 5.566406 -7.53125 5.796875 -7 5.796875 -6.375 C 5.796875 -5.976562 5.691406 -5.632812 5.484375 -5.34375 C 5.273438 -5.050781 4.957031 -4.820312 4.53125 -4.65625 C 5.0625 -4.488281 5.460938 -4.210938 5.734375 -3.828125 C 6.003906 -3.441406 6.140625 -2.984375 6.140625 -2.453125 C 6.140625 -1.722656 5.878906 -1.109375 5.359375 -0.609375 C 4.847656 -0.109375 4.164062 0.140625 3.3125 0.140625 C 2.46875 0.140625 1.785156 -0.109375 1.265625 -0.609375 C 0.742188 -1.109375 0.484375 -1.734375 0.484375 -2.484375 C 0.484375 -3.046875 0.625 -3.515625 0.90625 -3.890625 C 1.195312 -4.265625 1.601562 -4.519531 2.125 -4.65625 Z M 1.90625 -6.453125 C 1.90625 -6.046875 2.035156 -5.710938 2.296875 -5.453125 C 2.566406 -5.191406 2.910156 -5.0625 3.328125 -5.0625 C 3.734375 -5.0625 4.066406 -5.1875 4.328125 -5.4375 C 4.585938 -5.695312 4.71875 -6.015625 4.71875 -6.390625 C 4.71875 -6.773438 4.582031 -7.097656 4.3125 -7.359375 C 4.039062 -7.628906 3.707031 -7.765625 3.3125 -7.765625 C 2.90625 -7.765625 2.566406 -7.632812 2.296875 -7.375 C 2.035156 -7.113281 1.90625 -6.804688 1.90625 -6.453125 Z M 1.578125 -2.484375 C 1.578125 -2.179688 1.644531 -1.890625 1.78125 -1.609375 C 1.925781 -1.328125 2.140625 -1.109375 2.421875 -0.953125 C 2.703125 -0.796875 3.003906 -0.71875 3.328125 -0.71875 C 3.828125 -0.71875 4.238281 -0.878906 4.5625 -1.203125 C 4.894531 -1.523438 5.0625 -1.9375 5.0625 -2.4375 C 5.0625 -2.945312 4.894531 -3.367188 4.5625 -3.703125 C 4.226562 -4.035156 3.804688 -4.203125 3.296875 -4.203125 C 2.796875 -4.203125 2.382812 -4.035156 2.0625 -3.703125 C 1.738281 -3.378906 1.578125 -2.972656 1.578125 -2.484375 Z M 1.578125 -2.484375 "/>
</g>
<g id="glyph-0-6">
<path d="M 4.46875 0 L 3.421875 0 L 3.421875 -6.71875 C 3.160156 -6.476562 2.820312 -6.234375 2.40625 -5.984375 C 2 -5.742188 1.632812 -5.566406 1.3125 -5.453125 L 1.3125 -6.46875 C 1.894531 -6.75 2.40625 -7.082031 2.84375 -7.46875 C 3.289062 -7.863281 3.609375 -8.25 3.796875 -8.625 L 4.46875 -8.625 Z M 4.46875 0 "/>
</g>
<g id="glyph-0-7">
<path d="M 0.09375 0 L 2.359375 -3.234375 L 0.265625 -6.21875 L 1.578125 -6.21875 L 2.53125 -4.765625 C 2.707031 -4.484375 2.851562 -4.25 2.96875 -4.0625 C 3.132812 -4.320312 3.289062 -4.550781 3.4375 -4.75 L 4.484375 -6.21875 L 5.75 -6.21875 L 3.59375 -3.296875 L 5.90625 0 L 4.625 0 L 3.34375 -1.9375 L 3 -2.453125 L 1.359375 0 Z M 0.09375 0 "/>
</g>
<g id="glyph-1-0">
<path d="M -4.234375 -0.5 C -5.253906 -0.5 -6.070312 -0.601562 -6.6875 -0.8125 C -7.3125 -1.019531 -7.789062 -1.328125 -8.125 -1.734375 C -8.457031 -2.148438 -8.625 -2.671875 -8.625 -3.296875 C -8.625 -3.753906 -8.53125 -4.15625 -8.34375 -4.5 C -8.15625 -4.851562 -7.882812 -5.144531 -7.53125 -5.375 C -7.1875 -5.601562 -6.765625 -5.78125 -6.265625 -5.90625 C -5.765625 -6.03125 -5.085938 -6.09375 -4.234375 -6.09375 C -3.222656 -6.09375 -2.410156 -5.988281 -1.796875 -5.78125 C -1.179688 -5.582031 -0.703125 -5.273438 -0.359375 -4.859375 C -0.0234375 -4.453125 0.140625 -3.929688 0.140625 -3.296875 C 0.140625 -2.472656 -0.15625 -1.820312 -0.75 -1.34375 C -1.457031 -0.78125 -2.617188 -0.5 -4.234375 -0.5 Z M -4.234375 -1.578125 C -2.828125 -1.578125 -1.890625 -1.742188 -1.421875 -2.078125 C -0.953125 -2.410156 -0.71875 -2.816406 -0.71875 -3.296875 C -0.71875 -3.785156 -0.953125 -4.191406 -1.421875 -4.515625 C -1.890625 -4.847656 -2.828125 -5.015625 -4.234375 -5.015625 C -5.648438 -5.015625 -6.585938 -4.847656 -7.046875 -4.515625 C -7.515625 -4.191406 -7.75 -3.78125 -7.75 -3.28125 C -7.75 -2.800781 -7.546875 -2.414062 -7.140625 -2.125 C -6.617188 -1.757812 -5.648438 -1.578125 -4.234375 -1.578125 Z M -4.234375 -1.578125 "/>
</g>
<g id="glyph-1-1">
<path d="M 0 -1.09375 L -1.203125 -1.09375 L -1.203125 -2.296875 L 0 -2.296875 Z M 0 -1.09375 "/>
</g>
<g id="glyph-1-2">
<path d="M -1.015625 -6.046875 L 0 -6.046875 L 0 -0.359375 C -0.25 -0.359375 -0.492188 -0.398438 -0.734375 -0.484375 C -1.117188 -0.628906 -1.5 -0.859375 -1.875 -1.171875 C -2.25 -1.492188 -2.679688 -1.957031 -3.171875 -2.5625 C -3.941406 -3.5 -4.550781 -4.128906 -5 -4.453125 C -5.445312 -4.785156 -5.867188 -4.953125 -6.265625 -4.953125 C -6.679688 -4.953125 -7.03125 -4.800781 -7.3125 -4.5 C -7.601562 -4.195312 -7.75 -3.804688 -7.75 -3.328125 C -7.75 -2.816406 -7.597656 -2.410156 -7.296875 -2.109375 C -6.992188 -1.804688 -6.570312 -1.648438 -6.03125 -1.640625 L -6.140625 -0.5625 C -6.953125 -0.632812 -7.566406 -0.910156 -7.984375 -1.390625 C -8.410156 -1.878906 -8.625 -2.535156 -8.625 -3.359375 C -8.625 -4.179688 -8.394531 -4.832031 -7.9375 -5.3125 C -7.476562 -5.789062 -6.910156 -6.03125 -6.234375 -6.03125 C -5.890625 -6.03125 -5.550781 -5.957031 -5.21875 -5.8125 C -4.894531 -5.675781 -4.546875 -5.441406 -4.171875 -5.109375 C -3.804688 -4.785156 -3.304688 -4.25 -2.671875 -3.5 C -2.140625 -2.863281 -1.773438 -2.453125 -1.578125 -2.265625 C -1.390625 -2.085938 -1.203125 -1.941406 -1.015625 -1.828125 Z M -1.015625 -6.046875 "/>
</g>
<g id="glyph-1-3">
<path d="M 0 -3.875 L -2.0625 -3.875 L -2.0625 -0.15625 L -3.03125 -0.15625 L -8.59375 -4.078125 L -8.59375 -4.9375 L -3.03125 -4.9375 L -3.03125 -6.09375 L -2.0625 -6.09375 L -2.0625 -4.9375 L 0 -4.9375 Z M -3.03125 -3.875 L -6.890625 -3.875 L -3.03125 -1.1875 Z M -3.03125 -3.875 "/>
</g>
<g id="glyph-1-4">
<path d="M -6.484375 -5.96875 L -6.40625 -4.921875 C -6.820312 -4.828125 -7.125 -4.695312 -7.3125 -4.53125 C -7.613281 -4.238281 -7.765625 -3.882812 -7.765625 -3.46875 C -7.765625 -3.132812 -7.671875 -2.835938 -7.484375 -2.578125 C -7.234375 -2.253906 -6.875 -1.992188 -6.40625 -1.796875 C -5.945312 -1.609375 -5.289062 -1.507812 -4.4375 -1.5 C -4.820312 -1.75 -5.109375 -2.054688 -5.296875 -2.421875 C -5.484375 -2.796875 -5.578125 -3.1875 -5.578125 -3.59375 C -5.578125 -4.289062 -5.316406 -4.882812 -4.796875 -5.375 C -4.273438 -5.875 -3.609375 -6.125 -2.796875 -6.125 C -2.253906 -6.125 -1.75 -6.003906 -1.28125 -5.765625 C -0.820312 -5.535156 -0.46875 -5.21875 -0.21875 -4.8125 C 0.0195312 -4.40625 0.140625 -3.945312 0.140625 -3.4375 C 0.140625 -2.550781 -0.179688 -1.832031 -0.828125 -1.28125 C -1.472656 -0.726562 -2.535156 -0.453125 -4.015625 -0.453125 C -5.679688 -0.453125 -6.890625 -0.757812 -7.640625 -1.375 C -8.296875 -1.90625 -8.625 -2.625 -8.625 -3.53125 C -8.625 -4.207031 -8.429688 -4.757812 -8.046875 -5.1875 C -7.671875 -5.625 -7.148438 -5.882812 -6.484375 -5.96875 Z M -2.78125 -1.671875 C -2.414062 -1.671875 -2.066406 -1.742188 -1.734375 -1.890625 C -1.410156 -2.046875 -1.160156 -2.257812 -0.984375 -2.53125 C -0.804688 -2.8125 -0.71875 -3.109375 -0.71875 -3.421875 C -0.71875 -3.859375 -0.894531 -4.238281 -1.25 -4.5625 C -1.613281 -4.882812 -2.101562 -5.046875 -2.71875 -5.046875 C -3.3125 -5.046875 -3.78125 -4.882812 -4.125 -4.5625 C -4.46875 -4.25 -4.640625 -3.851562 -4.640625 -3.375 C -4.640625 -2.894531 -4.46875 -2.488281 -4.125 -2.15625 C -3.78125 -1.832031 -3.332031 -1.671875 -2.78125 -1.671875 Z M -2.78125 -1.671875 "/>
</g>
<g id="glyph-1-5">
<path d="M -4.65625 -2.125 C -4.820312 -1.6875 -5.050781 -1.359375 -5.34375 -1.140625 C -5.644531 -0.929688 -6 -0.828125 -6.40625 -0.828125 C -7.03125 -0.828125 -7.554688 -1.050781 -7.984375 -1.5 C -8.410156 -1.957031 -8.625 -2.554688 -8.625 -3.296875 C -8.625 -4.046875 -8.40625 -4.648438 -7.96875 -5.109375 C -7.53125 -5.566406 -7 -5.796875 -6.375 -5.796875 C -5.976562 -5.796875 -5.632812 -5.691406 -5.34375 -5.484375 C -5.050781 -5.273438 -4.820312 -4.957031 -4.65625 -4.53125 C -4.488281 -5.0625 -4.210938 -5.460938 -3.828125 -5.734375 C -3.441406 -6.003906 -2.984375 -6.140625 -2.453125 -6.140625 C -1.722656 -6.140625 -1.109375 -5.878906 -0.609375 -5.359375 C -0.109375 -4.847656 0.140625 -4.164062 0.140625 -3.3125 C 0.140625 -2.46875 -0.109375 -1.785156 -0.609375 -1.265625 C -1.109375 -0.742188 -1.734375 -0.484375 -2.484375 -0.484375 C -3.046875 -0.484375 -3.515625 -0.625 -3.890625 -0.90625 C -4.265625 -1.195312 -4.519531 -1.601562 -4.65625 -2.125 Z M -6.453125 -1.90625 C -6.046875 -1.90625 -5.710938 -2.035156 -5.453125 -2.296875 C -5.191406 -2.566406 -5.0625 -2.910156 -5.0625 -3.328125 C -5.0625 -3.734375 -5.1875 -4.066406 -5.4375 -4.328125 C -5.695312 -4.585938 -6.015625 -4.71875 -6.390625 -4.71875 C -6.773438 -4.71875 -7.097656 -4.582031 -7.359375 -4.3125 C -7.628906 -4.039062 -7.765625 -3.707031 -7.765625 -3.3125 C -7.765625 -2.90625 -7.632812 -2.566406 -7.375 -2.296875 C -7.113281 -2.035156 -6.804688 -1.90625 -6.453125 -1.90625 Z M -2.484375 -1.578125 C -2.179688 -1.578125 -1.890625 -1.644531 -1.609375 -1.78125 C -1.328125 -1.925781 -1.109375 -2.140625 -0.953125 -2.421875 C -0.796875 -2.703125 -0.71875 -3.003906 -0.71875 -3.328125 C -0.71875 -3.828125 -0.878906 -4.238281 -1.203125 -4.5625 C -1.523438 -4.894531 -1.9375 -5.0625 -2.4375 -5.0625 C -2.945312 -5.0625 -3.367188 -4.894531 -3.703125 -4.5625 C -4.035156 -4.226562 -4.203125 -3.804688 -4.203125 -3.296875 C -4.203125 -2.796875 -4.035156 -2.382812 -3.703125 -2.0625 C -3.378906 -1.738281 -2.972656 -1.578125 -2.484375 -1.578125 Z M -2.484375 -1.578125 "/>
</g>
<g id="glyph-1-6">
<path d="M 0 -4.46875 L 0 -3.421875 L -6.71875 -3.421875 C -6.476562 -3.160156 -6.234375 -2.820312 -5.984375 -2.40625 C -5.742188 -2 -5.566406 -1.632812 -5.453125 -1.3125 L -6.46875 -1.3125 C -6.75 -1.894531 -7.082031 -2.40625 -7.46875 -2.84375 C -7.863281 -3.289062 -8.25 -3.609375 -8.625 -3.796875 L -8.625 -4.46875 Z M 0 -4.46875 "/>
</g>
<g id="glyph-1-7">
<path d="M 0 -0.09375 L -3.234375 -2.359375 L -6.21875 -0.265625 L -6.21875 -1.578125 L -4.765625 -2.53125 C -4.484375 -2.707031 -4.25 -2.851562 -4.0625 -2.96875 C -4.320312 -3.132812 -4.550781 -3.289062 -4.75 -3.4375 L -6.21875 -4.484375 L -6.21875 -5.75 L -3.296875 -3.59375 L 0 -5.90625 L 0 -4.625 L -1.9375 -3.34375 L -2.453125 -3 L 0 -1.359375 Z M 0 -0.09375 "/>
</g>
<g id="glyph-2-0">
<path d="M 0.859375 -7.265625 L 2.625 -7.265625 L 2.625 -6.265625 C 3.257812 -7.035156 4.015625 -7.421875 4.890625 -7.421875 C 5.359375 -7.421875 5.765625 -7.320312 6.109375 -7.125 C 6.453125 -6.9375 6.734375 -6.648438 6.953125 -6.265625 C 7.265625 -6.648438 7.601562 -6.9375 7.96875 -7.125 C 8.34375 -7.320312 8.738281 -7.421875 9.15625 -7.421875 C 9.6875 -7.421875 10.132812 -7.3125 10.5 -7.09375 C 10.875 -6.882812 11.15625 -6.566406 11.34375 -6.140625 C 11.476562 -5.835938 11.546875 -5.335938 11.546875 -4.640625 L 11.546875 0 L 9.625 0 L 9.625 -4.15625 C 9.625 -4.875 9.554688 -5.335938 9.421875 -5.546875 C 9.242188 -5.816406 8.96875 -5.953125 8.59375 -5.953125 C 8.332031 -5.953125 8.082031 -5.867188 7.84375 -5.703125 C 7.601562 -5.546875 7.429688 -5.304688 7.328125 -4.984375 C 7.222656 -4.671875 7.171875 -4.171875 7.171875 -3.484375 L 7.171875 0 L 5.25 0 L 5.25 -3.984375 C 5.25 -4.679688 5.210938 -5.132812 5.140625 -5.34375 C 5.078125 -5.550781 4.972656 -5.703125 4.828125 -5.796875 C 4.679688 -5.898438 4.488281 -5.953125 4.25 -5.953125 C 3.945312 -5.953125 3.675781 -5.867188 3.4375 -5.703125 C 3.207031 -5.546875 3.039062 -5.316406 2.9375 -5.015625 C 2.832031 -4.722656 2.78125 -4.226562 2.78125 -3.53125 L 2.78125 0 L 0.859375 0 Z M 0.859375 -7.265625 "/>
</g>
<g id="glyph-2-1">
<path d="M 1 -8.25 L 1 -10.015625 L 2.921875 -10.015625 L 2.921875 -8.25 Z M 1 0 L 1 -7.265625 L 2.921875 -7.265625 L 2.921875 0 Z M 1 0 "/>
</g>
<g id="glyph-2-2">
<path d="M 7.609375 0 L 5.6875 0 L 5.6875 -3.703125 C 5.6875 -4.484375 5.644531 -4.988281 5.5625 -5.21875 C 5.476562 -5.457031 5.34375 -5.640625 5.15625 -5.765625 C 4.976562 -5.890625 4.757812 -5.953125 4.5 -5.953125 C 4.164062 -5.953125 3.863281 -5.859375 3.59375 -5.671875 C 3.332031 -5.492188 3.148438 -5.253906 3.046875 -4.953125 C 2.953125 -4.648438 2.90625 -4.09375 2.90625 -3.28125 L 2.90625 0 L 0.984375 0 L 0.984375 -7.265625 L 2.78125 -7.265625 L 2.78125 -6.1875 C 3.40625 -7.007812 4.203125 -7.421875 5.171875 -7.421875 C 5.585938 -7.421875 5.972656 -7.34375 6.328125 -7.1875 C 6.679688 -7.039062 6.945312 -6.847656 7.125 -6.609375 C 7.300781 -6.367188 7.425781 -6.097656 7.5 -5.796875 C 7.570312 -5.503906 7.609375 -5.078125 7.609375 -4.515625 Z M 7.609375 0 "/>
</g>
<g id="glyph-2-3">
<path d="M 2.4375 -5.046875 L 0.703125 -5.359375 C 0.890625 -6.054688 1.222656 -6.570312 1.703125 -6.90625 C 2.179688 -7.25 2.894531 -7.421875 3.84375 -7.421875 C 4.695312 -7.421875 5.332031 -7.316406 5.75 -7.109375 C 6.175781 -6.910156 6.472656 -6.65625 6.640625 -6.34375 C 6.804688 -6.03125 6.890625 -5.457031 6.890625 -4.625 L 6.875 -2.390625 C 6.875 -1.742188 6.90625 -1.269531 6.96875 -0.96875 C 7.03125 -0.664062 7.144531 -0.34375 7.3125 0 L 5.421875 0 C 5.367188 -0.125 5.304688 -0.3125 5.234375 -0.5625 C 5.203125 -0.675781 5.175781 -0.753906 5.15625 -0.796875 C 4.832031 -0.472656 4.484375 -0.226562 4.109375 -0.0625 C 3.734375 0.09375 3.332031 0.171875 2.90625 0.171875 C 2.164062 0.171875 1.578125 -0.03125 1.140625 -0.4375 C 0.710938 -0.84375 0.5 -1.359375 0.5 -1.984375 C 0.5 -2.390625 0.597656 -2.753906 0.796875 -3.078125 C 0.992188 -3.398438 1.265625 -3.644531 1.609375 -3.8125 C 1.960938 -3.988281 2.472656 -4.140625 3.140625 -4.265625 C 4.035156 -4.429688 4.660156 -4.585938 5.015625 -4.734375 L 5.015625 -4.921875 C 5.015625 -5.296875 4.921875 -5.5625 4.734375 -5.71875 C 4.554688 -5.875 4.210938 -5.953125 3.703125 -5.953125 C 3.359375 -5.953125 3.09375 -5.882812 2.90625 -5.75 C 2.71875 -5.613281 2.5625 -5.378906 2.4375 -5.046875 Z M 5.015625 -3.484375 C 4.765625 -3.398438 4.375 -3.300781 3.84375 -3.1875 C 3.3125 -3.070312 2.960938 -2.960938 2.796875 -2.859375 C 2.546875 -2.679688 2.421875 -2.457031 2.421875 -2.1875 C 2.421875 -1.914062 2.519531 -1.679688 2.71875 -1.484375 C 2.914062 -1.285156 3.171875 -1.1875 3.484375 -1.1875 C 3.828125 -1.1875 4.160156 -1.300781 4.484375 -1.53125 C 4.710938 -1.707031 4.863281 -1.921875 4.9375 -2.171875 C 4.988281 -2.328125 5.015625 -2.640625 5.015625 -3.109375 Z M 5.015625 -3.484375 "/>
</g>
<g id="glyph-2-4">
<path d="M 0.078125 0 L 2.703125 -3.734375 L 0.1875 -7.265625 L 2.53125 -7.265625 L 3.828125 -5.265625 L 5.171875 -7.265625 L 7.4375 -7.265625 L 4.96875 -3.828125 L 7.65625 0 L 5.296875 0 L 3.828125 -2.25 L 2.328125 0 Z M 0.078125 0 "/>
</g>
<g id="glyph-2-5">
</g>
<g id="glyph-2-6">
<path d="M 7.65625 0 L 5.875 0 L 5.875 -1.0625 C 5.582031 -0.644531 5.234375 -0.332031 4.828125 -0.125 C 4.421875 0.0703125 4.015625 0.171875 3.609375 0.171875 C 2.773438 0.171875 2.0625 -0.164062 1.46875 -0.84375 C 0.875 -1.519531 0.578125 -2.457031 0.578125 -3.65625 C 0.578125 -4.882812 0.863281 -5.816406 1.4375 -6.453125 C 2.019531 -7.097656 2.753906 -7.421875 3.640625 -7.421875 C 4.453125 -7.421875 5.15625 -7.082031 5.75 -6.40625 L 5.75 -10.015625 L 7.65625 -10.015625 Z M 2.53125 -3.78125 C 2.53125 -3.007812 2.640625 -2.453125 2.859375 -2.109375 C 3.171875 -1.609375 3.601562 -1.359375 4.15625 -1.359375 C 4.59375 -1.359375 4.96875 -1.546875 5.28125 -1.921875 C 5.59375 -2.296875 5.75 -2.859375 5.75 -3.609375 C 5.75 -4.441406 5.597656 -5.039062 5.296875 -5.40625 C 4.992188 -5.769531 4.609375 -5.953125 4.140625 -5.953125 C 3.679688 -5.953125 3.296875 -5.769531 2.984375 -5.40625 C 2.679688 -5.050781 2.53125 -4.507812 2.53125 -3.78125 Z M 2.53125 -3.78125 "/>
</g>
<g id="glyph-2-7">
<path d="M 5.203125 -2.3125 L 7.125 -1.984375 C 6.875 -1.285156 6.484375 -0.75 5.953125 -0.375 C 5.421875 -0.0078125 4.757812 0.171875 3.96875 0.171875 C 2.707031 0.171875 1.769531 -0.242188 1.15625 -1.078125 C 0.675781 -1.734375 0.4375 -2.566406 0.4375 -3.578125 C 0.4375 -4.773438 0.75 -5.710938 1.375 -6.390625 C 2.007812 -7.078125 2.8125 -7.421875 3.78125 -7.421875 C 4.851562 -7.421875 5.703125 -7.0625 6.328125 -6.34375 C 6.953125 -5.632812 7.25 -4.546875 7.21875 -3.078125 L 2.40625 -3.078125 C 2.425781 -2.503906 2.582031 -2.054688 2.875 -1.734375 C 3.175781 -1.421875 3.546875 -1.265625 3.984375 -1.265625 C 4.285156 -1.265625 4.535156 -1.347656 4.734375 -1.515625 C 4.941406 -1.679688 5.097656 -1.945312 5.203125 -2.3125 Z M 5.3125 -4.25 C 5.300781 -4.8125 5.160156 -5.234375 4.890625 -5.515625 C 4.617188 -5.804688 4.285156 -5.953125 3.890625 -5.953125 C 3.472656 -5.953125 3.125 -5.800781 2.84375 -5.5 C 2.570312 -5.1875 2.441406 -4.769531 2.453125 -4.25 Z M 5.3125 -4.25 "/>
</g>
<g id="glyph-2-8">
<path d="M 0.328125 -2.078125 L 2.25 -2.359375 C 2.332031 -1.992188 2.5 -1.710938 2.75 -1.515625 C 3 -1.316406 3.351562 -1.21875 3.8125 -1.21875 C 4.300781 -1.21875 4.671875 -1.3125 4.921875 -1.5 C 5.097656 -1.625 5.1875 -1.796875 5.1875 -2.015625 C 5.1875 -2.160156 5.140625 -2.28125 5.046875 -2.375 C 4.953125 -2.46875 4.738281 -2.550781 4.40625 -2.625 C 2.851562 -2.96875 1.867188 -3.28125 1.453125 -3.5625 C 0.878906 -3.957031 0.59375 -4.503906 0.59375 -5.203125 C 0.59375 -5.828125 0.835938 -6.351562 1.328125 -6.78125 C 1.828125 -7.207031 2.601562 -7.421875 3.65625 -7.421875 C 4.644531 -7.421875 5.378906 -7.257812 5.859375 -6.9375 C 6.347656 -6.613281 6.679688 -6.132812 6.859375 -5.5 L 5.046875 -5.171875 C 4.972656 -5.453125 4.828125 -5.664062 4.609375 -5.8125 C 4.390625 -5.96875 4.082031 -6.046875 3.6875 -6.046875 C 3.175781 -6.046875 2.8125 -5.972656 2.59375 -5.828125 C 2.445312 -5.734375 2.375 -5.601562 2.375 -5.4375 C 2.375 -5.300781 2.441406 -5.1875 2.578125 -5.09375 C 2.742188 -4.96875 3.335938 -4.785156 4.359375 -4.546875 C 5.390625 -4.316406 6.109375 -4.035156 6.515625 -3.703125 C 6.910156 -3.359375 7.109375 -2.878906 7.109375 -2.265625 C 7.109375 -1.597656 6.828125 -1.023438 6.265625 -0.546875 C 5.710938 -0.0664062 4.894531 0.171875 3.8125 0.171875 C 2.820312 0.171875 2.035156 -0.03125 1.453125 -0.4375 C 0.878906 -0.84375 0.503906 -1.390625 0.328125 -2.078125 Z M 0.328125 -2.078125 "/>
</g>
<g id="glyph-2-9">
<path d="M 0.828125 0.484375 L 3.015625 0.75 C 3.054688 1 3.144531 1.171875 3.28125 1.265625 C 3.457031 1.410156 3.742188 1.484375 4.140625 1.484375 C 4.640625 1.484375 5.015625 1.40625 5.265625 1.25 C 5.429688 1.144531 5.554688 0.984375 5.640625 0.765625 C 5.703125 0.609375 5.734375 0.316406 5.734375 -0.109375 L 5.734375 -1.171875 C 5.160156 -0.390625 4.4375 0 3.5625 0 C 2.582031 0 1.8125 -0.410156 1.25 -1.234375 C 0.800781 -1.890625 0.578125 -2.703125 0.578125 -3.671875 C 0.578125 -4.890625 0.867188 -5.816406 1.453125 -6.453125 C 2.035156 -7.097656 2.765625 -7.421875 3.640625 -7.421875 C 4.535156 -7.421875 5.273438 -7.023438 5.859375 -6.234375 L 5.859375 -7.265625 L 7.65625 -7.265625 L 7.65625 -0.75 C 7.65625 0.113281 7.582031 0.753906 7.4375 1.171875 C 7.300781 1.597656 7.101562 1.929688 6.84375 2.171875 C 6.59375 2.410156 6.253906 2.597656 5.828125 2.734375 C 5.398438 2.878906 4.863281 2.953125 4.21875 2.953125 C 2.976562 2.953125 2.101562 2.738281 1.59375 2.3125 C 1.082031 1.894531 0.828125 1.363281 0.828125 0.71875 C 0.828125 0.644531 0.828125 0.566406 0.828125 0.484375 Z M 2.546875 -3.78125 C 2.546875 -3.007812 2.691406 -2.441406 2.984375 -2.078125 C 3.285156 -1.722656 3.65625 -1.546875 4.09375 -1.546875 C 4.5625 -1.546875 4.957031 -1.726562 5.28125 -2.09375 C 5.601562 -2.46875 5.765625 -3.015625 5.765625 -3.734375 C 5.765625 -4.484375 5.609375 -5.039062 5.296875 -5.40625 C 4.992188 -5.769531 4.601562 -5.953125 4.125 -5.953125 C 3.664062 -5.953125 3.285156 -5.769531 2.984375 -5.40625 C 2.691406 -5.050781 2.546875 -4.507812 2.546875 -3.78125 Z M 2.546875 -3.78125 "/>
</g>
<g id="glyph-3-0">
<path d="M 2.984375 0 L 2.28125 0 L 2.28125 -4.484375 C 2.113281 -4.316406 1.890625 -4.148438 1.609375 -3.984375 C 1.335938 -3.828125 1.09375 -3.710938 0.875 -3.640625 L 0.875 -4.3125 C 1.269531 -4.5 1.613281 -4.722656 1.90625 -4.984375 C 2.195312 -5.242188 2.40625 -5.5 2.53125 -5.75 L 2.984375 -5.75 Z M 2.984375 0 "/>
</g>
<g id="glyph-4-0">
<path d="M -0.671875 -4.03125 L 0 -4.03125 L 0 -0.25 C -0.164062 -0.238281 -0.328125 -0.265625 -0.484375 -0.328125 C -0.742188 -0.421875 -1 -0.570312 -1.25 -0.78125 C -1.5 -1 -1.789062 -1.304688 -2.125 -1.703125 C -2.632812 -2.328125 -3.035156 -2.75 -3.328125 -2.96875 C -3.628906 -3.1875 -3.910156 -3.296875 -4.171875 -3.296875 C -4.453125 -3.296875 -4.6875 -3.195312 -4.875 -3 C -5.070312 -2.800781 -5.171875 -2.539062 -5.171875 -2.21875 C -5.171875 -1.882812 -5.066406 -1.613281 -4.859375 -1.40625 C -4.660156 -1.207031 -4.378906 -1.101562 -4.015625 -1.09375 L -4.09375 -0.375 C -4.632812 -0.425781 -5.046875 -0.613281 -5.328125 -0.9375 C -5.609375 -1.257812 -5.75 -1.691406 -5.75 -2.234375 C -5.75 -2.785156 -5.597656 -3.21875 -5.296875 -3.53125 C -4.992188 -3.851562 -4.613281 -4.015625 -4.15625 -4.015625 C -3.925781 -4.015625 -3.703125 -3.96875 -3.484375 -3.875 C -3.265625 -3.78125 -3.03125 -3.625 -2.78125 -3.40625 C -2.539062 -3.195312 -2.207031 -2.835938 -1.78125 -2.328125 C -1.425781 -1.910156 -1.1875 -1.640625 -1.0625 -1.515625 C -0.9375 -1.398438 -0.804688 -1.300781 -0.671875 -1.21875 Z M -0.671875 -4.03125 "/>
</g>
</g>
<clipPath id="clip-0">
<path clip-rule="nonzero" d="M 155 208 L 162 208 L 162 214.558594 L 155 214.558594 Z M 155 208 "/>
</clipPath>
<clipPath id="clip-1">
<path clip-rule="nonzero" d="M 155 59.039062 L 162 59.039062 L 162 65 L 155 65 Z M 155 59.039062 "/>
</clipPath>
<clipPath id="clip-2">
<path clip-rule="nonzero" d="M 117 170 L 200 170 L 200 214.558594 L 117 214.558594 Z M 117 170 "/>
</clipPath>
<clipPath id="clip-3">
<path clip-rule="nonzero" d="M 117 59.039062 L 200 59.039062 L 200 104 L 117 104 Z M 117 59.039062 "/>
</clipPath>
<clipPath id="clip-4">
<path clip-rule="nonzero" d="M 59.039062 132 L 142 132 L 142 214.558594 L 59.039062 214.558594 Z M 59.039062 132 "/>
</clipPath>
<clipPath id="clip-5">
<path clip-rule="nonzero" d="M 59.039062 59.039062 L 142 59.039062 L 142 141 L 59.039062 141 Z M 59.039062 59.039062 "/>
</clipPath>
<clipPath id="clip-6">
<path clip-rule="nonzero" d="M 174 132 L 257.761719 132 L 257.761719 214.558594 L 174 214.558594 Z M 174 132 "/>
</clipPath>
<clipPath id="clip-7">
<path clip-rule="nonzero" d="M 174 59.039062 L 257.761719 59.039062 L 257.761719 141 L 174 141 Z M 174 59.039062 "/>
</clipPath>
</defs>
<path fill-rule="nonzero" fill="rgb(0%, 0%, 100%)" fill-opacity="1" d="M 155.699219 136.800781 C 155.699219 135.308594 156.910156 134.101562 158.398438 134.101562 C 159.890625 134.101562 161.101562 135.308594 161.101562 136.800781 C 161.101562 138.289062 159.890625 139.5 158.398438 139.5 C 156.910156 139.5 155.699219 138.289062 155.699219 136.800781 "/>
<g clip-path="url(#clip-0)">
<path fill-rule="nonzero" fill="rgb(0%, 0%, 100%)" fill-opacity="1" d="M 155.699219 211.570312 C 155.699219 210.078125 156.910156 208.871094 158.398438 208.871094 C 159.890625 208.871094 161.101562 210.078125 161.101562 211.570312 C 161.101562 213.050781 159.890625 214.269531 158.398438 214.269531 C 156.910156 214.269531 155.699219 213.050781 155.699219 211.570312 "/>
</g>
<g clip-path="url(#clip-1)">
<path fill-rule="nonzero" fill="rgb(0%, 0%, 100%)" fill-opacity="1" d="M 155.699219 62.03125 C 155.699219 60.550781 156.910156 59.328125 158.398438 59.328125 C 159.890625 59.328125 161.101562 60.550781 161.101562 62.03125 C 161.101562 63.519531 159.890625 64.730469 158.398438 64.730469 C 156.910156 64.730469 155.699219 63.519531 155.699219 62.03125 "/>
</g>
<path fill-rule="nonzero" fill="rgb(0%, 0%, 100%)" fill-opacity="1" d="M 97.808594 174.179688 C 97.808594 172.699219 99.019531 171.480469 100.511719 171.480469 C 101.988281 171.480469 103.210938 172.699219 103.210938 174.179688 C 103.210938 175.671875 101.988281 176.878906 100.511719 176.878906 C 99.019531 176.878906 97.808594 175.671875 97.808594 174.179688 "/>
<path fill-rule="nonzero" fill="rgb(0%, 0%, 100%)" fill-opacity="1" d="M 97.808594 99.421875 C 97.808594 97.929688 99.019531 96.71875 100.511719 96.71875 C 101.988281 96.71875 103.210938 97.929688 103.210938 99.421875 C 103.210938 100.898438 101.988281 102.121094 100.511719 102.121094 C 99.019531 102.121094 97.808594 100.898438 97.808594 99.421875 "/>
<path fill-rule="nonzero" fill="rgb(0%, 0%, 100%)" fill-opacity="1" d="M 213.589844 174.179688 C 213.589844 172.699219 214.808594 171.480469 216.289062 171.480469 C 217.78125 171.480469 218.988281 172.699219 218.988281 174.179688 C 218.988281 175.671875 217.78125 176.878906 216.289062 176.878906 C 214.808594 176.878906 213.589844 175.671875 213.589844 174.179688 "/>
<path fill-rule="nonzero" fill="rgb(0%, 0%, 100%)" fill-opacity="1" d="M 213.589844 99.421875 C 213.589844 97.929688 214.808594 96.71875 216.289062 96.71875 C 217.78125 96.71875 218.988281 97.929688 218.988281 99.421875 C 218.988281 100.898438 217.78125 102.121094 216.289062 102.121094 C 214.808594 102.121094 213.589844 100.898438 213.589844 99.421875 "/>
<path fill="none" stroke-width="0.75" stroke-linecap="round" stroke-linejoin="round" stroke="rgb(0%, 0%, 0%)" stroke-opacity="1" stroke-miterlimit="10" d="M 83.628906 73.441406 L 233.171875 73.441406 " transform="matrix(1, 0, 0, -1, 0, 288)"/>
<path fill="none" stroke-width="0.75" stroke-linecap="round" stroke-linejoin="round" stroke="rgb(0%, 0%, 0%)" stroke-opacity="1" stroke-miterlimit="10" d="M 83.628906 73.441406 L 83.628906 66.238281 " transform="matrix(1, 0, 0, -1, 0, 288)"/>
<path fill="none" stroke-width="0.75" stroke-linecap="round" stroke-linejoin="round" stroke="rgb(0%, 0%, 0%)" stroke-opacity="1" stroke-miterlimit="10" d="M 113.539062 73.441406 L 113.539062 66.238281 " transform="matrix(1, 0, 0, -1, 0, 288)"/>
<path fill="none" stroke-width="0.75" stroke-linecap="round" stroke-linejoin="round" stroke="rgb(0%, 0%, 0%)" stroke-opacity="1" stroke-miterlimit="10" d="M 143.449219 73.441406 L 143.449219 66.238281 " transform="matrix(1, 0, 0, -1, 0, 288)"/>
<path fill="none" stroke-width="0.75" stroke-linecap="round" stroke-linejoin="round" stroke="rgb(0%, 0%, 0%)" stroke-opacity="1" stroke-miterlimit="10" d="M 173.351562 73.441406 L 173.351562 66.238281 " transform="matrix(1, 0, 0, -1, 0, 288)"/>
<path fill="none" stroke-width="0.75" stroke-linecap="round" stroke-linejoin="round" stroke="rgb(0%, 0%, 0%)" stroke-opacity="1" stroke-miterlimit="10" d="M 203.261719 73.441406 L 203.261719 66.238281 " transform="matrix(1, 0, 0, -1, 0, 288)"/>
<path fill="none" stroke-width="0.75" stroke-linecap="round" stroke-linejoin="round" stroke="rgb(0%, 0%, 0%)" stroke-opacity="1" stroke-miterlimit="10" d="M 233.171875 73.441406 L 233.171875 66.238281 " transform="matrix(1, 0, 0, -1, 0, 288)"/>
<g fill="rgb(0%, 0%, 0%)" fill-opacity="1">
<use xlink:href="#glyph-0-0" x="75.29" y="240.48"/>
<use xlink:href="#glyph-0-1" x="81.962" y="240.48"/>
<use xlink:href="#glyph-0-0" x="85.298" y="240.48"/>
</g>
<g fill="rgb(0%, 0%, 0%)" fill-opacity="1">
<use xlink:href="#glyph-0-0" x="105.2" y="240.48"/>
<use xlink:href="#glyph-0-1" x="111.872" y="240.48"/>
<use xlink:href="#glyph-0-2" x="115.208" y="240.48"/>
</g>
<g fill="rgb(0%, 0%, 0%)" fill-opacity="1">
<use xlink:href="#glyph-0-0" x="135.11" y="240.48"/>
<use xlink:href="#glyph-0-1" x="141.782" y="240.48"/>
<use xlink:href="#glyph-0-3" x="145.118" y="240.48"/>
</g>
<g fill="rgb(0%, 0%, 0%)" fill-opacity="1">
<use xlink:href="#glyph-0-0" x="165.01" y="240.48"/>
<use xlink:href="#glyph-0-1" x="171.682" y="240.48"/>
<use xlink:href="#glyph-0-4" x="175.018" y="240.48"/>
</g>
<g fill="rgb(0%, 0%, 0%)" fill-opacity="1">
<use xlink:href="#glyph-0-0" x="194.92" y="240.48"/>
<use xlink:href="#glyph-0-1" x="201.592" y="240.48"/>
<use xlink:href="#glyph-0-5" x="204.928" y="240.48"/>
</g>
<g fill="rgb(0%, 0%, 0%)" fill-opacity="1">
<use xlink:href="#glyph-0-6" x="224.83" y="240.48"/>
<use xlink:href="#glyph-0-1" x="231.502" y="240.48"/>
<use xlink:href="#glyph-0-0" x="234.838" y="240.48"/>
</g>
<path fill="none" stroke-width="0.75" stroke-linecap="round" stroke-linejoin="round" stroke="rgb(0%, 0%, 0%)" stroke-opacity="1" stroke-miterlimit="10" d="M 59.039062 76.429688 L 59.039062 225.96875 " transform="matrix(1, 0, 0, -1, 0, 288)"/>
<path fill="none" stroke-width="0.75" stroke-linecap="round" stroke-linejoin="round" stroke="rgb(0%, 0%, 0%)" stroke-opacity="1" stroke-miterlimit="10" d="M 59.039062 76.429688 L 51.839844 76.429688 " transform="matrix(1, 0, 0, -1, 0, 288)"/>
<path fill="none" stroke-width="0.75" stroke-linecap="round" stroke-linejoin="round" stroke="rgb(0%, 0%, 0%)" stroke-opacity="1" stroke-miterlimit="10" d="M 59.039062 106.339844 L 51.839844 106.339844 " transform="matrix(1, 0, 0, -1, 0, 288)"/>
<path fill="none" stroke-width="0.75" stroke-linecap="round" stroke-linejoin="round" stroke="rgb(0%, 0%, 0%)" stroke-opacity="1" stroke-miterlimit="10" d="M 59.039062 136.25 L 51.839844 136.25 " transform="matrix(1, 0, 0, -1, 0, 288)"/>
<path fill="none" stroke-width="0.75" stroke-linecap="round" stroke-linejoin="round" stroke="rgb(0%, 0%, 0%)" stroke-opacity="1" stroke-miterlimit="10" d="M 59.039062 166.148438 L 51.839844 166.148438 " transform="matrix(1, 0, 0, -1, 0, 288)"/>
<path fill="none" stroke-width="0.75" stroke-linecap="round" stroke-linejoin="round" stroke="rgb(0%, 0%, 0%)" stroke-opacity="1" stroke-miterlimit="10" d="M 59.039062 196.058594 L 51.839844 196.058594 " transform="matrix(1, 0, 0, -1, 0, 288)"/>
<path fill="none" stroke-width="0.75" stroke-linecap="round" stroke-linejoin="round" stroke="rgb(0%, 0%, 0%)" stroke-opacity="1" stroke-miterlimit="10" d="M 59.039062 225.96875 L 51.839844 225.96875 " transform="matrix(1, 0, 0, -1, 0, 288)"/>
<g fill="rgb(0%, 0%, 0%)" fill-opacity="1">
<use xlink:href="#glyph-1-0" x="41.76" y="219.91"/>
<use xlink:href="#glyph-1-1" x="41.76" y="213.238"/>
<use xlink:href="#glyph-1-0" x="41.76" y="209.902"/>
</g>
<g fill="rgb(0%, 0%, 0%)" fill-opacity="1">
<use xlink:href="#glyph-1-0" x="41.76" y="190"/>
<use xlink:href="#glyph-1-1" x="41.76" y="183.328"/>
<use xlink:href="#glyph-1-2" x="41.76" y="179.992"/>
</g>
<g fill="rgb(0%, 0%, 0%)" fill-opacity="1">
<use xlink:href="#glyph-1-0" x="41.76" y="160.09"/>
<use xlink:href="#glyph-1-1" x="41.76" y="153.418"/>
<use xlink:href="#glyph-1-3" x="41.76" y="150.082"/>
</g>
<g fill="rgb(0%, 0%, 0%)" fill-opacity="1">
<use xlink:href="#glyph-1-0" x="41.76" y="130.19"/>
<use xlink:href="#glyph-1-1" x="41.76" y="123.518"/>
<use xlink:href="#glyph-1-4" x="41.76" y="120.182"/>
</g>
<g fill="rgb(0%, 0%, 0%)" fill-opacity="1">
<use xlink:href="#glyph-1-0" x="41.76" y="100.28"/>
<use xlink:href="#glyph-1-1" x="41.76" y="93.608"/>
<use xlink:href="#glyph-1-5" x="41.76" y="90.272"/>
</g>
<g fill="rgb(0%, 0%, 0%)" fill-opacity="1">
<use xlink:href="#glyph-1-6" x="41.76" y="70.37"/>
<use xlink:href="#glyph-1-1" x="41.76" y="63.698"/>
<use xlink:href="#glyph-1-0" x="41.76" y="60.362"/>
</g>
<path fill="none" stroke-width="0.75" stroke-linecap="round" stroke-linejoin="round" stroke="rgb(0%, 0%, 0%)" stroke-opacity="1" stroke-miterlimit="10" d="M 59.039062 73.441406 L 257.761719 73.441406 L 257.761719 228.960938 L 59.039062 228.960938 Z M 59.039062 73.441406 " transform="matrix(1, 0, 0, -1, 0, 288)"/>
<g fill="rgb(0%, 0%, 0%)" fill-opacity="1">
<use xlink:href="#glyph-2-0" x="105.49" y="34.55"/>
<use xlink:href="#glyph-2-1" x="117.936" y="34.55"/>
<use xlink:href="#glyph-2-2" x="121.828" y="34.55"/>
<use xlink:href="#glyph-2-1" x="130.382" y="34.55"/>
<use xlink:href="#glyph-2-0" x="134.274" y="34.55"/>
<use xlink:href="#glyph-2-3" x="146.72" y="34.55"/>
<use xlink:href="#glyph-2-4" x="154.504" y="34.55"/>
<use xlink:href="#glyph-2-5" x="162.288" y="34.55"/>
<use xlink:href="#glyph-2-6" x="166.18" y="34.55"/>
<use xlink:href="#glyph-2-7" x="174.734" y="34.55"/>
<use xlink:href="#glyph-2-8" x="182.518" y="34.55"/>
<use xlink:href="#glyph-2-1" x="190.302" y="34.55"/>
<use xlink:href="#glyph-2-9" x="194.194" y="34.55"/>
<use xlink:href="#glyph-2-2" x="202.748" y="34.55"/>
</g>
<g fill="rgb(0%, 0%, 0%)" fill-opacity="1">
<use xlink:href="#glyph-0-7" x="153.18" y="267"/>
</g>
<g fill="rgb(0%, 0%, 0%)" fill-opacity="1">
<use xlink:href="#glyph-3-0" x="159.18" y="269.28"/>
</g>
<g fill="rgb(0%, 0%, 0%)" fill-opacity="1">
<use xlink:href="#glyph-1-7" x="10.68" y="142.02"/>
</g>
<g fill="rgb(0%, 0%, 0%)" fill-opacity="1">
<use xlink:href="#glyph-4-0" x="12.96" y="136.02"/>
</g>
<path fill="none" stroke-width="0.75" stroke-linecap="round" stroke-linejoin="round" stroke="rgb(0%, 0%, 0%)" stroke-opacity="1" stroke-miterlimit="10" d="M 199.421875 151.199219 L 199.339844 153.78125 L 199.089844 156.339844 L 198.691406 158.890625 L 198.128906 161.398438 L 197.410156 163.878906 L 196.539062 166.300781 L 195.511719 168.660156 L 194.339844 170.960938 L 193.03125 173.179688 L 191.578125 175.308594 L 190 177.351562 L 188.300781 179.28125 L 186.480469 181.101562 L 184.550781 182.800781 L 182.511719 184.378906 L 180.378906 185.828125 L 178.160156 187.140625 L 175.859375 188.308594 L 173.5 189.339844 L 171.078125 190.210938 L 168.601562 190.929688 L 166.089844 191.488281 L 163.539062 191.890625 L 160.980469 192.140625 L 158.398438 192.21875 L 155.820312 192.140625 L 153.261719 191.890625 L 150.710938 191.488281 L 148.199219 190.929688 L 145.71875 190.210938 L 143.300781 189.339844 L 140.941406 188.308594 L 138.640625 187.140625 L 136.421875 185.828125 L 134.289062 184.378906 L 132.25 182.800781 L 130.320312 181.101562 L 128.5 179.28125 L 126.800781 177.351562 L 125.21875 175.308594 L 123.769531 173.179688 L 122.460938 170.960938 L 121.289062 168.660156 L 120.261719 166.300781 L 119.390625 163.878906 L 118.671875 161.398438 L 118.109375 158.890625 L 117.710938 156.339844 L 117.460938 153.78125 L 117.378906 151.199219 L 117.460938 148.621094 L 117.710938 146.058594 L 118.109375 143.511719 L 118.671875 141 L 119.390625 138.519531 L 120.261719 136.101562 L 121.289062 133.738281 L 122.460938 131.441406 L 123.769531 129.21875 L 125.21875 127.089844 L 126.800781 125.050781 L 128.5 123.121094 L 130.320312 121.300781 L 132.25 119.601562 L 134.289062 118.019531 L 136.421875 116.570312 L 138.640625 115.261719 L 140.941406 114.089844 L 143.300781 113.058594 L 145.71875 112.191406 L 148.199219 111.46875 L 150.710938 110.910156 L 153.261719 110.511719 L 155.820312 110.261719 L 158.398438 110.179688 L 160.980469 110.261719 L 163.539062 110.511719 L 166.089844 110.910156 L 168.601562 111.46875 L 171.078125 112.191406 L 173.5 113.058594 L 175.859375 114.089844 L 178.160156 115.261719 L 180.378906 116.570312 L 182.511719 118.019531 L 184.550781 119.601562 L 186.480469 121.300781 L 188.300781 123.121094 L 190 125.050781 L 191.578125 127.089844 L 193.03125 129.21875 L 194.339844 131.441406 L 195.511719 133.738281 L 196.539062 136.101562 L 197.410156 138.519531 L 198.128906 141 L 198.691406 143.511719 L 199.089844 146.058594 L 199.339844 148.621094 Z M 199.421875 151.199219 " transform="matrix(1, 0, 0, -1, 0, 288)"/>
<g clip-path="url(#clip-2)">
<path fill="none" stroke-width="0.75" stroke-linecap="round" stroke-linejoin="round" stroke="rgb(0%, 0%, 0%)" stroke-opacity="1" stroke-miterlimit="10" d="M 199.421875 76.429688 L 199.339844 79.011719 L 199.089844 81.570312 L 198.691406 84.121094 L 198.128906 86.628906 L 197.410156 89.109375 L 196.539062 91.53125 L 195.511719 93.898438 L 194.339844 96.191406 L 193.03125 98.410156 L 191.578125 100.539062 L 190 102.578125 L 188.300781 104.511719 L 186.480469 106.328125 L 184.550781 108.039062 L 182.511719 109.609375 L 180.378906 111.058594 L 178.160156 112.371094 L 175.859375 113.539062 L 173.5 114.570312 L 171.078125 115.441406 L 168.601562 116.160156 L 166.089844 116.71875 L 163.539062 117.121094 L 160.980469 117.371094 L 158.398438 117.449219 L 155.820312 117.371094 L 153.261719 117.121094 L 150.710938 116.71875 L 148.199219 116.160156 L 145.71875 115.441406 L 143.300781 114.570312 L 140.941406 113.539062 L 138.640625 112.371094 L 136.421875 111.058594 L 134.289062 109.609375 L 132.25 108.039062 L 130.320312 106.328125 L 128.5 104.511719 L 126.800781 102.578125 L 125.21875 100.539062 L 123.769531 98.410156 L 122.460938 96.191406 L 121.289062 93.898438 L 120.261719 91.53125 L 119.390625 89.109375 L 118.671875 86.628906 L 118.109375 84.121094 L 117.710938 81.570312 L 117.460938 79.011719 L 117.378906 76.429688 L 117.460938 73.859375 L 117.710938 71.289062 L 118.109375 68.738281 L 118.671875 66.230469 L 119.390625 63.761719 L 120.261719 61.328125 L 121.289062 58.96875 L 122.460938 56.671875 L 123.769531 54.449219 L 125.21875 52.320312 L 126.800781 50.289062 L 128.5 48.351562 L 130.320312 46.53125 L 132.25 44.828125 L 134.289062 43.25 L 136.421875 41.800781 L 138.640625 40.488281 L 140.941406 39.320312 L 143.300781 38.289062 L 145.71875 37.421875 L 148.199219 36.699219 L 150.710938 36.140625 L 153.261719 35.738281 L 155.820312 35.488281 L 158.398438 35.410156 L 160.980469 35.488281 L 163.539062 35.738281 L 166.089844 36.140625 L 168.601562 36.699219 L 171.078125 37.421875 L 173.5 38.289062 L 175.859375 39.320312 L 178.160156 40.488281 L 180.378906 41.800781 L 182.511719 43.25 L 184.550781 44.828125 L 186.480469 46.53125 L 188.300781 48.351562 L 190 50.289062 L 191.578125 52.320312 L 193.03125 54.449219 L 194.339844 56.671875 L 195.511719 58.96875 L 196.539062 61.328125 L 197.410156 63.761719 L 198.128906 66.230469 L 198.691406 68.738281 L 199.089844 71.289062 L 199.339844 73.859375 Z M 199.421875 76.429688 " transform="matrix(1, 0, 0, -1, 0, 288)"/>
</g>
<g clip-path="url(#clip-3)">
<path fill="none" stroke-width="0.75" stroke-linecap="round" stroke-linejoin="round" stroke="rgb(0%, 0%, 0%)" stroke-opacity="1" stroke-miterlimit="10" d="M 199.421875 225.96875 L 199.339844 228.539062 L 199.089844 231.109375 L 198.691406 233.660156 L 198.128906 236.171875 L 197.410156 238.640625 L 196.539062 241.070312 L 195.511719 243.429688 L 194.339844 245.730469 L 193.03125 247.949219 L 191.578125 250.078125 L 190 252.109375 L 188.300781 254.050781 L 186.480469 255.871094 L 184.550781 257.570312 L 182.511719 259.148438 L 180.378906 260.601562 L 178.160156 261.910156 L 175.859375 263.078125 L 173.5 264.109375 L 171.078125 264.980469 L 168.601562 265.699219 L 166.089844 266.261719 L 163.539062 266.660156 L 160.980469 266.910156 L 158.398438 266.988281 L 155.820312 266.910156 L 153.261719 266.660156 L 150.710938 266.261719 L 148.199219 265.699219 L 145.71875 264.980469 L 143.300781 264.109375 L 140.941406 263.078125 L 138.640625 261.910156 L 136.421875 260.601562 L 134.289062 259.148438 L 132.25 257.570312 L 130.320312 255.871094 L 128.5 254.050781 L 126.800781 252.109375 L 125.21875 250.078125 L 123.769531 247.949219 L 122.460938 245.730469 L 121.289062 243.429688 L 120.261719 241.070312 L 119.390625 238.640625 L 118.671875 236.171875 L 118.109375 233.660156 L 117.710938 231.109375 L 117.460938 228.539062 L 117.378906 225.96875 L 117.460938 223.390625 L 117.710938 220.828125 L 118.109375 218.28125 L 118.671875 215.769531 L 119.390625 213.289062 L 120.261719 210.871094 L 121.289062 208.5 L 122.460938 206.210938 L 123.769531 203.988281 L 125.21875 201.859375 L 126.800781 199.820312 L 128.5 197.890625 L 130.320312 196.070312 L 132.25 194.359375 L 134.289062 192.789062 L 136.421875 191.339844 L 138.640625 190.03125 L 140.941406 188.859375 L 143.300781 187.828125 L 145.71875 186.960938 L 148.199219 186.238281 L 150.710938 185.679688 L 153.261719 185.28125 L 155.820312 185.03125 L 158.398438 184.949219 L 160.980469 185.03125 L 163.539062 185.28125 L 166.089844 185.679688 L 168.601562 186.238281 L 171.078125 186.960938 L 173.5 187.828125 L 175.859375 188.859375 L 178.160156 190.03125 L 180.378906 191.339844 L 182.511719 192.789062 L 184.550781 194.359375 L 186.480469 196.070312 L 188.300781 197.890625 L 190 199.820312 L 191.578125 201.859375 L 193.03125 203.988281 L 194.339844 206.210938 L 195.511719 208.5 L 196.539062 210.871094 L 197.410156 213.289062 L 198.128906 215.769531 L 198.691406 218.28125 L 199.089844 220.828125 L 199.339844 223.390625 Z M 199.421875 225.96875 " transform="matrix(1, 0, 0, -1, 0, 288)"/>
</g>
<g clip-path="url(#clip-4)">
<path fill="none" stroke-width="0.75" stroke-linecap="round" stroke-linejoin="round" stroke="rgb(0%, 0%, 0%)" stroke-opacity="1" stroke-miterlimit="10" d="M 141.519531 113.820312 L 141.441406 116.390625 L 141.199219 118.960938 L 140.800781 121.5 L 140.238281 124.019531 L 139.519531 126.488281 L 138.640625 128.910156 L 137.621094 131.28125 L 136.449219 133.578125 L 135.140625 135.789062 L 133.691406 137.921875 L 132.109375 139.960938 L 130.410156 141.890625 L 128.578125 143.71875 L 126.648438 145.421875 L 124.621094 147 L 122.480469 148.449219 L 120.269531 149.761719 L 117.96875 150.929688 L 115.609375 151.949219 L 113.179688 152.828125 L 110.710938 153.539062 L 108.191406 154.109375 L 105.648438 154.511719 L 103.078125 154.75 L 100.511719 154.828125 L 97.929688 154.75 L 95.371094 154.511719 L 92.820312 154.109375 L 90.308594 153.539062 L 87.828125 152.828125 L 85.410156 151.949219 L 83.039062 150.929688 L 80.75 149.761719 L 78.53125 148.449219 L 76.398438 147 L 74.359375 145.421875 L 72.429688 143.71875 L 70.609375 141.890625 L 68.898438 139.960938 L 67.320312 137.921875 L 65.871094 135.789062 L 64.558594 133.578125 L 63.390625 131.28125 L 62.371094 128.910156 L 61.5 126.488281 L 60.78125 124.019531 L 60.21875 121.5 L 59.808594 118.960938 L 59.570312 116.390625 L 59.488281 113.820312 L 59.570312 111.238281 L 59.808594 108.671875 L 60.21875 106.128906 L 60.78125 103.609375 L 61.5 101.140625 L 62.371094 98.71875 L 63.390625 96.351562 L 64.558594 94.058594 L 65.871094 91.839844 L 67.320312 89.710938 L 68.898438 87.671875 L 70.609375 85.738281 L 72.429688 83.921875 L 74.359375 82.210938 L 76.398438 80.628906 L 78.53125 79.179688 L 80.75 77.871094 L 83.039062 76.699219 L 85.410156 75.679688 L 87.828125 74.808594 L 90.308594 74.089844 L 92.820312 73.519531 L 95.371094 73.121094 L 97.929688 72.878906 L 100.511719 72.800781 L 103.078125 72.878906 L 105.648438 73.121094 L 108.191406 73.519531 L 110.710938 74.089844 L 113.179688 74.808594 L 115.609375 75.679688 L 117.96875 76.699219 L 120.269531 77.871094 L 122.480469 79.179688 L 124.621094 80.628906 L 126.648438 82.210938 L 128.578125 83.921875 L 130.410156 85.738281 L 132.109375 87.671875 L 133.691406 89.710938 L 135.140625 91.839844 L 136.449219 94.058594 L 137.621094 96.351562 L 138.640625 98.71875 L 139.519531 101.140625 L 140.238281 103.609375 L 140.800781 106.128906 L 141.199219 108.671875 L 141.441406 111.238281 Z M 141.519531 113.820312 " transform="matrix(1, 0, 0, -1, 0, 288)"/>
</g>
<g clip-path="url(#clip-5)">
<path fill="none" stroke-width="0.75" stroke-linecap="round" stroke-linejoin="round" stroke="rgb(0%, 0%, 0%)" stroke-opacity="1" stroke-miterlimit="10" d="M 141.519531 188.578125 L 141.441406 191.160156 L 141.199219 193.730469 L 140.800781 196.269531 L 140.238281 198.789062 L 139.519531 201.261719 L 138.640625 203.679688 L 137.621094 206.050781 L 136.449219 208.339844 L 135.140625 210.558594 L 133.691406 212.691406 L 132.109375 214.730469 L 130.410156 216.660156 L 128.578125 218.480469 L 126.648438 220.191406 L 124.621094 221.769531 L 122.480469 223.21875 L 120.269531 224.53125 L 117.96875 225.699219 L 115.609375 226.71875 L 113.179688 227.589844 L 110.710938 228.308594 L 108.191406 228.878906 L 105.648438 229.28125 L 103.078125 229.519531 L 100.511719 229.601562 L 97.929688 229.519531 L 95.371094 229.28125 L 92.820312 228.878906 L 90.308594 228.308594 L 87.828125 227.589844 L 85.410156 226.71875 L 83.039062 225.699219 L 80.75 224.53125 L 78.53125 223.21875 L 76.398438 221.769531 L 74.359375 220.191406 L 72.429688 218.480469 L 70.609375 216.660156 L 68.898438 214.730469 L 67.320312 212.691406 L 65.871094 210.558594 L 64.558594 208.339844 L 63.390625 206.050781 L 62.371094 203.679688 L 61.5 201.261719 L 60.78125 198.789062 L 60.21875 196.269531 L 59.808594 193.730469 L 59.570312 191.160156 L 59.488281 188.578125 L 59.570312 186.011719 L 59.808594 183.441406 L 60.21875 180.898438 L 60.78125 178.378906 L 61.5 175.910156 L 62.371094 173.488281 L 63.390625 171.121094 L 64.558594 168.820312 L 65.871094 166.609375 L 67.320312 164.480469 L 68.898438 162.441406 L 70.609375 160.511719 L 72.429688 158.679688 L 74.359375 156.980469 L 76.398438 155.398438 L 78.53125 153.949219 L 80.75 152.640625 L 83.039062 151.46875 L 85.410156 150.449219 L 87.828125 149.570312 L 90.308594 148.859375 L 92.820312 148.289062 L 95.371094 147.890625 L 97.929688 147.648438 L 100.511719 147.570312 L 103.078125 147.648438 L 105.648438 147.890625 L 108.191406 148.289062 L 110.710938 148.859375 L 113.179688 149.570312 L 115.609375 150.449219 L 117.96875 151.46875 L 120.269531 152.640625 L 122.480469 153.949219 L 124.621094 155.398438 L 126.648438 156.980469 L 128.578125 158.679688 L 130.410156 160.511719 L 132.109375 162.441406 L 133.691406 164.480469 L 135.140625 166.609375 L 136.449219 168.820312 L 137.621094 171.121094 L 138.640625 173.488281 L 139.519531 175.910156 L 140.238281 178.378906 L 140.800781 180.898438 L 141.199219 183.441406 L 141.441406 186.011719 Z M 141.519531 188.578125 " transform="matrix(1, 0, 0, -1, 0, 288)"/>
</g>
<g clip-path="url(#clip-6)">
<path fill="none" stroke-width="0.75" stroke-linecap="round" stroke-linejoin="round" stroke="rgb(0%, 0%, 0%)" stroke-opacity="1" stroke-miterlimit="10" d="M 257.308594 113.820312 L 257.230469 116.390625 L 256.988281 118.960938 L 256.578125 121.5 L 256.019531 124.019531 L 255.300781 126.488281 L 254.429688 128.910156 L 253.410156 131.28125 L 252.238281 133.578125 L 250.929688 135.789062 L 249.480469 137.921875 L 247.898438 139.960938 L 246.191406 141.890625 L 244.371094 143.71875 L 242.441406 145.421875 L 240.398438 147 L 238.269531 148.449219 L 236.050781 149.761719 L 233.761719 150.929688 L 231.390625 151.949219 L 228.96875 152.828125 L 226.488281 153.539062 L 223.980469 154.109375 L 221.429688 154.511719 L 218.871094 154.75 L 216.289062 154.828125 L 213.71875 154.75 L 211.148438 154.511719 L 208.609375 154.109375 L 206.089844 153.539062 L 203.621094 152.828125 L 201.191406 151.949219 L 198.828125 150.929688 L 196.53125 149.761719 L 194.320312 148.449219 L 192.179688 147 L 190.148438 145.421875 L 188.21875 143.71875 L 186.390625 141.890625 L 184.691406 139.960938 L 183.109375 137.921875 L 181.660156 135.789062 L 180.351562 133.578125 L 179.179688 131.28125 L 178.160156 128.910156 L 177.28125 126.488281 L 176.558594 124.019531 L 176 121.5 L 175.601562 118.960938 L 175.359375 116.390625 L 175.28125 113.820312 L 175.359375 111.238281 L 175.601562 108.671875 L 176 106.128906 L 176.558594 103.609375 L 177.28125 101.140625 L 178.160156 98.71875 L 179.179688 96.351562 L 180.351562 94.058594 L 181.660156 91.839844 L 183.109375 89.710938 L 184.691406 87.671875 L 186.390625 85.738281 L 188.21875 83.921875 L 190.148438 82.210938 L 192.179688 80.628906 L 194.320312 79.179688 L 196.53125 77.871094 L 198.828125 76.699219 L 201.191406 75.679688 L 203.621094 74.808594 L 206.089844 74.089844 L 208.609375 73.519531 L 211.148438 73.121094 L 213.71875 72.878906 L 216.289062 72.800781 L 218.871094 72.878906 L 221.429688 73.121094 L 223.980469 73.519531 L 226.488281 74.089844 L 228.96875 74.808594 L 231.390625 75.679688 L 233.761719 76.699219 L 236.050781 77.871094 L 238.269531 79.179688 L 240.398438 80.628906 L 242.441406 82.210938 L 244.371094 83.921875 L 246.191406 85.738281 L 247.898438 87.671875 L 249.480469 89.710938 L 250.929688 91.839844 L 252.238281 94.058594 L 253.410156 96.351562 L 254.429688 98.71875 L 255.300781 101.140625 L 256.019531 103.609375 L 256.578125 106.128906 L 256.988281 108.671875 L 257.230469 111.238281 Z M 257.308594 113.820312 " transform="matrix(1, 0, 0, -1, 0, 288)"/>
</g>
<g clip-path="url(#clip-7)">
<path fill="none" stroke-width="0.75" stroke-linecap="round" stroke-linejoin="round" stroke="rgb(0%, 0%, 0%)" stroke-opacity="1" stroke-miterlimit="10" d="M 257.308594 188.578125 L 257.230469 191.160156 L 256.988281 193.730469 L 256.578125 196.269531 L 256.019531 198.789062 L 255.300781 201.261719 L 254.429688 203.679688 L 253.410156 206.050781 L 252.238281 208.339844 L 250.929688 210.558594 L 249.480469 212.691406 L 247.898438 214.730469 L 246.191406 216.660156 L 244.371094 218.480469 L 242.441406 220.191406 L 240.398438 221.769531 L 238.269531 223.21875 L 236.050781 224.53125 L 233.761719 225.699219 L 231.390625 226.71875 L 228.96875 227.589844 L 226.488281 228.308594 L 223.980469 228.878906 L 221.429688 229.28125 L 218.871094 229.519531 L 216.289062 229.601562 L 213.71875 229.519531 L 211.148438 229.28125 L 208.609375 228.878906 L 206.089844 228.308594 L 203.621094 227.589844 L 201.191406 226.71875 L 198.828125 225.699219 L 196.53125 224.53125 L 194.320312 223.21875 L 192.179688 221.769531 L 190.148438 220.191406 L 188.21875 218.480469 L 186.390625 216.660156 L 184.691406 214.730469 L 183.109375 212.691406 L 181.660156 210.558594 L 180.351562 208.339844 L 179.179688 206.050781 L 178.160156 203.679688 L 177.28125 201.261719 L 176.558594 198.789062 L 176 196.269531 L 175.601562 193.730469 L 175.359375 191.160156 L 175.28125 188.578125 L 175.359375 186.011719 L 175.601562 183.441406 L 176 180.898438 L 176.558594 178.378906 L 177.28125 175.910156 L 178.160156 173.488281 L 179.179688 171.121094 L 180.351562 168.820312 L 181.660156 166.609375 L 183.109375 164.480469 L 184.691406 162.441406 L 186.390625 160.511719 L 188.21875 158.679688 L 190.148438 156.980469 L 192.179688 155.398438 L 194.320312 153.949219 L 196.53125 152.640625 L 198.828125 151.46875 L 201.191406 150.449219 L 203.621094 149.570312 L 206.089844 148.859375 L 208.609375 148.289062 L 211.148438 147.890625 L 213.71875 147.648438 L 216.289062 147.570312 L 218.871094 147.648438 L 221.429688 147.890625 L 223.980469 148.289062 L 226.488281 148.859375 L 228.96875 149.570312 L 231.390625 150.449219 L 233.761719 151.46875 L 236.050781 152.640625 L 238.269531 153.949219 L 240.398438 155.398438 L 242.441406 156.980469 L 244.371094 158.679688 L 246.191406 160.511719 L 247.898438 162.441406 L 249.480469 164.480469 L 250.929688 166.609375 L 252.238281 168.820312 L 253.410156 171.121094 L 254.429688 173.488281 L 255.300781 175.910156 L 256.019531 178.378906 L 256.578125 180.898438 L 256.988281 183.441406 L 257.230469 186.011719 Z M 257.308594 188.578125 " transform="matrix(1, 0, 0, -1, 0, 288)"/>
</g>
</svg>
