<?xml version="1.0" encoding="UTF-8"?>
<svg xmlns="http://www.w3.org/2000/svg" xmlns:xlink="http://www.w3.org/1999/xlink" width="288pt" height="288pt" viewBox="0 0 288 288">
<defs>
<g>
<g id="glyph-0-0">
<path d="M 0.984375 0 L 0.984375 -10.015625 L 4.015625 -10.015625 L 5.84375 -3.1875 L 7.640625 -10.015625 L 10.671875 -10.015625 L 10.671875 0 L 8.796875 0 L 8.796875 -7.890625 L 6.796875 0 L 4.859375 0 L 2.875 -7.890625 L 2.875 0 Z M 0.984375 0 "/>
</g>
<g id="glyph-0-1">
<path d="M 2.4375 -5.046875 L 0.703125 -5.359375 C 0.890625 -6.054688 1.222656 -6.570312 1.703125 -6.90625 C 2.179688 -7.25 2.894531 -7.421875 3.84375 -7.421875 C 4.695312 -7.421875 5.332031 -7.316406 5.75 -7.109375 C 6.175781 -6.910156 6.472656 -6.65625 6.640625 -6.34375 C 6.804688 -6.03125 6.890625 -5.457031 6.890625 -4.625 L 6.875 -2.390625 C 6.875 -1.742188 6.90625 -1.269531 6.96875 -0.96875 C 7.03125 -0.664062 7.144531 -0.34375 7.3125 0 L 5.421875 0 C 5.367188 -0.125 5.304688 -0.3125 5.234375 -0.5625 C 5.203125 -0.675781 5.175781 -0.753906 5.15625 -0.796875 C 4.832031 -0.472656 4.484375 -0.226562 4.109375 -0.0625 C 3.734375 0.09375 3.332031 0.171875 2.90625 0.171875 C 2.164062 0.171875 1.578125 -0.03125 1.140625 -0.4375 C 0.710938 -0.84375 0.5 -1.359375 0.5 -1.984375 C 0.5 -2.390625 0.597656 -2.753906 0.796875 -3.078125 C 0.992188 -3.398438 1.265625 -3.644531 1.609375 -3.8125 C 1.960938 -3.988281 2.472656 -4.140625 3.140625 -4.265625 C 4.035156 -4.429688 4.660156 -4.585938 5.015625 -4.734375 L 5.015625 -4.921875 C 5.015625 -5.296875 4.921875 -5.5625 4.734375 -5.71875 C 4.554688 -5.875 4.210938 -5.953125 3.703125 -5.953125 C 3.359375 -5.953125 3.09375 -5.882812 2.90625 -5.75 C 2.71875 -5.613281 2.5625 -5.378906 2.4375 -5.046875 Z M 5.015625 -3.484375 C 4.765625 -3.398438 4.375 -3.300781 3.84375 -3.1875 C 3.3125 -3.070312 2.960938 -2.960938 2.796875 -2.859375 C 2.546875 -2.679688 2.421875 -2.457031 2.421875 -2.1875 C 2.421875 -1.914062 2.519531 -1.679688 2.71875 -1.484375 C 2.914062 -1.285156 3.171875 -1.1875 3.484375 -1.1875 C 3.828125 -1.1875 4.160156 -1.300781 4.484375 -1.53125 C 4.710938 -1.707031 4.863281 -1.921875 4.9375 -2.171875 C 4.988281 -2.328125 5.015625 -2.640625 5.015625 -3.109375 Z M 5.015625 -3.484375 "/>
</g>
<g id="glyph-0-2">
<path d="M 0.078125 0 L 2.703125 -3.734375 L 0.1875 -7.265625 L 2.53125 -7.265625 L 3.828125 -5.265625 L 5.171875 -7.265625 L 7.4375 -7.265625 L 4.96875 -3.828125 L 7.65625 0 L 5.296875 0 L 3.828125 -2.25 L 2.328125 0 Z M 0.078125 0 "/>
</g>
<g id="glyph-0-3">
<path d="M 1 -8.25 L 1 -10.015625 L 2.921875 -10.015625 L 2.921875 -8.25 Z M 1 0 L 1 -7.265625 L 2.921875 -7.265625 L 2.921875 0 Z M 1 0 "/>
</g>
<g id="glyph-0-4">
<path d="M 0.859375 -7.265625 L 2.625 -7.265625 L 2.625 -6.265625 C 3.257812 -7.035156 4.015625 -7.421875 4.890625 -7.421875 C 5.359375 -7.421875 5.765625 -7.320312 6.109375 -7.125 C 6.453125 -6.9375 6.734375 -6.648438 6.953125 -6.265625 C 7.265625 -6.648438 7.601562 -6.9375 7.96875 -7.125 C 8.34375 -7.320312 8.738281 -7.421875 9.15625 -7.421875 C 9.6875 -7.421875 10.132812 -7.3125 10.5 -7.09375 C 10.875 -6.882812 11.15625 -6.566406 11.34375 -6.140625 C 11.476562 -5.835938 11.546875 -5.335938 11.546875 -4.640625 L 11.546875 0 L 9.625 0 L 9.625 -4.15625 C 9.625 -4.875 9.554688 -5.335938 9.421875 -5.546875 C 9.242188 -5.816406 8.96875 -5.953125 8.59375 -5.953125 C 8.332031 -5.953125 8.082031 -5.867188 7.84375 -5.703125 C 7.601562 -5.546875 7.429688 -5.304688 7.328125 -4.984375 C 7.222656 -4.671875 7.171875 -4.171875 7.171875 -3.484375 L 7.171875 0 L 5.25 0 L 5.25 -3.984375 C 5.25 -4.679688 5.210938 -5.132812 5.140625 -5.34375 C 5.078125 -5.550781 4.972656 -5.703125 4.828125 -5.796875 C 4.679688 -5.898438 4.488281 -5.953125 4.25 -5.953125 C 3.945312 -5.953125 3.675781 -5.867188 3.4375 -5.703125 C 3.207031 -5.546875 3.039062 -5.316406 2.9375 -5.015625 C 2.832031 -4.722656 2.78125 -4.226562 2.78125 -3.53125 L 2.78125 0 L 0.859375 0 Z M 0.859375 -7.265625 "/>
</g>
<g id="glyph-0-5">
<path d="M 7.609375 0 L 5.6875 0 L 5.6875 -3.703125 C 5.6875 -4.484375 5.644531 -4.988281 5.5625 -5.21875 C 5.476562 -5.457031 5.34375 -5.640625 5.15625 -5.765625 C 4.976562 -5.890625 4.757812 -5.953125 4.5 -5.953125 C 4.164062 -5.953125 3.863281 -5.859375 3.59375 -5.671875 C 3.332031 -5.492188 3.148438 -5.253906 3.046875 -4.953125 C 2.953125 -4.648438 2.90625 -4.09375 2.90625 -3.28125 L 2.90625 0 L 0.984375 0 L 0.984375 -7.265625 L 2.78125 -7.265625 L 2.78125 -6.1875 C 3.40625 -7.007812 4.203125 -7.421875 5.171875 -7.421875 C 5.585938 -7.421875 5.972656 -7.34375 6.328125 -7.1875 C 6.679688 -7.039062 6.945312 -6.847656 7.125 -6.609375 C 7.300781 -6.367188 7.425781 -6.097656 7.5 -5.796875 C 7.570312 -5.503906 7.609375 -5.078125 7.609375 -4.515625 Z M 7.609375 0 "/>
</g>
<g id="glyph-0-6">
</g>
<g id="glyph-0-7">
<path d="M 1.078125 0 L 1.078125 -9.9375 L 3.09375 -9.9375 L 3.09375 -1.6875 L 8.125 -1.6875 L 8.125 0 Z M 1.078125 0 "/>
</g>
<g id="glyph-0-8">
<path d="M 1.03125 0 L 1.03125 -10.015625 L 3.046875 -10.015625 L 3.046875 -6.078125 L 7.015625 -6.078125 L 7.015625 -10.015625 L 9.03125 -10.015625 L 9.03125 0 L 7.015625 0 L 7.015625 -4.375 L 3.046875 -4.375 L 3.046875 0 Z M 1.03125 0 "/>
</g>
<g id="glyph-0-9">
<path d="M 1.015625 -10.015625 L 4.703125 -10.015625 C 5.546875 -10.015625 6.1875 -9.953125 6.625 -9.828125 C 7.207031 -9.660156 7.707031 -9.351562 8.125 -8.90625 C 8.539062 -8.46875 8.859375 -7.925781 9.078125 -7.28125 C 9.296875 -6.644531 9.40625 -5.859375 9.40625 -4.921875 C 9.40625 -4.085938 9.304688 -3.375 9.109375 -2.78125 C 8.859375 -2.050781 8.5 -1.460938 8.03125 -1.015625 C 7.675781 -0.671875 7.203125 -0.40625 6.609375 -0.21875 C 6.160156 -0.0703125 5.5625 0 4.8125 0 L 1.015625 0 Z M 3.03125 -8.328125 L 3.03125 -1.6875 L 4.546875 -1.6875 C 5.109375 -1.6875 5.515625 -1.71875 5.765625 -1.78125 C 6.097656 -1.863281 6.367188 -2.003906 6.578125 -2.203125 C 6.796875 -2.398438 6.972656 -2.722656 7.109375 -3.171875 C 7.253906 -3.617188 7.328125 -4.226562 7.328125 -5 C 7.328125 -5.78125 7.253906 -6.375 7.109375 -6.78125 C 6.972656 -7.195312 6.78125 -7.519531 6.53125 -7.75 C 6.289062 -7.988281 5.984375 -8.148438 5.609375 -8.234375 C 5.328125 -8.296875 4.769531 -8.328125 3.9375 -8.328125 Z M 3.03125 -8.328125 "/>
</g>
<g id="glyph-1-0">
<path d="M 0.09375 0 L 2.359375 -3.234375 L 0.265625 -6.21875 L 1.578125 -6.21875 L 2.53125 -4.765625 C 2.707031 -4.484375 2.851562 -4.25 2.96875 -4.0625 C 3.132812 -4.320312 3.289062 -4.550781 3.4375 -4.75 L 4.484375 -6.21875 L 5.75 -6.21875 L 3.59375 -3.296875 L 5.90625 0 L 4.625 0 L 3.34375 -1.9375 L 3 -2.453125 L 1.359375 0 Z M 0.09375 0 "/>
</g>
<g id="glyph-1-1">
<path d="M 0.5 -4.234375 C 0.5 -5.253906 0.601562 -6.070312 0.8125 -6.6875 C 1.019531 -7.3125 1.328125 -7.789062 1.734375 -8.125 C 2.148438 -8.457031 2.671875 -8.625 3.296875 -8.625 C 3.753906 -8.625 4.15625 -8.53125 4.5 -8.34375 C 4.851562 -8.15625 5.144531 -7.882812 5.375 -7.53125 C 5.601562 -7.1875 5.78125 -6.765625 5.90625 -6.265625 C 6.03125 -5.765625 6.09375 -5.085938 6.09375 -4.234375 C 6.09375 -3.222656 5.988281 -2.410156 5.78125 -1.796875 C 5.582031 -1.179688 5.273438 -0.703125 4.859375 -0.359375 C 4.453125 -0.0234375 3.929688 0.140625 3.296875 0.140625 C 2.472656 0.140625 1.820312 -0.15625 1.34375 -0.75 C 0.78125 -1.457031 0.5 -2.617188 0.5 -4.234375 Z M 1.578125 -4.234375 C 1.578125 -2.828125 1.742188 -1.890625 2.078125 -1.421875 C 2.410156 -0.953125 2.816406 -0.71875 3.296875 -0.71875 C 3.785156 -0.71875 4.191406 -0.953125 4.515625 -1.421875 C 4.847656 -1.890625 5.015625 -2.828125 5.015625 -4.234375 C 5.015625 -5.648438 4.847656 -6.585938 4.515625 -7.046875 C 4.191406 -7.515625 3.78125 -7.75 3.28125 -7.75 C 2.800781 -7.75 2.414062 -7.546875 2.125 -7.140625 C 1.757812 -6.617188 1.578125 -5.648438 1.578125 -4.234375 Z M 1.578125 -4.234375 "/>
</g>
<g id="glyph-1-2">
<path d="M 1.09375 0 L 1.09375 -1.203125 L 2.296875 -1.203125 L 2.296875 0 Z M 1.09375 0 "/>
</g>
<g id="glyph-1-3">
<path d="M 0.5 -2.265625 L 1.5625 -2.40625 C 1.675781 -1.8125 1.878906 -1.378906 2.171875 -1.109375 C 2.460938 -0.847656 2.816406 -0.71875 3.234375 -0.71875 C 3.734375 -0.71875 4.15625 -0.890625 4.5 -1.234375 C 4.84375 -1.578125 5.015625 -2.003906 5.015625 -2.515625 C 5.015625 -2.992188 4.851562 -3.390625 4.53125 -3.703125 C 4.21875 -4.023438 3.816406 -4.1875 3.328125 -4.1875 C 3.128906 -4.1875 2.878906 -4.144531 2.578125 -4.0625 L 2.703125 -5 C 2.773438 -4.988281 2.832031 -4.984375 2.875 -4.984375 C 3.320312 -4.984375 3.722656 -5.097656 4.078125 -5.328125 C 4.441406 -5.566406 4.625 -5.929688 4.625 -6.421875 C 4.625 -6.804688 4.492188 -7.125 4.234375 -7.375 C 3.972656 -7.632812 3.632812 -7.765625 3.21875 -7.765625 C 2.8125 -7.765625 2.46875 -7.632812 2.1875 -7.375 C 1.914062 -7.113281 1.742188 -6.726562 1.671875 -6.21875 L 0.609375 -6.40625 C 0.734375 -7.101562 1.023438 -7.644531 1.484375 -8.03125 C 1.941406 -8.425781 2.507812 -8.625 3.1875 -8.625 C 3.65625 -8.625 4.085938 -8.519531 4.484375 -8.3125 C 4.878906 -8.113281 5.179688 -7.84375 5.390625 -7.5 C 5.597656 -7.15625 5.703125 -6.785156 5.703125 -6.390625 C 5.703125 -6.023438 5.601562 -5.6875 5.40625 -5.375 C 5.207031 -5.070312 4.914062 -4.832031 4.53125 -4.65625 C 5.03125 -4.539062 5.421875 -4.296875 5.703125 -3.921875 C 5.984375 -3.554688 6.125 -3.09375 6.125 -2.53125 C 6.125 -1.78125 5.847656 -1.144531 5.296875 -0.625 C 4.753906 -0.101562 4.066406 0.15625 3.234375 0.15625 C 2.484375 0.15625 1.859375 -0.0664062 1.359375 -0.515625 C 0.859375 -0.972656 0.570312 -1.554688 0.5 -2.265625 Z M 0.5 -2.265625 "/>
</g>
<g id="glyph-1-4">
<path d="M 5.96875 -6.484375 L 4.921875 -6.40625 C 4.828125 -6.820312 4.695312 -7.125 4.53125 -7.3125 C 4.238281 -7.613281 3.882812 -7.765625 3.46875 -7.765625 C 3.132812 -7.765625 2.835938 -7.671875 2.578125 -7.484375 C 2.253906 -7.234375 1.992188 -6.875 1.796875 -6.40625 C 1.609375 -5.945312 1.507812 -5.289062 1.5 -4.4375 C 1.75 -4.820312 2.054688 -5.109375 2.421875 -5.296875 C 2.796875 -5.484375 3.1875 -5.578125 3.59375 -5.578125 C 4.289062 -5.578125 4.882812 -5.316406 5.375 -4.796875 C 5.875 -4.273438 6.125 -3.609375 6.125 -2.796875 C 6.125 -2.253906 6.003906 -1.75 5.765625 -1.28125 C 5.535156 -0.820312 5.21875 -0.46875 4.8125 -0.21875 C 4.40625 0.0195312 3.945312 0.140625 3.4375 0.140625 C 2.550781 0.140625 1.832031 -0.179688 1.28125 -0.828125 C 0.726562 -1.472656 0.453125 -2.535156 0.453125 -4.015625 C 0.453125 -5.679688 0.757812 -6.890625 1.375 -7.640625 C 1.90625 -8.296875 2.625 -8.625 3.53125 -8.625 C 4.207031 -8.625 4.757812 -8.429688 5.1875 -8.046875 C 5.625 -7.671875 5.882812 -7.148438 5.96875 -6.484375 Z M 1.671875 -2.78125 C 1.671875 -2.414062 1.742188 -2.066406 1.890625 -1.734375 C 2.046875 -1.410156 2.257812 -1.160156 2.53125 -0.984375 C 2.8125 -0.804688 3.109375 -0.71875 3.421875 -0.71875 C 3.859375 -0.71875 4.238281 -0.894531 4.5625 -1.25 C 4.882812 -1.613281 5.046875 -2.101562 5.046875 -2.71875 C 5.046875 -3.3125 4.882812 -3.78125 4.5625 -4.125 C 4.25 -4.46875 3.851562 -4.640625 3.375 -4.640625 C 2.894531 -4.640625 2.488281 -4.46875 2.15625 -4.125 C 1.832031 -3.78125 1.671875 -3.332031 1.671875 -2.78125 Z M 1.671875 -2.78125 "/>
</g>
<g id="glyph-1-5">
<path d="M 0.65625 -1.984375 L 1.671875 -2.078125 C 1.753906 -1.597656 1.914062 -1.25 2.15625 -1.03125 C 2.40625 -0.820312 2.71875 -0.71875 3.09375 -0.71875 C 3.414062 -0.71875 3.695312 -0.789062 3.9375 -0.9375 C 4.1875 -1.09375 4.390625 -1.289062 4.546875 -1.53125 C 4.703125 -1.78125 4.832031 -2.113281 4.9375 -2.53125 C 5.039062 -2.957031 5.09375 -3.390625 5.09375 -3.828125 C 5.09375 -3.878906 5.09375 -3.953125 5.09375 -4.046875 C 4.882812 -3.710938 4.597656 -3.4375 4.234375 -3.21875 C 3.867188 -3.007812 3.472656 -2.90625 3.046875 -2.90625 C 2.328125 -2.90625 1.722656 -3.160156 1.234375 -3.671875 C 0.742188 -4.191406 0.5 -4.875 0.5 -5.71875 C 0.5 -6.59375 0.753906 -7.296875 1.265625 -7.828125 C 1.785156 -8.359375 2.429688 -8.625 3.203125 -8.625 C 3.753906 -8.625 4.257812 -8.472656 4.71875 -8.171875 C 5.1875 -7.867188 5.539062 -7.4375 5.78125 -6.875 C 6.019531 -6.320312 6.140625 -5.519531 6.140625 -4.46875 C 6.140625 -3.375 6.019531 -2.5 5.78125 -1.84375 C 5.550781 -1.195312 5.195312 -0.703125 4.71875 -0.359375 C 4.25 -0.0234375 3.703125 0.140625 3.078125 0.140625 C 2.398438 0.140625 1.847656 -0.0390625 1.421875 -0.40625 C 0.992188 -0.78125 0.738281 -1.304688 0.65625 -1.984375 Z M 4.96875 -5.78125 C 4.96875 -6.382812 4.804688 -6.863281 4.484375 -7.21875 C 4.171875 -7.570312 3.785156 -7.75 3.328125 -7.75 C 2.859375 -7.75 2.445312 -7.554688 2.09375 -7.171875 C 1.75 -6.796875 1.578125 -6.300781 1.578125 -5.6875 C 1.578125 -5.144531 1.742188 -4.703125 2.078125 -4.359375 C 2.410156 -4.015625 2.816406 -3.84375 3.296875 -3.84375 C 3.785156 -3.84375 4.1875 -4.015625 4.5 -4.359375 C 4.8125 -4.703125 4.96875 -5.175781 4.96875 -5.78125 Z M 4.96875 -5.78125 "/>
</g>
<g id="glyph-2-0">
<path d="M 2.984375 0 L 2.28125 0 L 2.28125 -4.484375 C 2.113281 -4.316406 1.890625 -4.148438 1.609375 -3.984375 C 1.335938 -3.828125 1.09375 -3.710938 0.875 -3.640625 L 0.875 -4.3125 C 1.269531 -4.5 1.613281 -4.722656 1.90625 -4.984375 C 2.195312 -5.242188 2.40625 -5.5 2.53125 -5.75 L 2.984375 -5.75 Z M 2.984375 0 "/>
</g>
<g id="glyph-3-0">
<path d="M 0 -0.09375 L -3.234375 -2.359375 L -6.21875 -0.265625 L -6.21875 -1.578125 L -4.765625 -2.53125 C -4.484375 -2.707031 -4.25 -2.851562 -4.0625 -2.96875 C -4.320312 -3.132812 -4.550781 -3.289062 -4.75 -3.4375 L -6.21875 -4.484375 L -6.21875 -5.75 L -3.296875 -3.59375 L 0 -5.90625 L 0 -4.625 L -1.9375 -3.34375 L -2.453125 -3 L 0 -1.359375 Z M 0 -0.09375 "/>
</g>
<g id="glyph-3-1">
<path d="M -4.234375 -0.5 C -5.253906 -0.5 -6.070312 -0.601562 -6.6875 -0.8125 C -7.3125 -1.019531 -7.789062 -1.328125 -8.125 -1.734375 C -8.457031 -2.148438 -8.625 -2.671875 -8.625 -3.296875 C -8.625 -3.753906 -8.53125 -4.15625 -8.34375 -4.5 C -8.15625 -4.851562 -7.882812 -5.144531 -7.53125 -5.375 C -7.1875 -5.601562 -6.765625 -5.78125 -6.265625 -5.90625 C -5.765625 -6.03125 -5.085938 -6.09375 -4.234375 -6.09375 C -3.222656 -6.09375 -2.410156 -5.988281 -1.796875 -5.78125 C -1.179688 -5.582031 -0.703125 -5.273438 -0.359375 -4.859375 C -0.0234375 -4.453125 0.140625 -3.929688 0.140625 -3.296875 C 0.140625 -2.472656 -0.15625 -1.820312 -0.75 -1.34375 C -1.457031 -0.78125 -2.617188 -0.5 -4.234375 -0.5 Z M -4.234375 -1.578125 C -2.828125 -1.578125 -1.890625 -1.742188 -1.421875 -2.078125 C -0.953125 -2.410156 -0.71875 -2.816406 -0.71875 -3.296875 C -0.71875 -3.785156 -0.953125 -4.191406 -1.421875 -4.515625 C -1.890625 -4.847656 -2.828125 -5.015625 -4.234375 -5.015625 C -5.648438 -5.015625 -6.585938 -4.847656 -7.046875 -4.515625 C -7.515625 -4.191406 -7.75 -3.78125 -7.75 -3.28125 C -7.75 -2.800781 -7.546875 -2.414062 -7.140625 -2.125 C -6.617188 -1.757812 -5.648438 -1.578125 -4.234375 -1.578125 Z M -4.234375 -1.578125 "/>
</g>
<g id="glyph-3-2">
<path d="M 0 -1.09375 L -1.203125 -1.09375 L -1.203125 -2.296875 L 0 -2.296875 Z M 0 -1.09375 "/>
</g>
<g id="glyph-3-3">
<path d="M -2.265625 -0.5 L -2.40625 -1.5625 C -1.8125 -1.675781 -1.378906 -1.878906 -1.109375 -2.171875 C -0.847656 -2.460938 -0.71875 -2.816406 -0.71875 -3.234375 C -0.71875 -3.734375 -0.890625 -4.15625 -1.234375 -4.5 C -1.578125 -4.84375 -2.003906 -5.015625 -2.515625 -5.015625 C -2.992188 -5.015625 -3.390625 -4.851562 -3.703125 -4.53125 C -4.023438 -4.21875 -4.1875 -3.816406 -4.1875 -3.328125 C -4.1875 -3.128906 -4.144531 -2.878906 -4.0625 -2.578125 L -5 -2.703125 C -4.988281 -2.773438 -4.984375 -2.832031 -4.984375 -2.875 C -4.984375 -3.320312 -5.097656 -3.722656 -5.328125 -4.078125 C -5.566406 -4.441406 -5.929688 -4.625 -6.421875 -4.625 C -6.804688 -4.625 -7.125 -4.492188 -7.375 -4.234375 C -7.632812 -3.972656 -7.765625 -3.632812 -7.765625 -3.21875 C -7.765625 -2.8125 -7.632812 -2.46875 -7.375 -2.1875 C -7.113281 -1.914062 -6.726562 -1.742188 -6.21875 -1.671875 L -6.40625 -0.609375 C -7.101562 -0.734375 -7.644531 -1.023438 -8.03125 -1.484375 C -8.425781 -1.941406 -8.625 -2.507812 -8.625 -3.1875 C -8.625 -3.65625 -8.519531 -4.085938 -8.3125 -4.484375 C -8.113281 -4.878906 -7.84375 -5.179688 -7.5 -5.390625 C -7.15625 -5.597656 -6.785156 -5.703125 -6.390625 -5.703125 C -6.023438 -5.703125 -5.6875 -5.601562 -5.375 -5.40625 C -5.070312 -5.207031 -4.832031 -4.914062 -4.65625 -4.53125 C -4.539062 -5.03125 -4.296875 -5.421875 -3.921875 -5.703125 C -3.554688 -5.984375 -3.09375 -6.125 -2.53125 -6.125 C -1.78125 -6.125 -1.144531 -5.847656 -0.625 -5.296875 C -0.101562 -4.753906 0.15625 -4.066406 0.15625 -3.234375 C 0.15625 -2.484375 -0.0664062 -1.859375 -0.515625 -1.359375 C -0.972656 -0.859375 -1.554688 -0.570312 -2.265625 -0.5 Z M -2.265625 -0.5 "/>
</g>
<g id="glyph-3-4">
<path d="M -6.484375 -5.96875 L -6.40625 -4.921875 C -6.820312 -4.828125 -7.125 -4.695312 -7.3125 -4.53125 C -7.613281 -4.238281 -7.765625 -3.882812 -7.765625 -3.46875 C -7.765625 -3.132812 -7.671875 -2.835938 -7.484375 -2.578125 C -7.234375 -2.253906 -6.875 -1.992188 -6.40625 -1.796875 C -5.945312 -1.609375 -5.289062 -1.507812 -4.4375 -1.5 C -4.820312 -1.75 -5.109375 -2.054688 -5.296875 -2.421875 C -5.484375 -2.796875 -5.578125 -3.1875 -5.578125 -3.59375 C -5.578125 -4.289062 -5.316406 -4.882812 -4.796875 -5.375 C -4.273438 -5.875 -3.609375 -6.125 -2.796875 -6.125 C -2.253906 -6.125 -1.75 -6.003906 -1.28125 -5.765625 C -0.820312 -5.535156 -0.46875 -5.21875 -0.21875 -4.8125 C 0.0195312 -4.40625 0.140625 -3.945312 0.140625 -3.4375 C 0.140625 -2.550781 -0.179688 -1.832031 -0.828125 -1.28125 C -1.472656 -0.726562 -2.535156 -0.453125 -4.015625 -0.453125 C -5.679688 -0.453125 -6.890625 -0.757812 -7.640625 -1.375 C -8.296875 -1.90625 -8.625 -2.625 -8.625 -3.53125 C -8.625 -4.207031 -8.429688 -4.757812 -8.046875 -5.1875 C -7.671875 -5.625 -7.148438 -5.882812 -6.484375 -5.96875 Z M -2.78125 -1.671875 C -2.414062 -1.671875 -2.066406 -1.742188 -1.734375 -1.890625 C -1.410156 -2.046875 -1.160156 -2.257812 -0.984375 -2.53125 C -0.804688 -2.8125 -0.71875 -3.109375 -0.71875 -3.421875 C -0.71875 -3.859375 -0.894531 -4.238281 -1.25 -4.5625 C -1.613281 -4.882812 -2.101562 -5.046875 -2.71875 -5.046875 C -3.3125 -5.046875 -3.78125 -4.882812 -4.125 -4.5625 C -4.46875 -4.25 -4.640625 -3.851562 -4.640625 -3.375 C -4.640625 -2.894531 -4.46875 -2.488281 -4.125 -2.15625 C -3.78125 -1.832031 -3.332031 -1.671875 -2.78125 -1.671875 Z M -2.78125 -1.671875 "/>
</g>
<g id="glyph-3-5">
<path d="M -1.984375 -0.65625 L -2.078125 -1.671875 C -1.597656 -1.753906 -1.25 -1.914062 -1.03125 -2.15625 C -0.820312 -2.40625 -0.71875 -2.71875 -0.71875 -3.09375 C -0.71875 -3.414062 -0.789062 -3.695312 -0.9375 -3.9375 C -1.09375 -4.1875 -1.289062 -4.390625 -1.53125 -4.546875 C -1.78125 -4.703125 -2.113281 -4.832031 -2.53125 -4.9375 C -2.957031 -5.039062 -3.390625 -5.09375 -3.828125 -5.09375 C -3.878906 -5.09375 -3.953125 -5.09375 -4.046875 -5.09375 C -3.710938 -4.882812 -3.4375 -4.597656 -3.21875 -4.234375 C -3.007812 -3.867188 -2.90625 -3.472656 -2.90625 -3.046875 C -2.90625 -2.328125 -3.160156 -1.722656 -3.671875 -1.234375 C -4.191406 -0.742188 -4.875 -0.5 -5.71875 -0.5 C -6.59375 -0.5 -7.296875 -0.753906 -7.828125 -1.265625 C -8.359375 -1.785156 -8.625 -2.429688 -8.625 -3.203125 C -8.625 -3.753906 -8.472656 -4.257812 -8.171875 -4.71875 C -7.867188 -5.1875 -7.4375 -5.539062 -6.875 -5.78125 C -6.320312 -6.019531 -5.519531 -6.140625 -4.46875 -6.140625 C -3.375 -6.140625 -2.5 -6.019531 -1.84375 -5.78125 C -1.195312 -5.550781 -0.703125 -5.195312 -0.359375 -4.71875 C -0.0234375 -4.25 0.140625 -3.703125 0.140625 -3.078125 C 0.140625 -2.398438 -0.0390625 -1.847656 -0.40625 -1.421875 C -0.78125 -0.992188 -1.304688 -0.738281 -1.984375 -0.65625 Z M -5.78125 -4.96875 C -6.382812 -4.96875 -6.863281 -4.804688 -7.21875 -4.484375 C -7.570312 -4.171875 -7.75 -3.785156 -7.75 -3.328125 C -7.75 -2.859375 -7.554688 -2.445312 -7.171875 -2.09375 C -6.796875 -1.75 -6.300781 -1.578125 -5.6875 -1.578125 C -5.144531 -1.578125 -4.703125 -1.742188 -4.359375 -2.078125 C -4.015625 -2.410156 -3.84375 -2.816406 -3.84375 -3.296875 C -3.84375 -3.785156 -4.015625 -4.1875 -4.359375 -4.5 C -4.703125 -4.8125 -5.175781 -4.96875 -5.78125 -4.96875 Z M -5.78125 -4.96875 "/>
</g>
<g id="glyph-4-0">
<path d="M -0.671875 -4.03125 L 0 -4.03125 L 0 -0.25 C -0.164062 -0.238281 -0.328125 -0.265625 -0.484375 -0.328125 C -0.742188 -0.421875 -1 -0.570312 -1.25 -0.78125 C -1.5 -1 -1.789062 -1.304688 -2.125 -1.703125 C -2.632812 -2.328125 -3.035156 -2.75 -3.328125 -2.96875 C -3.628906 -3.1875 -3.910156 -3.296875 -4.171875 -3.296875 C -4.453125 -3.296875 -4.6875 -3.195312 -4.875 -3 C -5.070312 -2.800781 -5.171875 -2.539062 -5.171875 -2.21875 C -5.171875 -1.882812 -5.066406 -1.613281 -4.859375 -1.40625 C -4.660156 -1.207031 -4.378906 -1.101562 -4.015625 -1.09375 L -4.09375 -0.375 C -4.632812 -0.425781 -5.046875 -0.613281 -5.328125 -0.9375 C -5.609375 -1.257812 -5.75 -1.691406 -5.75 -2.234375 C -5.75 -2.785156 -5.597656 -3.21875 -5.296875 -3.53125 C -4.992188 -3.851562 -4.613281 -4.015625 -4.15625 -4.015625 C -3.925781 -4.015625 -3.703125 -3.96875 -3.484375 -3.875 C -3.265625 -3.78125 -3.03125 -3.625 -2.78125 -3.40625 C -2.539062 -3.195312 -2.207031 -2.835938 -1.78125 -2.328125 C -1.425781 -1.910156 -1.1875 -1.640625 -1.0625 -1.515625 C -0.9375 -1.398438 -0.804688 -1.300781 -0.671875 -1.21875 Z M -0.671875 -4.03125 "/>
</g>
</g>
</defs>
<path fill-rule="nonzero" fill="rgb(0%, 0%, 100%)" fill-opacity="1" d="M 176.269531 198.511719 C 176.269531 197.03125 177.488281 195.808594 178.96875 195.808594 C 180.460938 195.808594 181.671875 197.03125 181.671875 198.511719 C 181.671875 200 180.460938 201.210938 178.96875 201.210938 C 177.488281 201.210938 176.269531 200 176.269531 198.511719 "/>
<path fill-rule="nonzero" fill="rgb(0%, 0%, 100%)" fill-opacity="1" d="M 155.699219 136.800781 C 155.699219 135.308594 156.910156 134.101562 158.398438 134.101562 C 159.890625 134.101562 161.101562 135.308594 161.101562 136.800781 C 161.101562 138.289062 159.890625 139.5 158.398438 139.5 C 156.910156 139.5 155.699219 138.289062 155.699219 136.800781 "/>
<path fill-rule="nonzero" fill="rgb(0%, 0%, 100%)" fill-opacity="1" d="M 196.839844 95.660156 C 196.839844 94.171875 198.058594 92.960938 199.539062 92.960938 C 201.03125 92.960938 202.238281 94.171875 202.238281 95.660156 C 202.238281 97.140625 201.03125 98.359375 199.539062 98.359375 C 198.058594 98.359375 196.839844 97.140625 196.839844 95.660156 "/>
<path fill-rule="nonzero" fill="rgb(0%, 0%, 100%)" fill-opacity="1" d="M 93.988281 116.230469 C 93.988281 114.738281 95.199219 113.53125 96.691406 113.53125 C 98.171875 113.53125 99.390625 114.738281 99.390625 116.230469 C 99.390625 117.710938 98.171875 118.929688 96.691406 118.929688 C 95.199219 118.929688 93.988281 117.710938 93.988281 116.230469 "/>
<path fill-rule="nonzero" fill="rgb(0%, 0%, 100%)" fill-opacity="1" d="M 135.128906 75.089844 C 135.128906 73.601562 136.339844 72.390625 137.828125 72.390625 C 139.308594 72.390625 140.53125 73.601562 140.53125 75.089844 C 140.53125 76.570312 139.308594 77.789062 137.828125 77.789062 C 136.339844 77.789062 135.128906 76.570312 135.128906 75.089844 "/>
<path fill-rule="nonzero" fill="rgb(0%, 0%, 100%)" fill-opacity="1" d="M 114.558594 177.941406 C 114.558594 176.460938 115.769531 175.238281 117.261719 175.238281 C 118.738281 175.238281 119.960938 176.460938 119.960938 177.941406 C 119.960938 179.429688 118.738281 180.640625 117.261719 180.640625 C 115.769531 180.640625 114.558594 179.429688 114.558594 177.941406 "/>
<path fill-rule="nonzero" fill="rgb(0%, 0%, 100%)" fill-opacity="1" d="M 217.410156 157.371094 C 217.410156 155.890625 218.628906 154.671875 220.109375 154.671875 C 221.601562 154.671875 222.808594 155.890625 222.808594 157.371094 C 222.808594 158.859375 221.601562 160.070312 220.109375 160.070312 C 218.628906 160.070312 217.410156 158.859375 217.410156 157.371094 "/>
<g fill="rgb(0%, 0%, 0%)" fill-opacity="1">
<use xlink:href="#glyph-0-0" x="114.06" y="34.55"/>
<use xlink:href="#glyph-0-1" x="125.722" y="34.55"/>
<use xlink:href="#glyph-0-2" x="133.506" y="34.55"/>
<use xlink:href="#glyph-0-3" x="141.29" y="34.55"/>
<use xlink:href="#glyph-0-4" x="145.182" y="34.55"/>
<use xlink:href="#glyph-0-3" x="157.628" y="34.55"/>
<use xlink:href="#glyph-0-5" x="161.52" y="34.55"/>
<use xlink:href="#glyph-0-6" x="170.074" y="34.55"/>
<use xlink:href="#glyph-0-7" x="173.966" y="34.55"/>
<use xlink:href="#glyph-0-8" x="182.52" y="34.55"/>
<use xlink:href="#glyph-0-9" x="192.628" y="34.55"/>
</g>
<g fill="rgb(0%, 0%, 0%)" fill-opacity="1">
<use xlink:href="#glyph-1-0" x="153.18" y="267"/>
</g>
<g fill="rgb(0%, 0%, 0%)" fill-opacity="1">
<use xlink:href="#glyph-2-0" x="159.18" y="269.28"/>
</g>
<g fill="rgb(0%, 0%, 0%)" fill-opacity="1">
<use xlink:href="#glyph-3-0" x="10.68" y="142.02"/>
</g>
<g fill="rgb(0%, 0%, 0%)" fill-opacity="1">
<use xlink:href="#glyph-4-0" x="12.96" y="136.02"/>
</g>
<path fill="none" stroke-width="0.75" stroke-linecap="round" stroke-linejoin="round" stroke="rgb(0%, 0%, 0%)" stroke-opacity="1" stroke-miterlimit="10" d="M 86.398438 73.441406 L 230.398438 73.441406 " transform="matrix(1, 0, 0, -1, 0, 288)"/>
<path fill="none" stroke-width="0.75" stroke-linecap="round" stroke-linejoin="round" stroke="rgb(0%, 0%, 0%)" stroke-opacity="1" stroke-miterlimit="10" d="M 86.398438 73.441406 L 86.398438 66.238281 " transform="matrix(1, 0, 0, -1, 0, 288)"/>
<path fill="none" stroke-width="0.75" stroke-linecap="round" stroke-linejoin="round" stroke="rgb(0%, 0%, 0%)" stroke-opacity="1" stroke-miterlimit="10" d="M 106.96875 73.441406 L 106.96875 66.238281 " transform="matrix(1, 0, 0, -1, 0, 288)"/>
<path fill="none" stroke-width="0.75" stroke-linecap="round" stroke-linejoin="round" stroke="rgb(0%, 0%, 0%)" stroke-opacity="1" stroke-miterlimit="10" d="M 127.539062 73.441406 L 127.539062 66.238281 " transform="matrix(1, 0, 0, -1, 0, 288)"/>
<path fill="none" stroke-width="0.75" stroke-linecap="round" stroke-linejoin="round" stroke="rgb(0%, 0%, 0%)" stroke-opacity="1" stroke-miterlimit="10" d="M 148.109375 73.441406 L 148.109375 66.238281 " transform="matrix(1, 0, 0, -1, 0, 288)"/>
<path fill="none" stroke-width="0.75" stroke-linecap="round" stroke-linejoin="round" stroke="rgb(0%, 0%, 0%)" stroke-opacity="1" stroke-miterlimit="10" d="M 168.691406 73.441406 L 168.691406 66.238281 " transform="matrix(1, 0, 0, -1, 0, 288)"/>
<path fill="none" stroke-width="0.75" stroke-linecap="round" stroke-linejoin="round" stroke="rgb(0%, 0%, 0%)" stroke-opacity="1" stroke-miterlimit="10" d="M 189.261719 73.441406 L 189.261719 66.238281 " transform="matrix(1, 0, 0, -1, 0, 288)"/>
<path fill="none" stroke-width="0.75" stroke-linecap="round" stroke-linejoin="round" stroke="rgb(0%, 0%, 0%)" stroke-opacity="1" stroke-miterlimit="10" d="M 209.828125 73.441406 L 209.828125 66.238281 " transform="matrix(1, 0, 0, -1, 0, 288)"/>
<path fill="none" stroke-width="0.75" stroke-linecap="round" stroke-linejoin="round" stroke="rgb(0%, 0%, 0%)" stroke-opacity="1" stroke-miterlimit="10" d="M 230.398438 73.441406 L 230.398438 66.238281 " transform="matrix(1, 0, 0, -1, 0, 288)"/>
<g fill="rgb(0%, 0%, 0%)" fill-opacity="1">
<use xlink:href="#glyph-1-1" x="83.06" y="240.48"/>
</g>
<g fill="rgb(0%, 0%, 0%)" fill-opacity="1">
<use xlink:href="#glyph-1-1" x="119.2" y="240.48"/>
<use xlink:href="#glyph-1-2" x="125.872" y="240.48"/>
<use xlink:href="#glyph-1-3" x="129.208" y="240.48"/>
</g>
<g fill="rgb(0%, 0%, 0%)" fill-opacity="1">
<use xlink:href="#glyph-1-1" x="160.35" y="240.48"/>
<use xlink:href="#glyph-1-2" x="167.022" y="240.48"/>
<use xlink:href="#glyph-1-4" x="170.358" y="240.48"/>
</g>
<g fill="rgb(0%, 0%, 0%)" fill-opacity="1">
<use xlink:href="#glyph-1-1" x="201.49" y="240.48"/>
<use xlink:href="#glyph-1-2" x="208.162" y="240.48"/>
<use xlink:href="#glyph-1-5" x="211.498" y="240.48"/>
</g>
<path fill="none" stroke-width="0.75" stroke-linecap="round" stroke-linejoin="round" stroke="rgb(0%, 0%, 0%)" stroke-opacity="1" stroke-miterlimit="10" d="M 59.039062 79.199219 L 59.039062 223.199219 " transform="matrix(1, 0, 0, -1, 0, 288)"/>
<path fill="none" stroke-width="0.75" stroke-linecap="round" stroke-linejoin="round" stroke="rgb(0%, 0%, 0%)" stroke-opacity="1" stroke-miterlimit="10" d="M 59.039062 79.199219 L 51.839844 79.199219 " transform="matrix(1, 0, 0, -1, 0, 288)"/>
<path fill="none" stroke-width="0.75" stroke-linecap="round" stroke-linejoin="round" stroke="rgb(0%, 0%, 0%)" stroke-opacity="1" stroke-miterlimit="10" d="M 59.039062 99.769531 L 51.839844 99.769531 " transform="matrix(1, 0, 0, -1, 0, 288)"/>
<path fill="none" stroke-width="0.75" stroke-linecap="round" stroke-linejoin="round" stroke="rgb(0%, 0%, 0%)" stroke-opacity="1" stroke-miterlimit="10" d="M 59.039062 120.339844 L 51.839844 120.339844 " transform="matrix(1, 0, 0, -1, 0, 288)"/>
<path fill="none" stroke-width="0.75" stroke-linecap="round" stroke-linejoin="round" stroke="rgb(0%, 0%, 0%)" stroke-opacity="1" stroke-miterlimit="10" d="M 59.039062 140.910156 L 51.839844 140.910156 " transform="matrix(1, 0, 0, -1, 0, 288)"/>
<path fill="none" stroke-width="0.75" stroke-linecap="round" stroke-linejoin="round" stroke="rgb(0%, 0%, 0%)" stroke-opacity="1" stroke-miterlimit="10" d="M 59.039062 161.488281 L 51.839844 161.488281 " transform="matrix(1, 0, 0, -1, 0, 288)"/>
<path fill="none" stroke-width="0.75" stroke-linecap="round" stroke-linejoin="round" stroke="rgb(0%, 0%, 0%)" stroke-opacity="1" stroke-miterlimit="10" d="M 59.039062 182.058594 L 51.839844 182.058594 " transform="matrix(1, 0, 0, -1, 0, 288)"/>
<path fill="none" stroke-width="0.75" stroke-linecap="round" stroke-linejoin="round" stroke="rgb(0%, 0%, 0%)" stroke-opacity="1" stroke-miterlimit="10" d="M 59.039062 202.628906 L 51.839844 202.628906 " transform="matrix(1, 0, 0, -1, 0, 288)"/>
<path fill="none" stroke-width="0.75" stroke-linecap="round" stroke-linejoin="round" stroke="rgb(0%, 0%, 0%)" stroke-opacity="1" stroke-miterlimit="10" d="M 59.039062 223.199219 L 51.839844 223.199219 " transform="matrix(1, 0, 0, -1, 0, 288)"/>
<g fill="rgb(0%, 0%, 0%)" fill-opacity="1">
<use xlink:href="#glyph-3-1" x="41.76" y="212.14"/>
</g>
<g fill="rgb(0%, 0%, 0%)" fill-opacity="1">
<use xlink:href="#glyph-3-1" x="41.76" y="176"/>
<use xlink:href="#glyph-3-2" x="41.76" y="169.328"/>
<use xlink:href="#glyph-3-3" x="41.76" y="165.992"/>
</g>
<g fill="rgb(0%, 0%, 0%)" fill-opacity="1">
<use xlink:href="#glyph-3-1" x="41.76" y="134.85"/>
<use xlink:href="#glyph-3-2" x="41.76" y="128.178"/>
<use xlink:href="#glyph-3-4" x="41.76" y="124.842"/>
</g>
<g fill="rgb(0%, 0%, 0%)" fill-opacity="1">
<use xlink:href="#glyph-3-1" x="41.76" y="93.71"/>
<use xlink:href="#glyph-3-2" x="41.76" y="87.038"/>
<use xlink:href="#glyph-3-5" x="41.76" y="83.702"/>
</g>
<path fill="none" stroke-width="0.75" stroke-linecap="round" stroke-linejoin="round" stroke="rgb(0%, 0%, 0%)" stroke-opacity="1" stroke-miterlimit="10" d="M 86.398438 79.199219 L 230.398438 79.199219 " transform="matrix(1, 0, 0, -1, 0, 288)"/>
<path fill="none" stroke-width="0.75" stroke-linecap="round" stroke-linejoin="round" stroke="rgb(0%, 0%, 0%)" stroke-opacity="1" stroke-miterlimit="10" d="M 86.398438 79.199219 L 86.398438 223.199219 " transform="matrix(1, 0, 0, -1, 0, 288)"/>
<path fill="none" stroke-width="0.75" stroke-linecap="round" stroke-linejoin="round" stroke="rgb(0%, 0%, 0%)" stroke-opacity="1" stroke-miterlimit="10" d="M 86.398438 99.769531 L 230.398438 99.769531 " transform="matrix(1, 0, 0, -1, 0, 288)"/>
<path fill="none" stroke-width="0.75" stroke-linecap="round" stroke-linejoin="round" stroke="rgb(0%, 0%, 0%)" stroke-opacity="1" stroke-miterlimit="10" d="M 106.96875 79.199219 L 106.96875 223.199219 " transform="matrix(1, 0, 0, -1, 0, 288)"/>
<path fill="none" stroke-width="0.75" stroke-linecap="round" stroke-linejoin="round" stroke="rgb(0%, 0%, 0%)" stroke-opacity="1" stroke-miterlimit="10" d="M 86.398438 120.339844 L 230.398438 120.339844 " transform="matrix(1, 0, 0, -1, 0, 288)"/>
<path fill="none" stroke-width="0.75" stroke-linecap="round" stroke-linejoin="round" stroke="rgb(0%, 0%, 0%)" stroke-opacity="1" stroke-miterlimit="10" d="M 127.539062 79.199219 L 127.539062 223.199219 " transform="matrix(1, 0, 0, -1, 0, 288)"/>
<path fill="none" stroke-width="0.75" stroke-linecap="round" stroke-linejoin="round" stroke="rgb(0%, 0%, 0%)" stroke-opacity="1" stroke-miterlimit="10" d="M 86.398438 140.910156 L 230.398438 140.910156 " transform="matrix(1, 0, 0, -1, 0, 288)"/>
<path fill="none" stroke-width="0.75" stroke-linecap="round" stroke-linejoin="round" stroke="rgb(0%, 0%, 0%)" stroke-opacity="1" stroke-miterlimit="10" d="M 148.109375 79.199219 L 148.109375 223.199219 " transform="matrix(1, 0, 0, -1, 0, 288)"/>
<path fill="none" stroke-width="0.75" stroke-linecap="round" stroke-linejoin="round" stroke="rgb(0%, 0%, 0%)" stroke-opacity="1" stroke-miterlimit="10" d="M 86.398438 161.488281 L 230.398438 161.488281 " transform="matrix(1, 0, 0, -1, 0, 288)"/>
<path fill="none" stroke-width="0.75" stroke-linecap="round" stroke-linejoin="round" stroke="rgb(0%, 0%, 0%)" stroke-opacity="1" stroke-miterlimit="10" d="M 168.691406 79.199219 L 168.691406 223.199219 " transform="matrix(1, 0, 0, -1, 0, 288)"/>
<path fill="none" stroke-width="0.75" stroke-linecap="round" stroke-linejoin="round" stroke="rgb(0%, 0%, 0%)" stroke-opacity="1" stroke-miterlimit="10" d="M 86.398438 182.058594 L 230.398438 182.058594 " transform="matrix(1, 0, 0, -1, 0, 288)"/>
<path fill="none" stroke-width="0.75" stroke-linecap="round" stroke-linejoin="round" stroke="rgb(0%, 0%, 0%)" stroke-opacity="1" stroke-miterlimit="10" d="M 189.261719 79.199219 L 189.261719 223.199219 " transform="matrix(1, 0, 0, -1, 0, 288)"/>
<path fill="none" stroke-width="0.75" stroke-linecap="round" stroke-linejoin="round" stroke="rgb(0%, 0%, 0%)" stroke-opacity="1" stroke-miterlimit="10" d="M 86.398438 202.628906 L 230.398438 202.628906 " transform="matrix(1, 0, 0, -1, 0, 288)"/>
<path fill="none" stroke-width="0.75" stroke-linecap="round" stroke-linejoin="round" stroke="rgb(0%, 0%, 0%)" stroke-opacity="1" stroke-miterlimit="10" d="M 209.828125 79.199219 L 209.828125 223.199219 " transform="matrix(1, 0, 0, -1, 0, 288)"/>
<path fill="none" stroke-width="0.75" stroke-linecap="round" stroke-linejoin="round" stroke="rgb(0%, 0%, 0%)" stroke-opacity="1" stroke-miterlimit="10" d="M 86.398438 223.199219 L 230.398438 223.199219 " transform="matrix(1, 0, 0, -1, 0, 288)"/>
<path fill="none" stroke-width="0.75" stroke-linecap="round" stroke-linejoin="round" stroke="rgb(0%, 0%, 0%)" stroke-opacity="1" stroke-miterlimit="10" d="M 230.398438 79.199219 L 230.398438 223.199219 " transform="matrix(1, 0, 0, -1, 0, 288)"/>
</svg>
