<?xml version="1.0" encoding="UTF-8"?>
<svg xmlns="http://www.w3.org/2000/svg" xmlns:xlink="http://www.w3.org/1999/xlink" width="576pt" height="288pt" viewBox="0 0 576 288">
<defs>
<g>
<g id="glyph-0-0">
<path d="M 0.09375 0 L 2.359375 -3.234375 L 0.265625 -6.21875 L 1.578125 -6.21875 L 2.53125 -4.765625 C 2.707031 -4.484375 2.851562 -4.25 2.96875 -4.0625 C 3.132812 -4.320312 3.289062 -4.550781 3.4375 -4.75 L 4.484375 -6.21875 L 5.75 -6.21875 L 3.59375 -3.296875 L 5.90625 0 L 4.625 0 L 3.34375 -1.9375 L 3 -2.453125 L 1.359375 0 Z M 0.09375 0 "/>
</g>
<g id="glyph-0-1">
<path d="M 4.46875 0 L 3.421875 0 L 3.421875 -6.71875 C 3.160156 -6.476562 2.820312 -6.234375 2.40625 -5.984375 C 2 -5.742188 1.632812 -5.566406 1.3125 -5.453125 L 1.3125 -6.46875 C 1.894531 -6.75 2.40625 -7.082031 2.84375 -7.46875 C 3.289062 -7.863281 3.609375 -8.25 3.796875 -8.625 L 4.46875 -8.625 Z M 4.46875 0 "/>
</g>
<g id="glyph-0-2">
<path d="M 6.046875 -1.015625 L 6.046875 0 L 0.359375 0 C 0.359375 -0.25 0.398438 -0.492188 0.484375 -0.734375 C 0.628906 -1.117188 0.859375 -1.5 1.171875 -1.875 C 1.492188 -2.25 1.957031 -2.679688 2.5625 -3.171875 C 3.5 -3.941406 4.128906 -4.550781 4.453125 -5 C 4.785156 -5.445312 4.953125 -5.867188 4.953125 -6.265625 C 4.953125 -6.679688 4.800781 -7.03125 4.5 -7.3125 C 4.195312 -7.601562 3.804688 -7.75 3.328125 -7.75 C 2.816406 -7.75 2.410156 -7.597656 2.109375 -7.296875 C 1.804688 -6.992188 1.648438 -6.570312 1.640625 -6.03125 L 0.5625 -6.140625 C 0.632812 -6.953125 0.910156 -7.566406 1.390625 -7.984375 C 1.878906 -8.410156 2.535156 -8.625 3.359375 -8.625 C 4.179688 -8.625 4.832031 -8.394531 5.3125 -7.9375 C 5.789062 -7.476562 6.03125 -6.910156 6.03125 -6.234375 C 6.03125 -5.890625 5.957031 -5.550781 5.8125 -5.21875 C 5.675781 -4.894531 5.441406 -4.546875 5.109375 -4.171875 C 4.785156 -3.804688 4.25 -3.304688 3.5 -2.671875 C 2.863281 -2.140625 2.453125 -1.773438 2.265625 -1.578125 C 2.085938 -1.390625 1.941406 -1.203125 1.828125 -1.015625 Z M 6.046875 -1.015625 "/>
</g>
<g id="glyph-0-3">
<path d="M 0.5 -2.265625 L 1.5625 -2.40625 C 1.675781 -1.8125 1.878906 -1.378906 2.171875 -1.109375 C 2.460938 -0.847656 2.816406 -0.71875 3.234375 -0.71875 C 3.734375 -0.71875 4.15625 -0.890625 4.5 -1.234375 C 4.84375 -1.578125 5.015625 -2.003906 5.015625 -2.515625 C 5.015625 -2.992188 4.851562 -3.390625 4.53125 -3.703125 C 4.21875 -4.023438 3.816406 -4.1875 3.328125 -4.1875 C 3.128906 -4.1875 2.878906 -4.144531 2.578125 -4.0625 L 2.703125 -5 C 2.773438 -4.988281 2.832031 -4.984375 2.875 -4.984375 C 3.320312 -4.984375 3.722656 -5.097656 4.078125 -5.328125 C 4.441406 -5.566406 4.625 -5.929688 4.625 -6.421875 C 4.625 -6.804688 4.492188 -7.125 4.234375 -7.375 C 3.972656 -7.632812 3.632812 -7.765625 3.21875 -7.765625 C 2.8125 -7.765625 2.46875 -7.632812 2.1875 -7.375 C 1.914062 -7.113281 1.742188 -6.726562 1.671875 -6.21875 L 0.609375 -6.40625 C 0.734375 -7.101562 1.023438 -7.644531 1.484375 -8.03125 C 1.941406 -8.425781 2.507812 -8.625 3.1875 -8.625 C 3.65625 -8.625 4.085938 -8.519531 4.484375 -8.3125 C 4.878906 -8.113281 5.179688 -7.84375 5.390625 -7.5 C 5.597656 -7.15625 5.703125 -6.785156 5.703125 -6.390625 C 5.703125 -6.023438 5.601562 -5.6875 5.40625 -5.375 C 5.207031 -5.070312 4.914062 -4.832031 4.53125 -4.65625 C 5.03125 -4.539062 5.421875 -4.296875 5.703125 -3.921875 C 5.984375 -3.554688 6.125 -3.09375 6.125 -2.53125 C 6.125 -1.78125 5.847656 -1.144531 5.296875 -0.625 C 4.753906 -0.101562 4.066406 0.15625 3.234375 0.15625 C 2.484375 0.15625 1.859375 -0.0664062 1.359375 -0.515625 C 0.859375 -0.972656 0.570312 -1.554688 0.5 -2.265625 Z M 0.5 -2.265625 "/>
</g>
<g id="glyph-0-4">
<path d="M 3.875 0 L 3.875 -2.0625 L 0.15625 -2.0625 L 0.15625 -3.03125 L 4.078125 -8.59375 L 4.9375 -8.59375 L 4.9375 -3.03125 L 6.09375 -3.03125 L 6.09375 -2.0625 L 4.9375 -2.0625 L 4.9375 0 Z M 3.875 -3.03125 L 3.875 -6.890625 L 1.1875 -3.03125 Z M 3.875 -3.03125 "/>
</g>
<g id="glyph-0-5">
<path d="M 0.5 -2.25 L 1.609375 -2.34375 C 1.691406 -1.800781 1.878906 -1.394531 2.171875 -1.125 C 2.472656 -0.851562 2.835938 -0.71875 3.265625 -0.71875 C 3.765625 -0.71875 4.191406 -0.910156 4.546875 -1.296875 C 4.898438 -1.679688 5.078125 -2.1875 5.078125 -2.8125 C 5.078125 -3.414062 4.90625 -3.890625 4.5625 -4.234375 C 4.226562 -4.585938 3.785156 -4.765625 3.234375 -4.765625 C 2.898438 -4.765625 2.59375 -4.6875 2.3125 -4.53125 C 2.039062 -4.375 1.828125 -4.175781 1.671875 -3.9375 L 0.6875 -4.0625 L 1.515625 -8.46875 L 5.796875 -8.46875 L 5.796875 -7.46875 L 2.359375 -7.46875 L 1.90625 -5.15625 C 2.414062 -5.519531 2.953125 -5.703125 3.515625 -5.703125 C 4.265625 -5.703125 4.894531 -5.441406 5.40625 -4.921875 C 5.925781 -4.398438 6.1875 -3.726562 6.1875 -2.90625 C 6.1875 -2.132812 5.960938 -1.460938 5.515625 -0.890625 C 4.960938 -0.203125 4.210938 0.140625 3.265625 0.140625 C 2.484375 0.140625 1.84375 -0.078125 1.34375 -0.515625 C 0.851562 -0.953125 0.570312 -1.53125 0.5 -2.25 Z M 0.5 -2.25 "/>
</g>
<g id="glyph-0-6">
<path d="M 5.96875 -6.484375 L 4.921875 -6.40625 C 4.828125 -6.820312 4.695312 -7.125 4.53125 -7.3125 C 4.238281 -7.613281 3.882812 -7.765625 3.46875 -7.765625 C 3.132812 -7.765625 2.835938 -7.671875 2.578125 -7.484375 C 2.253906 -7.234375 1.992188 -6.875 1.796875 -6.40625 C 1.609375 -5.945312 1.507812 -5.289062 1.5 -4.4375 C 1.75 -4.820312 2.054688 -5.109375 2.421875 -5.296875 C 2.796875 -5.484375 3.1875 -5.578125 3.59375 -5.578125 C 4.289062 -5.578125 4.882812 -5.316406 5.375 -4.796875 C 5.875 -4.273438 6.125 -3.609375 6.125 -2.796875 C 6.125 -2.253906 6.003906 -1.75 5.765625 -1.28125 C 5.535156 -0.820312 5.21875 -0.46875 4.8125 -0.21875 C 4.40625 0.0195312 3.945312 0.140625 3.4375 0.140625 C 2.550781 0.140625 1.832031 -0.179688 1.28125 -0.828125 C 0.726562 -1.472656 0.453125 -2.535156 0.453125 -4.015625 C 0.453125 -5.679688 0.757812 -6.890625 1.375 -7.640625 C 1.90625 -8.296875 2.625 -8.625 3.53125 -8.625 C 4.207031 -8.625 4.757812 -8.429688 5.1875 -8.046875 C 5.625 -7.671875 5.882812 -7.148438 5.96875 -6.484375 Z M 1.671875 -2.78125 C 1.671875 -2.414062 1.742188 -2.066406 1.890625 -1.734375 C 2.046875 -1.410156 2.257812 -1.160156 2.53125 -0.984375 C 2.8125 -0.804688 3.109375 -0.71875 3.421875 -0.71875 C 3.859375 -0.71875 4.238281 -0.894531 4.5625 -1.25 C 4.882812 -1.613281 5.046875 -2.101562 5.046875 -2.71875 C 5.046875 -3.3125 4.882812 -3.78125 4.5625 -4.125 C 4.25 -4.46875 3.851562 -4.640625 3.375 -4.640625 C 2.894531 -4.640625 2.488281 -4.46875 2.15625 -4.125 C 1.832031 -3.78125 1.671875 -3.332031 1.671875 -2.78125 Z M 1.671875 -2.78125 "/>
</g>
<g id="glyph-0-7">
<path d="M 0.5625 -7.46875 L 0.5625 -8.484375 L 6.125 -8.484375 L 6.125 -7.65625 C 5.582031 -7.070312 5.039062 -6.296875 4.5 -5.328125 C 3.96875 -4.367188 3.554688 -3.378906 3.265625 -2.359375 C 3.046875 -1.640625 2.910156 -0.851562 2.859375 0 L 1.765625 0 C 1.773438 -0.675781 1.90625 -1.492188 2.15625 -2.453125 C 2.414062 -3.410156 2.78125 -4.332031 3.25 -5.21875 C 3.726562 -6.101562 4.238281 -6.851562 4.78125 -7.46875 Z M 0.5625 -7.46875 "/>
</g>
<g id="glyph-0-8">
<path d="M 2.125 -4.65625 C 1.6875 -4.820312 1.359375 -5.050781 1.140625 -5.34375 C 0.929688 -5.644531 0.828125 -6 0.828125 -6.40625 C 0.828125 -7.03125 1.050781 -7.554688 1.5 -7.984375 C 1.957031 -8.410156 2.554688 -8.625 3.296875 -8.625 C 4.046875 -8.625 4.648438 -8.40625 5.109375 -7.96875 C 5.566406 -7.53125 5.796875 -7 5.796875 -6.375 C 5.796875 -5.976562 5.691406 -5.632812 5.484375 -5.34375 C 5.273438 -5.050781 4.957031 -4.820312 4.53125 -4.65625 C 5.0625 -4.488281 5.460938 -4.210938 5.734375 -3.828125 C 6.003906 -3.441406 6.140625 -2.984375 6.140625 -2.453125 C 6.140625 -1.722656 5.878906 -1.109375 5.359375 -0.609375 C 4.847656 -0.109375 4.164062 0.140625 3.3125 0.140625 C 2.46875 0.140625 1.785156 -0.109375 1.265625 -0.609375 C 0.742188 -1.109375 0.484375 -1.734375 0.484375 -2.484375 C 0.484375 -3.046875 0.625 -3.515625 0.90625 -3.890625 C 1.195312 -4.265625 1.601562 -4.519531 2.125 -4.65625 Z M 1.90625 -6.453125 C 1.90625 -6.046875 2.035156 -5.710938 2.296875 -5.453125 C 2.566406 -5.191406 2.910156 -5.0625 3.328125 -5.0625 C 3.734375 -5.0625 4.066406 -5.1875 4.328125 -5.4375 C 4.585938 -5.695312 4.71875 -6.015625 4.71875 -6.390625 C 4.71875 -6.773438 4.582031 -7.097656 4.3125 -7.359375 C 4.039062 -7.628906 3.707031 -7.765625 3.3125 -7.765625 C 2.90625 -7.765625 2.566406 -7.632812 2.296875 -7.375 C 2.035156 -7.113281 1.90625 -6.804688 1.90625 -6.453125 Z M 1.578125 -2.484375 C 1.578125 -2.179688 1.644531 -1.890625 1.78125 -1.609375 C 1.925781 -1.328125 2.140625 -1.109375 2.421875 -0.953125 C 2.703125 -0.796875 3.003906 -0.71875 3.328125 -0.71875 C 3.828125 -0.71875 4.238281 -0.878906 4.5625 -1.203125 C 4.894531 -1.523438 5.0625 -1.9375 5.0625 -2.4375 C 5.0625 -2.945312 4.894531 -3.367188 4.5625 -3.703125 C 4.226562 -4.035156 3.804688 -4.203125 3.296875 -4.203125 C 2.796875 -4.203125 2.382812 -4.035156 2.0625 -3.703125 C 1.738281 -3.378906 1.578125 -2.972656 1.578125 -2.484375 Z M 1.578125 -2.484375 "/>
</g>
<g id="glyph-0-9">
<path d="M 3.09375 -0.9375 L 3.25 -0.015625 C 2.945312 0.046875 2.679688 0.078125 2.453125 0.078125 C 2.066406 0.078125 1.769531 0.0195312 1.5625 -0.09375 C 1.351562 -0.21875 1.203125 -0.378906 1.109375 -0.578125 C 1.023438 -0.773438 0.984375 -1.191406 0.984375 -1.828125 L 0.984375 -5.40625 L 0.21875 -5.40625 L 0.21875 -6.21875 L 0.984375 -6.21875 L 0.984375 -7.765625 L 2.03125 -8.390625 L 2.03125 -6.21875 L 3.09375 -6.21875 L 3.09375 -5.40625 L 2.03125 -5.40625 L 2.03125 -1.765625 C 2.03125 -1.460938 2.046875 -1.269531 2.078125 -1.1875 C 2.117188 -1.101562 2.179688 -1.035156 2.265625 -0.984375 C 2.347656 -0.929688 2.46875 -0.90625 2.625 -0.90625 C 2.75 -0.90625 2.90625 -0.914062 3.09375 -0.9375 Z M 3.09375 -0.9375 "/>
</g>
<g id="glyph-0-10">
<path d="M 0.40625 -3.109375 C 0.40625 -4.265625 0.722656 -5.117188 1.359375 -5.671875 C 1.890625 -6.128906 2.539062 -6.359375 3.3125 -6.359375 C 4.164062 -6.359375 4.863281 -6.078125 5.40625 -5.515625 C 5.957031 -4.960938 6.234375 -4.191406 6.234375 -3.203125 C 6.234375 -2.398438 6.113281 -1.769531 5.875 -1.3125 C 5.632812 -0.851562 5.28125 -0.492188 4.8125 -0.234375 C 4.351562 0.015625 3.851562 0.140625 3.3125 0.140625 C 2.445312 0.140625 1.742188 -0.132812 1.203125 -0.6875 C 0.671875 -1.25 0.40625 -2.054688 0.40625 -3.109375 Z M 1.484375 -3.109375 C 1.484375 -2.316406 1.65625 -1.722656 2 -1.328125 C 2.351562 -0.929688 2.789062 -0.734375 3.3125 -0.734375 C 3.84375 -0.734375 4.28125 -0.929688 4.625 -1.328125 C 4.96875 -1.722656 5.140625 -2.328125 5.140625 -3.140625 C 5.140625 -3.910156 4.960938 -4.492188 4.609375 -4.890625 C 4.265625 -5.285156 3.832031 -5.484375 3.3125 -5.484375 C 2.789062 -5.484375 2.351562 -5.285156 2 -4.890625 C 1.65625 -4.503906 1.484375 -3.910156 1.484375 -3.109375 Z M 1.484375 -3.109375 "/>
</g>
<g id="glyph-0-11">
<path d="M 4.859375 -0.765625 C 4.460938 -0.429688 4.082031 -0.195312 3.71875 -0.0625 C 3.363281 0.0703125 2.976562 0.140625 2.5625 0.140625 C 1.875 0.140625 1.347656 -0.0234375 0.984375 -0.359375 C 0.617188 -0.691406 0.4375 -1.117188 0.4375 -1.640625 C 0.4375 -1.941406 0.503906 -2.21875 0.640625 -2.46875 C 0.773438 -2.726562 0.957031 -2.929688 1.1875 -3.078125 C 1.414062 -3.234375 1.671875 -3.347656 1.953125 -3.421875 C 2.148438 -3.484375 2.460938 -3.539062 2.890625 -3.59375 C 3.734375 -3.6875 4.359375 -3.804688 4.765625 -3.953125 C 4.765625 -4.097656 4.765625 -4.1875 4.765625 -4.21875 C 4.765625 -4.65625 4.664062 -4.960938 4.46875 -5.140625 C 4.195312 -5.367188 3.796875 -5.484375 3.265625 -5.484375 C 2.773438 -5.484375 2.410156 -5.394531 2.171875 -5.21875 C 1.929688 -5.050781 1.753906 -4.75 1.640625 -4.3125 L 0.609375 -4.453125 C 0.703125 -4.890625 0.859375 -5.242188 1.078125 -5.515625 C 1.296875 -5.785156 1.609375 -5.992188 2.015625 -6.140625 C 2.421875 -6.285156 2.890625 -6.359375 3.421875 -6.359375 C 3.953125 -6.359375 4.382812 -6.296875 4.71875 -6.171875 C 5.050781 -6.046875 5.296875 -5.890625 5.453125 -5.703125 C 5.609375 -5.515625 5.71875 -5.273438 5.78125 -4.984375 C 5.8125 -4.804688 5.828125 -4.484375 5.828125 -4.015625 L 5.828125 -2.609375 C 5.828125 -1.628906 5.847656 -1.007812 5.890625 -0.75 C 5.941406 -0.488281 6.035156 -0.238281 6.171875 0 L 5.0625 0 C 4.957031 -0.21875 4.890625 -0.472656 4.859375 -0.765625 Z M 4.765625 -3.125 C 4.378906 -2.96875 3.804688 -2.832031 3.046875 -2.71875 C 2.609375 -2.65625 2.300781 -2.582031 2.125 -2.5 C 1.945312 -2.425781 1.804688 -2.316406 1.703125 -2.171875 C 1.609375 -2.023438 1.5625 -1.859375 1.5625 -1.671875 C 1.5625 -1.390625 1.664062 -1.15625 1.875 -0.96875 C 2.09375 -0.78125 2.40625 -0.6875 2.8125 -0.6875 C 3.21875 -0.6875 3.578125 -0.773438 3.890625 -0.953125 C 4.210938 -1.128906 4.445312 -1.375 4.59375 -1.6875 C 4.707031 -1.925781 4.765625 -2.273438 4.765625 -2.734375 Z M 4.765625 -3.125 "/>
</g>
<g id="glyph-0-12">
<path d="M 0.765625 0 L 0.765625 -8.59375 L 1.828125 -8.59375 L 1.828125 0 Z M 0.765625 0 "/>
</g>
<g id="glyph-0-13">
<path d="M 6.34375 -3.75 L 0.671875 -3.75 L 0.671875 -4.734375 L 6.34375 -4.734375 Z M 6.34375 -3.75 "/>
</g>
<g id="glyph-0-14">
<path d="M 1.046875 0 L 1.046875 -5.40625 L 0.109375 -5.40625 L 0.109375 -6.21875 L 1.046875 -6.21875 L 1.046875 -6.890625 C 1.046875 -7.304688 1.082031 -7.613281 1.15625 -7.8125 C 1.257812 -8.09375 1.4375 -8.316406 1.6875 -8.484375 C 1.945312 -8.648438 2.304688 -8.734375 2.765625 -8.734375 C 3.066406 -8.734375 3.394531 -8.695312 3.75 -8.625 L 3.59375 -7.71875 C 3.375 -7.75 3.164062 -7.765625 2.96875 -7.765625 C 2.644531 -7.765625 2.414062 -7.695312 2.28125 -7.5625 C 2.15625 -7.425781 2.09375 -7.171875 2.09375 -6.796875 L 2.09375 -6.21875 L 3.3125 -6.21875 L 3.3125 -5.40625 L 2.09375 -5.40625 L 2.09375 0 Z M 1.046875 0 "/>
</g>
<g id="glyph-0-15">
<path d="M 0.796875 -7.375 L 0.796875 -8.59375 L 1.859375 -8.59375 L 1.859375 -7.375 Z M 0.796875 0 L 0.796875 -6.21875 L 1.859375 -6.21875 L 1.859375 0 Z M 0.796875 0 "/>
</g>
<g id="glyph-0-16">
<path d="M 0.78125 0 L 0.78125 -6.21875 L 1.734375 -6.21875 L 1.734375 -5.28125 C 1.972656 -5.71875 2.191406 -6.003906 2.390625 -6.140625 C 2.597656 -6.285156 2.828125 -6.359375 3.078125 -6.359375 C 3.429688 -6.359375 3.789062 -6.25 4.15625 -6.03125 L 3.796875 -5.046875 C 3.535156 -5.203125 3.28125 -5.28125 3.03125 -5.28125 C 2.789062 -5.28125 2.578125 -5.207031 2.390625 -5.0625 C 2.210938 -4.925781 2.085938 -4.734375 2.015625 -4.484375 C 1.890625 -4.109375 1.828125 -3.703125 1.828125 -3.265625 L 1.828125 0 Z M 0.78125 0 "/>
</g>
<g id="glyph-0-17">
<path d="M 0.375 -1.859375 L 1.40625 -2.015625 C 1.46875 -1.597656 1.628906 -1.28125 1.890625 -1.0625 C 2.160156 -0.84375 2.539062 -0.734375 3.03125 -0.734375 C 3.507812 -0.734375 3.863281 -0.828125 4.09375 -1.015625 C 4.332031 -1.210938 4.453125 -1.445312 4.453125 -1.71875 C 4.453125 -1.957031 4.347656 -2.144531 4.140625 -2.28125 C 3.992188 -2.375 3.632812 -2.492188 3.0625 -2.640625 C 2.289062 -2.835938 1.753906 -3.003906 1.453125 -3.140625 C 1.160156 -3.285156 0.9375 -3.484375 0.78125 -3.734375 C 0.625 -3.984375 0.546875 -4.265625 0.546875 -4.578125 C 0.546875 -4.847656 0.609375 -5.101562 0.734375 -5.34375 C 0.859375 -5.582031 1.03125 -5.78125 1.25 -5.9375 C 1.414062 -6.050781 1.640625 -6.148438 1.921875 -6.234375 C 2.203125 -6.316406 2.507812 -6.359375 2.84375 -6.359375 C 3.320312 -6.359375 3.742188 -6.285156 4.109375 -6.140625 C 4.484375 -6.003906 4.757812 -5.816406 4.9375 -5.578125 C 5.113281 -5.335938 5.234375 -5.019531 5.296875 -4.625 L 4.265625 -4.484375 C 4.222656 -4.796875 4.085938 -5.039062 3.859375 -5.21875 C 3.640625 -5.40625 3.320312 -5.5 2.90625 -5.5 C 2.425781 -5.5 2.082031 -5.414062 1.875 -5.25 C 1.664062 -5.09375 1.5625 -4.90625 1.5625 -4.6875 C 1.5625 -4.550781 1.601562 -4.429688 1.6875 -4.328125 C 1.78125 -4.210938 1.914062 -4.117188 2.09375 -4.046875 C 2.195312 -4.003906 2.507812 -3.914062 3.03125 -3.78125 C 3.78125 -3.570312 4.300781 -3.40625 4.59375 -3.28125 C 4.882812 -3.15625 5.113281 -2.972656 5.28125 -2.734375 C 5.445312 -2.492188 5.53125 -2.191406 5.53125 -1.828125 C 5.53125 -1.472656 5.425781 -1.140625 5.21875 -0.828125 C 5.019531 -0.523438 4.726562 -0.285156 4.34375 -0.109375 C 3.957031 0.0546875 3.519531 0.140625 3.03125 0.140625 C 2.21875 0.140625 1.597656 -0.0234375 1.171875 -0.359375 C 0.753906 -0.703125 0.488281 -1.203125 0.375 -1.859375 Z M 0.375 -1.859375 "/>
</g>
<g id="glyph-0-18">
</g>
<g id="glyph-0-19">
<path d="M 4.828125 0 L 4.828125 -0.78125 C 4.429688 -0.164062 3.851562 0.140625 3.09375 0.140625 C 2.59375 0.140625 2.132812 0.00390625 1.71875 -0.265625 C 1.300781 -0.546875 0.976562 -0.929688 0.75 -1.421875 C 0.519531 -1.910156 0.40625 -2.472656 0.40625 -3.109375 C 0.40625 -3.722656 0.507812 -4.285156 0.71875 -4.796875 C 0.925781 -5.304688 1.238281 -5.691406 1.65625 -5.953125 C 2.070312 -6.222656 2.535156 -6.359375 3.046875 -6.359375 C 3.421875 -6.359375 3.753906 -6.28125 4.046875 -6.125 C 4.335938 -5.96875 4.578125 -5.765625 4.765625 -5.515625 L 4.765625 -8.59375 L 5.8125 -8.59375 L 5.8125 0 Z M 1.5 -3.109375 C 1.5 -2.304688 1.664062 -1.707031 2 -1.3125 C 2.332031 -0.925781 2.726562 -0.734375 3.1875 -0.734375 C 3.644531 -0.734375 4.035156 -0.921875 4.359375 -1.296875 C 4.679688 -1.671875 4.84375 -2.242188 4.84375 -3.015625 C 4.84375 -3.867188 4.675781 -4.492188 4.34375 -4.890625 C 4.019531 -5.285156 3.617188 -5.484375 3.140625 -5.484375 C 2.671875 -5.484375 2.28125 -5.289062 1.96875 -4.90625 C 1.65625 -4.53125 1.5 -3.929688 1.5 -3.109375 Z M 1.5 -3.109375 "/>
</g>
<g id="glyph-0-20">
<path d="M 5.046875 -2 L 6.140625 -1.875 C 5.972656 -1.238281 5.65625 -0.742188 5.1875 -0.390625 C 4.71875 -0.0351562 4.125 0.140625 3.40625 0.140625 C 2.5 0.140625 1.773438 -0.140625 1.234375 -0.703125 C 0.703125 -1.265625 0.4375 -2.050781 0.4375 -3.0625 C 0.4375 -4.101562 0.707031 -4.910156 1.25 -5.484375 C 1.789062 -6.066406 2.488281 -6.359375 3.34375 -6.359375 C 4.175781 -6.359375 4.851562 -6.078125 5.375 -5.515625 C 5.90625 -4.953125 6.171875 -4.15625 6.171875 -3.125 C 6.171875 -3.0625 6.171875 -2.96875 6.171875 -2.84375 L 1.53125 -2.84375 C 1.570312 -2.15625 1.765625 -1.628906 2.109375 -1.265625 C 2.453125 -0.910156 2.882812 -0.734375 3.40625 -0.734375 C 3.789062 -0.734375 4.117188 -0.832031 4.390625 -1.03125 C 4.671875 -1.238281 4.890625 -1.5625 5.046875 -2 Z M 1.59375 -3.703125 L 5.0625 -3.703125 C 5.019531 -4.234375 4.890625 -4.628906 4.671875 -4.890625 C 4.328125 -5.296875 3.890625 -5.5 3.359375 -5.5 C 2.867188 -5.5 2.457031 -5.335938 2.125 -5.015625 C 1.800781 -4.691406 1.625 -4.253906 1.59375 -3.703125 Z M 1.59375 -3.703125 "/>
</g>
<g id="glyph-0-21">
<path d="M 0.5 -4.234375 C 0.5 -5.253906 0.601562 -6.070312 0.8125 -6.6875 C 1.019531 -7.3125 1.328125 -7.789062 1.734375 -8.125 C 2.148438 -8.457031 2.671875 -8.625 3.296875 -8.625 C 3.753906 -8.625 4.15625 -8.53125 4.5 -8.34375 C 4.851562 -8.15625 5.144531 -7.882812 5.375 -7.53125 C 5.601562 -7.1875 5.78125 -6.765625 5.90625 -6.265625 C 6.03125 -5.765625 6.09375 -5.085938 6.09375 -4.234375 C 6.09375 -3.222656 5.988281 -2.410156 5.78125 -1.796875 C 5.582031 -1.179688 5.273438 -0.703125 4.859375 -0.359375 C 4.453125 -0.0234375 3.929688 0.140625 3.296875 0.140625 C 2.472656 0.140625 1.820312 -0.15625 1.34375 -0.75 C 0.78125 -1.457031 0.5 -2.617188 0.5 -4.234375 Z M 1.578125 -4.234375 C 1.578125 -2.828125 1.742188 -1.890625 2.078125 -1.421875 C 2.410156 -0.953125 2.816406 -0.71875 3.296875 -0.71875 C 3.785156 -0.71875 4.191406 -0.953125 4.515625 -1.421875 C 4.847656 -1.890625 5.015625 -2.828125 5.015625 -4.234375 C 5.015625 -5.648438 4.847656 -6.585938 4.515625 -7.046875 C 4.191406 -7.515625 3.78125 -7.75 3.28125 -7.75 C 2.800781 -7.75 2.414062 -7.546875 2.125 -7.140625 C 1.757812 -6.617188 1.578125 -5.648438 1.578125 -4.234375 Z M 1.578125 -4.234375 "/>
</g>
<g id="glyph-0-22">
<path d="M 1.09375 0 L 1.09375 -1.203125 L 2.296875 -1.203125 L 2.296875 0 Z M 1.09375 0 "/>
</g>
<g id="glyph-1-0">
<path d="M 0.5 -3.265625 L 2.46875 -3.453125 C 2.59375 -2.796875 2.832031 -2.3125 3.1875 -2 C 3.550781 -1.6875 4.039062 -1.53125 4.65625 -1.53125 C 5.3125 -1.53125 5.800781 -1.664062 6.125 -1.9375 C 6.457031 -2.21875 6.625 -2.539062 6.625 -2.90625 C 6.625 -3.144531 6.554688 -3.347656 6.421875 -3.515625 C 6.285156 -3.679688 6.039062 -3.828125 5.6875 -3.953125 C 5.457031 -4.035156 4.921875 -4.179688 4.078125 -4.390625 C 2.992188 -4.660156 2.234375 -4.988281 1.796875 -5.375 C 1.179688 -5.925781 0.875 -6.597656 0.875 -7.390625 C 0.875 -7.898438 1.015625 -8.378906 1.296875 -8.828125 C 1.585938 -9.273438 2.003906 -9.613281 2.546875 -9.84375 C 3.097656 -10.070312 3.757812 -10.1875 4.53125 -10.1875 C 5.78125 -10.1875 6.722656 -9.910156 7.359375 -9.359375 C 7.992188 -8.804688 8.332031 -8.070312 8.375 -7.15625 L 6.34375 -7.0625 C 6.257812 -7.582031 6.070312 -7.953125 5.78125 -8.171875 C 5.5 -8.398438 5.070312 -8.515625 4.5 -8.515625 C 3.914062 -8.515625 3.457031 -8.394531 3.125 -8.15625 C 2.90625 -8 2.796875 -7.789062 2.796875 -7.53125 C 2.796875 -7.289062 2.898438 -7.085938 3.109375 -6.921875 C 3.359375 -6.710938 3.972656 -6.488281 4.953125 -6.25 C 5.941406 -6.019531 6.671875 -5.78125 7.140625 -5.53125 C 7.617188 -5.28125 7.988281 -4.941406 8.25 -4.515625 C 8.519531 -4.085938 8.65625 -3.554688 8.65625 -2.921875 C 8.65625 -2.347656 8.492188 -1.804688 8.171875 -1.296875 C 7.859375 -0.796875 7.410156 -0.425781 6.828125 -0.1875 C 6.242188 0.0507812 5.515625 0.171875 4.640625 0.171875 C 3.367188 0.171875 2.394531 -0.117188 1.71875 -0.703125 C 1.039062 -1.285156 0.632812 -2.140625 0.5 -3.265625 Z M 0.5 -3.265625 "/>
</g>
<g id="glyph-1-1">
<path d="M 0.5625 -3.734375 C 0.5625 -4.367188 0.71875 -4.984375 1.03125 -5.578125 C 1.34375 -6.179688 1.785156 -6.640625 2.359375 -6.953125 C 2.941406 -7.265625 3.585938 -7.421875 4.296875 -7.421875 C 5.398438 -7.421875 6.300781 -7.0625 7 -6.34375 C 7.695312 -5.632812 8.046875 -4.738281 8.046875 -3.65625 C 8.046875 -2.550781 7.691406 -1.632812 6.984375 -0.90625 C 6.273438 -0.1875 5.382812 0.171875 4.3125 0.171875 C 3.644531 0.171875 3.007812 0.0195312 2.40625 -0.28125 C 1.800781 -0.582031 1.34375 -1.023438 1.03125 -1.609375 C 0.71875 -2.191406 0.5625 -2.898438 0.5625 -3.734375 Z M 2.53125 -3.625 C 2.53125 -2.90625 2.703125 -2.351562 3.046875 -1.96875 C 3.390625 -1.59375 3.8125 -1.40625 4.3125 -1.40625 C 4.8125 -1.40625 5.226562 -1.59375 5.5625 -1.96875 C 5.90625 -2.351562 6.078125 -2.910156 6.078125 -3.640625 C 6.078125 -4.347656 5.90625 -4.894531 5.5625 -5.28125 C 5.226562 -5.664062 4.8125 -5.859375 4.3125 -5.859375 C 3.8125 -5.859375 3.390625 -5.664062 3.046875 -5.28125 C 2.703125 -4.894531 2.53125 -4.34375 2.53125 -3.625 Z M 2.53125 -3.625 "/>
</g>
<g id="glyph-1-2">
<path d="M 0.921875 0 L 0.921875 -10.015625 L 2.84375 -10.015625 L 2.84375 -6.40625 C 3.4375 -7.082031 4.140625 -7.421875 4.953125 -7.421875 C 5.835938 -7.421875 6.566406 -7.097656 7.140625 -6.453125 C 7.722656 -5.816406 8.015625 -4.898438 8.015625 -3.703125 C 8.015625 -2.460938 7.71875 -1.503906 7.125 -0.828125 C 6.53125 -0.160156 5.816406 0.171875 4.984375 0.171875 C 4.566406 0.171875 4.15625 0.0664062 3.75 -0.140625 C 3.34375 -0.347656 2.992188 -0.65625 2.703125 -1.0625 L 2.703125 0 Z M 2.828125 -3.78125 C 2.828125 -3.03125 2.945312 -2.476562 3.1875 -2.125 C 3.519531 -1.613281 3.960938 -1.359375 4.515625 -1.359375 C 4.929688 -1.359375 5.289062 -1.535156 5.59375 -1.890625 C 5.894531 -2.253906 6.046875 -2.828125 6.046875 -3.609375 C 6.046875 -4.441406 5.894531 -5.039062 5.59375 -5.40625 C 5.289062 -5.769531 4.90625 -5.953125 4.4375 -5.953125 C 3.976562 -5.953125 3.59375 -5.769531 3.28125 -5.40625 C 2.976562 -5.050781 2.828125 -4.507812 2.828125 -3.78125 Z M 2.828125 -3.78125 "/>
</g>
<g id="glyph-1-3">
<path d="M 1 0 L 1 -10.015625 L 2.921875 -10.015625 L 2.921875 0 Z M 1 0 "/>
</g>
<g id="glyph-1-4">
<path d="M 0.984375 -6.453125 L 0.625 -8.328125 L 0.625 -10.015625 L 2.71875 -10.015625 L 2.71875 -8.328125 L 2.40625 -6.453125 Z M 0.984375 -6.453125 "/>
</g>
<g id="glyph-1-5">
</g>
<g id="glyph-1-6">
<path d="M 0.953125 0 L 0.953125 -10.015625 L 2.984375 -10.015625 L 2.984375 0 Z M 0.953125 0 "/>
</g>
<g id="glyph-1-7">
<path d="M 7.609375 0 L 5.6875 0 L 5.6875 -3.703125 C 5.6875 -4.484375 5.644531 -4.988281 5.5625 -5.21875 C 5.476562 -5.457031 5.34375 -5.640625 5.15625 -5.765625 C 4.976562 -5.890625 4.757812 -5.953125 4.5 -5.953125 C 4.164062 -5.953125 3.863281 -5.859375 3.59375 -5.671875 C 3.332031 -5.492188 3.148438 -5.253906 3.046875 -4.953125 C 2.953125 -4.648438 2.90625 -4.09375 2.90625 -3.28125 L 2.90625 0 L 0.984375 0 L 0.984375 -7.265625 L 2.78125 -7.265625 L 2.78125 -6.1875 C 3.40625 -7.007812 4.203125 -7.421875 5.171875 -7.421875 C 5.585938 -7.421875 5.972656 -7.34375 6.328125 -7.1875 C 6.679688 -7.039062 6.945312 -6.847656 7.125 -6.609375 C 7.300781 -6.367188 7.425781 -6.097656 7.5 -5.796875 C 7.570312 -5.503906 7.609375 -5.078125 7.609375 -4.515625 Z M 7.609375 0 "/>
</g>
<g id="glyph-1-8">
<path d="M 7.65625 0 L 5.875 0 L 5.875 -1.0625 C 5.582031 -0.644531 5.234375 -0.332031 4.828125 -0.125 C 4.421875 0.0703125 4.015625 0.171875 3.609375 0.171875 C 2.773438 0.171875 2.0625 -0.164062 1.46875 -0.84375 C 0.875 -1.519531 0.578125 -2.457031 0.578125 -3.65625 C 0.578125 -4.882812 0.863281 -5.816406 1.4375 -6.453125 C 2.019531 -7.097656 2.753906 -7.421875 3.640625 -7.421875 C 4.453125 -7.421875 5.15625 -7.082031 5.75 -6.40625 L 5.75 -10.015625 L 7.65625 -10.015625 Z M 2.53125 -3.78125 C 2.53125 -3.007812 2.640625 -2.453125 2.859375 -2.109375 C 3.171875 -1.609375 3.601562 -1.359375 4.15625 -1.359375 C 4.59375 -1.359375 4.96875 -1.546875 5.28125 -1.921875 C 5.59375 -2.296875 5.75 -2.859375 5.75 -3.609375 C 5.75 -4.441406 5.597656 -5.039062 5.296875 -5.40625 C 4.992188 -5.769531 4.609375 -5.953125 4.140625 -5.953125 C 3.679688 -5.953125 3.296875 -5.769531 2.984375 -5.40625 C 2.679688 -5.050781 2.53125 -4.507812 2.53125 -3.78125 Z M 2.53125 -3.78125 "/>
</g>
<g id="glyph-1-9">
<path d="M 1 -8.25 L 1 -10.015625 L 2.921875 -10.015625 L 2.921875 -8.25 Z M 1 0 L 1 -7.265625 L 2.921875 -7.265625 L 2.921875 0 Z M 1 0 "/>
</g>
<g id="glyph-1-10">
<path d="M 7.328125 -5.109375 L 5.4375 -4.765625 C 5.375 -5.148438 5.226562 -5.4375 5 -5.625 C 4.78125 -5.8125 4.488281 -5.90625 4.125 -5.90625 C 3.644531 -5.90625 3.265625 -5.738281 2.984375 -5.40625 C 2.703125 -5.082031 2.5625 -4.535156 2.5625 -3.765625 C 2.5625 -2.898438 2.703125 -2.289062 2.984375 -1.9375 C 3.273438 -1.582031 3.664062 -1.40625 4.15625 -1.40625 C 4.519531 -1.40625 4.816406 -1.507812 5.046875 -1.71875 C 5.285156 -1.925781 5.453125 -2.28125 5.546875 -2.78125 L 7.4375 -2.46875 C 7.238281 -1.59375 6.859375 -0.929688 6.296875 -0.484375 C 5.742188 -0.046875 5 0.171875 4.0625 0.171875 C 3 0.171875 2.148438 -0.160156 1.515625 -0.828125 C 0.890625 -1.503906 0.578125 -2.4375 0.578125 -3.625 C 0.578125 -4.820312 0.894531 -5.753906 1.53125 -6.421875 C 2.164062 -7.085938 3.023438 -7.421875 4.109375 -7.421875 C 4.984375 -7.421875 5.679688 -7.226562 6.203125 -6.84375 C 6.734375 -6.46875 7.109375 -5.890625 7.328125 -5.109375 Z M 7.328125 -5.109375 "/>
</g>
<g id="glyph-1-11">
<path d="M 5.203125 -2.3125 L 7.125 -1.984375 C 6.875 -1.285156 6.484375 -0.75 5.953125 -0.375 C 5.421875 -0.0078125 4.757812 0.171875 3.96875 0.171875 C 2.707031 0.171875 1.769531 -0.242188 1.15625 -1.078125 C 0.675781 -1.734375 0.4375 -2.566406 0.4375 -3.578125 C 0.4375 -4.773438 0.75 -5.710938 1.375 -6.390625 C 2.007812 -7.078125 2.8125 -7.421875 3.78125 -7.421875 C 4.851562 -7.421875 5.703125 -7.0625 6.328125 -6.34375 C 6.953125 -5.632812 7.25 -4.546875 7.21875 -3.078125 L 2.40625 -3.078125 C 2.425781 -2.503906 2.582031 -2.054688 2.875 -1.734375 C 3.175781 -1.421875 3.546875 -1.265625 3.984375 -1.265625 C 4.285156 -1.265625 4.535156 -1.347656 4.734375 -1.515625 C 4.941406 -1.679688 5.097656 -1.945312 5.203125 -2.3125 Z M 5.3125 -4.25 C 5.300781 -4.8125 5.160156 -5.234375 4.890625 -5.515625 C 4.617188 -5.804688 4.285156 -5.953125 3.890625 -5.953125 C 3.472656 -5.953125 3.125 -5.800781 2.84375 -5.5 C 2.570312 -5.1875 2.441406 -4.769531 2.453125 -4.25 Z M 5.3125 -4.25 "/>
</g>
<g id="glyph-1-12">
<path d="M 0.328125 -2.078125 L 2.25 -2.359375 C 2.332031 -1.992188 2.5 -1.710938 2.75 -1.515625 C 3 -1.316406 3.351562 -1.21875 3.8125 -1.21875 C 4.300781 -1.21875 4.671875 -1.3125 4.921875 -1.5 C 5.097656 -1.625 5.1875 -1.796875 5.1875 -2.015625 C 5.1875 -2.160156 5.140625 -2.28125 5.046875 -2.375 C 4.953125 -2.46875 4.738281 -2.550781 4.40625 -2.625 C 2.851562 -2.96875 1.867188 -3.28125 1.453125 -3.5625 C 0.878906 -3.957031 0.59375 -4.503906 0.59375 -5.203125 C 0.59375 -5.828125 0.835938 -6.351562 1.328125 -6.78125 C 1.828125 -7.207031 2.601562 -7.421875 3.65625 -7.421875 C 4.644531 -7.421875 5.378906 -7.257812 5.859375 -6.9375 C 6.347656 -6.613281 6.679688 -6.132812 6.859375 -5.5 L 5.046875 -5.171875 C 4.972656 -5.453125 4.828125 -5.664062 4.609375 -5.8125 C 4.390625 -5.96875 4.082031 -6.046875 3.6875 -6.046875 C 3.175781 -6.046875 2.8125 -5.972656 2.59375 -5.828125 C 2.445312 -5.734375 2.375 -5.601562 2.375 -5.4375 C 2.375 -5.300781 2.441406 -5.1875 2.578125 -5.09375 C 2.742188 -4.96875 3.335938 -4.785156 4.359375 -4.546875 C 5.390625 -4.316406 6.109375 -4.035156 6.515625 -3.703125 C 6.910156 -3.359375 7.109375 -2.878906 7.109375 -2.265625 C 7.109375 -1.597656 6.828125 -1.023438 6.265625 -0.546875 C 5.710938 -0.0664062 4.894531 0.171875 3.8125 0.171875 C 2.820312 0.171875 2.035156 -0.03125 1.453125 -0.4375 C 0.878906 -0.84375 0.503906 -1.390625 0.328125 -2.078125 Z M 0.328125 -2.078125 "/>
</g>
<g id="glyph-1-13">
<path d="M 0.984375 0 L 0.984375 -10.015625 L 4.015625 -10.015625 L 5.84375 -3.1875 L 7.640625 -10.015625 L 10.671875 -10.015625 L 10.671875 0 L 8.796875 0 L 8.796875 -7.890625 L 6.796875 0 L 4.859375 0 L 2.875 -7.890625 L 2.875 0 Z M 0.984375 0 "/>
</g>
<g id="glyph-1-14">
<path d="M 2.4375 -5.046875 L 0.703125 -5.359375 C 0.890625 -6.054688 1.222656 -6.570312 1.703125 -6.90625 C 2.179688 -7.25 2.894531 -7.421875 3.84375 -7.421875 C 4.695312 -7.421875 5.332031 -7.316406 5.75 -7.109375 C 6.175781 -6.910156 6.472656 -6.65625 6.640625 -6.34375 C 6.804688 -6.03125 6.890625 -5.457031 6.890625 -4.625 L 6.875 -2.390625 C 6.875 -1.742188 6.90625 -1.269531 6.96875 -0.96875 C 7.03125 -0.664062 7.144531 -0.34375 7.3125 0 L 5.421875 0 C 5.367188 -0.125 5.304688 -0.3125 5.234375 -0.5625 C 5.203125 -0.675781 5.175781 -0.753906 5.15625 -0.796875 C 4.832031 -0.472656 4.484375 -0.226562 4.109375 -0.0625 C 3.734375 0.09375 3.332031 0.171875 2.90625 0.171875 C 2.164062 0.171875 1.578125 -0.03125 1.140625 -0.4375 C 0.710938 -0.84375 0.5 -1.359375 0.5 -1.984375 C 0.5 -2.390625 0.597656 -2.753906 0.796875 -3.078125 C 0.992188 -3.398438 1.265625 -3.644531 1.609375 -3.8125 C 1.960938 -3.988281 2.472656 -4.140625 3.140625 -4.265625 C 4.035156 -4.429688 4.660156 -4.585938 5.015625 -4.734375 L 5.015625 -4.921875 C 5.015625 -5.296875 4.921875 -5.5625 4.734375 -5.71875 C 4.554688 -5.875 4.210938 -5.953125 3.703125 -5.953125 C 3.359375 -5.953125 3.09375 -5.882812 2.90625 -5.75 C 2.71875 -5.613281 2.5625 -5.378906 2.4375 -5.046875 Z M 5.015625 -3.484375 C 4.765625 -3.398438 4.375 -3.300781 3.84375 -3.1875 C 3.3125 -3.070312 2.960938 -2.960938 2.796875 -2.859375 C 2.546875 -2.679688 2.421875 -2.457031 2.421875 -2.1875 C 2.421875 -1.914062 2.519531 -1.679688 2.71875 -1.484375 C 2.914062 -1.285156 3.171875 -1.1875 3.484375 -1.1875 C 3.828125 -1.1875 4.160156 -1.300781 4.484375 -1.53125 C 4.710938 -1.707031 4.863281 -1.921875 4.9375 -2.171875 C 4.988281 -2.328125 5.015625 -2.640625 5.015625 -3.109375 Z M 5.015625 -3.484375 "/>
</g>
<g id="glyph-1-15">
<path d="M 1.015625 0 L 1.015625 -10.015625 L 8.453125 -10.015625 L 8.453125 -8.328125 L 3.046875 -8.328125 L 3.046875 -6.109375 L 8.078125 -6.109375 L 8.078125 -4.421875 L 3.046875 -4.421875 L 3.046875 -1.6875 L 8.640625 -1.6875 L 8.640625 0 Z M 1.015625 0 "/>
</g>
<g id="glyph-1-16">
<path d="M 0.171875 -7.265625 L 1.234375 -7.265625 L 1.234375 -7.8125 C 1.234375 -8.414062 1.296875 -8.867188 1.421875 -9.171875 C 1.554688 -9.472656 1.796875 -9.71875 2.140625 -9.90625 C 2.492188 -10.09375 2.9375 -10.1875 3.46875 -10.1875 C 4.007812 -10.1875 4.546875 -10.109375 5.078125 -9.953125 L 4.8125 -8.609375 C 4.507812 -8.679688 4.21875 -8.71875 3.9375 -8.71875 C 3.65625 -8.71875 3.453125 -8.648438 3.328125 -8.515625 C 3.210938 -8.390625 3.15625 -8.140625 3.15625 -7.765625 L 3.15625 -7.265625 L 4.59375 -7.265625 L 4.59375 -5.75 L 3.15625 -5.75 L 3.15625 0 L 1.234375 0 L 1.234375 -5.75 L 0.171875 -5.75 Z M 0.171875 -7.265625 "/>
</g>
<g id="glyph-1-17">
<path d="M 4.328125 -7.265625 L 4.328125 -5.734375 L 3.015625 -5.734375 L 3.015625 -2.796875 C 3.015625 -2.210938 3.023438 -1.867188 3.046875 -1.765625 C 3.078125 -1.671875 3.132812 -1.585938 3.21875 -1.515625 C 3.3125 -1.453125 3.425781 -1.421875 3.5625 -1.421875 C 3.738281 -1.421875 3.992188 -1.484375 4.328125 -1.609375 L 4.484375 -0.125 C 4.046875 0.0703125 3.539062 0.171875 2.96875 0.171875 C 2.625 0.171875 2.3125 0.113281 2.03125 0 C 1.757812 -0.125 1.554688 -0.273438 1.421875 -0.453125 C 1.296875 -0.640625 1.207031 -0.890625 1.15625 -1.203125 C 1.113281 -1.429688 1.09375 -1.882812 1.09375 -2.5625 L 1.09375 -5.734375 L 0.21875 -5.734375 L 0.21875 -7.265625 L 1.09375 -7.265625 L 1.09375 -8.703125 L 3.015625 -9.828125 L 3.015625 -7.265625 Z M 4.328125 -7.265625 "/>
</g>
<g id="glyph-1-18">
<path d="M 1.015625 0 L 1.015625 -10.015625 L 4.265625 -10.015625 C 5.492188 -10.015625 6.296875 -9.96875 6.671875 -9.875 C 7.242188 -9.71875 7.722656 -9.390625 8.109375 -8.890625 C 8.503906 -8.390625 8.703125 -7.738281 8.703125 -6.9375 C 8.703125 -6.320312 8.585938 -5.804688 8.359375 -5.390625 C 8.140625 -4.972656 7.859375 -4.644531 7.515625 -4.40625 C 7.171875 -4.164062 6.816406 -4.003906 6.453125 -3.921875 C 5.972656 -3.828125 5.273438 -3.78125 4.359375 -3.78125 L 3.046875 -3.78125 L 3.046875 0 Z M 3.046875 -8.328125 L 3.046875 -5.484375 L 4.15625 -5.484375 C 4.945312 -5.484375 5.476562 -5.535156 5.75 -5.640625 C 6.019531 -5.742188 6.226562 -5.90625 6.375 -6.125 C 6.53125 -6.351562 6.609375 -6.613281 6.609375 -6.90625 C 6.609375 -7.269531 6.5 -7.570312 6.28125 -7.8125 C 6.070312 -8.050781 5.800781 -8.203125 5.46875 -8.265625 C 5.226562 -8.304688 4.742188 -8.328125 4.015625 -8.328125 Z M 3.046875 -8.328125 "/>
</g>
<g id="glyph-2-0">
<path d="M 0 -3.109375 L -7.578125 -3.109375 L -7.578125 -0.28125 L -8.59375 -0.28125 L -8.59375 -7.09375 L -7.578125 -7.09375 L -7.578125 -4.25 L 0 -4.25 Z M 0 -3.109375 "/>
</g>
<g id="glyph-2-1">
<path d="M -3.109375 -0.40625 C -4.265625 -0.40625 -5.117188 -0.722656 -5.671875 -1.359375 C -6.128906 -1.890625 -6.359375 -2.539062 -6.359375 -3.3125 C -6.359375 -4.164062 -6.078125 -4.863281 -5.515625 -5.40625 C -4.960938 -5.957031 -4.191406 -6.234375 -3.203125 -6.234375 C -2.398438 -6.234375 -1.769531 -6.113281 -1.3125 -5.875 C -0.851562 -5.632812 -0.492188 -5.28125 -0.234375 -4.8125 C 0.015625 -4.351562 0.140625 -3.851562 0.140625 -3.3125 C 0.140625 -2.445312 -0.132812 -1.742188 -0.6875 -1.203125 C -1.25 -0.671875 -2.054688 -0.40625 -3.109375 -0.40625 Z M -3.109375 -1.484375 C -2.316406 -1.484375 -1.722656 -1.65625 -1.328125 -2 C -0.929688 -2.351562 -0.734375 -2.789062 -0.734375 -3.3125 C -0.734375 -3.84375 -0.929688 -4.28125 -1.328125 -4.625 C -1.722656 -4.96875 -2.328125 -5.140625 -3.140625 -5.140625 C -3.910156 -5.140625 -4.492188 -4.960938 -4.890625 -4.609375 C -5.285156 -4.265625 -5.484375 -3.832031 -5.484375 -3.3125 C -5.484375 -2.789062 -5.285156 -2.351562 -4.890625 -2 C -4.503906 -1.65625 -3.910156 -1.484375 -3.109375 -1.484375 Z M -3.109375 -1.484375 "/>
</g>
<g id="glyph-2-2">
<path d="M -0.9375 -3.09375 L -0.015625 -3.25 C 0.046875 -2.945312 0.078125 -2.679688 0.078125 -2.453125 C 0.078125 -2.066406 0.0195312 -1.769531 -0.09375 -1.5625 C -0.21875 -1.351562 -0.378906 -1.203125 -0.578125 -1.109375 C -0.773438 -1.023438 -1.191406 -0.984375 -1.828125 -0.984375 L -5.40625 -0.984375 L -5.40625 -0.21875 L -6.21875 -0.21875 L -6.21875 -0.984375 L -7.765625 -0.984375 L -8.390625 -2.03125 L -6.21875 -2.03125 L -6.21875 -3.09375 L -5.40625 -3.09375 L -5.40625 -2.03125 L -1.765625 -2.03125 C -1.460938 -2.03125 -1.269531 -2.046875 -1.1875 -2.078125 C -1.101562 -2.117188 -1.035156 -2.179688 -0.984375 -2.265625 C -0.929688 -2.347656 -0.90625 -2.46875 -0.90625 -2.625 C -0.90625 -2.75 -0.914062 -2.90625 -0.9375 -3.09375 Z M -0.9375 -3.09375 "/>
</g>
<g id="glyph-2-3">
<path d="M -0.765625 -4.859375 C -0.429688 -4.460938 -0.195312 -4.082031 -0.0625 -3.71875 C 0.0703125 -3.363281 0.140625 -2.976562 0.140625 -2.5625 C 0.140625 -1.875 -0.0234375 -1.347656 -0.359375 -0.984375 C -0.691406 -0.617188 -1.117188 -0.4375 -1.640625 -0.4375 C -1.941406 -0.4375 -2.21875 -0.503906 -2.46875 -0.640625 C -2.726562 -0.773438 -2.929688 -0.957031 -3.078125 -1.1875 C -3.234375 -1.414062 -3.347656 -1.671875 -3.421875 -1.953125 C -3.484375 -2.148438 -3.539062 -2.460938 -3.59375 -2.890625 C -3.6875 -3.734375 -3.804688 -4.359375 -3.953125 -4.765625 C -4.097656 -4.765625 -4.1875 -4.765625 -4.21875 -4.765625 C -4.65625 -4.765625 -4.960938 -4.664062 -5.140625 -4.46875 C -5.367188 -4.195312 -5.484375 -3.796875 -5.484375 -3.265625 C -5.484375 -2.773438 -5.394531 -2.410156 -5.21875 -2.171875 C -5.050781 -1.929688 -4.75 -1.753906 -4.3125 -1.640625 L -4.453125 -0.609375 C -4.890625 -0.703125 -5.242188 -0.859375 -5.515625 -1.078125 C -5.785156 -1.296875 -5.992188 -1.609375 -6.140625 -2.015625 C -6.285156 -2.421875 -6.359375 -2.890625 -6.359375 -3.421875 C -6.359375 -3.953125 -6.296875 -4.382812 -6.171875 -4.71875 C -6.046875 -5.050781 -5.890625 -5.296875 -5.703125 -5.453125 C -5.515625 -5.609375 -5.273438 -5.71875 -4.984375 -5.78125 C -4.804688 -5.8125 -4.484375 -5.828125 -4.015625 -5.828125 L -2.609375 -5.828125 C -1.628906 -5.828125 -1.007812 -5.847656 -0.75 -5.890625 C -0.488281 -5.941406 -0.238281 -6.035156 0 -6.171875 L 0 -5.0625 C -0.21875 -4.957031 -0.472656 -4.890625 -0.765625 -4.859375 Z M -3.125 -4.765625 C -2.96875 -4.378906 -2.832031 -3.804688 -2.71875 -3.046875 C -2.65625 -2.609375 -2.582031 -2.300781 -2.5 -2.125 C -2.425781 -1.945312 -2.316406 -1.804688 -2.171875 -1.703125 C -2.023438 -1.609375 -1.859375 -1.5625 -1.671875 -1.5625 C -1.390625 -1.5625 -1.15625 -1.664062 -0.96875 -1.875 C -0.78125 -2.09375 -0.6875 -2.40625 -0.6875 -2.8125 C -0.6875 -3.21875 -0.773438 -3.578125 -0.953125 -3.890625 C -1.128906 -4.210938 -1.375 -4.445312 -1.6875 -4.59375 C -1.925781 -4.707031 -2.273438 -4.765625 -2.734375 -4.765625 Z M -3.125 -4.765625 "/>
</g>
<g id="glyph-2-4">
<path d="M 0 -0.765625 L -8.59375 -0.765625 L -8.59375 -1.828125 L 0 -1.828125 Z M 0 -0.765625 "/>
</g>
<g id="glyph-2-5">
</g>
<g id="glyph-2-6">
<path d="M -2.765625 -0.546875 L -2.859375 -1.609375 C -2.421875 -1.660156 -2.066406 -1.78125 -1.796875 -1.96875 C -1.523438 -2.15625 -1.300781 -2.441406 -1.125 -2.828125 C -0.957031 -3.222656 -0.875 -3.664062 -0.875 -4.15625 C -0.875 -4.582031 -0.9375 -4.960938 -1.0625 -5.296875 C -1.195312 -5.628906 -1.375 -5.875 -1.59375 -6.03125 C -1.820312 -6.195312 -2.066406 -6.28125 -2.328125 -6.28125 C -2.597656 -6.28125 -2.832031 -6.203125 -3.03125 -6.046875 C -3.238281 -5.890625 -3.410156 -5.632812 -3.546875 -5.28125 C -3.640625 -5.039062 -3.78125 -4.523438 -3.96875 -3.734375 C -4.15625 -2.953125 -4.332031 -2.40625 -4.5 -2.09375 C -4.71875 -1.675781 -4.984375 -1.367188 -5.296875 -1.171875 C -5.617188 -0.972656 -5.976562 -0.875 -6.375 -0.875 C -6.800781 -0.875 -7.203125 -0.992188 -7.578125 -1.234375 C -7.960938 -1.484375 -8.25 -1.84375 -8.4375 -2.3125 C -8.632812 -2.789062 -8.734375 -3.316406 -8.734375 -3.890625 C -8.734375 -4.523438 -8.628906 -5.085938 -8.421875 -5.578125 C -8.222656 -6.066406 -7.921875 -6.441406 -7.515625 -6.703125 C -7.117188 -6.960938 -6.671875 -7.101562 -6.171875 -7.125 L -6.09375 -6.03125 C -6.632812 -5.96875 -7.039062 -5.765625 -7.3125 -5.421875 C -7.59375 -5.085938 -7.734375 -4.59375 -7.734375 -3.9375 C -7.734375 -3.25 -7.609375 -2.75 -7.359375 -2.4375 C -7.109375 -2.125 -6.804688 -1.96875 -6.453125 -1.96875 C -6.140625 -1.96875 -5.882812 -2.078125 -5.6875 -2.296875 C -5.488281 -2.515625 -5.285156 -3.082031 -5.078125 -4 C -4.867188 -4.925781 -4.6875 -5.5625 -4.53125 -5.90625 C -4.289062 -6.40625 -3.992188 -6.773438 -3.640625 -7.015625 C -3.296875 -7.253906 -2.890625 -7.375 -2.421875 -7.375 C -1.960938 -7.375 -1.53125 -7.242188 -1.125 -6.984375 C -0.726562 -6.722656 -0.414062 -6.347656 -0.1875 -5.859375 C 0.03125 -5.367188 0.140625 -4.816406 0.140625 -4.203125 C 0.140625 -3.421875 0.03125 -2.765625 -0.1875 -2.234375 C -0.414062 -1.710938 -0.757812 -1.300781 -1.21875 -1 C -1.675781 -0.707031 -2.191406 -0.554688 -2.765625 -0.546875 Z M -2.765625 -0.546875 "/>
</g>
<g id="glyph-2-7">
<path d="M 0 -1.765625 L 0 -0.78125 L -8.59375 -0.78125 L -8.59375 -1.84375 L -5.53125 -1.84375 C -6.082031 -2.289062 -6.359375 -2.859375 -6.359375 -3.546875 C -6.359375 -3.929688 -6.28125 -4.289062 -6.125 -4.625 C -5.976562 -4.96875 -5.765625 -5.25 -5.484375 -5.46875 C -5.203125 -5.695312 -4.863281 -5.875 -4.46875 -6 C -4.070312 -6.125 -3.648438 -6.1875 -3.203125 -6.1875 C -2.140625 -6.1875 -1.316406 -5.921875 -0.734375 -5.390625 C -0.148438 -4.859375 0.140625 -4.226562 0.140625 -3.5 C 0.140625 -2.757812 -0.164062 -2.179688 -0.78125 -1.765625 Z M -3.15625 -1.75 C -2.414062 -1.75 -1.878906 -1.851562 -1.546875 -2.0625 C -1.003906 -2.394531 -0.734375 -2.84375 -0.734375 -3.40625 C -0.734375 -3.863281 -0.929688 -4.257812 -1.328125 -4.59375 C -1.722656 -4.9375 -2.320312 -5.109375 -3.125 -5.109375 C -3.9375 -5.109375 -4.535156 -4.945312 -4.921875 -4.625 C -5.304688 -4.300781 -5.5 -3.910156 -5.5 -3.453125 C -5.5 -2.992188 -5.296875 -2.59375 -4.890625 -2.25 C -4.492188 -1.914062 -3.914062 -1.75 -3.15625 -1.75 Z M -3.15625 -1.75 "/>
</g>
<g id="glyph-2-8">
<path d="M -5.546875 -0.796875 L -7.15625 -0.53125 L -8.59375 -0.53125 L -8.59375 -1.734375 L -7.15625 -1.734375 L -5.546875 -1.453125 Z M -5.546875 -0.796875 "/>
</g>
<g id="glyph-2-9">
<path d="M 0 -1.125 L -8.59375 -1.125 L -8.59375 -2.25 L 0 -2.25 Z M 0 -1.125 "/>
</g>
<g id="glyph-2-10">
<path d="M 0 -0.796875 L -6.21875 -0.796875 L -6.21875 -1.734375 L -5.34375 -1.734375 C -6.019531 -2.191406 -6.359375 -2.851562 -6.359375 -3.71875 C -6.359375 -4.09375 -6.289062 -4.4375 -6.15625 -4.75 C -6.019531 -5.070312 -5.84375 -5.3125 -5.625 -5.46875 C -5.40625 -5.625 -5.148438 -5.734375 -4.859375 -5.796875 C -4.660156 -5.828125 -4.316406 -5.84375 -3.828125 -5.84375 L 0 -5.84375 L 0 -4.796875 L -3.78125 -4.796875 C -4.21875 -4.796875 -4.539062 -4.753906 -4.75 -4.671875 C -4.957031 -4.585938 -5.125 -4.441406 -5.25 -4.234375 C -5.382812 -4.023438 -5.453125 -3.78125 -5.453125 -3.5 C -5.453125 -3.050781 -5.304688 -2.660156 -5.015625 -2.328125 C -4.734375 -2.003906 -4.195312 -1.84375 -3.40625 -1.84375 L 0 -1.84375 Z M 0 -0.796875 "/>
</g>
<g id="glyph-2-11">
<path d="M 0 -4.828125 L -0.78125 -4.828125 C -0.164062 -4.429688 0.140625 -3.851562 0.140625 -3.09375 C 0.140625 -2.59375 0.00390625 -2.132812 -0.265625 -1.71875 C -0.546875 -1.300781 -0.929688 -0.976562 -1.421875 -0.75 C -1.910156 -0.519531 -2.472656 -0.40625 -3.109375 -0.40625 C -3.722656 -0.40625 -4.285156 -0.507812 -4.796875 -0.71875 C -5.304688 -0.925781 -5.691406 -1.238281 -5.953125 -1.65625 C -6.222656 -2.070312 -6.359375 -2.535156 -6.359375 -3.046875 C -6.359375 -3.421875 -6.28125 -3.753906 -6.125 -4.046875 C -5.96875 -4.335938 -5.765625 -4.578125 -5.515625 -4.765625 L -8.59375 -4.765625 L -8.59375 -5.8125 L 0 -5.8125 Z M -3.109375 -1.5 C -2.304688 -1.5 -1.707031 -1.664062 -1.3125 -2 C -0.925781 -2.332031 -0.734375 -2.726562 -0.734375 -3.1875 C -0.734375 -3.644531 -0.921875 -4.035156 -1.296875 -4.359375 C -1.671875 -4.679688 -2.242188 -4.84375 -3.015625 -4.84375 C -3.867188 -4.84375 -4.492188 -4.675781 -4.890625 -4.34375 C -5.285156 -4.019531 -5.484375 -3.617188 -5.484375 -3.140625 C -5.484375 -2.671875 -5.289062 -2.28125 -4.90625 -1.96875 C -4.53125 -1.65625 -3.929688 -1.5 -3.109375 -1.5 Z M -3.109375 -1.5 "/>
</g>
<g id="glyph-2-12">
<path d="M -2 -5.046875 L -1.875 -6.140625 C -1.238281 -5.972656 -0.742188 -5.65625 -0.390625 -5.1875 C -0.0351562 -4.71875 0.140625 -4.125 0.140625 -3.40625 C 0.140625 -2.5 -0.140625 -1.773438 -0.703125 -1.234375 C -1.265625 -0.703125 -2.050781 -0.4375 -3.0625 -0.4375 C -4.101562 -0.4375 -4.910156 -0.707031 -5.484375 -1.25 C -6.066406 -1.789062 -6.359375 -2.488281 -6.359375 -3.34375 C -6.359375 -4.175781 -6.078125 -4.851562 -5.515625 -5.375 C -4.953125 -5.90625 -4.15625 -6.171875 -3.125 -6.171875 C -3.0625 -6.171875 -2.96875 -6.171875 -2.84375 -6.171875 L -2.84375 -1.53125 C -2.15625 -1.570312 -1.628906 -1.765625 -1.265625 -2.109375 C -0.910156 -2.453125 -0.734375 -2.882812 -0.734375 -3.40625 C -0.734375 -3.789062 -0.832031 -4.117188 -1.03125 -4.390625 C -1.238281 -4.671875 -1.5625 -4.890625 -2 -5.046875 Z M -3.703125 -1.59375 L -3.703125 -5.0625 C -4.234375 -5.019531 -4.628906 -4.890625 -4.890625 -4.671875 C -5.296875 -4.328125 -5.5 -3.890625 -5.5 -3.359375 C -5.5 -2.867188 -5.335938 -2.457031 -5.015625 -2.125 C -4.691406 -1.800781 -4.253906 -1.625 -3.703125 -1.59375 Z M -3.703125 -1.59375 "/>
</g>
<g id="glyph-2-13">
<path d="M 0 -0.09375 L -3.234375 -2.359375 L -6.21875 -0.265625 L -6.21875 -1.578125 L -4.765625 -2.53125 C -4.484375 -2.707031 -4.25 -2.851562 -4.0625 -2.96875 C -4.320312 -3.132812 -4.550781 -3.289062 -4.75 -3.4375 L -6.21875 -4.484375 L -6.21875 -5.75 L -3.296875 -3.59375 L 0 -5.90625 L 0 -4.625 L -1.9375 -3.34375 L -2.453125 -3 L 0 -1.359375 Z M 0 -0.09375 "/>
</g>
<g id="glyph-2-14">
<path d="M -4.234375 -0.5 C -5.253906 -0.5 -6.070312 -0.601562 -6.6875 -0.8125 C -7.3125 -1.019531 -7.789062 -1.328125 -8.125 -1.734375 C -8.457031 -2.148438 -8.625 -2.671875 -8.625 -3.296875 C -8.625 -3.753906 -8.53125 -4.15625 -8.34375 -4.5 C -8.15625 -4.851562 -7.882812 -5.144531 -7.53125 -5.375 C -7.1875 -5.601562 -6.765625 -5.78125 -6.265625 -5.90625 C -5.765625 -6.03125 -5.085938 -6.09375 -4.234375 -6.09375 C -3.222656 -6.09375 -2.410156 -5.988281 -1.796875 -5.78125 C -1.179688 -5.582031 -0.703125 -5.273438 -0.359375 -4.859375 C -0.0234375 -4.453125 0.140625 -3.929688 0.140625 -3.296875 C 0.140625 -2.472656 -0.15625 -1.820312 -0.75 -1.34375 C -1.457031 -0.78125 -2.617188 -0.5 -4.234375 -0.5 Z M -4.234375 -1.578125 C -2.828125 -1.578125 -1.890625 -1.742188 -1.421875 -2.078125 C -0.953125 -2.410156 -0.71875 -2.816406 -0.71875 -3.296875 C -0.71875 -3.785156 -0.953125 -4.191406 -1.421875 -4.515625 C -1.890625 -4.847656 -2.828125 -5.015625 -4.234375 -5.015625 C -5.648438 -5.015625 -6.585938 -4.847656 -7.046875 -4.515625 C -7.515625 -4.191406 -7.75 -3.78125 -7.75 -3.28125 C -7.75 -2.800781 -7.546875 -2.414062 -7.140625 -2.125 C -6.617188 -1.757812 -5.648438 -1.578125 -4.234375 -1.578125 Z M -4.234375 -1.578125 "/>
</g>
<g id="glyph-2-15">
<path d="M 0 -1.09375 L -1.203125 -1.09375 L -1.203125 -2.296875 L 0 -2.296875 Z M 0 -1.09375 "/>
</g>
<g id="glyph-2-16">
<path d="M -1.015625 -6.046875 L 0 -6.046875 L 0 -0.359375 C -0.25 -0.359375 -0.492188 -0.398438 -0.734375 -0.484375 C -1.117188 -0.628906 -1.5 -0.859375 -1.875 -1.171875 C -2.25 -1.492188 -2.679688 -1.957031 -3.171875 -2.5625 C -3.941406 -3.5 -4.550781 -4.128906 -5 -4.453125 C -5.445312 -4.785156 -5.867188 -4.953125 -6.265625 -4.953125 C -6.679688 -4.953125 -7.03125 -4.800781 -7.3125 -4.5 C -7.601562 -4.195312 -7.75 -3.804688 -7.75 -3.328125 C -7.75 -2.816406 -7.597656 -2.410156 -7.296875 -2.109375 C -6.992188 -1.804688 -6.570312 -1.648438 -6.03125 -1.640625 L -6.140625 -0.5625 C -6.953125 -0.632812 -7.566406 -0.910156 -7.984375 -1.390625 C -8.410156 -1.878906 -8.625 -2.535156 -8.625 -3.359375 C -8.625 -4.179688 -8.394531 -4.832031 -7.9375 -5.3125 C -7.476562 -5.789062 -6.910156 -6.03125 -6.234375 -6.03125 C -5.890625 -6.03125 -5.550781 -5.957031 -5.21875 -5.8125 C -4.894531 -5.675781 -4.546875 -5.441406 -4.171875 -5.109375 C -3.804688 -4.785156 -3.304688 -4.25 -2.671875 -3.5 C -2.140625 -2.863281 -1.773438 -2.453125 -1.578125 -2.265625 C -1.390625 -2.085938 -1.203125 -1.941406 -1.015625 -1.828125 Z M -1.015625 -6.046875 "/>
</g>
<g id="glyph-2-17">
<path d="M 0 -3.875 L -2.0625 -3.875 L -2.0625 -0.15625 L -3.03125 -0.15625 L -8.59375 -4.078125 L -8.59375 -4.9375 L -3.03125 -4.9375 L -3.03125 -6.09375 L -2.0625 -6.09375 L -2.0625 -4.9375 L 0 -4.9375 Z M -3.03125 -3.875 L -6.890625 -3.875 L -3.03125 -1.1875 Z M -3.03125 -3.875 "/>
</g>
<g id="glyph-2-18">
<path d="M -6.484375 -5.96875 L -6.40625 -4.921875 C -6.820312 -4.828125 -7.125 -4.695312 -7.3125 -4.53125 C -7.613281 -4.238281 -7.765625 -3.882812 -7.765625 -3.46875 C -7.765625 -3.132812 -7.671875 -2.835938 -7.484375 -2.578125 C -7.234375 -2.253906 -6.875 -1.992188 -6.40625 -1.796875 C -5.945312 -1.609375 -5.289062 -1.507812 -4.4375 -1.5 C -4.820312 -1.75 -5.109375 -2.054688 -5.296875 -2.421875 C -5.484375 -2.796875 -5.578125 -3.1875 -5.578125 -3.59375 C -5.578125 -4.289062 -5.316406 -4.882812 -4.796875 -5.375 C -4.273438 -5.875 -3.609375 -6.125 -2.796875 -6.125 C -2.253906 -6.125 -1.75 -6.003906 -1.28125 -5.765625 C -0.820312 -5.535156 -0.46875 -5.21875 -0.21875 -4.8125 C 0.0195312 -4.40625 0.140625 -3.945312 0.140625 -3.4375 C 0.140625 -2.550781 -0.179688 -1.832031 -0.828125 -1.28125 C -1.472656 -0.726562 -2.535156 -0.453125 -4.015625 -0.453125 C -5.679688 -0.453125 -6.890625 -0.757812 -7.640625 -1.375 C -8.296875 -1.90625 -8.625 -2.625 -8.625 -3.53125 C -8.625 -4.207031 -8.429688 -4.757812 -8.046875 -5.1875 C -7.671875 -5.625 -7.148438 -5.882812 -6.484375 -5.96875 Z M -2.78125 -1.671875 C -2.414062 -1.671875 -2.066406 -1.742188 -1.734375 -1.890625 C -1.410156 -2.046875 -1.160156 -2.257812 -0.984375 -2.53125 C -0.804688 -2.8125 -0.71875 -3.109375 -0.71875 -3.421875 C -0.71875 -3.859375 -0.894531 -4.238281 -1.25 -4.5625 C -1.613281 -4.882812 -2.101562 -5.046875 -2.71875 -5.046875 C -3.3125 -5.046875 -3.78125 -4.882812 -4.125 -4.5625 C -4.46875 -4.25 -4.640625 -3.851562 -4.640625 -3.375 C -4.640625 -2.894531 -4.46875 -2.488281 -4.125 -2.15625 C -3.78125 -1.832031 -3.332031 -1.671875 -2.78125 -1.671875 Z M -2.78125 -1.671875 "/>
</g>
<g id="glyph-2-19">
<path d="M -4.65625 -2.125 C -4.820312 -1.6875 -5.050781 -1.359375 -5.34375 -1.140625 C -5.644531 -0.929688 -6 -0.828125 -6.40625 -0.828125 C -7.03125 -0.828125 -7.554688 -1.050781 -7.984375 -1.5 C -8.410156 -1.957031 -8.625 -2.554688 -8.625 -3.296875 C -8.625 -4.046875 -8.40625 -4.648438 -7.96875 -5.109375 C -7.53125 -5.566406 -7 -5.796875 -6.375 -5.796875 C -5.976562 -5.796875 -5.632812 -5.691406 -5.34375 -5.484375 C -5.050781 -5.273438 -4.820312 -4.957031 -4.65625 -4.53125 C -4.488281 -5.0625 -4.210938 -5.460938 -3.828125 -5.734375 C -3.441406 -6.003906 -2.984375 -6.140625 -2.453125 -6.140625 C -1.722656 -6.140625 -1.109375 -5.878906 -0.609375 -5.359375 C -0.109375 -4.847656 0.140625 -4.164062 0.140625 -3.3125 C 0.140625 -2.46875 -0.109375 -1.785156 -0.609375 -1.265625 C -1.109375 -0.742188 -1.734375 -0.484375 -2.484375 -0.484375 C -3.046875 -0.484375 -3.515625 -0.625 -3.890625 -0.90625 C -4.265625 -1.195312 -4.519531 -1.601562 -4.65625 -2.125 Z M -6.453125 -1.90625 C -6.046875 -1.90625 -5.710938 -2.035156 -5.453125 -2.296875 C -5.191406 -2.566406 -5.0625 -2.910156 -5.0625 -3.328125 C -5.0625 -3.734375 -5.1875 -4.066406 -5.4375 -4.328125 C -5.695312 -4.585938 -6.015625 -4.71875 -6.390625 -4.71875 C -6.773438 -4.71875 -7.097656 -4.582031 -7.359375 -4.3125 C -7.628906 -4.039062 -7.765625 -3.707031 -7.765625 -3.3125 C -7.765625 -2.90625 -7.632812 -2.566406 -7.375 -2.296875 C -7.113281 -2.035156 -6.804688 -1.90625 -6.453125 -1.90625 Z M -2.484375 -1.578125 C -2.179688 -1.578125 -1.890625 -1.644531 -1.609375 -1.78125 C -1.328125 -1.925781 -1.109375 -2.140625 -0.953125 -2.421875 C -0.796875 -2.703125 -0.71875 -3.003906 -0.71875 -3.328125 C -0.71875 -3.828125 -0.878906 -4.238281 -1.203125 -4.5625 C -1.523438 -4.894531 -1.9375 -5.0625 -2.4375 -5.0625 C -2.945312 -5.0625 -3.367188 -4.894531 -3.703125 -4.5625 C -4.035156 -4.226562 -4.203125 -3.804688 -4.203125 -3.296875 C -4.203125 -2.796875 -4.035156 -2.382812 -3.703125 -2.0625 C -3.378906 -1.738281 -2.972656 -1.578125 -2.484375 -1.578125 Z M -2.484375 -1.578125 "/>
</g>
<g id="glyph-2-20">
<path d="M -3.75 -6.34375 L -3.75 -0.671875 L -4.734375 -0.671875 L -4.734375 -6.34375 Z M -3.75 -6.34375 "/>
</g>
<g id="glyph-2-21">
<path d="M 0 -0.890625 L -8.59375 -0.890625 L -8.59375 -2.609375 L -2.515625 -4.640625 C -1.941406 -4.828125 -1.515625 -4.960938 -1.234375 -5.046875 C -1.546875 -5.140625 -2.003906 -5.289062 -2.609375 -5.5 L -8.59375 -7.5625 L -8.59375 -9.09375 L 0 -9.09375 L 0 -8 L -7.1875 -8 L 0 -5.5 L 0 -4.46875 L -7.3125 -1.984375 L 0 -1.984375 Z M 0 -0.890625 "/>
</g>
<g id="glyph-2-22">
<path d="M -7.375 -0.796875 L -8.59375 -0.796875 L -8.59375 -1.859375 L -7.375 -1.859375 Z M 0 -0.796875 L -6.21875 -0.796875 L -6.21875 -1.859375 L 0 -1.859375 Z M 0 -0.796875 "/>
</g>
<g id="glyph-2-23">
<path d="M 0 -0.953125 L -8.59375 -0.953125 L -8.59375 -7.15625 L -7.578125 -7.15625 L -7.578125 -2.09375 L -4.953125 -2.09375 L -4.953125 -6.84375 L -3.9375 -6.84375 L -3.9375 -2.09375 L -1.015625 -2.09375 L -1.015625 -7.359375 L 0 -7.359375 Z M 0 -0.953125 "/>
</g>
<g id="glyph-2-24">
<path d="M 0 -1.046875 L -5.40625 -1.046875 L -5.40625 -0.109375 L -6.21875 -0.109375 L -6.21875 -1.046875 L -6.890625 -1.046875 C -7.304688 -1.046875 -7.613281 -1.082031 -7.8125 -1.15625 C -8.09375 -1.257812 -8.316406 -1.4375 -8.484375 -1.6875 C -8.648438 -1.945312 -8.734375 -2.304688 -8.734375 -2.765625 C -8.734375 -3.066406 -8.695312 -3.394531 -8.625 -3.75 L -7.71875 -3.59375 C -7.75 -3.375 -7.765625 -3.164062 -7.765625 -2.96875 C -7.765625 -2.644531 -7.695312 -2.414062 -7.5625 -2.28125 C -7.425781 -2.15625 -7.171875 -2.09375 -6.796875 -2.09375 L -6.21875 -2.09375 L -6.21875 -3.3125 L -5.40625 -3.3125 L -5.40625 -2.09375 L 0 -2.09375 Z M 0 -1.046875 "/>
</g>
<g id="glyph-2-25">
<path d="M -2.28125 -4.859375 L -2.140625 -5.890625 C -1.429688 -5.773438 -0.875 -5.484375 -0.46875 -5.015625 C -0.0625 -4.546875 0.140625 -3.972656 0.140625 -3.296875 C 0.140625 -2.441406 -0.132812 -1.753906 -0.6875 -1.234375 C -1.25 -0.722656 -2.050781 -0.46875 -3.09375 -0.46875 C -3.757812 -0.46875 -4.34375 -0.578125 -4.84375 -0.796875 C -5.351562 -1.023438 -5.734375 -1.363281 -5.984375 -1.8125 C -6.234375 -2.269531 -6.359375 -2.769531 -6.359375 -3.3125 C -6.359375 -3.976562 -6.1875 -4.523438 -5.84375 -4.953125 C -5.507812 -5.390625 -5.023438 -5.671875 -4.390625 -5.796875 L -4.234375 -4.765625 C -4.648438 -4.671875 -4.960938 -4.5 -5.171875 -4.25 C -5.390625 -4 -5.5 -3.695312 -5.5 -3.34375 C -5.5 -2.8125 -5.304688 -2.378906 -4.921875 -2.046875 C -4.546875 -1.710938 -3.945312 -1.546875 -3.125 -1.546875 C -2.28125 -1.546875 -1.671875 -1.707031 -1.296875 -2.03125 C -0.921875 -2.351562 -0.734375 -2.769531 -0.734375 -3.28125 C -0.734375 -3.695312 -0.859375 -4.039062 -1.109375 -4.3125 C -1.359375 -4.59375 -1.75 -4.773438 -2.28125 -4.859375 Z M -2.28125 -4.859375 "/>
</g>
<g id="glyph-2-26">
<path d="M -1.859375 -0.375 L -2.015625 -1.40625 C -1.597656 -1.46875 -1.28125 -1.628906 -1.0625 -1.890625 C -0.84375 -2.160156 -0.734375 -2.539062 -0.734375 -3.03125 C -0.734375 -3.507812 -0.828125 -3.863281 -1.015625 -4.09375 C -1.210938 -4.332031 -1.445312 -4.453125 -1.71875 -4.453125 C -1.957031 -4.453125 -2.144531 -4.347656 -2.28125 -4.140625 C -2.375 -3.992188 -2.492188 -3.632812 -2.640625 -3.0625 C -2.835938 -2.289062 -3.003906 -1.753906 -3.140625 -1.453125 C -3.285156 -1.160156 -3.484375 -0.9375 -3.734375 -0.78125 C -3.984375 -0.625 -4.265625 -0.546875 -4.578125 -0.546875 C -4.847656 -0.546875 -5.101562 -0.609375 -5.34375 -0.734375 C -5.582031 -0.859375 -5.78125 -1.03125 -5.9375 -1.25 C -6.050781 -1.414062 -6.148438 -1.640625 -6.234375 -1.921875 C -6.316406 -2.203125 -6.359375 -2.507812 -6.359375 -2.84375 C -6.359375 -3.320312 -6.285156 -3.742188 -6.140625 -4.109375 C -6.003906 -4.484375 -5.816406 -4.757812 -5.578125 -4.9375 C -5.335938 -5.113281 -5.019531 -5.234375 -4.625 -5.296875 L -4.484375 -4.265625 C -4.796875 -4.222656 -5.039062 -4.085938 -5.21875 -3.859375 C -5.40625 -3.640625 -5.5 -3.320312 -5.5 -2.90625 C -5.5 -2.425781 -5.414062 -2.082031 -5.25 -1.875 C -5.09375 -1.664062 -4.90625 -1.5625 -4.6875 -1.5625 C -4.550781 -1.5625 -4.429688 -1.601562 -4.328125 -1.6875 C -4.210938 -1.78125 -4.117188 -1.914062 -4.046875 -2.09375 C -4.003906 -2.195312 -3.914062 -2.507812 -3.78125 -3.03125 C -3.570312 -3.78125 -3.40625 -4.300781 -3.28125 -4.59375 C -3.15625 -4.882812 -2.972656 -5.113281 -2.734375 -5.28125 C -2.492188 -5.445312 -2.191406 -5.53125 -1.828125 -5.53125 C -1.472656 -5.53125 -1.140625 -5.425781 -0.828125 -5.21875 C -0.523438 -5.019531 -0.285156 -4.726562 -0.109375 -4.34375 C 0.0546875 -3.957031 0.140625 -3.519531 0.140625 -3.03125 C 0.140625 -2.21875 -0.0234375 -1.597656 -0.359375 -1.171875 C -0.703125 -0.753906 -1.203125 -0.488281 -1.859375 -0.375 Z M -1.859375 -0.375 "/>
</g>
</g>
</defs>
<path fill-rule="nonzero" fill="rgb(67.843628%, 84.706116%, 90.196228%)" fill-opacity="1" stroke-width="0.75" stroke-linecap="round" stroke-linejoin="round" stroke="rgb(0%, 0%, 0%)" stroke-opacity="1" stroke-miterlimit="10" d="M 66.398438 74.980469 L 85.96875 74.980469 L 85.96875 218.960938 L 66.398438 218.960938 Z M 66.398438 74.980469 " transform="matrix(1, 0, 0, -1, 0, 288)"/>
<path fill-rule="nonzero" fill="rgb(100%, 75.294495%, 79.608154%)" fill-opacity="1" stroke-width="0.75" stroke-linecap="round" stroke-linejoin="round" stroke="rgb(0%, 0%, 0%)" stroke-opacity="1" stroke-miterlimit="10" d="M 66.398438 218.960938 L 85.96875 218.960938 L 85.96875 228.960938 L 66.398438 228.960938 Z M 66.398438 218.960938 " transform="matrix(1, 0, 0, -1, 0, 288)"/>
<path fill="none" stroke-width="0.75" stroke-linecap="round" stroke-linejoin="round" stroke="rgb(0%, 0%, 0%)" stroke-opacity="1" stroke-miterlimit="10" d="M 89.890625 74.980469 L 109.460938 74.980469 Z M 89.890625 74.980469 " transform="matrix(1, 0, 0, -1, 0, 288)"/>
<path fill="none" stroke-width="0.75" stroke-linecap="round" stroke-linejoin="round" stroke="rgb(0%, 0%, 0%)" stroke-opacity="1" stroke-miterlimit="10" d="M 89.890625 74.980469 L 109.460938 74.980469 Z M 89.890625 74.980469 " transform="matrix(1, 0, 0, -1, 0, 288)"/>
<path fill="none" stroke-width="0.75" stroke-linecap="round" stroke-linejoin="round" stroke="rgb(0%, 0%, 0%)" stroke-opacity="1" stroke-miterlimit="10" d="M 113.378906 74.980469 L 132.949219 74.980469 Z M 113.378906 74.980469 " transform="matrix(1, 0, 0, -1, 0, 288)"/>
<path fill="none" stroke-width="0.75" stroke-linecap="round" stroke-linejoin="round" stroke="rgb(0%, 0%, 0%)" stroke-opacity="1" stroke-miterlimit="10" d="M 113.378906 74.980469 L 132.949219 74.980469 Z M 113.378906 74.980469 " transform="matrix(1, 0, 0, -1, 0, 288)"/>
<path fill-rule="nonzero" fill="rgb(67.843628%, 84.706116%, 90.196228%)" fill-opacity="1" stroke-width="0.75" stroke-linecap="round" stroke-linejoin="round" stroke="rgb(0%, 0%, 0%)" stroke-opacity="1" stroke-miterlimit="10" d="M 136.871094 74.980469 L 156.441406 74.980469 L 156.441406 79.121094 L 136.871094 79.121094 Z M 136.871094 74.980469 " transform="matrix(1, 0, 0, -1, 0, 288)"/>
<path fill-rule="nonzero" fill="rgb(100%, 75.294495%, 79.608154%)" fill-opacity="1" stroke-width="0.75" stroke-linecap="round" stroke-linejoin="round" stroke="rgb(0%, 0%, 0%)" stroke-opacity="1" stroke-miterlimit="10" d="M 136.871094 79.121094 L 156.441406 79.121094 L 156.441406 84.050781 L 136.871094 84.050781 Z M 136.871094 79.121094 " transform="matrix(1, 0, 0, -1, 0, 288)"/>
<path fill="none" stroke-width="0.75" stroke-linecap="round" stroke-linejoin="round" stroke="rgb(0%, 0%, 0%)" stroke-opacity="1" stroke-miterlimit="10" d="M 160.359375 74.980469 L 179.929688 74.980469 Z M 160.359375 74.980469 " transform="matrix(1, 0, 0, -1, 0, 288)"/>
<path fill="none" stroke-width="0.75" stroke-linecap="round" stroke-linejoin="round" stroke="rgb(0%, 0%, 0%)" stroke-opacity="1" stroke-miterlimit="10" d="M 160.359375 74.980469 L 179.929688 74.980469 Z M 160.359375 74.980469 " transform="matrix(1, 0, 0, -1, 0, 288)"/>
<path fill-rule="nonzero" fill="rgb(67.843628%, 84.706116%, 90.196228%)" fill-opacity="1" stroke-width="0.75" stroke-linecap="round" stroke-linejoin="round" stroke="rgb(0%, 0%, 0%)" stroke-opacity="1" stroke-miterlimit="10" d="M 183.851562 74.980469 L 203.421875 74.980469 L 203.421875 79.628906 L 183.851562 79.628906 Z M 183.851562 74.980469 " transform="matrix(1, 0, 0, -1, 0, 288)"/>
<path fill-rule="nonzero" fill="rgb(100%, 75.294495%, 79.608154%)" fill-opacity="1" stroke-width="0.75" stroke-linecap="round" stroke-linejoin="round" stroke="rgb(0%, 0%, 0%)" stroke-opacity="1" stroke-miterlimit="10" d="M 183.851562 79.628906 L 203.421875 79.628906 L 203.421875 84.460938 L 183.851562 84.460938 Z M 183.851562 79.628906 " transform="matrix(1, 0, 0, -1, 0, 288)"/>
<path fill-rule="nonzero" fill="rgb(67.843628%, 84.706116%, 90.196228%)" fill-opacity="1" stroke-width="0.75" stroke-linecap="round" stroke-linejoin="round" stroke="rgb(0%, 0%, 0%)" stroke-opacity="1" stroke-miterlimit="10" d="M 207.339844 74.980469 L 226.910156 74.980469 L 226.910156 79.421875 L 207.339844 79.421875 Z M 207.339844 74.980469 " transform="matrix(1, 0, 0, -1, 0, 288)"/>
<path fill-rule="nonzero" fill="rgb(100%, 75.294495%, 79.608154%)" fill-opacity="1" stroke-width="0.75" stroke-linecap="round" stroke-linejoin="round" stroke="rgb(0%, 0%, 0%)" stroke-opacity="1" stroke-miterlimit="10" d="M 207.339844 79.421875 L 226.910156 79.421875 L 226.910156 84.089844 L 207.339844 84.089844 Z M 207.339844 79.421875 " transform="matrix(1, 0, 0, -1, 0, 288)"/>
<path fill="none" stroke-width="0.75" stroke-linecap="round" stroke-linejoin="round" stroke="rgb(0%, 0%, 0%)" stroke-opacity="1" stroke-miterlimit="10" d="M 230.828125 74.980469 L 250.398438 74.980469 Z M 230.828125 74.980469 " transform="matrix(1, 0, 0, -1, 0, 288)"/>
<path fill-rule="nonzero" fill="rgb(100%, 75.294495%, 79.608154%)" fill-opacity="1" stroke-width="0.75" stroke-linecap="round" stroke-linejoin="round" stroke="rgb(0%, 0%, 0%)" stroke-opacity="1" stroke-miterlimit="10" d="M 230.828125 74.980469 L 250.398438 74.980469 L 250.398438 77.199219 L 230.828125 77.199219 Z M 230.828125 74.980469 " transform="matrix(1, 0, 0, -1, 0, 288)"/>
<g fill="rgb(0%, 0%, 0%)" fill-opacity="1">
<use xlink:href="#glyph-0-0" x="69.85" y="240.48"/>
<use xlink:href="#glyph-0-1" x="75.85" y="240.48"/>
</g>
<g fill="rgb(0%, 0%, 0%)" fill-opacity="1">
<use xlink:href="#glyph-0-0" x="93.34" y="240.48"/>
<use xlink:href="#glyph-0-2" x="99.34" y="240.48"/>
</g>
<g fill="rgb(0%, 0%, 0%)" fill-opacity="1">
<use xlink:href="#glyph-0-0" x="116.83" y="240.48"/>
<use xlink:href="#glyph-0-3" x="122.83" y="240.48"/>
</g>
<g fill="rgb(0%, 0%, 0%)" fill-opacity="1">
<use xlink:href="#glyph-0-0" x="140.32" y="240.48"/>
<use xlink:href="#glyph-0-4" x="146.32" y="240.48"/>
</g>
<g fill="rgb(0%, 0%, 0%)" fill-opacity="1">
<use xlink:href="#glyph-0-0" x="163.81" y="240.48"/>
<use xlink:href="#glyph-0-5" x="169.81" y="240.48"/>
</g>
<g fill="rgb(0%, 0%, 0%)" fill-opacity="1">
<use xlink:href="#glyph-0-0" x="187.3" y="240.48"/>
<use xlink:href="#glyph-0-6" x="193.3" y="240.48"/>
</g>
<g fill="rgb(0%, 0%, 0%)" fill-opacity="1">
<use xlink:href="#glyph-0-0" x="210.79" y="240.48"/>
<use xlink:href="#glyph-0-7" x="216.79" y="240.48"/>
</g>
<g fill="rgb(0%, 0%, 0%)" fill-opacity="1">
<use xlink:href="#glyph-0-0" x="234.28" y="240.48"/>
<use xlink:href="#glyph-0-8" x="240.28" y="240.48"/>
</g>
<path fill-rule="nonzero" fill="rgb(100%, 75.294495%, 79.608154%)" fill-opacity="1" stroke-width="0.75" stroke-linecap="round" stroke-linejoin="round" stroke="rgb(0%, 0%, 0%)" stroke-opacity="1" stroke-miterlimit="10" d="M 145.359375 210.960938 L 154 210.960938 L 154 203.761719 L 145.359375 203.761719 Z M 145.359375 210.960938 " transform="matrix(1, 0, 0, -1, 0, 288)"/>
<path fill-rule="nonzero" fill="rgb(67.843628%, 84.706116%, 90.196228%)" fill-opacity="1" stroke-width="0.75" stroke-linecap="round" stroke-linejoin="round" stroke="rgb(0%, 0%, 0%)" stroke-opacity="1" stroke-miterlimit="10" d="M 145.359375 196.558594 L 154 196.558594 L 154 189.359375 L 145.359375 189.359375 Z M 145.359375 196.558594 " transform="matrix(1, 0, 0, -1, 0, 288)"/>
<g fill="rgb(0%, 0%, 0%)" fill-opacity="1">
<use xlink:href="#glyph-0-9" x="164.8" y="84.95"/>
<use xlink:href="#glyph-0-10" x="168.136" y="84.95"/>
<use xlink:href="#glyph-0-9" x="174.808" y="84.95"/>
<use xlink:href="#glyph-0-11" x="178.144" y="84.95"/>
<use xlink:href="#glyph-0-12" x="184.816" y="84.95"/>
<use xlink:href="#glyph-0-13" x="187.48" y="84.95"/>
<use xlink:href="#glyph-0-14" x="194.488" y="84.95"/>
<use xlink:href="#glyph-0-15" x="197.824" y="84.95"/>
<use xlink:href="#glyph-0-16" x="200.488" y="84.95"/>
<use xlink:href="#glyph-0-17" x="204.484" y="84.95"/>
<use xlink:href="#glyph-0-9" x="210.484" y="84.95"/>
<use xlink:href="#glyph-0-18" x="213.82" y="84.95"/>
<use xlink:href="#glyph-0-10" x="217.156" y="84.95"/>
<use xlink:href="#glyph-0-16" x="223.828" y="84.95"/>
<use xlink:href="#glyph-0-19" x="227.824" y="84.95"/>
<use xlink:href="#glyph-0-20" x="234.496" y="84.95"/>
<use xlink:href="#glyph-0-16" x="241.168" y="84.95"/>
</g>
<g fill="rgb(0%, 0%, 0%)" fill-opacity="1">
<use xlink:href="#glyph-0-14" x="164.8" y="99.35"/>
<use xlink:href="#glyph-0-15" x="168.136" y="99.35"/>
<use xlink:href="#glyph-0-16" x="170.8" y="99.35"/>
<use xlink:href="#glyph-0-17" x="174.796" y="99.35"/>
<use xlink:href="#glyph-0-9" x="180.796" y="99.35"/>
<use xlink:href="#glyph-0-18" x="184.132" y="99.35"/>
<use xlink:href="#glyph-0-10" x="187.468" y="99.35"/>
<use xlink:href="#glyph-0-16" x="194.14" y="99.35"/>
<use xlink:href="#glyph-0-19" x="198.136" y="99.35"/>
<use xlink:href="#glyph-0-20" x="204.808" y="99.35"/>
<use xlink:href="#glyph-0-16" x="211.48" y="99.35"/>
</g>
<g fill="rgb(0%, 0%, 0%)" fill-opacity="1">
<use xlink:href="#glyph-1-0" x="110.94" y="34.55"/>
<use xlink:href="#glyph-1-1" x="120.278" y="34.55"/>
<use xlink:href="#glyph-1-2" x="128.832" y="34.55"/>
<use xlink:href="#glyph-1-1" x="137.386" y="34.55"/>
<use xlink:href="#glyph-1-3" x="145.94" y="34.55"/>
<use xlink:href="#glyph-1-4" x="149.832" y="34.55"/>
<use xlink:href="#glyph-1-5" x="153.164" y="34.55"/>
<use xlink:href="#glyph-1-6" x="157.056" y="34.55"/>
<use xlink:href="#glyph-1-7" x="160.948" y="34.55"/>
<use xlink:href="#glyph-1-8" x="169.502" y="34.55"/>
<use xlink:href="#glyph-1-9" x="178.056" y="34.55"/>
<use xlink:href="#glyph-1-10" x="181.948" y="34.55"/>
<use xlink:href="#glyph-1-11" x="189.732" y="34.55"/>
<use xlink:href="#glyph-1-12" x="197.516" y="34.55"/>
</g>
<g fill="rgb(0%, 0%, 0%)" fill-opacity="1">
<use xlink:href="#glyph-2-0" x="12.96" y="183.92"/>
</g>
<g fill="rgb(0%, 0%, 0%)" fill-opacity="1">
<use xlink:href="#glyph-2-1" x="12.96" y="178.028"/>
<use xlink:href="#glyph-2-2" x="12.96" y="171.356"/>
<use xlink:href="#glyph-2-3" x="12.96" y="168.02"/>
<use xlink:href="#glyph-2-4" x="12.96" y="161.348"/>
<use xlink:href="#glyph-2-5" x="12.96" y="158.684"/>
<use xlink:href="#glyph-2-6" x="12.96" y="155.348"/>
<use xlink:href="#glyph-2-1" x="12.96" y="147.344"/>
<use xlink:href="#glyph-2-7" x="12.96" y="140.672"/>
<use xlink:href="#glyph-2-1" x="12.96" y="134"/>
<use xlink:href="#glyph-2-4" x="12.96" y="127.328"/>
<use xlink:href="#glyph-2-8" x="12.96" y="124.664"/>
<use xlink:href="#glyph-2-5" x="12.96" y="122.372"/>
<use xlink:href="#glyph-2-9" x="12.96" y="119.036"/>
<use xlink:href="#glyph-2-10" x="12.96" y="115.7"/>
<use xlink:href="#glyph-2-11" x="12.96" y="109.028"/>
<use xlink:href="#glyph-2-12" x="12.96" y="102.356"/>
</g>
<g fill="rgb(0%, 0%, 0%)" fill-opacity="1">
<use xlink:href="#glyph-2-13" x="12.96" y="96.044"/>
</g>
<path fill="none" stroke-width="0.75" stroke-linecap="round" stroke-linejoin="round" stroke="rgb(0%, 0%, 0%)" stroke-opacity="1" stroke-miterlimit="10" d="M 59.039062 74.980469 L 59.039062 214.449219 " transform="matrix(1, 0, 0, -1, 0, 288)"/>
<path fill="none" stroke-width="0.75" stroke-linecap="round" stroke-linejoin="round" stroke="rgb(0%, 0%, 0%)" stroke-opacity="1" stroke-miterlimit="10" d="M 59.039062 74.980469 L 51.839844 74.980469 " transform="matrix(1, 0, 0, -1, 0, 288)"/>
<path fill="none" stroke-width="0.75" stroke-linecap="round" stroke-linejoin="round" stroke="rgb(0%, 0%, 0%)" stroke-opacity="1" stroke-miterlimit="10" d="M 59.039062 109.851562 L 51.839844 109.851562 " transform="matrix(1, 0, 0, -1, 0, 288)"/>
<path fill="none" stroke-width="0.75" stroke-linecap="round" stroke-linejoin="round" stroke="rgb(0%, 0%, 0%)" stroke-opacity="1" stroke-miterlimit="10" d="M 59.039062 144.710938 L 51.839844 144.710938 " transform="matrix(1, 0, 0, -1, 0, 288)"/>
<path fill="none" stroke-width="0.75" stroke-linecap="round" stroke-linejoin="round" stroke="rgb(0%, 0%, 0%)" stroke-opacity="1" stroke-miterlimit="10" d="M 59.039062 179.578125 L 51.839844 179.578125 " transform="matrix(1, 0, 0, -1, 0, 288)"/>
<path fill="none" stroke-width="0.75" stroke-linecap="round" stroke-linejoin="round" stroke="rgb(0%, 0%, 0%)" stroke-opacity="1" stroke-miterlimit="10" d="M 59.039062 214.449219 L 51.839844 214.449219 " transform="matrix(1, 0, 0, -1, 0, 288)"/>
<g fill="rgb(0%, 0%, 0%)" fill-opacity="1">
<use xlink:href="#glyph-2-14" x="41.76" y="221.36"/>
<use xlink:href="#glyph-2-15" x="41.76" y="214.688"/>
<use xlink:href="#glyph-2-14" x="41.76" y="211.352"/>
</g>
<g fill="rgb(0%, 0%, 0%)" fill-opacity="1">
<use xlink:href="#glyph-2-14" x="41.76" y="186.49"/>
<use xlink:href="#glyph-2-15" x="41.76" y="179.818"/>
<use xlink:href="#glyph-2-16" x="41.76" y="176.482"/>
</g>
<g fill="rgb(0%, 0%, 0%)" fill-opacity="1">
<use xlink:href="#glyph-2-14" x="41.76" y="151.63"/>
<use xlink:href="#glyph-2-15" x="41.76" y="144.958"/>
<use xlink:href="#glyph-2-17" x="41.76" y="141.622"/>
</g>
<g fill="rgb(0%, 0%, 0%)" fill-opacity="1">
<use xlink:href="#glyph-2-14" x="41.76" y="116.76"/>
<use xlink:href="#glyph-2-15" x="41.76" y="110.088"/>
<use xlink:href="#glyph-2-18" x="41.76" y="106.752"/>
</g>
<g fill="rgb(0%, 0%, 0%)" fill-opacity="1">
<use xlink:href="#glyph-2-14" x="41.76" y="81.89"/>
<use xlink:href="#glyph-2-15" x="41.76" y="75.218"/>
<use xlink:href="#glyph-2-19" x="41.76" y="71.882"/>
</g>
<path fill="none" stroke-width="0.75" stroke-linecap="round" stroke-linejoin="round" stroke="rgb(0%, 0%, 0%)" stroke-opacity="1" stroke-miterlimit="10" d="M 354.398438 79.199219 L 364.078125 83.261719 L 373.769531 87.738281 L 383.449219 92.621094 L 393.140625 97.890625 L 402.820312 103.550781 L 412.511719 109.601562 L 422.191406 116.03125 L 431.871094 122.851562 L 441.558594 130.058594 L 451.238281 137.671875 L 460.929688 145.671875 L 470.609375 154.078125 L 480.289062 162.890625 L 489.980469 172.078125 L 499.660156 181.660156 L 509.351562 191.589844 L 519.03125 201.851562 L 528.71875 212.410156 L 538.398438 223.199219 " transform="matrix(1, 0, 0, -1, 0, 288)"/>
<path fill="none" stroke-width="0.75" stroke-linecap="round" stroke-linejoin="round" stroke="rgb(0%, 0%, 0%)" stroke-opacity="1" stroke-miterlimit="10" d="M 354.398438 73.441406 L 538.398438 73.441406 " transform="matrix(1, 0, 0, -1, 0, 288)"/>
<path fill="none" stroke-width="0.75" stroke-linecap="round" stroke-linejoin="round" stroke="rgb(0%, 0%, 0%)" stroke-opacity="1" stroke-miterlimit="10" d="M 354.398438 73.441406 L 354.398438 66.238281 " transform="matrix(1, 0, 0, -1, 0, 288)"/>
<path fill="none" stroke-width="0.75" stroke-linecap="round" stroke-linejoin="round" stroke="rgb(0%, 0%, 0%)" stroke-opacity="1" stroke-miterlimit="10" d="M 391.199219 73.441406 L 391.199219 66.238281 " transform="matrix(1, 0, 0, -1, 0, 288)"/>
<path fill="none" stroke-width="0.75" stroke-linecap="round" stroke-linejoin="round" stroke="rgb(0%, 0%, 0%)" stroke-opacity="1" stroke-miterlimit="10" d="M 428 73.441406 L 428 66.238281 " transform="matrix(1, 0, 0, -1, 0, 288)"/>
<path fill="none" stroke-width="0.75" stroke-linecap="round" stroke-linejoin="round" stroke="rgb(0%, 0%, 0%)" stroke-opacity="1" stroke-miterlimit="10" d="M 464.800781 73.441406 L 464.800781 66.238281 " transform="matrix(1, 0, 0, -1, 0, 288)"/>
<path fill="none" stroke-width="0.75" stroke-linecap="round" stroke-linejoin="round" stroke="rgb(0%, 0%, 0%)" stroke-opacity="1" stroke-miterlimit="10" d="M 501.601562 73.441406 L 501.601562 66.238281 " transform="matrix(1, 0, 0, -1, 0, 288)"/>
<path fill="none" stroke-width="0.75" stroke-linecap="round" stroke-linejoin="round" stroke="rgb(0%, 0%, 0%)" stroke-opacity="1" stroke-miterlimit="10" d="M 538.398438 73.441406 L 538.398438 66.238281 " transform="matrix(1, 0, 0, -1, 0, 288)"/>
<g fill="rgb(0%, 0%, 0%)" fill-opacity="1">
<use xlink:href="#glyph-0-21" x="346.06" y="240.48"/>
<use xlink:href="#glyph-0-22" x="352.732" y="240.48"/>
<use xlink:href="#glyph-0-21" x="356.068" y="240.48"/>
</g>
<g fill="rgb(0%, 0%, 0%)" fill-opacity="1">
<use xlink:href="#glyph-0-21" x="382.86" y="240.48"/>
<use xlink:href="#glyph-0-22" x="389.532" y="240.48"/>
<use xlink:href="#glyph-0-2" x="392.868" y="240.48"/>
</g>
<g fill="rgb(0%, 0%, 0%)" fill-opacity="1">
<use xlink:href="#glyph-0-21" x="419.66" y="240.48"/>
<use xlink:href="#glyph-0-22" x="426.332" y="240.48"/>
<use xlink:href="#glyph-0-4" x="429.668" y="240.48"/>
</g>
<g fill="rgb(0%, 0%, 0%)" fill-opacity="1">
<use xlink:href="#glyph-0-21" x="456.46" y="240.48"/>
<use xlink:href="#glyph-0-22" x="463.132" y="240.48"/>
<use xlink:href="#glyph-0-6" x="466.468" y="240.48"/>
</g>
<g fill="rgb(0%, 0%, 0%)" fill-opacity="1">
<use xlink:href="#glyph-0-21" x="493.26" y="240.48"/>
<use xlink:href="#glyph-0-22" x="499.932" y="240.48"/>
<use xlink:href="#glyph-0-8" x="503.268" y="240.48"/>
</g>
<g fill="rgb(0%, 0%, 0%)" fill-opacity="1">
<use xlink:href="#glyph-0-1" x="530.06" y="240.48"/>
<use xlink:href="#glyph-0-22" x="536.732" y="240.48"/>
<use xlink:href="#glyph-0-21" x="540.068" y="240.48"/>
</g>
<path fill="none" stroke-width="0.75" stroke-linecap="round" stroke-linejoin="round" stroke="rgb(0%, 0%, 0%)" stroke-opacity="1" stroke-miterlimit="10" d="M 347.039062 77.941406 L 347.039062 219.929688 " transform="matrix(1, 0, 0, -1, 0, 288)"/>
<path fill="none" stroke-width="0.75" stroke-linecap="round" stroke-linejoin="round" stroke="rgb(0%, 0%, 0%)" stroke-opacity="1" stroke-miterlimit="10" d="M 347.039062 77.941406 L 339.839844 77.941406 " transform="matrix(1, 0, 0, -1, 0, 288)"/>
<path fill="none" stroke-width="0.75" stroke-linecap="round" stroke-linejoin="round" stroke="rgb(0%, 0%, 0%)" stroke-opacity="1" stroke-miterlimit="10" d="M 347.039062 98.21875 L 339.839844 98.21875 " transform="matrix(1, 0, 0, -1, 0, 288)"/>
<path fill="none" stroke-width="0.75" stroke-linecap="round" stroke-linejoin="round" stroke="rgb(0%, 0%, 0%)" stroke-opacity="1" stroke-miterlimit="10" d="M 347.039062 118.511719 L 339.839844 118.511719 " transform="matrix(1, 0, 0, -1, 0, 288)"/>
<path fill="none" stroke-width="0.75" stroke-linecap="round" stroke-linejoin="round" stroke="rgb(0%, 0%, 0%)" stroke-opacity="1" stroke-miterlimit="10" d="M 347.039062 138.789062 L 339.839844 138.789062 " transform="matrix(1, 0, 0, -1, 0, 288)"/>
<path fill="none" stroke-width="0.75" stroke-linecap="round" stroke-linejoin="round" stroke="rgb(0%, 0%, 0%)" stroke-opacity="1" stroke-miterlimit="10" d="M 347.039062 159.078125 L 339.839844 159.078125 " transform="matrix(1, 0, 0, -1, 0, 288)"/>
<path fill="none" stroke-width="0.75" stroke-linecap="round" stroke-linejoin="round" stroke="rgb(0%, 0%, 0%)" stroke-opacity="1" stroke-miterlimit="10" d="M 347.039062 179.359375 L 339.839844 179.359375 " transform="matrix(1, 0, 0, -1, 0, 288)"/>
<path fill="none" stroke-width="0.75" stroke-linecap="round" stroke-linejoin="round" stroke="rgb(0%, 0%, 0%)" stroke-opacity="1" stroke-miterlimit="10" d="M 347.039062 199.648438 L 339.839844 199.648438 " transform="matrix(1, 0, 0, -1, 0, 288)"/>
<path fill="none" stroke-width="0.75" stroke-linecap="round" stroke-linejoin="round" stroke="rgb(0%, 0%, 0%)" stroke-opacity="1" stroke-miterlimit="10" d="M 347.039062 219.929688 L 339.839844 219.929688 " transform="matrix(1, 0, 0, -1, 0, 288)"/>
<g fill="rgb(0%, 0%, 0%)" fill-opacity="1">
<use xlink:href="#glyph-2-20" x="329.76" y="220.24"/>
<use xlink:href="#glyph-2-18" x="329.76" y="213.232"/>
<use xlink:href="#glyph-2-14" x="329.76" y="206.56"/>
</g>
<g fill="rgb(0%, 0%, 0%)" fill-opacity="1">
<use xlink:href="#glyph-2-20" x="329.76" y="179.67"/>
<use xlink:href="#glyph-2-16" x="329.76" y="172.662"/>
<use xlink:href="#glyph-2-14" x="329.76" y="165.99"/>
</g>
<g fill="rgb(0%, 0%, 0%)" fill-opacity="1">
<use xlink:href="#glyph-2-16" x="329.76" y="135.6"/>
<use xlink:href="#glyph-2-14" x="329.76" y="128.928"/>
</g>
<g fill="rgb(0%, 0%, 0%)" fill-opacity="1">
<use xlink:href="#glyph-2-18" x="329.76" y="95.03"/>
<use xlink:href="#glyph-2-14" x="329.76" y="88.358"/>
</g>
<path fill="none" stroke-width="0.75" stroke-linecap="round" stroke-linejoin="round" stroke="rgb(0%, 0%, 0%)" stroke-opacity="1" stroke-miterlimit="10" d="M 347.039062 73.441406 L 545.761719 73.441406 L 545.761719 228.960938 L 347.039062 228.960938 Z M 347.039062 73.441406 " transform="matrix(1, 0, 0, -1, 0, 288)"/>
<g fill="rgb(0%, 0%, 0%)" fill-opacity="1">
<use xlink:href="#glyph-1-13" x="390.07" y="34.55"/>
<use xlink:href="#glyph-1-14" x="401.732" y="34.55"/>
<use xlink:href="#glyph-1-9" x="409.516" y="34.55"/>
<use xlink:href="#glyph-1-7" x="413.408" y="34.55"/>
<use xlink:href="#glyph-1-5" x="421.962" y="34.55"/>
<use xlink:href="#glyph-1-15" x="425.854" y="34.55"/>
<use xlink:href="#glyph-1-16" x="435.192" y="34.55"/>
<use xlink:href="#glyph-1-16" x="439.854" y="34.55"/>
</g>
<g fill="rgb(0%, 0%, 0%)" fill-opacity="1">
<use xlink:href="#glyph-1-11" x="444.376" y="34.55"/>
<use xlink:href="#glyph-1-10" x="452.16" y="34.55"/>
<use xlink:href="#glyph-1-17" x="459.944" y="34.55"/>
<use xlink:href="#glyph-1-12" x="464.606" y="34.55"/>
<use xlink:href="#glyph-1-5" x="472.39" y="34.55"/>
<use xlink:href="#glyph-1-18" x="476.282" y="34.55"/>
<use xlink:href="#glyph-1-3" x="485.62" y="34.55"/>
<use xlink:href="#glyph-1-1" x="489.512" y="34.55"/>
<use xlink:href="#glyph-1-17" x="498.066" y="34.55"/>
</g>
<g fill="rgb(0%, 0%, 0%)" fill-opacity="1">
<use xlink:href="#glyph-0-0" x="443.4" y="269.28"/>
</g>
<g fill="rgb(0%, 0%, 0%)" fill-opacity="1">
<use xlink:href="#glyph-2-21" x="300.96" y="169.63"/>
<use xlink:href="#glyph-2-3" x="300.96" y="159.634"/>
<use xlink:href="#glyph-2-22" x="300.96" y="152.962"/>
<use xlink:href="#glyph-2-10" x="300.96" y="150.298"/>
<use xlink:href="#glyph-2-5" x="300.96" y="143.626"/>
<use xlink:href="#glyph-2-23" x="300.96" y="140.29"/>
<use xlink:href="#glyph-2-24" x="300.96" y="132.286"/>
<use xlink:href="#glyph-2-24" x="300.96" y="128.95"/>
</g>
<g fill="rgb(0%, 0%, 0%)" fill-opacity="1">
<use xlink:href="#glyph-2-12" x="300.96" y="125.974"/>
<use xlink:href="#glyph-2-25" x="300.96" y="119.302"/>
<use xlink:href="#glyph-2-2" x="300.96" y="113.302"/>
<use xlink:href="#glyph-2-26" x="300.96" y="109.966"/>
</g>
<path fill="none" stroke-width="0.75" stroke-linecap="round" stroke-linejoin="round" stroke="rgb(87.451172%, 32.548523%, 41.960144%)" stroke-opacity="1" stroke-dasharray="2.25 3.75" stroke-miterlimit="10" d="M 354.398438 138.738281 L 364.078125 138.738281 L 373.769531 138.75 L 383.449219 138.761719 L 393.140625 138.761719 L 402.820312 138.769531 L 412.511719 138.769531 L 422.191406 138.78125 L 431.871094 138.78125 L 441.558594 138.789062 L 451.238281 138.789062 L 460.929688 138.800781 L 470.609375 138.808594 L 480.289062 138.808594 L 489.980469 138.820312 L 499.660156 138.820312 L 509.351562 138.828125 L 519.03125 138.839844 L 528.71875 138.839844 L 538.398438 138.851562 " transform="matrix(1, 0, 0, -1, 0, 288)"/>
<path fill="none" stroke-width="0.75" stroke-linecap="round" stroke-linejoin="round" stroke="rgb(38.038635%, 81.568909%, 30.979919%)" stroke-opacity="1" stroke-dasharray="0 3" stroke-miterlimit="10" d="M 354.398438 138.828125 L 373.769531 138.828125 L 383.449219 138.820312 L 393.140625 138.820312 L 402.820312 138.808594 L 412.511719 138.808594 L 422.191406 138.800781 L 431.871094 138.800781 L 441.558594 138.789062 L 451.238281 138.789062 L 460.929688 138.78125 L 480.289062 138.78125 L 489.980469 138.769531 L 499.660156 138.769531 L 509.351562 138.761719 L 519.03125 138.761719 L 528.71875 138.75 L 538.398438 138.75 " transform="matrix(1, 0, 0, -1, 0, 288)"/>
<path fill="none" stroke-width="0.75" stroke-linecap="round" stroke-linejoin="round" stroke="rgb(13.33313%, 59.216309%, 90.196228%)" stroke-opacity="1" stroke-dasharray="0 3 2.25 3" stroke-miterlimit="10" d="M 354.398438 122.921875 L 364.078125 124.601562 L 373.769531 126.289062 L 383.449219 127.988281 L 393.140625 129.691406 L 402.820312 131.398438 L 412.511719 133.101562 L 422.191406 134.808594 L 431.871094 136.519531 L 441.558594 138.230469 L 451.238281 139.941406 L 460.929688 141.648438 L 470.609375 143.351562 L 480.289062 145.058594 L 489.980469 146.761719 L 499.660156 148.460938 L 509.351562 150.160156 L 519.03125 151.859375 L 528.71875 153.550781 L 538.398438 155.25 " transform="matrix(1, 0, 0, -1, 0, 288)"/>
<path fill="none" stroke-width="0.75" stroke-linecap="round" stroke-linejoin="round" stroke="rgb(0%, 0%, 0%)" stroke-opacity="1" stroke-miterlimit="10" d="M 354.398438 138.789062 L 538.398438 138.789062 " transform="matrix(1, 0, 0, -1, 0, 288)"/>
<path fill="none" stroke-width="0.75" stroke-linecap="round" stroke-linejoin="round" stroke="rgb(87.451172%, 32.548523%, 41.960144%)" stroke-opacity="1" stroke-dasharray="2.25 3.75" stroke-miterlimit="10" d="M 354.398438 138.789062 L 538.398438 138.789062 " transform="matrix(1, 0, 0, -1, 0, 288)"/>
<path fill="none" stroke-width="0.75" stroke-linecap="round" stroke-linejoin="round" stroke="rgb(38.038635%, 81.568909%, 30.979919%)" stroke-opacity="1" stroke-dasharray="0 3" stroke-miterlimit="10" d="M 354.398438 138.789062 L 538.398438 138.789062 " transform="matrix(1, 0, 0, -1, 0, 288)"/>
<path fill="none" stroke-width="0.75" stroke-linecap="round" stroke-linejoin="round" stroke="rgb(13.33313%, 59.216309%, 90.196228%)" stroke-opacity="1" stroke-dasharray="0 3 2.25 3" stroke-miterlimit="10" d="M 354.398438 138.789062 L 538.398438 138.789062 " transform="matrix(1, 0, 0, -1, 0, 288)"/>
<path fill="none" stroke-width="0.75" stroke-linecap="round" stroke-linejoin="round" stroke="rgb(0%, 0%, 0%)" stroke-opacity="1" stroke-miterlimit="10" d="M 357.839844 214.558594 L 379.441406 214.558594 " transform="matrix(1, 0, 0, -1, 0, 288)"/>
<path fill="none" stroke-width="0.75" stroke-linecap="round" stroke-linejoin="round" stroke="rgb(87.451172%, 32.548523%, 41.960144%)" stroke-opacity="1" stroke-dasharray="2.25 3.75" stroke-miterlimit="10" d="M 357.839844 200.160156 L 379.441406 200.160156 " transform="matrix(1, 0, 0, -1, 0, 288)"/>
<path fill="none" stroke-width="0.75" stroke-linecap="round" stroke-linejoin="round" stroke="rgb(38.038635%, 81.568909%, 30.979919%)" stroke-opacity="1" stroke-dasharray="0 3" stroke-miterlimit="10" d="M 357.839844 185.761719 L 379.441406 185.761719 " transform="matrix(1, 0, 0, -1, 0, 288)"/>
<path fill="none" stroke-width="0.75" stroke-linecap="round" stroke-linejoin="round" stroke="rgb(13.33313%, 59.216309%, 90.196228%)" stroke-opacity="1" stroke-dasharray="0 3 2.25 3" stroke-miterlimit="10" d="M 357.839844 171.359375 L 379.441406 171.359375 " transform="matrix(1, 0, 0, -1, 0, 288)"/>
<path fill="none" stroke-width="0.75" stroke-linecap="round" stroke-linejoin="round" stroke="rgb(0%, 0%, 0%)" stroke-opacity="1" stroke-miterlimit="10" d="M 357.839844 156.960938 L 379.441406 156.960938 " transform="matrix(1, 0, 0, -1, 0, 288)"/>
<path fill="none" stroke-width="0.75" stroke-linecap="round" stroke-linejoin="round" stroke="rgb(87.451172%, 32.548523%, 41.960144%)" stroke-opacity="1" stroke-dasharray="2.25 3.75" stroke-miterlimit="10" d="M 357.839844 142.558594 L 379.441406 142.558594 " transform="matrix(1, 0, 0, -1, 0, 288)"/>
<path fill="none" stroke-width="0.75" stroke-linecap="round" stroke-linejoin="round" stroke="rgb(38.038635%, 81.568909%, 30.979919%)" stroke-opacity="1" stroke-dasharray="0 3" stroke-miterlimit="10" d="M 357.839844 128.160156 L 379.441406 128.160156 " transform="matrix(1, 0, 0, -1, 0, 288)"/>
<path fill="none" stroke-width="0.75" stroke-linecap="round" stroke-linejoin="round" stroke="rgb(13.33313%, 59.216309%, 90.196228%)" stroke-opacity="1" stroke-dasharray="0 3 2.25 3" stroke-miterlimit="10" d="M 357.839844 113.761719 L 379.441406 113.761719 " transform="matrix(1, 0, 0, -1, 0, 288)"/>
<g fill="rgb(0%, 0%, 0%)" fill-opacity="1">
<use xlink:href="#glyph-0-0" x="390.24" y="77.75"/>
<use xlink:href="#glyph-0-1" x="396.24" y="77.75"/>
</g>
<g fill="rgb(0%, 0%, 0%)" fill-opacity="1">
<use xlink:href="#glyph-0-0" x="390.24" y="92.15"/>
<use xlink:href="#glyph-0-2" x="396.24" y="92.15"/>
</g>
<g fill="rgb(0%, 0%, 0%)" fill-opacity="1">
<use xlink:href="#glyph-0-0" x="390.24" y="106.55"/>
<use xlink:href="#glyph-0-3" x="396.24" y="106.55"/>
</g>
<g fill="rgb(0%, 0%, 0%)" fill-opacity="1">
<use xlink:href="#glyph-0-0" x="390.24" y="120.95"/>
<use xlink:href="#glyph-0-4" x="396.24" y="120.95"/>
</g>
<g fill="rgb(0%, 0%, 0%)" fill-opacity="1">
<use xlink:href="#glyph-0-0" x="390.24" y="135.35"/>
<use xlink:href="#glyph-0-5" x="396.24" y="135.35"/>
</g>
<g fill="rgb(0%, 0%, 0%)" fill-opacity="1">
<use xlink:href="#glyph-0-0" x="390.24" y="149.75"/>
<use xlink:href="#glyph-0-6" x="396.24" y="149.75"/>
</g>
<g fill="rgb(0%, 0%, 0%)" fill-opacity="1">
<use xlink:href="#glyph-0-0" x="390.24" y="164.15"/>
<use xlink:href="#glyph-0-7" x="396.24" y="164.15"/>
</g>
<g fill="rgb(0%, 0%, 0%)" fill-opacity="1">
<use xlink:href="#glyph-0-0" x="390.24" y="178.55"/>
<use xlink:href="#glyph-0-8" x="396.24" y="178.55"/>
</g>
</svg>
